<svg width="100" height="100" viewBox="0 0 100 100" fill="none" xmlns="http://www.w3.org/2000/svg">
<mask id="mask0" mask-type="alpha" maskUnits="userSpaceOnUse" x="7" y="4" width="86" height="86">
<path d="M92.2872 4.02103H7.69312V89.1439H92.2872V4.02103Z" fill="white"/>
</mask>
<g mask="url(#mask0)">
<path d="M85.5924 45.9617L82.2201 44.831C87.3728 42.7457 92.7509 38.5813 92.2551 29.8756C91.9129 23.8513 89.2864 18.5869 87.715 15.4365L82.007 4.02081L83.1421 16.3214C83.4945 20.1765 83.3674 25.2565 81.9169 28.0137C79.9808 32.0387 73.5598 31.5963 71.2611 31.4427C67.2004 31.1723 53.9754 30.7217 49.9638 30.7217C44.6042 30.7442 38.7241 31.1764 33.9402 31.5287C31.6639 31.6967 29.6992 31.8421 28.3777 31.8913C28.2404 31.8954 28.0417 31.9138 27.7753 31.9384C19.3896 32.7127 17.9636 28.7839 17.4924 27.4913C16.6237 25.109 16.6462 19.7689 16.6564 17.4685L16.6933 7.44571L12.2925 15.582C10.9854 18.0011 8.55347 22.4994 7.72573 30.0969C7.16643 40.7956 13.9029 43.9112 16.1156 44.9334C16.4147 45.0727 16.7138 45.2017 17.0129 45.3226C16.8306 45.3799 16.6585 45.4352 16.4946 45.4926C15.0522 45.9842 13.5546 46.6684 13.1018 46.8793L10.5879 48.0756L12.229 50.3575C12.4359 50.6381 12.983 51.3592 13.5853 51.9512C15.1055 53.4465 18.9409 55.8206 23.6306 55.2388C25.2717 55.036 26.5685 54.7411 27.5704 54.44C27.7445 54.948 27.9371 55.4806 28.1338 55.9681C29.5721 59.5405 32.8399 66.3411 34.0692 68.705C34.8785 70.2618 35.6857 71.6813 36.3106 72.7608L36.2553 72.8079C36.118 72.9308 35.9992 73.0373 35.8332 73.2053L35.2759 73.869L35.2411 74.6535C35.2063 75.393 35.0383 82.0113 39.6173 86.9398L39.9984 87.3085L40.4389 87.4765C42.5901 88.2999 45.3929 89.1439 49.8798 89.1439C54.5039 89.1439 58.3782 88.0336 59.8656 87.2819L60.2979 87.0504L60.5807 86.7165C63.6887 83.0396 65.0552 77.6524 65.1167 75.4032L65.1659 75.3397L65.1187 75.3029L65.0573 74.3995L64.1968 73.5269C64.0083 73.3466 63.8649 73.2094 63.7481 73.0209C64.0697 72.3859 64.4631 71.5686 64.8913 70.6735L64.9794 70.4891C65.2314 69.9647 65.4445 69.5182 65.5695 69.2744C66.7578 66.9618 70.2243 59.5261 71.5991 56.0131C71.89 55.2737 72.1338 54.6632 72.3408 54.1634C73.3303 54.4625 74.6334 54.7493 76.3011 54.9213C80.9867 55.4089 85.4244 52.5124 86.9589 50.4026C87.0409 50.292 87.1556 50.1527 87.2355 50.0564L89.3478 47.5778L86.4713 46.2792C86.4324 46.2628 86.2542 46.187 85.5924 45.9617" fill="#FEFEFE"/>
</g>
<path d="M90.2099 29.9917C89.8903 24.3832 87.3785 19.3524 85.8787 16.3453L85.7005 15.9869L85.0469 14.6821L85.1801 16.1364C85.3645 18.1459 85.8091 25.0121 83.7623 28.902C81.2259 34.1787 73.7642 33.6686 71.3118 33.4986L71.1253 33.4863C67.0953 33.218 53.9871 32.753 49.9715 32.7694C44.661 32.7919 38.8014 33.2241 34.0912 33.5703C31.7863 33.7403 29.7929 33.8878 28.4509 33.939C28.3423 33.9431 28.1825 33.9574 27.9653 33.9779C21.3621 34.5924 17.1907 32.6465 15.566 28.1932C14.5703 25.4607 14.5969 20.0591 14.6072 17.4638L14.6092 16.6874L14.6133 15.5977L14.095 16.5563C12.8534 18.8505 10.5465 23.1214 9.76997 30.2048C9.33563 38.554 13.6729 41.5488 16.9756 43.0748C20.4237 44.6705 23.9476 44.9 25.1052 44.9757L25.1892 44.9819L25.1564 44.9778C25.3941 45.0208 25.6666 45.0331 25.9534 45.0454C26.3099 45.0618 26.6951 45.0823 27.0905 45.156C26.4656 45.2769 25.6441 45.4182 24.9229 45.5411C24.1546 45.6722 23.4293 45.7971 23.0523 45.877C22.2697 46.043 18.9465 46.8193 17.1559 47.4297C15.6357 47.95 13.9987 48.7223 13.9823 48.7284L13.6832 48.8697L13.8778 49.1381C13.9003 49.1688 14.4494 49.9308 15.021 50.4921C16.1909 51.6433 19.4464 53.6958 23.3781 53.2062C26.5209 52.817 28.205 52.0878 28.8545 51.7436C29.0573 52.4196 29.545 53.9846 30.0346 55.2034C31.4503 58.7225 34.6731 65.4269 35.886 67.758C36.8674 69.6445 37.8405 71.3202 38.4859 72.4283L38.7174 72.8278C38.5064 73.5509 38.0024 74.0015 37.6254 74.3313C37.525 74.4194 37.439 74.4951 37.3652 74.5709L37.2915 74.6447L37.2874 74.7491C37.2566 75.3985 37.105 81.2262 41.0695 85.495L41.1125 85.5422L41.1719 85.5647C43.1469 86.3205 45.7264 87.0969 49.8793 87.0969C54.1162 87.0969 57.6791 86.0911 58.9288 85.4602L58.98 85.4356L59.0169 85.3926C61.7828 82.1213 63.0408 77.2011 63.0715 75.4128V75.2981L62.9916 75.2162C62.924 75.1465 62.8523 75.0769 62.7765 75.0052C62.3462 74.5914 61.8135 74.0793 61.5083 72.8687C61.8463 72.2911 62.506 70.9125 63.0428 69.79C63.344 69.1611 63.6021 68.6183 63.7456 68.3397C64.9175 66.0599 68.3349 58.7307 69.6912 55.2669C70.5496 53.0771 71.0311 51.9812 71.2401 51.5286C71.8404 51.8522 73.4569 52.5691 76.5116 52.8846C80.474 53.2943 84.252 50.6416 85.303 49.1975C85.4792 48.9537 85.7804 48.6034 85.7824 48.6014L86.0201 48.3228L85.6882 48.1733C85.6657 48.163 85.5304 48.1057 84.9404 47.9029L82.7482 47.1696L80.5621 46.4362C79.9659 46.2334 77.2902 45.6538 75.3397 45.2297L73.8605 44.9081L74.344 44.8201C78.8677 44.0191 90.886 41.8909 90.2099 29.9917Z" fill="#2D2925"/>
<path d="M10.7959 27.5813C11.4557 24.1707 12.5456 20.9813 14.033 17.919L14.0494 17.8821H14.1212V17.9477V17.8821H14.1867L14.1847 17.9497C14.1437 18.8654 14.1171 19.8076 14.1171 20.7581C14.1171 23.0175 14.2728 25.3158 14.7768 27.3805L14.8259 27.5813L14.6723 27.444C14.0146 26.8561 13.361 26.1822 12.6808 25.5984C12.0826 26.2682 11.5089 26.9954 10.9045 27.6366L10.7529 27.7984L10.7959 27.5813ZM89.0469 26.1822L88.9855 26.1966L89.0449 26.1781C88.1721 23.2981 87.3915 20.3812 85.9635 17.7387L85.8426 17.7715C85.9 18.6871 85.9287 19.5966 85.9287 20.5C85.9287 22.7102 85.7566 24.8774 85.398 26.9811L85.3775 27.104L85.4902 27.0487C86.1909 26.7107 86.8547 26.256 87.5718 25.9508L89.2969 27.1982L89.0469 26.1822ZM60.8432 56.986L60.71 57.0454C59.7286 57.4776 58.7227 57.9078 57.6593 58.1187C56.9709 58.2949 56.2723 58.3871 55.5819 58.3871C53.4245 58.385 51.3634 57.494 50.089 55.5419L50.048 55.4784L49.9927 55.5296C49.7366 55.7549 49.5809 56.0355 49.3146 56.2752C47.9562 57.8381 45.9853 58.4383 43.9713 58.4383C42.4081 58.4383 40.8203 58.0757 39.4926 57.5226L39.3554 57.4673L39.4066 57.6066C40.4269 60.3044 41.0518 63.2991 41.0518 66.3082C41.0518 67.6581 40.9268 69.008 40.6543 70.3374C40.4679 71.2694 40.1565 72.2363 39.9086 73.1457L39.8676 73.2871L39.9987 73.2195C42.8732 71.6975 46.3828 70.9253 49.8821 70.9253C53.195 70.9253 56.4997 71.6156 59.2492 73.0106C59.702 73.197 60.1261 73.5124 60.54 73.6456L60.6629 73.6845L60.6219 73.5636C59.8208 71.1895 59.3476 68.668 59.3476 66.0276V65.9149C59.3435 65.7477 59.3414 65.5804 59.3414 65.4131C59.3414 62.5269 59.9458 59.6858 60.7961 57.1232L60.8432 56.986ZM32.7369 59.7769C32.4296 59.3959 32.1797 58.9801 32.0875 58.4946L32.0588 58.3471L32.1858 58.427C32.7021 58.7609 33.2696 58.8981 33.8515 58.8981C35.0521 58.8981 36.3141 58.3082 37.2586 57.6445L37.3017 57.6138L37.3385 57.6527L37.3713 57.6834L37.3242 57.7285L37.3713 57.6834L37.3918 57.7039L37.3898 57.7347C37.2586 58.9617 36.8222 60.3648 35.5213 60.8462C35.3266 60.8953 35.1381 60.9179 34.9537 60.9179C34.0809 60.9179 33.3229 60.4099 32.7369 59.7769H32.7369ZM63.2726 59.3101C62.994 58.8943 62.8403 58.4457 62.7502 57.9397L62.7195 57.7717L62.8526 57.8762C63.498 58.3863 64.3114 58.6075 65.1432 58.6075C66.1205 58.6075 67.1203 58.3023 67.8886 57.8066L68.0422 57.7082L67.9849 57.8823C67.6038 58.9926 66.6409 60.1274 65.471 60.3814C65.3706 60.3957 65.2682 60.4039 65.1678 60.4039C64.4015 60.4039 63.7111 59.9901 63.2726 59.3101Z" fill="#C21F32"/>
<path d="M64.7681 60.9398C64.9197 60.9726 65.0733 60.9849 65.227 60.9849C65.6675 60.9849 66.11 60.8682 66.5423 60.733L66.6714 60.692L66.6202 60.8169C65.0078 64.8482 63.0614 68.7463 61.0515 72.6157L60.9839 72.7447L60.9348 72.6075C60.5291 71.4952 60.4144 70.3133 60.4144 69.1047C60.4144 68.2178 60.4758 67.3165 60.5332 66.4152C60.8221 63.8158 61.449 61.3127 62.2255 58.9058L62.2726 58.7583L62.3443 58.8955C62.8217 59.8255 63.7273 60.7841 64.764 60.9398H64.7681ZM39.3062 72.6309C36.8743 68.9212 35.0263 64.9985 33.2418 61.0185L33.1639 60.8464L33.3299 60.9345C33.8134 61.1947 34.4629 61.3995 35.0795 61.3995C35.4975 61.3995 35.897 61.3073 36.231 61.0799C37.0116 60.533 37.4705 59.6727 37.7799 58.8042L37.829 58.6608L37.8966 58.7981C39.2386 61.5101 39.8819 64.7957 39.8819 68.0445C39.8819 69.5828 39.7365 71.115 39.4537 72.5755L39.4496 72.594L39.4373 72.6083L39.3492 72.6964L39.3062 72.6309ZM41.4437 85.0515L41.4314 85.0453L41.4212 85.0351C38.9442 82.3169 38.0099 78.8223 37.8747 75.125V75.0901L37.9034 75.0697C41.161 72.6976 45.5167 71.444 49.811 71.444C52.6302 71.444 55.4247 71.9848 57.8648 73.1052C59.424 73.8017 60.9257 74.5637 62.3025 75.6698L62.2636 75.7211L62.3025 75.6698L62.3312 75.6924L62.3271 75.7272C61.9092 79.2074 60.6656 82.3087 58.4692 84.9982L58.459 85.0126L58.4447 85.0187C55.8304 86.0368 52.749 86.5878 49.6819 86.5878C46.7911 86.5878 43.9125 86.1003 41.4437 85.0515H41.4437ZM85.0215 48.4967C85.0215 48.4967 83.489 47.9088 83.0956 47.7613C78.8956 46.1799 73.4949 45.2152 68.9056 45.1045C68.4672 39.9938 67.8792 36.7983 66.8835 33.91L66.8691 33.8711L66.8281 33.8671C64.4618 33.7298 53.9678 33.3078 49.9112 33.3078C45.8525 33.3078 35.5471 33.9469 33.1828 34.0842L33.1418 34.0862L33.1274 34.1272C32.1748 36.8802 31.0909 40.3113 30.5869 45.3647C25.9485 45.6494 19.7058 46.9768 15.5037 48.5581C15.1984 48.6728 14.9771 48.7814 14.8255 48.8613C14.7518 48.9023 14.6944 48.935 14.6534 48.9575C14.6432 48.9616 14.635 48.9678 14.6268 48.9719L14.4998 48.8265L14.5448 49.0579C14.5464 49.0704 14.5522 49.0819 14.5612 49.0907C15.2046 49.8199 17.5709 52.6569 21.9656 52.7553C22.0373 52.7573 22.1111 52.7573 22.1889 52.7573C23.6251 52.7573 26.057 52.4787 27.6838 51.768C28.0792 51.5918 28.8475 51.2764 29.0565 51.1924C29.1343 51.3399 29.3658 51.7884 29.4806 52.11C29.9518 53.419 30.5132 55.2994 30.927 56.1208C31.5376 57.3396 32.5333 58.3187 34.1477 58.3556H34.2113C35.67 58.3515 36.676 57.188 36.8522 56.9401L36.9198 56.8459L36.803 56.8398C32.7402 56.6349 31.0786 54.478 30.8021 51.219L30.798 51.1698L30.7508 51.1616C30.2714 51.0756 29.9661 51.008 29.7776 50.9056C29.5892 50.8032 29.5052 50.6762 29.4416 50.4263C29.415 50.3157 29.4027 50.205 29.4027 50.0924C29.4027 49.6929 29.5646 49.2587 29.8658 48.7568C30.1792 48.3369 30.6423 47.9231 31.5642 47.9211C31.9453 47.9211 32.4042 47.9928 32.9635 48.171C34.2276 48.5704 35.2418 49.3857 35.9466 50.0043C36.7907 50.7417 39.2411 53.296 40.7264 54.1891C41.5992 54.7115 42.9248 55.199 44.275 55.199C45.3547 55.199 46.4508 54.8856 47.3297 54.0232C49.2187 52.1715 49.4482 50.5778 49.6961 49.5926L49.7145 49.5147L49.6346 49.5127C46.375 49.4205 43.2874 49.101 40.4437 48.7077C40.1138 48.6606 40.0155 48.5213 40.0155 48.4045C40.0176 48.2611 40.1753 48.0911 40.4376 48.0911C40.4867 48.0911 40.54 48.0972 40.5974 48.1116C40.6056 48.1136 45.9734 48.8244 49.733 48.847H49.7924L49.7965 48.7876C49.8272 48.3492 49.8333 47.581 49.86 46.7166L49.862 46.6511L49.7965 46.649C47.5694 46.5999 43.8263 46.3643 40.2798 45.6494C39.9725 45.5859 39.8516 45.4015 39.8516 45.2479C39.8557 45.0984 39.9561 44.9673 40.1774 44.9652C40.2265 44.9652 40.2818 44.9714 40.3433 44.9878C40.8719 45.1271 46.6475 45.9444 49.7924 45.9444H49.817L49.8825 45.9464V45.8829C49.8969 45.211 49.903 44.2647 49.9071 43.3552V43.2917H49.6448C47.6124 43.2917 44.6704 43.0869 40.4867 42.4498C40.1446 42.3966 40.0237 42.2306 40.0237 42.1036C40.0237 41.9725 40.1466 41.8312 40.4089 41.8292C40.4314 41.8292 40.4539 41.8312 40.4806 41.8333C40.4785 41.8333 45.5862 42.5932 49.569 42.5932C49.6612 42.5932 49.7514 42.5932 49.8436 42.5911H49.9071V42.5277C49.9071 41.9111 49.903 41.1921 49.8968 40.467V40.4547C49.8989 40.0634 50.073 39.9057 50.2001 39.9057C50.3189 39.9057 50.4726 40.0429 50.4746 40.4035C50.4746 40.6779 50.491 41.4584 50.491 42.4334V42.5543L50.5566 42.5522C54.4062 42.4355 57.7929 41.9848 59.3828 41.7001C59.475 41.6837 59.5549 41.6755 59.6245 41.6755C59.9401 41.6817 60.022 41.8087 60.0261 41.9316C60.0261 42.0565 59.9196 42.202 59.7598 42.2306C59.2394 42.3249 54.7771 43.1872 50.532 43.2794H50.4685L50.4705 43.3429C50.4705 44.0926 50.4992 45.0656 50.5115 45.8583L50.5135 45.9239L50.577 45.9218C53.431 45.8194 56.7357 45.7129 59.5733 45.0861C59.7065 45.0574 59.8212 45.0431 59.9216 45.0431C60.2515 45.0472 60.3744 45.1783 60.3744 45.2889C60.3805 45.4179 60.2084 45.6146 59.8028 45.6822C57.0205 46.1451 53.009 46.6224 50.5975 46.6408H50.532L50.534 46.7064C50.5504 47.4008 50.5566 48.2427 50.5914 48.7937L50.5955 48.8551H50.6569C55.2094 48.7466 59.52 48.0993 60.2535 47.9723C60.3068 47.9641 60.356 47.96 60.4031 47.96C60.6879 47.962 60.819 48.1157 60.819 48.2591C60.819 48.4004 60.694 48.5724 60.3498 48.6216C59.5487 48.7322 54.2075 49.4205 50.7881 49.5065L50.7041 49.5086L50.7266 49.5885C51.0647 50.7458 51.1302 52.4316 52.8102 53.8757C53.6318 54.5824 54.7361 54.9 55.8752 54.9C56.998 54.9 58.1555 54.5907 59.1144 54.0376C60.6162 53.1691 62.9887 50.5696 63.8307 49.8322C64.5314 49.2177 66.1295 47.7408 68.2643 47.7408C68.2951 47.7408 68.3237 47.7408 68.3545 47.7429C69.4506 47.7654 69.9853 48.0542 70.266 48.3676C70.5487 48.6831 70.5795 49.0313 70.6471 49.2198C70.6962 49.3529 70.7372 49.5332 70.7372 49.7155C70.7352 49.9818 70.6532 50.2439 70.3869 50.4078C70.014 50.6393 69.6616 50.5778 69.2662 50.7581L69.2355 50.7724L69.2293 50.8052C68.9507 52.5873 68.3913 54.6132 66.9941 55.6722C66.2401 56.2457 65.2669 56.5673 64.4822 56.7455C63.6996 56.9237 63.1075 56.9545 63.1075 56.9545L62.9723 56.9627L63.0624 57.063C63.0624 57.063 63.3943 57.4256 63.505 57.5321C63.7529 57.7656 64.4556 58.1057 65.3755 58.1077C65.4739 58.1077 65.5742 58.1036 65.6767 58.0975C66.6826 58.0115 67.8423 57.2474 68.336 56.7394C69.0838 55.7685 69.7702 53.7529 70.2783 52.4562C70.4565 51.9933 70.8642 51.1923 71.0302 50.7806C71.4441 50.9752 71.6858 51.1043 72.4767 51.4238C74.1198 52.0814 76.2034 52.3702 77.6027 52.3702C77.6826 52.3702 77.7605 52.3702 77.8363 52.3681C80.1228 52.3087 82.7084 50.9261 84.2675 49.4819C84.54 49.2279 85.046 48.5991 85.0481 48.5971L85.1034 48.5274L85.0214 48.4967H85.0215Z" fill="#C21F32"/>
<path d="M52.3382 76.5748C52.0965 76.9804 51.99 77.4454 51.99 77.9185C51.99 78.6846 52.2727 79.4692 52.7152 80.0407C52.7419 80.0776 52.7787 80.0939 52.8218 80.096C52.8709 80.096 52.9263 80.0694 52.9672 80.0243V79.9833C52.9713 79.5306 52.6783 79.1373 52.6742 78.6396C52.6742 78.5249 52.6906 78.402 52.7337 78.277L52.7767 78.1439L52.8484 78.2627C53.295 79.0001 54.0121 79.4651 54.762 79.715C55.055 79.7908 55.3479 79.8297 55.6327 79.8297C56.6325 79.8277 57.5606 79.377 58.2163 78.5699C58.5277 78.1336 58.7653 77.5806 58.7653 77.0398C58.7653 76.7858 58.7141 76.5338 58.5912 76.2942C58.12 75.3765 57.1632 74.846 56.2023 74.6882C56.0384 74.6698 55.8745 74.6616 55.7106 74.6616C54.3194 74.6616 53.0185 75.2843 52.3382 76.5748ZM46.8903 80.4039C46.9702 80.408 47.0665 80.3158 47.132 80.2031C47.4967 79.6296 47.7446 78.884 47.7446 78.1568C47.7446 77.6795 47.6381 77.2104 47.3922 76.8007L47.4476 76.768L47.3902 76.7966C47.0071 76.0633 46.2244 75.4713 45.4787 75.2214C45.0525 75.0842 44.6018 75.0125 44.1551 75.0125C43.0857 75.0125 42.0408 75.4222 41.3811 76.303C41.127 76.6369 41 77.067 41 77.4951C41 77.7184 41.0348 77.9417 41.1065 78.1506C41.4569 79.1298 42.387 79.9041 43.3725 80.0905C43.5938 80.1294 43.8109 80.1499 44.022 80.1499C45.1693 80.1499 46.1794 79.5886 46.8964 78.6033L46.9681 78.505L47.0091 78.6197C47.0399 78.7057 47.0521 78.7979 47.0521 78.8881C47.0501 79.0909 46.9989 79.2957 46.9784 79.4596C46.9436 79.7484 46.7161 79.9717 46.7243 80.1704C46.7243 80.2359 46.7428 80.2994 46.8001 80.3752C46.835 80.3957 46.8637 80.4039 46.8903 80.4039ZM41.7034 84.1848C44.207 83.134 47.2003 82.5256 50.1731 82.5256C52.4165 82.5256 54.6456 82.8718 56.6473 83.6379C57.1492 83.8509 57.6799 84.025 58.1859 84.1827C58.3129 84.0168 58.3744 83.9799 58.4605 83.8345C56.0183 82.6362 53.15 82.079 50.2673 82.079C47.1921 82.079 44.1004 82.714 41.4944 83.8734C41.5456 84.0045 41.6112 84.0885 41.7034 84.1848ZM43.887 65.6753C45.3846 67.5414 47.6219 68.3669 49.9084 68.3689C50.7484 68.3689 51.5945 68.2563 52.412 68.0432C56.2248 66.9863 58.5256 62.8321 59.3124 59.1983C59.2017 59.0959 59.1034 59.0733 58.96 59.0303C58.4826 61.1688 57.5709 63.2684 56.2207 65.0362C54.6063 67.0027 52.2235 67.9961 49.8776 67.9961C49.0438 67.9961 48.214 67.8712 47.4232 67.6192C43.9341 66.5315 42.1209 62.7051 41.7828 59.2413C41.6394 59.2433 41.5431 59.2515 41.4304 59.3294C41.6681 61.7158 42.3831 63.842 43.887 65.6753Z" fill="#2D2925"/>
<path d="M15.5299 29.7758C17.5295 33.6329 21.5615 34.8763 25.6632 34.6797C27.9579 34.6592 30.1624 34.4216 32.4284 34.2761L32.4263 34.4339C31.2728 37.6826 30.5271 40.9908 30.0497 44.3973C24.1123 44.6144 18.0253 44.1453 13.6388 40.1817C10.6681 37.1603 9.91004 33.0164 10.5554 28.9237C11.2643 28.0838 11.9916 27.3792 12.7312 26.5394C13.7044 27.5451 15.2615 28.3665 15.5299 29.7758V29.7758ZM89.3669 28.0443C89.5165 28.6404 89.5452 29.2037 89.6025 29.8285C89.8853 34.3964 87.9123 38.6079 84.0135 40.9328C79.7458 43.5056 74.8143 44.3864 69.5817 44.5154C69.4936 44.0464 69.4362 43.4503 69.3768 42.9197C68.963 39.9147 68.3975 36.877 67.5554 33.9949C73.1568 33.9314 79.9712 35.4083 83.6692 30.2668C84.163 29.5499 84.6568 28.8944 85.0891 28.116C85.9168 27.7452 86.7137 27.2168 87.5128 26.7825C88.1848 27.1307 88.6949 27.6654 89.3669 28.0443V28.0443ZM68.0797 51.1686C68.1023 52.92 67.5429 54.7308 65.9756 55.5665C65.2401 55.9701 64.3837 56.1216 63.556 56.0848C63.5273 55.9311 63.4658 55.7406 63.5293 55.5542C64.8139 55.5932 66.0412 55.1302 66.7193 54.0712C67.1823 53.2908 67.3688 52.4161 67.3749 51.4472C67.5901 51.3223 67.8339 51.2301 68.0797 51.1686H68.0797ZM36.4678 55.9244C36.2363 55.9633 36.1256 56.0227 35.6913 55.9264C33.6302 55.9264 31.4749 54.2754 31.5998 51.4773C31.8436 51.3831 32.1182 51.42 32.3702 51.5019C32.3702 53.0894 33.0115 55.2587 36.3838 55.2587C36.6132 55.6274 36.392 55.6642 36.4678 55.9244" fill="#FEFEFE"/>
</svg>
