<svg width="100" height="100" viewBox="0 0 100 100" fill="none" xmlns="http://www.w3.org/2000/svg">
<path d="M50.3941 13.0769C60.3349 13.0769 69.6941 16.96 76.7549 24.0223C83.8034 31.0692 87.6918 40.4438 87.6918 50.3761C87.6918 70.9577 70.968 87.6923 50.3941 87.6923C40.4295 87.6923 31.0587 83.8169 24.0018 76.7515C16.9695 69.7015 13.0764 60.3338 13.0764 50.3761C13.0764 40.4438 16.9695 31.0692 24.0018 24.0223C31.0587 16.96 40.4295 13.0769 50.3941 13.0769" fill="#FFC627"/>
<path d="M50.3941 13.0769C60.3349 13.0769 69.6941 16.96 76.7549 24.0223C83.8034 31.0692 87.6918 40.4438 87.6918 50.3761C87.6918 70.9577 70.968 87.6923 50.3941 87.6923C40.4295 87.6923 31.0587 83.8169 24.0018 76.7515C16.9695 69.7015 13.0764 60.3338 13.0764 50.3761C13.0764 40.4438 16.9695 31.0692 24.0018 24.0223C31.0587 16.96 40.4295 13.0769 50.3941 13.0769" stroke="white" stroke-width="3.8462"/>
<path d="M50.399 84.7078C69.3182 84.7078 84.7075 69.3178 84.7075 50.3747C84.7075 31.4663 69.3182 16.0616 50.399 16.0616C31.4575 16.0616 16.0605 31.4662 16.0605 50.3747C16.0605 69.3178 31.4575 84.7078 50.399 84.7078" fill="#8B2332"/>
<path d="M18.6729 50.3756C18.6729 32.8987 32.9036 18.6733 50.3959 18.6733C67.8844 18.6733 82.0959 32.8987 82.0959 50.3756C82.0959 67.8664 67.8844 82.0956 50.3959 82.0956C32.9036 82.0956 18.6729 67.8664 18.6729 50.3756" fill="#0D2240"/>
<path d="M75.4088 37.0763L76.1173 36.6801L73.8342 33.1386L73.195 33.6001C69.3111 28.7009 62.4173 23.2378 55.8558 22.4109C60.7958 24.6663 66.3534 30.427 69.7473 34.8678L66.1819 37.4593L66.6104 38.1178L50.5042 48.5817L34.3981 38.1178L34.8296 37.4593L31.2434 34.8678C34.6596 30.427 40.2034 24.6663 45.1496 22.4109C38.5958 23.237 31.6958 28.6878 27.8434 33.5824L27.175 33.1009L24.8911 36.6347L25.6034 37.047L25.585 37.0763C22.7488 42.647 20.665 51.2586 22.695 57.5586C22.6419 52.1155 25.5665 44.6286 28.1934 39.6447L32.0404 41.8124L32.4381 41.2047L47.395 50.6063L27.6665 63.4255L27.6365 63.3863L24.9919 64.0993L25.0204 64.1647C24.8911 64.6563 25.1334 65.567 25.6958 66.4363C26.2565 67.3301 26.965 67.9186 27.4958 68.0163L27.5411 68.0893L29.2973 65.967L29.2819 65.9278L68.5781 41.2047L68.9619 41.8124L72.8196 39.6447C75.4427 44.6286 78.3711 52.1155 78.3373 57.5586C80.3658 51.2586 78.2565 42.647 75.4088 37.0763Z" fill="#FFC627"/>
<path d="M73.3798 63.3864L73.3498 63.4256L55.1959 51.6333L52.0167 53.5156L71.7298 65.9279L71.7082 65.9664L73.4598 68.0895L73.5128 68.0164C74.0428 67.9187 74.7521 67.3303 75.3136 66.4364C75.859 65.5664 76.1175 64.6556 75.9882 64.1649L76.0205 64.0995L73.3798 63.3864L73.3798 63.3864ZM53.6171 25.5863L52.2525 27.3694L50.3633 22.8602V43.6863L56.7079 35.5656L63.091 37.211L53.6171 25.5863Z" fill="#FFC627"/>
<path d="M53.6173 30.4684V25.5861L52.2527 27.3699L53.6173 30.4684ZM50.3635 22.8599L38.8496 36.8953L43.9312 35.6029L50.3635 43.6868V22.8599Z" fill="white"/>
<path d="M43.6052 75.3831C45.2344 73.8169 47.3098 72.8607 49.5483 72.65V69.5284H40.9475C41.1521 71.8015 42.1067 73.8384 43.6052 75.383V75.3831ZM49.5487 78.276V74.5837C47.8787 74.7875 46.3333 75.4891 45.0626 76.6414C46.3849 77.5229 47.9087 78.0998 49.5487 78.276Z" fill="#FFC627"/>
<path d="M51.4586 59.1504V62.8319C53.1248 62.6303 54.6817 61.9388 55.9263 60.788C54.6225 59.8996 53.1079 59.318 51.4586 59.1503V59.1504ZM57.3946 62.0469C55.7623 63.5939 53.6931 64.5693 51.4592 64.767V67.6062H60.0446C59.7838 65.4547 58.8185 63.5131 57.3946 62.0469H57.3946ZM49.5491 62.8313V59.1505C47.9091 59.3182 46.3852 59.899 45.0845 60.789C46.3337 61.939 47.8791 62.6297 49.5491 62.8313Z" fill="white"/>
<path d="M51.4583 69.529V72.6505C53.6921 72.8605 55.7767 73.8167 57.3937 75.3836C58.896 73.839 59.8852 71.8013 60.0637 69.529H51.4583Z" fill="#FFC627"/>
<path d="M40.9678 67.6067H49.5493V64.7675C47.3101 64.5698 45.2501 63.5929 43.6055 62.0467C42.1855 63.5128 41.2201 65.4544 40.9678 67.6067Z" fill="white"/>
<path d="M51.4583 78.276C53.1075 78.0999 54.6221 77.523 55.926 76.6414C54.6814 75.4891 53.1244 74.7876 51.4583 74.5837V78.276Z" fill="#FFC627"/>
</svg>
