<svg id="Layer_1" data-name="Layer 1" xmlns="http://www.w3.org/2000/svg" viewBox="0 0 36.39578 37.3551"><title>Untitled-34</title><path d="M36.39578,18.67755A18.44226,18.44226,0,0,1,18.19821,37.3551,18.44238,18.44238,0,0,1,0,18.67755,18.44238,18.44238,0,0,1,18.19821,0,18.44226,18.44226,0,0,1,36.39578,18.67755" fill="#fff"/><path d="M1.08166,22.347A17.85182,17.85182,0,0,0,8.623,33.69448,17.00806,17.00806,0,0,0,21.77359,36.244a17.1859,17.1859,0,0,0,11.05582-7.7383,18.68736,18.68736,0,0,0,2.48446-13.49736A17.6545,17.6545,0,0,0,27.76916,3.66862,16.99843,16.99843,0,0,0,14.62342,1.10946,17.3738,17.3738,0,0,0,3.56717,8.85028,18.22543,18.22543,0,0,0,1.08166,22.347" fill="#003da6"/><path d="M24.15225,4.69216a2.53174,2.53174,0,0,1-.94354,2.03206c-3.27986-2.46889-6.40359-3.68513-9.46882-3.69671a11.81542,11.81542,0,0,0-1.92032.1515,16.20718,16.20718,0,0,1,3.02735-.96584,15.85531,15.85531,0,0,1,8.11916.37245,3.58074,3.58074,0,0,1,1.18616,2.10654" fill="#fff"/><path d="M20.73027,33.6827c3.44714-3.24745,5.0451-10.21055,5.99936-14.3704l.14919-.651a9.81489,9.81489,0,0,1,2.29213-4.6455,18.99319,18.99319,0,0,1,2.11538,14.78263,16.21529,16.21529,0,0,1-13.09756,6.70281,11.05662,11.05662,0,0,0,2.54149-1.81848" fill="#fff"/><path d="M26.99319,10.06246c1.39763-1.20425,2.52276-2.12232,3.31227-2.71887a16.77906,16.77906,0,0,1,3.68029,6.82675A4.546,4.546,0,0,0,31.62,12.25128a2.8855,2.8855,0,0,0-2.30266.60055,21.38909,21.38909,0,0,0-2.32412-2.78937" fill="#fff"/><path d="M2.12668,17.91786c1.591-4.38647,7.42708-6.17633,9.6239-6.84989l.09764-.0303a27.24207,27.24207,0,0,1,2.95391-.61c2.83061-.492,6.31942-1.10346,8.42344-2.718a33.9363,33.9363,0,0,1,2.63534,2.30771A264.33022,264.33022,0,0,0,5.84885,29.74447,16.88409,16.88409,0,0,1,2.15719,22.116a17.29094,17.29094,0,0,1-.351-3.43074c.18643-.44546.31858-.76194.32047-.76741" fill="#fff"/><path d="M26.44135,9.514q-1.32977-1.28778-2.62292-2.31717a3.20367,3.20367,0,0,0,1.08431-2.57431,3.44815,3.44815,0,0,0-.54331-1.527A16.53179,16.53179,0,0,1,27.16731,4.6111a16.739,16.739,0,0,1,2.60924,2.168c-.82717.6258-1.9563,1.54829-3.3352,2.73486" fill="#fff"/><path d="M22.59232,7.22788c-1.97945,1.40226-5.25068,1.97271-7.9159,2.4367a27.70779,27.70779,0,0,0-3.04461.6319l-.09721.03009c-2.10654.64536-7.41088,2.27488-9.59633,6.193a17.01016,17.01016,0,0,1,2.5478-7.053A17.41235,17.41235,0,0,1,8.8778,4.75247c3.88-1.68149,8.2349-1.5666,13.71452,2.47541" fill="#fff"/><path d="M31.46825,13.01006c1.14469.24178,2.37546,2.21449,2.96107,3.35309a17.03916,17.03916,0,0,1-1.99,10.63287c.08817-.56982.161-1.17037.20621-1.7987a18.9845,18.9845,0,0,0-2.8931-11.689,2.206,2.206,0,0,1,1.71579-.49828" fill="#fff"/><path d="M26.41494,10.56354a20.43875,20.43875,0,0,1,2.31654,2.78474,10.629,10.629,0,0,0-2.5861,5.13347l-.15024.65294C25.06045,23.20827,23.497,30.027,20.2201,33.11223a9.51213,9.51213,0,0,1-3.86063,2.28646,16.06135,16.06135,0,0,1-7.13586-2.64733,16.65892,16.65892,0,0,1-2.86343-2.43459A263.54021,263.54021,0,0,1,26.41494,10.56354" fill="#fff"/><path d="M22.72,23.67356l.44315-.12435a.49652.49652,0,0,0,.44988-.56562c0-.33037-.09111-.93448-.47745-.93448-.41558,0-.41558.71669-.41558,1.106Z" fill="#fff"/><path d="M17.389,23.41663c0-1.4376-.05092-2.67952-1.00182-2.67952-.77415,0-.90693,1.24192-.90693,2.67952,0,1.43656-.0404,2.68184.90693,2.68184.80655,0,1.00182-1.24528,1.00182-2.68184" fill="#fff"/><path d="M22.72,23.67356l.44315-.12435a.49652.49652,0,0,0,.44988-.56562c0-.33037-.09111-.93448-.47745-.93448-.41558,0-.41558.71669-.41558,1.106Z" fill="#fff"/><path d="M15.37537,20.12618h.016a2.52544,2.52544,0,0,1,2.172-1.0761c1.92537,0,3.1071,1.70253,3.1071,3.99509a3.98551,3.98551,0,0,1-4.00561,4.32819c-3.40717,0-4.64361-2.81988-4.64361-6.08648,0-3.76215,1.59227-6.869,5.55916-6.869a2.63306,2.63306,0,0,1,2.81735,2.58736,1.4468,1.4468,0,0,1-1.49316,1.50894c-1.07021,0-1.41067-.91976-1.56323-1.72168-.06228-.34235.06187-1.09609-.49134-1.09609-1.15165,0-1.3404,2.31675-1.38963,3.16876Z" fill="#fff"/><path d="M17.389,23.41663c0-1.4376-.05092-2.67952-1.00182-2.67952-.77415,0-.90693,1.24192-.90693,2.67952,0,1.43656-.0404,2.68184.90693,2.68184.80655,0,1.00182-1.24528,1.00182-2.68184" fill="#fff"/><path d="M28.42392,20.86256a1.12145,1.12145,0,0,0-.87094.41054c-.02231-.05239-.0465-.10479-.07238-.15635l-.18244-.36445-2.61808.78719V23.0093h.48313c.0465,0,.07344.00589.0787.00274a1.632,1.632,0,0,1,.064.63043V25.3513l-.4785.06923v1.6152h3.62538V25.421l-.476-.06923v-.501a6.4911,6.4911,0,0,1,.13236-1.15648,1.63186,1.63186,0,0,0,.47366.07449c.65,0,1.10409-.5997,1.10409-1.45844a1.29145,1.29145,0,0,0-1.263-1.44771" fill="#fff"/><path d="M32.96479,22.57588a.88678.88678,0,0,1-.0423-.23441c0-.44021-.17107-1.46412-1.757-1.46412-.87746,0-2.59767.69313-2.59767,2.2955a2.14038,2.14038,0,0,0,.42085,1.35133,1.249,1.249,0,0,0-.5572,1.11061c0,.578.28365,1.54745,2.18271,1.54745a2.24637,2.24637,0,0,0,2.55559-2.37083,7.95616,7.95616,0,0,0-.205-2.23554" fill="#fff"/><path d="M13.82154,13.93377a.51544.51544,0,0,0-.396-.186c-.239,0-.42968.15466-.65968.4038a3.99675,3.99675,0,0,1-3.0223,1.28106,6.6728,6.6728,0,0,1-4.558-2.04279.54976.54976,0,0,0-.388-.16329c-.64389,0-.81434,1.06327-.81518,1.07379L3.97964,19.628l.41285.06249a9.79613,9.79613,0,0,0,4.14512-.15087C7.209,20.76094,4.21784,24.08057,4.262,27.24765c.00737.58392.3594.64684.51028.64684a.59649.59649,0,0,0,.39349-.17107c.0221-.01852.04924-.04146.0827-.06692a3.22537,3.22537,0,0,1,1.89844-.509,4.13142,4.13142,0,0,1,1.761.36613.74133.74133,0,0,0,.32531.08859.51182.51182,0,0,0,.387-.17338A.718.718,0,0,0,9.75407,26.85a10.497,10.497,0,0,1,1.22739-6.25482l.14288-.21736c.81139-1.23245,2.49982-3.79729,2.81819-5.91478a.64314.64314,0,0,0-.121-.52922" fill="#fff"/><path d="M23.834,25.04431a.44754.44754,0,0,1-.38823-.26408l.92986-.25693a1.92277,1.92277,0,0,1-.54163.521m2.03395-.93344-.02378-.40359a4.03233,4.03233,0,0,0-.11363-.75352L25.713,22.491l-.08333.13236a2.49405,2.49405,0,0,0-2.39146-1.761c-1.67981,0-2.85291,1.36291-2.85291,3.31416A2.74825,2.74825,0,0,0,23.14525,27.182a2.99742,2.99742,0,0,0,2.61219-1.47211l.07175-.1252-.0545-1.44813Z" fill="#fff"/><path d="M19.61945,19.39793c-.09532-.13887-.202-.294-.2906-.43094a1.90764,1.90764,0,0,0,1.55208-1.96177,3.12724,3.12724,0,0,0-3.30048-3.08354c-3.78361,0-6.0425,2.75339-6.0425,7.36543,0,4.183,1.86876,6.58223,5.127,6.58223,2.64291,0,4.48874-1.98386,4.48874-4.82415a6.93753,6.93753,0,0,0-1.53419-3.64726" fill="#fff"/><path d="M22.73017,23.16008c0-.38928,0-1.106.41559-1.106.38634,0,.47745.60412.47745.93448a.4962.4962,0,0,1-.44988.56541l-.44315.12457Zm1.114,2.38514a1.10566,1.10566,0,0,1-.99257-1.10661l2.52044-.69651a2.2341,2.2341,0,0,0-2.12359-2.379c-1.42414,0-2.36957,1.13965-2.36957,2.81841a2.26965,2.26965,0,0,0,2.27656,2.5095A2.50065,2.50065,0,0,0,25.351,25.46359l-.4987-.6077a1.1815,1.1815,0,0,1-1.00813.68934" fill="#003da6"/><path d="M27.97969,26.54467h-2.6589v-.68829l.4785-.06922V23.64736c0-.76362-.09763-1.12934-.626-1.12934v-.602l1.8877-.56751a3.65322,3.65322,0,0,1,.31353,1.41384H27.393c.18875-.5814.42463-1.39889,1.041-1.39889.54036,0,.77983.42863.77983.95174,0,.52984-.226.96248-.621.96248a1.78032,1.78032,0,0,1-.63274-.16266c-.34509-.12036-.45641,1.421-.45641,1.74062v.93154l.476.06922Z" fill="#003da6"/><path d="M32.44962,22.34644a.65881.65881,0,0,1-.73206.63506.92982.92982,0,0,1-.86379-.83853c-.19464,0-.3331.10289-.3331.44252,0,.79224,2.17641.22789,2.17641,2.23069,0,1.50115-1.05653,1.87507-2.07267,1.87507-.61843,0-1.69958-.08375-1.69958-1.05148a.68136.68136,0,0,1,.6622-.77246c.66051,0,.77414.62075.88525,1.06116.03177.11615.12941.13488.22137.13488.34867,0,.60138-.14772.60138-.38381,0-.89893-2.23384-.55047-2.23384-2.50172,0-1.23981,1.42772-1.79954,2.11454-1.79954.78235,0,1.2739.26892,1.2739.96815" fill="#003da6"/><path d="M16.39743,26.10358c-.94732,0-.90692-1.24549-.90692-2.682,0-1.4374.13278-2.67931.90692-2.67931.9509,0,1.00182,1.24192,1.00182,2.67931,0,1.43656-.19527,2.682-1.00182,2.682M17.57348,19.055a2.52455,2.52455,0,0,0-2.17178,1.07611h-.0162l.085-1.26107c.04945-.852.238-3.16876,1.38963-3.16876.55341,0,.42905.75373.49155,1.0961.15235.80192.493,1.72167,1.563,1.72167a1.44668,1.44668,0,0,0,1.49316-1.50894,2.63306,2.63306,0,0,0-2.81735-2.58736c-3.96689,0-5.55916,3.10689-5.55916,6.869,0,3.26661,1.23665,6.08648,4.64361,6.08648a3.98528,3.98528,0,0,0,4.00561-4.32819c0-2.29256-1.18173-3.99509-3.1071-3.99509" fill="#003da6"/><path d="M4.47313,14.35605v4.84877c2.64628.40065,5.80472.13467,8.03752-3.21715.09364-.14246.14877-.0423.08859.08227A12.1439,12.1439,0,0,1,9.2249,19.60547c-1.22614.98667-4.51294,4.52746-4.46959,7.64066.00316.239.01052.17338.21547.017A4.49118,4.49118,0,0,1,9.12221,27.069c.16855.08059.18075.05618.161-.16581a11.01919,11.01919,0,0,1,1.30715-6.5795c.69376-1.06116,2.56274-3.7895,2.88469-5.931.03324-.222-.07786-.18727-.348.10479a5.88431,5.88431,0,0,1-8.415-.19254c-.15571-.15445-.22536-.08522-.23883.05113" fill="#dd0031"/><path d="M13.59332,11.44483a4.58963,4.58963,0,0,1-4.52872,4.648,4.58963,4.58963,0,0,1-4.52872-4.648,4.58963,4.58963,0,0,1,4.52872-4.648,4.58963,4.58963,0,0,1,4.52872,4.648" fill="#fff"/><polygon points="9.061 6.961 9.212 7.456 9.724 7.456 9.307 7.766 9.46 8.252 9.061 7.954 8.655 8.252 8.806 7.764 8.393 7.456 8.904 7.456 9.061 6.961" fill="#003da6"/><polygon points="12.075 8.767 12.23 9.258 12.743 9.258 12.327 9.569 12.48 10.055 12.077 9.755 11.672 10.055 11.829 9.569 11.407 9.258 11.921 9.258 12.075 8.767" fill="#003da6"/><polygon points="10.781 7.373 10.935 7.867 11.449 7.867 11.033 8.178 11.184 8.666 10.783 8.363 10.381 8.666 10.532 8.176 10.116 7.867 10.628 7.867 10.781 7.373" fill="#003da6"/><polygon points="12.568 10.471 12.722 10.965 13.234 10.965 12.82 11.274 12.97 11.761 12.571 11.46 12.168 11.761 12.322 11.274 11.903 10.965 12.412 10.965 12.568 10.471" fill="#003da6"/><polygon points="12.352 12.273 12.506 12.765 13.019 12.765 12.603 13.079 12.755 13.565 12.354 13.265 11.953 13.565 12.103 13.076 11.688 12.765 12.2 12.765 12.352 12.273" fill="#003da6"/><polygon points="11.383 13.712 11.534 14.206 12.049 14.206 11.632 14.517 11.784 15.002 11.386 14.703 10.982 15.002 11.134 14.517 10.715 14.206 11.229 14.206 11.383 13.712" fill="#003da6"/><polygon points="9.859 14.517 10.014 15.01 10.523 15.01 10.108 15.322 10.262 15.81 9.86 15.51 9.457 15.81 9.608 15.322 9.192 15.01 9.704 15.01 9.859 14.517" fill="#003da6"/><polygon points="5.988 8.607 5.833 9.098 5.323 9.098 5.736 9.411 5.585 9.897 5.986 9.595 6.391 9.897 6.237 9.411 6.656 9.098 6.142 9.098 5.988 8.607" fill="#003da6"/><polygon points="7.25 7.373 7.096 7.867 6.585 7.867 7.001 8.178 6.847 8.666 7.25 8.363 7.653 8.666 7.502 8.176 7.918 7.867 7.405 7.867 7.25 7.373" fill="#003da6"/><polygon points="5.399 10.251 5.248 10.742 4.735 10.742 5.153 11.052 5 11.541 5.399 11.241 5.803 11.541 5.651 11.052 6.07 10.742 5.559 10.742 5.399 10.251" fill="#003da6"/><polygon points="5.559 12.05 5.402 12.545 4.891 12.545 5.307 12.857 5.156 13.344 5.556 13.043 5.959 13.344 5.805 12.856 6.221 12.545 5.71 12.545 5.559 12.05" fill="#003da6"/><polygon points="6.526 13.522 6.374 14.015 5.861 14.015 6.277 14.326 6.123 14.812 6.526 14.511 6.932 14.812 6.777 14.325 7.193 14.015 6.681 14.015 6.526 13.522" fill="#003da6"/><polygon points="8.051 14.455 7.898 14.949 7.385 14.949 7.801 15.26 7.65 15.746 8.048 15.449 8.455 15.746 8.3 15.257 8.719 14.949 8.206 14.949 8.051 14.455" fill="#003da6"/></svg>