<svg width="100" height="100" viewBox="0 0 100 100" fill="none" xmlns="http://www.w3.org/2000/svg">
<mask id="mask0" mask-type="alpha" maskUnits="userSpaceOnUse" x="11" y="11" width="78" height="78">
<path d="M88.4614 11.5386V88.4617H11.5383V11.5386H88.4614Z" fill="white"/>
</mask>
<g mask="url(#mask0)">
<path d="M86.9228 50.0002C86.9228 70.3917 70.3913 86.9233 49.9998 86.9233C29.6067 86.9233 13.0767 70.3917 13.0767 50.0002C13.0767 29.6078 29.6067 13.0771 49.9997 13.0771C70.3913 13.0771 86.9228 29.6078 86.9228 50.0002" fill="#B4B2B2"/>
<path d="M86.9228 50.0002C86.9228 70.3917 70.3913 86.9233 49.9998 86.9233C29.6067 86.9233 13.0767 70.3917 13.0767 50.0002C13.0767 29.6078 29.6067 13.0771 49.9997 13.0771C70.3913 13.0771 86.9228 29.6078 86.9228 50.0002" stroke="white" stroke-width="3.8462"/>
</g>
<path d="M85.8634 50.0001C85.8634 69.8071 69.8065 85.864 50.0003 85.864C30.1926 85.864 14.1365 69.8071 14.1365 50.0001C14.1365 30.1924 30.1926 14.1363 50.0003 14.1363C69.8065 14.1363 85.8634 30.1924 85.8634 50.0001Z" fill="#1D428A"/>
<path d="M50 80.5808C33.1093 80.5808 19.4177 66.8892 19.4177 50C19.4177 33.1092 33.1093 19.4185 50 19.4185C66.89 19.4185 80.5823 33.1092 80.5823 50C80.5823 66.8892 66.89 80.5808 50 80.5808Z" fill="#C8102E"/>
<path d="M50.0002 78.8271C37.7856 78.8271 27.3287 71.1879 23.1371 60.4402C28.2625 67.4548 38.3802 72.2402 50.0002 72.2402C61.621 72.2402 71.7379 67.4548 76.8641 60.4402C72.6725 71.1879 62.2148 78.8271 50.0002 78.8271ZM50.0002 21.1717C62.2148 21.1717 72.6733 28.8117 76.8641 39.561C71.7379 32.5464 61.6217 27.7602 50.0002 27.7602C38.3794 27.7602 28.2625 32.5464 23.1371 39.561C27.3279 28.8118 37.7856 21.1718 50.0002 21.1718V21.1717ZM21.1948 50.8994H26.8233V49.1002H21.1948C21.2164 48.4194 21.2525 47.7418 21.3202 47.0741C23.3148 37.0325 35.4125 29.2833 50.0002 29.2833C64.5872 29.2833 76.6856 37.0325 78.681 47.0748C78.7487 47.7425 78.7856 48.4194 78.8064 49.1002H73.1772V50.8994H78.8064C78.7856 51.581 78.7487 52.2579 78.681 52.9264C76.6856 62.9679 64.5872 70.7164 50.0002 70.7164C35.4125 70.7164 23.3148 62.9687 21.3202 52.9264C21.2525 52.2579 21.2164 51.581 21.1948 50.8994ZM50.0002 19.4179C33.1379 19.4179 19.4187 33.1371 19.4187 50.0002C19.4187 66.8625 33.1379 80.581 50.0002 80.581C66.8633 80.581 80.5825 66.8625 80.5825 50.0002C80.5825 33.1371 66.8633 19.4179 50.0002 19.4179" fill="#FEFEFE"/>
<path d="M37.0772 60.5143H39.2411V50.7989H37.078L37.0772 60.5143ZM45.3656 50.8035H45.3002C44.6925 50.7989 42.4841 50.7904 42.0602 50.7989L41.9502 50.8051C41.2972 50.8051 40.8825 51.1151 40.781 51.6774C40.7633 51.7689 40.7625 51.8389 40.7633 51.8389C40.761 51.8589 40.6133 53.6797 40.7925 54.1935C41.0825 55.0297 41.7571 55.3389 42.3779 55.5312C42.3987 55.5366 42.4195 55.5435 42.4425 55.5497C42.4818 55.5597 42.5233 55.5704 42.5625 55.5874C42.631 55.6151 42.6787 55.652 42.7071 55.6981L42.7164 59.1966L40.931 59.202L40.9379 60.4966L43.2856 60.4989H43.2872C44.1025 60.4635 44.6641 60.1066 44.8725 59.4904C44.9318 59.0158 44.9395 55.7581 44.8925 55.0781C44.8779 54.8212 44.7602 54.6151 44.5233 54.4281C44.431 54.3566 44.3172 54.2827 44.1718 54.202C44.0433 54.1351 43.9048 54.0666 43.771 54.0051C43.2641 53.7574 42.6887 53.4758 42.6887 52.8289L42.6902 52.2758H44.3887C44.7372 52.2758 45.0148 52.1051 45.1956 51.7835C45.3325 51.5374 45.3695 51.2912 45.3687 51.2774C45.3833 51.1166 45.3756 50.9674 45.3695 50.8689L45.3656 50.8035H45.3656ZM54.5389 52.9858C54.5489 52.7296 54.5705 52.5373 54.6058 52.3858L54.6443 52.3481C54.7412 52.3327 54.8351 52.3265 54.9497 52.3265L54.9935 52.3273C55.7266 52.3358 55.7474 52.5558 55.7474 53.8827V57.9396C55.7474 58.0611 55.7474 58.175 55.7397 58.295C55.7343 58.4111 55.7212 58.5211 55.6997 58.6234L55.6605 58.6619C55.532 58.6804 55.4082 58.6904 55.2743 58.6904C55.0051 58.6904 54.8182 58.6319 54.702 58.5127C54.5297 58.335 54.5243 58.0381 54.5351 57.6958V53.5988C54.5351 53.5988 54.5312 53.1434 54.5389 52.9858ZM55.252 50.795C54.7651 50.795 54.2574 50.8111 53.8489 50.9265C52.7897 51.1819 52.2743 51.8896 52.2743 53.0904V58.8696C52.2743 60.3504 53.3335 60.6542 54.9235 60.6542C56.8505 60.6542 57.9551 59.9734 57.9551 58.7881L57.9582 52.7642C57.9582 50.795 56.7035 50.795 55.252 50.795ZM62.9705 54.9277C61.9374 51.1869 60.2797 50.7692 59.5928 50.7692C59.4143 50.7692 59.3066 50.7977 59.3028 50.7992L59.2512 50.8131L59.2505 60.5208L61.4405 60.5238V56.6185L62.9659 60.5239H65.192V50.8085H62.9705V54.9277V54.9277ZM33.571 55.1095L32.3541 55.111V52.2895C32.3541 52.2895 33.0156 52.2764 33.1141 52.2895C33.3541 52.3202 33.5764 52.4133 33.5764 52.7018C33.5764 52.7956 33.571 55.1095 33.571 55.1095ZM34.4448 50.7956L28.9864 50.8025L28.9195 50.8033L28.9164 50.8695C28.9156 50.881 28.8695 52.0256 30.1464 52.2918V60.5172H32.3848V56.3833H34.2679C35.2618 56.3833 35.8318 55.7295 35.8318 54.5895L35.8372 54.2418C35.8372 51.4895 35.7256 50.9379 34.4448 50.7956ZM51.6025 50.8107H46.5394V52.3384H47.9825V60.5314L50.2079 60.5299L50.2094 52.3291C50.2371 52.3307 50.264 52.3314 50.2902 52.3314C50.6879 52.3314 51.0048 52.2099 51.2317 51.9699C51.6356 51.5453 51.6071 50.9045 51.6063 50.8768L51.6025 50.8107L51.6025 50.8107ZM71.0879 50.8035H71.0225C70.4141 50.7989 68.2064 50.7904 67.7818 50.7989L67.6725 50.8051C67.0195 50.8051 66.6048 51.1151 66.5033 51.6774C66.4856 51.7689 66.4856 51.8389 66.4856 51.8389C66.4833 51.8589 66.3348 53.6797 66.5148 54.1935C66.8048 55.0297 67.4795 55.3389 68.0995 55.5312C68.121 55.5366 68.1418 55.5435 68.1641 55.5497C68.2041 55.5597 68.2449 55.5704 68.2841 55.5874C68.3525 55.6151 68.401 55.652 68.4295 55.6981L68.4387 59.1966L66.6533 59.202L66.6595 60.4966L69.0079 60.4989H69.0102C69.8241 60.4635 70.3864 60.1066 70.5948 59.4904C70.6541 59.0158 70.6618 55.7581 70.6156 55.0781C70.5995 54.8212 70.4825 54.6151 70.2448 54.4281C70.1525 54.3566 70.0395 54.2827 69.8941 54.202C69.7648 54.1351 69.6272 54.0666 69.4941 54.0051C68.9856 53.7574 68.4118 53.4758 68.4118 52.8289L68.4125 52.2758H70.1102C70.4595 52.2758 70.7372 52.1051 70.9172 51.7835C71.0541 51.5374 71.0918 51.2912 71.091 51.2774C71.1056 51.1166 71.0987 50.9674 71.0918 50.8689L71.0879 50.8035ZM51.2292 40.8385L51.5976 40.8377L51.6561 40.8385C52.2222 40.8477 52.433 40.8508 52.4184 41.8477C52.4199 42.6431 52.4184 42.6931 52.4022 43.0854L52.4007 43.16C52.4022 43.2746 52.3538 43.4008 52.2807 43.4761C52.2292 43.5284 52.1684 43.5546 52.0999 43.5546H51.2292V40.8384V40.8385ZM51.223 44.8038H51.5984C51.9599 44.8115 52.5661 44.9223 52.5661 45.5715C52.5661 45.8815 52.5938 46.8531 52.6045 47.2177L52.6091 47.3638C52.6115 47.4177 52.6353 47.8931 52.6584 47.9831C52.8138 48.5492 53.2538 48.8885 53.9407 48.9623H54.5745V45.5046C54.5745 45.2077 54.413 44.7923 54.1799 44.4954L54.1338 44.4323C54.4815 44.0423 54.6161 43.6492 54.6161 43.0492L54.6184 42.7115C54.6184 40.0254 54.5115 39.4877 53.2645 39.3492H49.0615V48.8315H51.223V44.8038ZM64.6442 39.3492H62.5357L62.5288 48.8261L64.6442 48.8277V39.3492ZM44.3981 48.8403L46.5681 48.8372L46.5712 40.8272C46.5981 40.828 46.6242 40.8288 46.6504 40.8288C47.0396 40.8288 47.3496 40.7103 47.5712 40.4757C47.9642 40.0618 47.9358 39.438 47.9342 39.4126L47.9312 39.3488H42.9904V40.8372H44.3981V48.8403ZM67.1622 48.8403L69.3337 48.8372V40.8272C69.3606 40.828 69.3883 40.8288 69.4137 40.8288C69.8045 40.8288 70.1145 40.7095 70.3368 40.4757C70.7298 40.0611 70.7022 39.438 70.7006 39.4126L70.6968 39.3488H65.7552V40.8372H67.1622V48.8403ZM41.8542 47.3071H39.5818V45.0032H41.1395V42.9394H39.5818V40.8055H41.8542V39.3494H37.4734L37.4657 48.8263H41.8542V47.3071ZM33.9673 47.3071H32.7665V40.8355C33.5104 40.8048 33.6681 40.8701 33.6804 40.8763C33.9604 40.9863 33.955 41.5055 33.955 41.5194C34.0335 42.2686 33.9758 46.7109 33.9673 47.3071ZM34.7165 39.3494H29.3119L29.3042 39.4071C29.3004 39.4301 29.2358 39.9748 29.5865 40.3894C29.8088 40.654 30.1481 40.8017 30.5988 40.8309V48.8148H34.6235C35.5412 48.8148 36.1573 48.0348 36.1573 46.8748L36.1588 42.4763C36.1604 40.0494 36.1612 39.3971 34.7165 39.3494ZM57.9825 41.4935C57.9932 41.2428 58.0148 41.0551 58.0494 40.9051L58.0886 40.8689C58.1832 40.8543 58.2771 40.8481 58.3902 40.8481H58.4332C59.1617 40.8574 59.1825 41.0735 59.1825 42.3712V46.3412C59.1825 46.4604 59.1825 46.572 59.1748 46.6897C59.1686 46.8028 59.1555 46.9104 59.1355 47.0104L59.0955 47.0481C58.9686 47.0674 58.8455 47.0766 58.7125 47.0766C58.4471 47.0766 58.2609 47.0189 58.1455 46.902C57.974 46.7281 57.9686 46.4381 57.9794 46.1028V42.0928C57.9794 42.0928 57.9755 41.6474 57.9825 41.4935ZM58.6909 39.3497C58.2078 39.3497 57.704 39.3643 57.2978 39.4781C56.2463 39.7281 55.7355 40.4204 55.7355 41.5951V47.252C55.7355 48.7012 56.7871 48.9974 58.3648 48.9974C60.2763 48.9974 61.3732 48.332 61.3732 47.172L61.3763 41.2758C61.3763 39.3497 60.1317 39.3497 58.6909 39.3497Z" fill="#FEFEFE"/>
</svg>
