<svg width="100" height="100" viewBox="0 0 100 100" fill="none" xmlns="http://www.w3.org/2000/svg">
<path d="M50.0003 86.9231C34.2972 86.9231 20.2803 76.9503 15.1203 62.1072C8.44641 42.8784 18.661 21.8031 37.8903 15.1287C41.8118 13.7667 45.8857 13.0769 49.9995 13.0769C65.7065 13.0769 79.7226 23.0489 84.8788 37.8912L85.0542 38.3934L85.0496 38.3988C91.3749 57.4884 81.1749 78.2546 62.1149 84.8706C58.1903 86.2333 54.1149 86.9231 50.0003 86.9231Z" fill="#C4CDD3"/>
<path d="M50.0003 86.9231C34.2972 86.9231 20.2803 76.9503 15.1203 62.1072C8.44641 42.8784 18.661 21.8031 37.8903 15.1287C41.8118 13.7667 45.8857 13.0769 49.9995 13.0769C65.7065 13.0769 79.7226 23.0489 84.8788 37.8912L85.0542 38.3934L85.0496 38.3988C91.3749 57.4884 81.1749 78.2546 62.1149 84.8706C58.1903 86.2333 54.1149 86.9231 50.0003 86.9231" stroke="white" stroke-width="3.8462"/>
<path d="M80.6095 58.922C79.801 61.6989 78.6426 64.2782 77.2049 66.6335C75.5156 60.5197 71.6179 54.2043 66.6033 48.4351C67.0556 47.6658 67.5733 46.8905 68.1648 46.0635C69.5333 44.5781 70.1779 45.9558 70.1779 45.9558C71.2764 42.9766 70.5779 41.4766 70.0456 40.8351C69.8464 40.5405 69.6064 40.4343 69.6064 40.4343C69.1456 38.3389 67.2464 37.2389 67.2464 37.2389C67.2464 37.2389 67.901 34.2951 67.5841 31.2474C77.8541 35.5366 80.8887 43.2958 81.771 47.3674C82.0864 51.1528 81.7349 55.0574 80.6095 58.922ZM66.9171 77.0128C66.6879 73.2951 66.0695 70.2905 66.0695 70.2905C66.4033 70.4259 67.2402 71.0274 67.2402 71.0274C67.081 64.0728 64.1572 61.6235 64.2372 57.8305C64.3033 54.6543 64.7371 52.4451 65.5756 50.4605C70.6502 56.4366 74.441 62.9135 75.6572 68.9351C73.2572 72.1866 70.2771 74.9097 66.9171 77.0128ZM18.7733 43.6243C20.9325 40.6974 26.4964 34.1535 32.6348 34.8089C32.1494 35.6843 31.741 36.4374 31.4979 36.9189C29.8887 39.4074 28.3787 42.3928 27.2564 45.9243C26.0879 49.6028 25.4802 53.4312 25.4141 57.3866C24.1064 58.4635 22.7571 59.4635 21.3764 60.3374C21.3764 60.3374 23.8348 62.5305 26.281 63.3935C26.281 63.3935 24.6002 66.0358 23.5271 67.7597C18.9133 60.8689 17.0041 52.2343 18.7733 43.6243ZM26.3833 28.5858C27.0879 28.5374 28.0895 28.5005 29.2871 28.5335C32.2002 28.7951 33.2556 29.5981 34.9471 30.7074C34.5266 31.4434 34.1082 32.1806 33.6918 32.9189C28.2772 31.8597 23.4033 35.4366 20.1625 38.7989C21.6102 34.9351 23.741 31.4943 26.3833 28.5858ZM40.7787 19.4943C40.6241 20.4712 40.6048 21.7051 41.0802 22.9182C41.381 23.6828 41.8441 24.3458 42.4541 24.9105C41.0541 25.5043 39.7933 26.0582 38.7564 26.5243C36.301 26.4251 32.0041 26.3012 28.9864 26.4797C28.8233 26.4774 28.651 26.4705 28.4964 26.4705C32.0179 23.2597 36.2241 20.8766 40.7787 19.4943H40.7787ZM43.001 18.9058C46.7379 18.0612 50.6633 17.8797 54.6095 18.4605C56.0441 18.6712 57.4802 18.9835 58.9118 19.4012C58.9656 19.4166 59.0172 19.4351 59.071 19.4505C57.0587 19.7612 54.4695 20.3474 51.5548 21.4105C49.2479 22.1828 46.8533 23.0997 44.6502 23.9974C43.8471 23.5289 43.2764 22.9282 42.9825 22.1858C42.4941 20.9551 42.7856 19.6012 43.001 18.9058ZM51.0741 34.6912C49.9887 33.9566 48.8995 33.2566 47.8125 32.602C46.9964 31.6843 45.351 29.9635 44.4887 29.0658C44.9133 28.3935 45.4787 27.592 46.1648 26.8335C49.5287 27.9935 52.3202 28.2105 54.0756 28.3297C54.4171 28.3535 54.7218 28.3735 54.9856 28.3997L55.2402 28.4212C55.7033 28.4605 56.1495 28.5105 56.5979 28.5597C54.9118 30.3258 53.1387 32.222 51.0741 34.6912ZM40.6602 41.4535C37.8348 44.2897 33.1695 50.4043 27.5633 55.5212C28.0518 47.9782 30.5995 41.6235 34.1033 36.6943C34.4725 36.3312 34.9118 35.9712 35.3971 35.6205C37.5833 36.722 39.2971 38.8251 40.6602 41.4535ZM42.2102 40.0835C40.9087 37.6958 39.3095 35.6958 37.3179 34.3881C38.2387 33.8566 39.1941 33.3705 40.0671 32.9543C41.3171 33.1243 44.9625 33.6543 46.4902 34.2035C47.5795 34.8558 48.6702 35.5566 49.7595 36.2951C49.481 36.6397 49.1995 36.992 48.911 37.3597C48.911 37.3597 45.6795 37.3997 42.2102 40.0835ZM63.4433 21.1366L63.4448 21.0989C70.7048 24.4643 76.2341 30.3535 79.2703 37.3751C75.9464 33.2451 71.4472 30.6527 67.1525 29.0258C66.6333 27.322 65.6518 25.8166 63.881 25.0751C63.5356 24.2843 63.0518 23.7312 62.1026 23.3751C61.0579 23.6074 59.3548 24.8197 58.2995 26.7381C57.1533 26.5627 56.1671 26.4551 55.4102 26.3904L55.1802 26.3704C54.901 26.3435 54.5764 26.322 54.2141 26.2966C52.6733 26.1912 50.5271 26.0366 47.9279 25.2758C48.0695 25.1797 48.2125 25.0881 48.3587 25.0027C56.6533 20.9812 63.3548 21.1343 63.4433 21.1366ZM80.4118 33.3135C75.9518 25.1904 68.5964 19.2904 59.6979 16.6989C58.1648 16.2535 56.591 15.9089 55.0225 15.6781H55.0218L55.0187 15.6774C37.9879 13.1689 21.5087 23.7589 16.6902 40.3112C14.0995 49.2089 15.1287 58.582 19.5879 66.7058C24.0479 74.8297 31.4041 80.7297 40.301 83.3204C41.8356 83.7674 43.4095 84.1112 44.9802 84.342C48.4618 84.8551 51.9171 84.812 55.2579 84.292C55.2995 84.312 55.3395 84.3358 55.381 84.3551L55.421 84.2666C68.3525 82.1874 79.491 72.8235 83.3102 59.7081C85.901 50.8112 84.8718 41.4374 80.4118 33.3135Z" fill="#002A5B"/>
<path d="M44.6504 23.9971C46.8535 23.0994 49.2473 22.1832 51.555 21.4102C54.4689 20.3471 57.0581 19.7609 59.0712 19.4509C59.0166 19.4348 58.9658 19.4155 58.9127 19.4009C57.4796 18.984 56.045 18.6717 54.6096 18.4609C50.6627 17.8794 46.7373 18.0617 43.0012 18.9063C42.7858 19.6009 42.4935 20.9548 42.9819 22.1855C43.2765 22.9286 43.8473 23.5294 44.6504 23.9971ZM27.2559 45.9243C28.379 42.392 29.889 39.4074 31.4975 36.9189C31.7413 36.4374 32.149 35.6835 32.6344 34.8089C26.4967 34.1535 20.9329 40.6974 18.7736 43.6243C17.0036 52.2343 18.9136 60.8689 23.5275 67.7597C24.5998 66.0358 26.2805 63.3935 26.2805 63.3935C23.8344 62.5305 21.3767 60.3381 21.3767 60.3381C22.7575 59.4635 24.1067 58.4635 25.4136 57.3866C25.4798 53.4312 26.0875 49.6028 27.2559 45.9243V45.9243ZM28.4966 26.4708C28.6504 26.4715 28.8227 26.4769 28.985 26.48C32.0042 26.3008 36.3004 26.4246 38.7558 26.5238C39.7935 26.0577 41.0542 25.5038 42.4542 24.9108C41.8442 24.3454 41.3812 23.6831 41.0804 22.9177C40.605 21.7046 40.6242 20.4708 40.7789 19.4946C36.2235 20.8762 32.0181 23.2592 28.4965 26.4708H28.4966ZM66.9172 77.0124C70.2772 74.9101 73.2579 72.187 75.6564 68.9347C74.441 62.9132 70.6502 56.4362 65.5764 50.4601C64.7372 52.4455 64.3025 54.6539 64.2372 57.8301C64.1572 61.6239 67.081 64.0732 67.2395 71.0278C67.2395 71.0278 66.4025 70.4255 66.0679 70.2908C66.0679 70.2908 66.6872 73.2939 66.9172 77.0124ZM40.0669 32.9537C39.1946 33.3698 38.2385 33.856 37.3177 34.3891C39.3092 35.6952 40.9085 37.6968 42.2092 40.0845C45.6785 37.3991 48.9108 37.3599 48.9108 37.3599C49.2 36.9922 49.4808 36.6399 49.7585 36.2945C48.6715 35.5575 47.5792 34.856 46.49 34.2037C44.9623 33.6552 41.3169 33.1245 40.0669 32.9537ZM56.5979 28.5599C56.1494 28.5106 55.7032 28.4606 55.2394 28.4214L54.9855 28.3998C54.7217 28.3729 54.4171 28.3529 54.0755 28.3306C52.3194 28.2099 49.5286 27.9945 46.1648 26.8345C45.4786 27.5914 44.914 28.3937 44.4894 29.066C45.3509 29.9629 46.9963 31.6845 47.8125 32.6022C48.9002 33.256 49.9886 33.9568 51.0732 34.6922C53.1386 32.2214 54.9125 30.326 56.5978 28.5599" fill="#004F83"/>
<path d="M20.1626 38.7993C23.4034 35.437 28.2772 31.86 33.6918 32.9185C34.1203 32.1585 34.5526 31.3985 34.9472 30.707C33.2557 29.5977 32.2003 28.7947 29.2872 28.5331C28.0895 28.5 27.0872 28.5385 26.3834 28.587C23.7411 31.4947 21.6103 34.9354 20.1626 38.7993ZM80.6096 58.922C81.735 55.0574 82.0865 51.1528 81.7711 47.3674C80.8888 43.2959 77.8542 35.5366 67.5842 31.2474C67.9011 34.2951 67.2465 37.239 67.2465 37.239C67.2465 37.239 69.1457 38.339 69.6065 40.4344C69.6065 40.4344 69.8465 40.5405 70.0457 40.8351C70.5781 41.4767 71.2765 42.9767 70.1781 45.9559C70.1781 45.9559 69.5334 44.5782 68.165 46.0636C67.5734 46.8905 67.0557 47.6659 66.6034 48.4351C71.618 54.2043 75.5157 60.5197 77.205 66.6336C78.6427 64.2782 79.8011 61.699 80.6096 58.922" fill="#004F83"/>
<path d="M62.1028 23.3755C63.0505 23.7309 63.5351 24.284 63.882 25.0747C65.6513 25.8171 66.6335 27.3217 67.152 29.0263C71.4466 30.6524 75.9466 33.2447 79.2697 37.3747C76.2343 30.354 70.7043 24.464 63.4443 21.0994L63.4428 21.1371C63.3551 21.134 56.6528 20.9809 48.359 25.0025C48.212 25.0878 48.069 25.1794 47.9282 25.2763C50.5266 26.0363 52.672 26.1917 54.2136 26.2971C54.5766 26.3225 54.9005 26.344 55.1797 26.3709L55.4105 26.3909C56.1659 26.454 57.1528 26.5624 58.2997 26.7386C59.3551 24.8201 61.0582 23.6078 62.1028 23.3755ZM40.6605 41.4532C39.2974 38.8247 37.5836 36.7224 35.3966 35.6201C34.912 35.9717 34.4728 36.3317 34.1028 36.694C30.5989 41.6232 28.052 47.9778 27.562 55.5217C33.1697 50.404 37.8335 44.2894 40.6605 41.4532Z" fill="#004F83"/>
<path d="M43.7878 26.0925L41.5832 29.2902C41.5832 29.2902 43.2493 30.4479 44.6193 32.0141C42.2217 31.5241 39.5893 31.081 39.5893 31.081L35.4163 33.3502L37.3724 30.1041C37.3724 30.1041 36.0563 28.9802 34.5386 28.001C36.2024 28.0495 39.367 28.3118 39.367 28.3118L43.7878 26.0926V26.0925ZM47.9108 40.2362C47.9108 40.2362 47.4439 41.5277 47.3823 42.7277C47.3823 42.7277 44.4562 43.1592 43.0477 44.1177C43.0477 44.1177 45.9693 41.2062 47.9108 40.2362Z" fill="#7AC142"/>
<path d="M67.625 40.1068C67.9504 40.0275 68.1935 40.0144 68.375 40.0275C68.3204 39.8783 68.2197 39.6544 68.0381 39.4337C67.7797 39.1206 67.4035 38.886 67.4035 38.886C67.6458 39.2598 67.6527 39.776 67.6251 40.1068H67.625ZM64.9853 41.4386C65.363 41.1786 65.7076 40.9632 66.0207 40.7878C65.9637 40.6524 65.8753 40.4571 65.743 40.2209C65.4922 39.7717 64.8384 39.3801 64.8384 39.3801C65.1084 40.1794 65.0507 40.9901 64.9853 41.4386Z" fill="#FEFEFE"/>
<path d="M33.5963 61.1898C31.1086 62.2067 25.2217 60.8206 25.2217 60.8206C31.1686 60.4783 36.9855 56.2175 36.9855 56.2175C36.9809 56.2275 36.9755 56.2383 36.9724 56.2475C35.2286 58.9221 32.8255 60.469 32.8255 60.469C33.0901 60.8075 33.3571 61.0329 33.5963 61.1898Z" fill="#C4CDD3"/>
<path d="M63.2487 25.7068C63.2487 25.7068 61.7864 24.5607 60.1272 26.3384C61.9049 23.0984 62.9318 24.9561 63.2487 25.7068Z" fill="#7AC142"/>
<path d="M69.0226 41.4204C69.0226 41.4204 68.8695 41.3166 68.8372 41.2989C67.9095 40.8051 66.2464 42.2466 65.1603 42.8443C64.0757 43.442 62.4949 44.7151 61.7226 42.9612C60.951 41.2074 62.7257 38.4643 63.341 36.7381C64.698 32.922 64.7472 30.6751 64.461 29.4604C65.7149 30.8766 66.1095 33.5912 66.1095 33.5912C66.1095 33.5912 66.5756 28.4927 64.0826 27.1497C64.1402 27.3304 64.0749 27.9658 64.0241 28.4666C64.0241 28.4666 64.0195 28.4597 64.0164 28.4558C62.8549 28.6681 60.2941 28.3774 59.4626 27.942C56.3141 31.3189 52.8818 36.0181 50.2979 40.3335C49.1772 42.6158 48.0802 45.2927 47.8056 47.4689C47.8056 47.4689 47.4487 46.4851 47.3641 45.1727C45.9349 45.7243 41.0749 48.1127 40.0356 55.4358C40.0356 55.4358 43.1241 52.2489 46.5387 51.0074C46.5387 51.0074 44.3764 56.6704 48.5041 66.7089C48.5041 66.7089 50.1749 60.5535 53.6702 59.0004C55.7864 69.5112 61.9903 69.6835 63.7995 76.835C63.7995 76.835 65.6957 73.1304 63.4133 66.8335C63.4133 66.8335 64.2003 67.0535 64.868 67.8396C64.868 67.8396 64.7641 65.9973 63.0426 62.0243C61.921 59.8973 61.5695 57.0266 61.5695 57.0266C60.5618 57.9397 60.3033 61.0235 60.3033 61.0235C57.2233 52.6674 65.9657 44.3858 67.5618 43.1651C68.3403 42.5674 68.8202 42.5574 69.111 42.7004C69.411 42.0781 69.3841 41.6804 69.0226 41.4204" fill="#C4CDD3"/>
</svg>
