<svg width="100" height="100" viewBox="0 0 100 100" fill="none" xmlns="http://www.w3.org/2000/svg">
<g filter="url(#filter0_d)">
<path d="M83.224 11.6794L73.6108 21.3176L65.6262 13.3134L65.588 13.3491L65.5447 13.3109L57.5575 21.3176L49.5601 13.3058L41.5703 21.3176L33.5755 13.3058L33.5729 13.3109L25.5781 21.3201L16.1558 11.8706C16.1558 11.8706 16.2372 51.2364 16.2372 54.5451C16.2372 73.1051 31.0997 88.206 49.6135 88.206C68.1325 88.206 83.1935 73.1051 83.1935 54.5451C83.1935 51.2364 83.224 11.6794 83.224 11.6794Z" fill="#FEFEFE"/>
<path d="M40.6496 64.1002C50.161 64.1002 57.2348 68.0768 62.4001 70.9776C65.9166 72.9557 68.6978 74.5183 71.1303 74.5183C72.2016 74.5183 73.1838 74.2201 74.138 73.6032C77.1659 69.7439 79.2601 65.181 80.1965 60.3912H35.7387C36.0339 61.7499 36.3749 63.0703 36.7565 64.3143C38.0619 64.1715 39.3697 64.1002 40.6496 64.1002ZM19.2251 60.3887C20.0164 64.4086 21.5813 68.1864 23.8867 71.6226C25.2785 69.178 28.0647 66.142 33.5355 64.847C33.1156 63.4399 32.7416 61.9436 32.4235 60.3887H19.2251ZM26.0696 74.5158C31.983 81.457 40.497 85.4591 49.4715 85.5177C48.6241 85.0844 47.7972 84.6077 47.0007 84.0953C43.1967 81.6329 37.9652 76.838 34.5886 67.9468C29.2706 69.1092 27.0212 72.1273 26.0696 74.5158Z" fill="#5C666F"/>
<path d="M37.863 67.4807C40.26 73.517 43.8833 78.1564 48.6365 81.2714C51.779 83.3361 54.7917 84.2716 56.7764 84.6948C61.7484 83.5324 66.3896 81.1337 70.2318 77.7434C67.2013 77.4095 64.0919 75.6633 60.8094 73.8178C55.6873 70.9399 49.3082 67.3533 40.6951 67.3533C39.7638 67.3533 38.8147 67.4017 37.863 67.4807Z" fill="#5C666F"/>
<path d="M50.8141 44.708C50.7606 44.708 50.7097 44.7131 50.6563 44.7207L50.6512 44.708H39.7378V57.8971H44.3383V47.3004H47.7963V57.8971H52.1805V46.5357C52.1805 45.5288 51.5672 44.708 50.8141 44.708ZM54.396 44.708H54.1212V56.0184C54.1212 57.0278 54.7293 57.8435 55.4799 57.8435C55.4825 57.8435 55.4901 57.841 55.4977 57.841V57.8435H66.546V49.875L62.1262 49.8699V55.2817H58.6707V47.2367H66.546V44.708H54.396ZM27.4923 44.7105L24.9885 50.0229H23.5433V44.7106H18.9631V57.892H23.5433V52.5822H24.9885L27.4923 57.892H32.0674L28.8409 51.3025L32.0674 44.7105H27.4923Z" fill="#5A2C81"/>
<mask id="mask0" mask-type="alpha" maskUnits="userSpaceOnUse" x="16" y="11" width="68" height="78">
<path d="M16.1563 88.2047H83.2245V11.6807H16.1562L16.1563 88.2047Z" fill="white"/>
</mask>
<g mask="url(#mask0)">
<path d="M33.2859 57.8907H38.0263V44.7068H33.2859V57.8907Z" fill="#5A2C81"/>
</g>
<mask id="mask1" mask-type="alpha" maskUnits="userSpaceOnUse" x="16" y="11" width="68" height="78">
<path d="M16.1563 88.2047H83.2245V11.6807H16.1562L16.1563 88.2047Z" fill="white"/>
</mask>
<g mask="url(#mask1)">
<path d="M80.4773 48.2578L80.4824 44.7069H80.4773V44.6865L68.3196 44.7069V50.7228C68.3196 51.7271 68.9303 52.5479 69.6784 52.5479H75.8742V55.4233H68.3196V57.845H80.4824V51.8316C80.4824 50.8936 79.9531 50.1186 79.2686 50.0218V50.0116H72.8819V47.2484H76.0778V48.2578H80.4773Z" fill="#5A2C81"/>
</g>
<mask id="mask2" mask-type="alpha" maskUnits="userSpaceOnUse" x="16" y="11" width="68" height="78">
<path d="M16.1563 88.2047H83.2245V11.6807H16.1562L16.1563 88.2047Z" fill="white"/>
</mask>
<g mask="url(#mask2)">
<path d="M67.5432 31.2882H63.6603L71.6679 23.2636L65.6145 17.1968L57.5535 25.2061L49.5611 17.1968L35.5053 31.2882H31.6223L39.6146 23.2509L33.574 17.1968L25.5817 25.2061L18.9634 18.6294V42.2621H80.477V18.3235L67.5432 31.2882Z" fill="#5A2C81"/>
</g>
<mask id="mask3" mask-type="alpha" maskUnits="userSpaceOnUse" x="16" y="11" width="68" height="78">
<path d="M16.1563 88.2047H83.2245V11.6807H16.1562L16.1563 88.2047Z" fill="white"/>
</mask>
<g mask="url(#mask3)">
<path d="M32.4026 39.722C32.4026 40.0636 32.6825 40.3414 33.0209 40.3414H36.4789V39.4135H33.6621V36.3954H36.4789V35.4675H32.4026V39.722H32.4026Z" fill="#FEFEFE"/>
</g>
<mask id="mask4" mask-type="alpha" maskUnits="userSpaceOnUse" x="16" y="11" width="68" height="78">
<path d="M16.1563 88.2047H83.2245V11.6807H16.1562L16.1563 88.2047Z" fill="white"/>
</mask>
<g mask="url(#mask4)">
<path d="M28.0238 38.1429H29.5836V36.3967H28.0238V38.1429H28.0238ZM30.151 35.474L26.7668 35.4663V40.3453H28.0238V39.0682H29.5836V40.3453H30.8431V36.0908C30.8431 35.7263 30.5225 35.423 30.151 35.474Z" fill="#FEFEFE"/>
</g>
<mask id="mask5" mask-type="alpha" maskUnits="userSpaceOnUse" x="16" y="11" width="68" height="78">
<path d="M16.1563 88.2047H83.2245V11.6807H16.1562L16.1563 88.2047Z" fill="white"/>
</mask>
<g mask="url(#mask5)">
<path d="M75.3747 39.4047H76.9294V36.3942H75.3747V39.4047ZM77.5757 35.4663H74.7233C74.3849 35.4663 74.105 35.7442 74.105 36.0857V39.7208C74.105 40.0624 74.3849 40.3402 74.7233 40.3402H77.5757C77.9141 40.3402 78.1915 40.0624 78.1915 39.7182V36.0857C78.1915 35.7441 77.9141 35.4663 77.5757 35.4663Z" fill="#FEFEFE"/>
</g>
<mask id="mask6" mask-type="alpha" maskUnits="userSpaceOnUse" x="16" y="11" width="68" height="78">
<path d="M16.1563 88.2047H83.2245V11.6807H16.1562L16.1563 88.2047Z" fill="white"/>
</mask>
<g mask="url(#mask6)">
<path d="M21.126 37.7503C21.126 38.0919 21.4059 38.3697 21.7468 38.3697H23.9427V39.4148H21.126V40.3427H25.2023V38.0613C25.2023 37.7452 24.9656 37.4801 24.6476 37.4444L24.6145 37.4418H22.383V36.3967H25.2023V35.4663H21.126V37.7503Z" fill="#FEFEFE"/>
</g>
<mask id="mask7" mask-type="alpha" maskUnits="userSpaceOnUse" x="16" y="11" width="68" height="78">
<path d="M16.1563 88.2047H83.2245V11.6807H16.1562L16.1563 88.2047Z" fill="white"/>
</mask>
<g mask="url(#mask7)">
<path d="M44.8301 38.1429H46.3899V36.3967H44.8301V38.1429H44.8301ZM47.026 35.4663H43.5706V40.3453H44.8301V39.0682H46.3899V40.3453H47.6494V36.0908C47.6494 35.7492 47.3695 35.4663 47.026 35.4663H47.026Z" fill="#FEFEFE"/>
</g>
<mask id="mask8" mask-type="alpha" maskUnits="userSpaceOnUse" x="16" y="11" width="68" height="78">
<path d="M16.1563 88.2047H83.2245V11.6807H16.1562L16.1563 88.2047Z" fill="white"/>
</mask>
<g mask="url(#mask8)">
<path d="M68.6233 36.3961H70.0355V40.3447H71.29V36.3961H72.6996V35.4683H68.6233V36.3961Z" fill="#FEFEFE"/>
</g>
<mask id="mask9" mask-type="alpha" maskUnits="userSpaceOnUse" x="16" y="11" width="68" height="78">
<path d="M16.1563 88.2047H83.2245V11.6807H16.1562L16.1563 88.2047Z" fill="white"/>
</mask>
<g mask="url(#mask9)">
<path d="M55.5763 35.4675H49.3193V40.3414H50.5763V36.3954H52.1208V40.3414H53.3956V36.3954H54.9376V40.3414H56.1946V36.0869C56.1946 35.7479 55.9173 35.4675 55.5763 35.4675Z" fill="#FEFEFE"/>
</g>
<mask id="mask10" mask-type="alpha" maskUnits="userSpaceOnUse" x="16" y="11" width="68" height="78">
<path d="M16.1563 88.2047H83.2245V11.6807H16.1562L16.1563 88.2047Z" fill="white"/>
</mask>
<g mask="url(#mask10)">
<path d="M66.7269 35.4675H63.2715V40.3414H64.5285V36.3954H66.0883V40.3414H67.3478V36.0869C67.3478 35.7479 67.0679 35.4675 66.7269 35.4675Z" fill="#FEFEFE"/>
</g>
<mask id="mask11" mask-type="alpha" maskUnits="userSpaceOnUse" x="16" y="11" width="68" height="78">
<path d="M16.1563 88.2047H83.2245V11.6807H16.1562L16.1563 88.2047Z" fill="white"/>
</mask>
<g mask="url(#mask11)">
<path d="M57.9084 39.722C57.9084 40.0636 58.1858 40.3414 58.5268 40.3414H61.9822V39.4135H59.168V38.3684H61.9822V37.4431H59.168V36.3954H61.9822V35.4675H57.9084V39.722Z" fill="#FEFEFE"/>
</g>
<mask id="mask12" mask-type="alpha" maskUnits="userSpaceOnUse" x="16" y="11" width="68" height="78">
<path d="M16.1563 88.2047H83.2245V11.6807H16.1562L16.1563 88.2047Z" fill="white"/>
</mask>
<g mask="url(#mask12)">
<path d="M39.184 37.6432H40.7438V36.3967H39.184V37.6432ZM41.329 38.5711H42.0008V36.0883C42.0008 35.7263 41.6878 35.4255 41.3112 35.474L37.927 35.4663V40.3453H39.184V38.5711H40.0949L40.8481 40.3402H42.0746L41.329 38.5711Z" fill="#FEFEFE"/>
</g>
</g>
<defs>
<filter id="filter0_d" x="-4" y="0" width="108" height="108" filterUnits="userSpaceOnUse" color-interpolation-filters="sRGB">
<feFlood flood-opacity="0" result="BackgroundImageFix"/>
<feColorMatrix in="SourceAlpha" type="matrix" values="0 0 0 0 0 0 0 0 0 0 0 0 0 0 0 0 0 0 127 0"/>
<feOffset dy="4"/>
<feGaussianBlur stdDeviation="2"/>
<feColorMatrix type="matrix" values="0 0 0 0 0 0 0 0 0 0 0 0 0 0 0 0 0 0 0.25 0"/>
<feBlend mode="normal" in2="BackgroundImageFix" result="effect1_dropShadow"/>
<feBlend mode="normal" in="SourceGraphic" in2="effect1_dropShadow" result="shape"/>
</filter>
</defs>
</svg>
