<svg width="100" height="100" viewBox="0 0 100 100" fill="none" xmlns="http://www.w3.org/2000/svg">
<path d="M49.4466 88.3069L43.178 80.1674C35.2015 77.5374 29.65 70.3324 29.1366 61.9492L25.2472 56.9009C21.5496 58.4945 17.846 61.0186 17.846 61.0186L6.18177 49.3165L11.098 38.543L2.30835 27.1304H16.2938L19.0006 21.2354L25.9264 18.4417L26.6935 16.3549L32.3069 18.917L33.6413 14.2541L34.5562 13.9506C38.997 12.4708 44.1109 11.676 49.3488 11.6461C49.4986 11.6361 51.1626 11.6661 51.2026 11.6661C51.3983 11.6661 52.2154 11.71 52.2154 11.71C56.6441 11.9237 60.8072 12.6605 64.5867 13.9026L65.5156 14.2082L66.7422 18.6534L68.7638 17.1277L80.1064 21.1595L82.8451 27.1324H96.9006L88.015 38.5909L92.8573 49.2087L81.0113 61.402C81.0113 61.402 76.6684 58.2349 73.69 57.0547L70.1202 61.6576C69.7127 70.2405 63.8716 77.769 55.6593 80.2952L49.4466 88.3069Z" fill="#FEFEFE"/>
<path d="M49.457 82.6667L89.8672 30.5823L9.31445 30.5803L49.457 82.6667Z" fill="#B3B1B1"/>
<path d="M89.8675 30.5813L49.4572 82.6657L9.31471 30.5793L89.8675 30.5813ZM5.99463 28.9458L49.4532 85.3356L93.2016 28.9478L5.99463 28.9458Z" fill="#0F4B90"/>
<path d="M84.0336 34.2046L84.0196 34.1707L83.9876 34.1507L81.4027 32.4134L82.3655 30.5742L82.3935 30.5183L82.3675 30.4604L78.8098 22.6623L78.7858 22.6144L78.7358 22.5964L69.1432 19.1816L69.0753 19.1576L69.0193 19.1996L66.4763 21.1406L66.4484 21.1626L66.4344 21.1945L65.9989 22.2609C65.9989 22.2609 62.0216 21.2624 56.1805 20.6793C55.5852 20.6194 53.9951 20.4896 51.4581 20.2899L51.2124 20.2699L50.9567 20.252L50.8968 20.246L50.8548 20.2879L48.959 22.177L48.9611 20.238C48.9611 20.238 43.5834 20.5415 40.0616 21.0208C36.5397 21.4981 33.0778 22.3707 33.0778 22.3707L32.4406 21.0068L32.4206 20.9649L32.3767 20.9429L27.85 18.8721L27.7222 18.8162L27.6742 18.946L27.1488 20.3798L27.029 20.0922L26.979 19.9744L26.8612 20.0223L20.3828 22.6184L20.3349 22.6383L20.3129 22.6863L8.36304 48.9302L18.1734 58.7532L18.6309 58.4916C18.9265 58.3238 19.3461 58.0782 19.8175 57.7986C21.0041 57.0997 22.6302 56.1431 23.4073 55.7677L23.5651 55.6918C24.5699 55.2066 25.0753 54.9609 29.8437 52.9221L30.2412 52.7723C30.2472 52.7723 30.7785 52.5646 31.7594 52.2391C34.3783 51.3704 41.1822 49.3455 47.7765 49.3455H47.8504C48.1141 49.3455 48.3758 49.3495 48.6394 49.3575C53.1181 49.4813 58.3519 50.4319 61.9537 51.2067C65.4216 51.9535 68.0285 52.6724 68.7696 52.8801L69.269 53.0339C72.5491 54.3019 76.5584 56.3928 80.274 58.7711L80.7455 59.0747L90.6757 48.8503L84.0336 34.2047V34.2046Z" fill="#0F4B90"/>
<path d="M82.9659 35.1142L73.4212 28.746L71.7611 24.0871L74.7176 25.1375L75.9122 28.049L80.4049 29.4888L77.784 23.6977L69.304 20.6863L67.7479 21.8904L70.5666 31.0484L79.6418 37.4606L81.9691 43.2558L78.1955 41.5544L76.8991 37.9479L72.2685 36.584L74.7436 44.7355C75.5067 45.0171 76.2658 45.3067 77.0169 45.6102C79.0765 46.4449 81.0961 47.3675 83.0678 48.378C84.4342 49.0749 85.7786 49.8178 87.099 50.5986L89.0727 48.5737L82.9659 35.1142H82.9659ZM18.5968 39.432L21.777 36.5924L22.5361 37.477L19.3958 46.5052C21.1155 45.7468 22.8634 45.0541 24.6356 44.4284L26.911 36.9838L24.9473 33.7407L29.0145 29.8766L31.3917 21.9587L28.4711 20.6467L25.8462 28.1113L21.6392 31.7318L25.4746 22.0566L21.3515 23.7001L9.99097 48.614L11.7688 50.3953C12.8236 49.7822 13.8923 49.1911 14.9751 48.628L18.5968 39.432ZM47.3845 21.6662L43.9007 21.8499L42.2626 40.5373C43.7429 40.3976 45.2351 40.3017 46.7373 40.2498L47.3846 21.6662L47.3845 21.6662ZM57.7213 36.6587L53.6761 36.4171L53.0269 24.9725L56.4548 25.1383L56.0533 21.9851L51.4448 21.6576L49.3812 23.7144L49.3772 38.0286L51.5406 40.2432C53.774 40.3111 55.9854 40.4788 58.1688 40.7424L57.7213 36.6587V36.6587ZM34.7996 29.0425L36.2599 36.1477L35.315 41.5314C36.7293 41.2598 38.1537 41.0262 39.592 40.8365L39.602 40.8345L41.8533 22.0951L38.6191 22.5664L37.5564 28.701L36.3538 22.9258L32.5503 23.8784L27.2585 43.5543C28.7882 43.0761 30.3332 42.6485 31.8911 42.2723L34.7996 29.0425V29.0425ZM62.9144 35.6247L64.0531 34.087L65.7151 35.4569L67.2453 42.4243C68.8514 42.8277 70.4395 43.2829 72.0057 43.7902L69.151 33.5698L66.2065 31.1635L67.8825 28.9289L66.4902 23.7408L62.9364 22.95L64.3347 28.174L62.1213 31.1315L60.4873 22.5407L57.1972 22.1233C57.1972 22.1233 58.8472 34.724 59.6263 40.9305C61.1165 41.1422 62.5928 41.3998 64.055 41.6974L62.9144 35.6247Z" fill="#F26729"/>
<path d="M42.7738 44.0865C42.7738 44.0865 44.1442 43.2837 46.887 42.9802L46.7991 40.8215C45.2949 40.8714 43.8006 40.9652 42.3183 41.105C42.4482 41.9497 42.642 43.2078 42.7738 44.0865ZM51.4891 42.8494C52.6038 42.9792 53.7964 43.3446 54.8452 43.6402C55.792 43.8678 56.8128 44.2752 57.6478 44.6466L58.1093 41.3217C55.9039 41.0501 53.8204 40.8864 51.565 40.8165C51.5331 41.4615 51.5311 42.3721 51.4891 42.8494ZM37.0594 48.1177C38.3359 47.1691 39.103 46.1926 40.4474 45.3739C40.1917 44.1677 39.8521 42.6041 39.6044 41.41C38.1421 41.6037 36.6938 41.8453 35.2595 42.1229C35.8089 43.9121 36.51 46.3105 37.0594 48.1177H37.0594ZM58.7611 45.3158C60.0056 46.0367 60.9765 46.8514 62.0892 47.9318L62.3089 48.0995L64.0629 42.2984C62.5527 41.9849 61.0844 41.7133 59.5422 41.4956L58.7611 45.3158V45.3158ZM64.2954 50.3563L68.4764 51.3408L71.9943 44.3874C70.3722 43.8582 68.8081 43.4229 67.144 43.0055L64.2954 50.3563ZM30.6597 51.34C31.7505 50.9386 33.2747 50.3874 34.697 50.008L31.9822 42.833C30.3421 43.2304 28.9118 43.6477 27.3137 44.153C28.3245 46.5573 29.4572 49.0335 30.6597 51.34V51.34ZM24.3534 53.9226C24.5951 53.7149 26.9683 52.6905 28.5924 52.0036C27.3578 49.771 25.8736 47.3067 24.6351 45.0342C22.8652 45.6652 21.2531 46.3202 19.5411 47.0811L24.3534 53.9226ZM18.4326 57.062C19.1877 56.6087 19.9888 56.1434 20.8697 55.6342L15.3223 49.0922C14.2675 49.6394 13.2267 50.2125 12.2 50.8076L18.4326 57.062ZM70.6902 52.2005C74.0203 53.4925 78.6768 56.1025 80.5286 57.3446C81.3836 56.5278 86.0161 51.6653 86.6534 50.9983C82.8019 48.7397 78.7547 46.8187 74.5437 45.2711L70.6902 52.2005ZM50.8487 42.7405L49.2586 42.6846L49.2306 38.8225L50.8846 40.5379L50.8487 42.7405Z" fill="#B3B1B1"/>
<path d="M49.6211 41.9758C39.2853 41.9758 30.9092 50.351 30.9072 60.6832C30.9092 71.0135 39.2853 79.3887 49.6211 79.3887C59.9549 79.3887 68.335 71.0135 68.335 60.6833C68.335 50.3511 59.9549 41.9759 49.6211 41.9759" fill="#0F4B90"/>
<path d="M50.7721 43.3761C49.3358 43.8774 47.9534 44.6063 46.583 45.2413C45.6481 44.6822 45.1128 44.5404 44.4815 44.133C46.4492 43.4181 48.5667 43.3102 50.7721 43.3761ZM64.1776 51.318C59.7688 46.8768 53.1547 47.1983 47.5433 45.6267C47.5433 45.6267 50.8454 44.0551 52.5494 43.6198C57.134 44.4006 61.5727 47.1444 64.1776 51.318ZM39.3917 51.9856C35.1567 58.4817 34.5834 66.4854 37.9554 73.4987C33.5966 69.8383 30.9996 62.7511 32.9553 55.8697C34.5574 53.6311 36.619 51.6521 39.3917 51.9856" fill="#F26729"/>
<path d="M43.9259 56.6113C46.2092 63.3969 46.7146 70.9074 52.6256 77.741C48.0171 78.6756 43.4505 77.2957 39.8108 74.9892C35.3001 68.4112 35.7256 58.5982 40.2343 52.22C42.4317 52.853 43.6283 55.7246 43.9259 56.6113Z" fill="#F26729"/>
<path d="M40.7581 51.5035C41.4433 50.537 42.2163 49.6244 43.0853 48.7737C52.672 51.4795 61.8132 61.4164 63.3793 71.1814C62.9219 71.9183 61.8272 72.9467 61.0921 73.6816C58.7089 75.8223 56.084 76.9306 53.5649 77.5317C49.0882 72.8888 47.614 66.862 46.0318 60.9211C44.8193 56.3621 43.9763 52.9233 40.7621 51.5275L40.7581 51.5035Z" fill="#F26729"/>
<path d="M63.1564 51.4607C58.5258 47.377 52.0755 47.9002 46.6639 45.9971C45.6191 46.6381 44.5963 47.3949 43.7233 48.1777C53.31 51.1831 62.0097 60.5528 64.0813 70.236C65.5835 68.0653 66.4924 65.5452 66.858 62.8713C67.0917 58.7655 67.0518 55.0293 63.1564 51.4607V51.4607ZM42.2948 48.4743C41.3699 49.3629 40.6767 50.2376 39.9556 51.258L39.9336 51.252C37.3966 50.6849 35.395 51.9969 33.7869 53.6324C34.554 51.6954 36.1621 49.3969 37.8641 47.8952C39.4342 47.9631 40.5768 47.9391 42.2948 48.4743ZM42.9746 47.8802C43.8816 47.0734 44.7605 46.3685 45.8512 45.7135L43.3921 44.4954C41.7561 45.1643 40.0041 46.035 38.8015 47.1353C40.6613 47.353 41.4564 47.4668 42.9746 47.8802Z" fill="#F26729"/>
<path d="M46.9706 19.0441L46.2135 19.797L44.917 19.8749L44.4336 19.4555L43.8243 19.9727L42.412 20.1045L41.7907 19.5134L42.6058 13.9859L43.6745 13.8401L43.0972 18.7206L43.8643 18.6367L44.4596 13.7462L45.5163 13.6424L45.0748 18.499L45.826 18.4291L46.2115 13.5965C46.661 13.5485 46.8927 13.5525 47.2862 13.5305L46.9706 19.0441H46.9706ZM50.4381 13.4555L50.4481 16.9341L51.1293 16.9301L51.0873 13.4714C51.0873 13.4714 51.8045 13.4934 52.1261 13.5214L52.2639 17.4214L51.6067 18.0784L51.391 18.0884L51.4229 19.7578L50.2623 19.7239L50.2483 18.0524L50.0166 18.0345L49.3134 17.3176L49.3574 13.4375C49.7329 13.4375 50.4381 13.4555 50.4381 13.4555ZM41.8279 14.1001L41.6461 15.2423L40.3536 15.4859L40.1199 16.8219C40.5933 16.736 40.883 16.6901 41.4463 16.6142C41.3684 17.1115 41.3445 17.2832 41.2585 17.7525L39.9601 17.9382L39.7164 19.2163L41.0468 19.0245C41.0468 19.0245 40.915 19.8852 40.847 20.2686C39.9161 20.3845 38.9792 20.5183 38.0863 20.674C38.0863 20.674 39.0871 16.0371 39.3348 14.6073L41.8279 14.1001ZM36.9552 20.8785L35.6068 21.1441L36.2261 18.616L35.8066 17.7094L34.7478 21.3478L33.4314 21.6473C33.9788 19.6783 34.5401 17.7074 35.0874 15.7384C35.5409 15.5866 35.8785 15.4828 36.278 15.3649C36.4239 15.6964 36.7794 16.3654 36.7794 16.3654L37.0991 15.1313C37.0991 15.1313 37.9341 14.9116 38.3536 14.8158L36.9552 20.8785ZM54.1333 14.7944L54.4709 18.5686L55.1401 18.6226L54.7846 14.8663L54.1333 14.7944ZM55.9092 14.5268C56.0431 16.1104 56.3048 17.6261 56.4646 19.1038L55.8753 20.0025L53.9695 19.8767L53.2823 19.1278C53.1605 17.5123 53.0766 15.8828 52.9767 14.2612C53.1525 14.0296 53.4202 13.8499 53.6299 13.6242L55.2181 13.778L55.9092 14.5268ZM62.0666 15.0928C62.3043 15.9994 62.7677 17.8685 62.7677 17.8685L63.2192 17.9604L63.4389 17.6588L62.8736 15.3364C62.8736 15.3364 63.4329 15.4921 64.0322 15.6739L64.6315 17.9224L64.3499 18.3278L64.8733 18.9029L65.6643 21.6427L64.3618 21.3512L63.8504 19.4301L63.0394 19.2484L63.4829 21.1615L62.1624 20.9019C61.701 18.841 60.866 14.7832 60.866 14.7832C60.866 14.7832 61.5372 14.923 62.0666 15.0928ZM58.1724 15.3929L58.3981 16.9665L59.1152 17.0464L58.8116 15.5087L58.1724 15.3929V15.3929ZM60.0042 15.313L60.4397 17.5736L60.188 17.921L60.6315 18.4502L61.015 20.6948L59.7465 20.4731L59.4009 18.604L58.6378 18.5201L58.9075 20.3433L57.641 20.1836L56.8 13.9831L59.2211 14.4104L60.0042 15.313Z" fill="#0F4B90"/>
</svg>
