<svg width="100" height="100" viewBox="0 0 100 100" fill="none" xmlns="http://www.w3.org/2000/svg">
<mask id="mask0" mask-type="alpha" maskUnits="userSpaceOnUse" x="11" y="11" width="78" height="78">
<path d="M88.313 11.7168H11.5383V88.6538H88.313V11.7168Z" fill="white"/>
</mask>
<g mask="url(#mask0)">
<path d="M49.9267 11.7164C28.7599 11.7164 11.5381 28.9742 11.5381 50.1872C11.5381 71.3982 28.7599 88.6538 49.9267 88.6538C71.0934 88.6538 88.3131 71.3982 88.3131 50.1872C88.3131 28.9742 71.0934 11.7164 49.9267 11.7164Z" fill="#FEFEFE"/>
</g>
<path d="M49.9268 12.771C29.3011 12.771 12.5908 29.5267 12.5908 50.1871C12.5908 70.8474 29.3011 87.5989 49.9268 87.5989C70.5463 87.5989 87.2607 70.8474 87.2607 50.1871C87.2607 29.5267 70.5463 12.771 49.9268 12.771Z" fill="#0F4B90"/>
<path d="M78.5428 63.7152C72.8633 62.4411 67.6026 60.4919 62.803 58.1799C62.0641 57.8213 61.3357 57.4542 60.6179 57.0808C57.1045 55.2561 53.8648 53.25 50.9176 51.1996C50.324 50.784 49.7388 50.3684 49.1725 49.9529C49.1346 49.9275 49.1009 49.9001 49.0672 49.8769C48.3094 49.3221 47.5789 48.7673 46.8653 48.2125C45.7033 47.3076 44.5981 46.4089 43.554 45.5229C42.4041 44.547 41.2769 43.5447 40.1732 42.5169C39.2554 41.6647 38.4007 40.8399 37.6155 40.0551C37.4471 39.8906 37.2892 39.7281 37.1292 39.5657C35.8914 38.3106 34.822 37.1609 33.9505 36.1863C33.9253 35.4438 33.9063 34.794 33.8895 34.2266C33.8453 32.8069 33.8242 31.9779 33.8242 31.9779L32.8243 31.5243L32.1296 32.1319L31.8938 32.3365C31.8938 32.3365 31.9044 32.885 31.9254 33.83C31.7107 33.5663 31.5465 33.3596 31.4055 33.1845C31.397 32.3871 31.3928 31.7733 31.3886 31.3661C31.3844 31.0033 31.3844 30.8029 31.3844 30.8029H29.9993L29.974 31.6277L29.1404 31.8344C29.1404 31.8344 29.1067 33.5853 29.0562 36.3762C27.069 40.9263 24.9891 44.5357 23.1114 47.3265C22.1599 48.7399 21.2589 49.9402 20.4505 50.9443C19.5138 52.1025 18.6949 53.0032 18.0612 53.6508C17.9434 52.8344 17.8612 52.0075 17.8065 51.1743C17.756 50.4528 17.7244 49.7271 17.7244 48.993C17.7244 48.2547 17.756 47.527 17.8065 46.7992C18.3075 39.3358 21.3326 32.5664 26.048 27.3496C27.0711 26.2168 28.1783 25.1558 29.3509 24.1791C34.4263 19.9495 40.8216 17.2599 47.8252 16.8127C48.5157 16.7684 49.2062 16.7368 49.9072 16.7368C50.7218 16.7368 51.526 16.779 52.3259 16.838C59.3717 17.3612 65.7775 20.1563 70.8318 24.4955C71.9549 25.4585 73.0107 26.4974 73.9916 27.6049C78.5155 32.7183 81.4394 39.2809 81.9889 46.5081C82.052 47.3308 82.092 48.1577 82.092 48.993C82.092 49.5985 82.071 50.1976 82.0394 50.7924C81.7826 55.4291 80.549 59.8042 78.5428 63.7152ZM18.8107 57.3171C18.6823 56.834 18.5665 56.3467 18.4612 55.8573C18.798 55.3848 19.1748 54.8469 19.6001 54.2309L18.8107 57.3171ZM22.1767 50.8114L20.2779 61.6057C19.9116 60.7387 19.5832 59.8485 19.2927 58.9435L20.7179 52.5644C21.0757 52.0244 21.4568 51.4401 21.8399 50.8368C21.9936 50.5984 22.143 50.3663 22.2988 50.1174L22.1767 50.8114ZM28.2436 42.0929L27.2626 47.6282L26.7532 50.5203L23.7113 67.7211C23.2482 67.0735 22.804 66.4153 22.3914 65.734L25.067 50.6195L25.6185 47.5185L26.0817 44.888L26.408 43.0506C27.3174 41.3419 28.1994 39.5531 29.0162 37.7241L28.2436 42.0929ZM43.2445 48.1957L43.7919 49.9275L48.8504 65.9196C48.1557 65.966 47.4758 66.0103 46.8 66.0588L41.7478 49.9613L41.1857 48.1682L40.9331 47.3624L39.2006 41.8461C39.5522 42.192 39.9016 42.5274 40.249 42.8629C40.8784 43.4662 41.5015 44.059 42.1141 44.6306L43.2445 48.1957ZM45.9285 48.2125L46.4611 49.8938L49.0925 58.201L51.486 65.7487L51.4881 65.7614H51.486C50.8334 65.7973 50.1871 65.8352 49.5493 65.8753L48.9578 63.9957L44.5202 49.9149L43.9792 48.202L43.1519 45.5778C44.0655 46.4089 44.9665 47.2084 45.8506 47.9742L45.9285 48.2125ZM57.075 65.4956C56.4014 65.5209 55.7341 65.5504 55.071 65.58L50.945 52.4695L50.8166 52.0645C50.8566 52.0982 50.8966 52.1235 50.9366 52.1552C51.7582 52.7963 52.5884 53.4264 53.4269 54.0453L57.075 65.4956ZM62.7272 65.3353C62.001 65.3501 61.2768 65.3648 60.559 65.3838L57.976 57.2348C58.9444 57.874 59.8748 58.4689 60.7779 59.0216L62.7272 65.3353ZM68.3268 63.1266C70.7982 64.289 72.6654 64.9788 73.8063 65.35C72.1981 65.3121 70.6003 65.291 69.0109 65.2826L68.3268 63.1266ZM64.9839 61.4412C65.8072 61.885 66.6396 62.3119 67.4805 62.7216L68.291 65.2826C68.0468 65.2826 67.8047 65.2846 67.5605 65.2846C67.1016 65.2846 66.6427 65.2846 66.1859 65.2868L65.3439 62.5951L64.9839 61.4412ZM61.6641 59.5553C62.474 60.0413 63.2923 60.5132 64.1187 60.9707L65.4723 65.2952C65.1018 65.2994 64.7355 65.3057 64.3629 65.31C64.0576 65.3142 63.7503 65.3163 63.4451 65.3205L62.2094 61.3251L61.6642 59.5553H61.6641ZM57.0898 56.6399C57.1298 56.6631 57.1634 56.6906 57.2034 56.7159L57.1045 56.6864L59.8538 65.4028C59.157 65.4239 58.4665 65.4471 57.7802 65.4703L54.4247 54.7794C55.3362 55.4375 56.2204 56.0514 57.0856 56.6357L57.1003 56.6842L57.1045 56.6864L57.0898 56.64V56.6399ZM46.7979 48.7884C47.24 49.1639 47.6737 49.5246 48.1052 49.8811C48.4631 50.1765 48.8167 50.4633 49.1704 50.7481C49.3851 50.9211 49.6019 51.1025 49.8166 51.2713L51.0081 55.0283L54.3679 65.6095C53.6332 65.6433 52.9069 65.6833 52.1891 65.7213L51.3344 63.0317L49.1241 56.0999L47.1474 49.8875L46.7979 48.7884ZM68.7183 71.071C64.9397 70.8854 59.4264 70.7272 51.8144 70.7335C50.8166 70.7356 49.783 70.7398 48.7115 70.7461C46.3011 70.763 43.7266 70.7925 40.931 70.8453C43.5519 70.725 46.1643 70.6365 48.7178 70.5732C49.7577 70.5457 50.7829 70.5246 51.7954 70.5057C58.0539 70.3875 63.8071 70.4065 68.1857 70.4592C70.4908 70.4866 72.417 70.5267 73.8421 70.5584C73.6021 70.8242 73.3537 71.0836 73.1053 71.341C72.0296 71.2588 70.5792 71.1617 68.7183 71.071V71.071ZM35.7167 71.9865C39.4596 71.9021 43.9518 71.841 48.6609 71.8494C49.7345 71.8515 50.8145 71.8578 51.8986 71.8684C58.2139 71.9296 64.6913 72.1363 70.1435 72.6194C70.655 72.6658 71.1729 72.7101 71.6655 72.7607C71.4255 72.9843 71.175 73.1953 70.9266 73.4104C65.287 78.2918 57.9444 81.2514 49.9072 81.2514C45.0633 81.2514 40.4721 80.1713 36.3503 78.2496C36.1251 76.5219 35.9125 74.3913 35.7167 71.9865ZM33.3927 76.6801C33.1422 76.5325 32.898 76.3743 32.6538 76.2182C32.5654 74.9419 32.4833 73.5475 32.4054 72.0688C32.6412 72.0603 32.8874 72.0561 33.1295 72.0477C33.2179 73.864 33.3043 75.4355 33.3927 76.6801ZM35.0873 62.7132C34.9673 60.6649 34.8578 58.5722 34.7547 56.4796L36.1861 61.0003L37.0597 63.749L38.026 66.7929C37.0997 66.8837 36.2135 66.9743 35.3546 67.0651C35.342 66.8984 35.3336 66.7275 35.3209 66.5609C35.2409 65.3057 35.1631 64.0211 35.0873 62.7132ZM34.3758 47.9868C34.3589 47.5501 34.34 47.0966 34.321 46.6684L34.7399 48.0016L35.4051 50.1301L37.8386 57.8951L38.6575 60.5151L40.55 66.5588C39.9311 66.6136 39.3206 66.6706 38.7249 66.7276L37.525 62.9052L36.6661 60.1755L34.6199 53.6508C34.5673 52.4737 34.5147 51.3093 34.4663 50.1638C34.4355 49.4382 34.4053 48.7125 34.3757 47.9868L34.3758 47.9868ZM26.8584 68.0734L28.7446 57.3973C28.7046 61.148 28.6815 64.7678 28.6836 67.8371C28.0268 67.9194 27.4247 67.9975 26.8584 68.0734ZM28.7278 73.2712C28.3383 72.9295 27.9573 72.5814 27.5868 72.2186C27.9236 72.208 28.292 72.1954 28.7109 72.1806C28.7151 72.5666 28.7215 72.9295 28.7278 73.2712V73.2712ZM27.951 47.6725L28.9572 41.9727C28.9278 43.7657 28.8962 45.7065 28.8667 47.7253C28.8541 48.607 28.8414 49.5035 28.8309 50.4085C28.8141 51.5371 28.7993 52.6762 28.7846 53.8196L28.6899 53.8027L26.1448 68.1704C25.4333 68.2675 24.8123 68.3561 24.2734 68.432L27.4521 50.4802L27.951 47.6725H27.951ZM35.2388 37.8402C35.6599 38.2832 36.0851 38.7198 36.504 39.1523C36.9524 39.6121 37.3945 40.0636 37.8365 40.5045C37.8913 40.5614 37.9523 40.6226 38.007 40.6774L38.2281 41.3757L39.529 45.4618L40.3858 48.1556L40.9647 49.9782L40.9879 50.052L46.0969 66.1095C45.4275 66.158 44.7686 66.2086 44.1181 66.2571L40.4826 54.6212L39.6659 52.0139L39.0449 50.0225L38.4512 48.1134L35.5841 38.9413L35.2388 37.8402ZM33.9568 36.488C34.0137 36.547 34.0663 36.6019 34.121 36.6588L34.7799 38.7578L37.7081 48.0965L38.3207 50.0415L39.3859 53.4441L40.1837 55.9839L43.4256 66.3141C42.6846 66.3731 41.9604 66.4343 41.2468 66.4955L39.0764 59.4941L38.2702 56.9015L36.1609 50.1047L35.5146 48.029L34.2137 43.829C34.1421 41.9052 34.0789 40.1479 34.0284 38.5869C34.0031 37.8402 33.9779 37.1271 33.9568 36.488H33.9568ZM31.4139 33.7119C31.5886 33.9081 31.7633 34.0937 31.9359 34.2878C31.9654 35.4374 32.0054 37.0533 32.0517 38.9877C32.117 41.5128 32.197 44.5842 32.2896 47.9003C32.3107 48.6703 32.3317 49.4529 32.3549 50.2461C32.5001 55.2477 32.6706 60.6164 32.8496 65.388C32.8727 66.0462 32.898 66.6959 32.9232 67.3287C32.6727 67.3583 32.4348 67.3857 32.1907 67.4131C32.1738 66.9828 32.1591 66.5377 32.1401 66.101C31.9444 61.0066 31.7949 55.4502 31.6812 50.2735C31.6644 49.4613 31.6496 48.6597 31.6328 47.8708C31.5697 44.7424 31.5233 41.8271 31.4855 39.3126C31.4518 37.0765 31.4307 35.1484 31.4139 33.7119H31.4139ZM23.9597 47.3941C24.4313 46.5966 24.9091 45.7824 25.3849 44.928L25.1912 46.0461L24.9407 47.47L24.3828 50.6616L21.9009 64.8797C21.4841 64.1455 21.0947 63.3946 20.7368 62.6246L22.8293 50.7671L23.2019 48.6576C23.2924 48.5121 23.385 48.3518 23.4734 48.2062C23.6369 47.9363 23.799 47.6656 23.9597 47.3941ZM49.9072 14.583C30.936 14.583 15.5562 29.9886 15.5562 49.0015C15.5562 68.0164 30.936 83.4221 49.9072 83.4221C59.5527 83.4221 68.2615 79.4351 74.501 73.0202C74.7115 72.9084 74.962 72.6046 75.1831 72.3029C80.8121 66.1727 84.2518 57.9943 84.2518 49.0015C84.2518 29.9886 68.8783 14.583 49.9072 14.583Z" fill="#FEC42F"/>
<path d="M17.7241 48.9941C17.7241 49.7282 17.7557 50.4538 17.8062 51.1732C18.2651 51.1289 19.1577 51.0466 20.4502 50.9432C21.2586 49.9412 22.1596 48.7409 23.1111 47.3254C20.2418 47.0892 18.4314 46.8761 17.8062 46.8002C17.7557 47.5258 17.7241 48.2557 17.7241 48.9941ZM82.0917 48.9941C82.0917 48.1566 82.0517 47.3297 81.9886 46.5091C74.3197 47.2326 67.1771 47.6798 60.6471 47.933C60.9776 42.8913 63.4047 38.3474 66.8382 33.9407C69.6127 30.3715 72.5346 28.4307 73.9913 27.6059C73.0103 26.4963 71.9557 25.4584 70.8315 24.4944C68.3223 26.9773 60.1229 35.9785 59.5398 47.9794C56.5106 48.087 53.6224 48.1524 50.8773 48.1861C50.711 29.4812 52.1783 17.9423 52.3256 16.837C51.5257 16.7779 50.7236 16.7378 49.9069 16.7378C49.2059 16.7378 48.5154 16.7694 47.8249 16.8116C47.9828 18.3157 49.1111 29.7913 49.1659 48.203C48.3891 48.2072 47.6207 48.2114 46.865 48.2114C47.5786 48.7662 48.3091 49.321 49.0669 49.8758H49.1722V49.9518C49.7384 50.3694 50.3237 50.785 50.9173 51.1985C50.911 50.7513 50.9047 50.3104 50.8963 49.8716C53.6308 49.8716 56.5042 49.8906 59.5166 49.9412C59.565 52.2321 59.9019 54.6201 60.6176 57.0818C61.3354 57.4552 62.0638 57.8223 62.8027 58.1809C61.4323 55.2719 60.746 52.5485 60.626 49.9623C67.175 50.0847 74.3449 50.342 82.0391 50.7913C82.0707 50.1965 82.0917 49.5995 82.0917 48.9941H82.0917ZM29.3506 24.178C28.178 25.1568 27.0707 26.2158 26.0477 27.3507C26.8792 27.7831 28.7169 28.8547 30.8052 30.8039H31.3841C31.3841 30.8039 31.3841 31.0022 31.3883 31.365C31.6325 31.6097 31.8809 31.8629 32.1293 32.1308L32.824 31.5253L33.8239 31.9768C33.8239 31.9768 33.845 32.8079 33.8892 34.2276C35.3333 36.1093 36.59 38.0184 37.5773 39.9802L40.1266 42.347C37.7183 32.675 31.0494 25.8044 29.3506 24.178" fill="#FEFEFE"/>
</svg>
