<svg width="100" height="100" viewBox="0 0 100 100" fill="none" xmlns="http://www.w3.org/2000/svg">
<path d="M33.7733 82.9392C33.3658 82.6041 33.1953 82.062 33.3386 81.5543L38.1528 64.4751C38.1797 64.3754 38.2187 64.2794 38.2689 64.1892L36.0582 60.658C35.8556 60.3352 35.8038 59.9434 35.91 59.5787L36.2187 58.5413L33.1904 58.3466C30.3424 58.1372 29.3272 57.7626 28.6504 57.3905C25.7949 55.8159 25.049 51.2966 24.8859 49.9487L24.7056 48.4307C24.6167 47.8147 24.7772 47.2134 25.1478 46.7797C25.4368 46.4446 25.8344 46.2302 26.2642 46.1809C19.679 40.2373 13.726 32.8521 15.8058 22.4434C18.1006 10.948 27.4128 7.48334 27.808 7.34042C27.9563 7.28622 28.1094 7.26156 28.2576 7.26156C28.7368 7.26156 29.1938 7.5203 29.4309 7.96386C29.5964 8.27434 29.6285 8.6218 29.5421 8.93966C32.6173 6.3375 35.5568 5.2015 36.7893 4.80724C36.9227 4.76288 37.0611 4.74316 37.1944 4.74316C37.7057 4.74316 38.1849 5.0364 38.4072 5.52186C38.6864 6.13298 38.4616 6.8599 37.8836 7.20736C35.0751 8.90026 32.6297 11.2043 30.7845 13.8557C33.0274 13.3333 34.5317 13.2766 35.0578 13.2766C35.2381 13.2766 35.3295 13.284 35.3295 13.284C35.9866 13.3235 36.5201 13.8385 36.5769 14.4915C36.6362 15.1445 36.2113 15.7433 35.5716 15.8985C35.537 15.9084 31.8763 16.8325 27.8352 19.7254C27.072 22.0467 26.6866 24.4714 26.6866 26.9332C26.6866 31.6003 28.1835 36.3932 30.7944 40.0796C31.4169 40.9593 32.0319 41.7257 32.6766 42.4255C32.4271 37.6327 33.803 30.144 42.4854 26.6695C42.6484 26.603 42.8164 26.5734 42.9819 26.5734C43.471 26.5734 43.9403 26.8445 44.17 27.3077C44.4812 27.9238 44.2639 28.6754 43.6735 29.0351L43.6093 29.0721C42.2705 29.9419 41.1441 31.0656 40.2845 32.3667C41.2281 32.0759 42.0408 31.9798 42.5891 31.9158L42.6929 31.9034C42.7448 31.896 42.7991 31.8936 42.851 31.8936C43.4067 31.8936 43.9131 32.241 44.1033 32.7758C44.3133 33.3598 44.086 34.0103 43.5624 34.343L43.5179 34.3701C43.4999 34.383 43.4809 34.3946 43.4611 34.4046C40.6822 36.0038 39.1359 37.8643 38.8667 39.9391C38.5703 42.2062 39.8276 44.3402 40.7291 45.5452C43.0659 42.8494 44.5874 38.2438 45.0123 36.509C45.1605 35.9077 45.699 35.4962 46.3042 35.4962C46.356 35.4962 46.4079 35.4987 46.4598 35.5061C47.1267 35.5825 47.6331 36.1443 47.6355 36.8146C47.6701 42.4748 46.1461 46.3411 44.585 48.8102C46.9242 49.993 49.2164 50.062 49.7129 50.062C49.7697 50.062 49.8488 50.0596 49.866 50.0596C49.8809 50.0596 49.9648 50.062 50.0241 50.062C50.5206 50.062 52.8129 49.993 55.1521 48.8102C53.591 46.3411 52.0669 42.4748 52.1015 36.8146C52.104 36.1443 52.6079 35.5825 53.2748 35.5061C53.3291 35.4987 53.381 35.4962 53.4329 35.4962C54.038 35.4962 54.5765 35.9077 54.7223 36.509C55.1496 38.2438 56.6712 42.8494 59.0079 45.5452C59.907 44.3427 61.1643 42.2062 60.8703 39.9391C60.6011 37.8643 59.0548 36.0038 56.2759 34.4046C56.2587 34.3947 56.192 34.3528 56.192 34.3528C55.6658 34.0202 55.4337 33.3647 55.6411 32.7807C55.8313 32.246 56.3303 31.8936 56.8885 31.8936C56.9404 31.8936 56.9923 31.896 57.0441 31.9034L57.1479 31.9158C57.6938 31.9798 58.5089 32.0759 59.4525 32.3667C58.5929 31.0656 57.4665 29.9419 56.1278 29.0745L56.066 29.0351C55.4732 28.6753 55.2558 27.9238 55.5646 27.3077C55.7968 26.8445 56.2661 26.5734 56.7552 26.5734C56.9207 26.5734 57.0886 26.603 57.2516 26.6695C65.934 30.144 67.3099 37.6327 67.0579 42.4255C67.7051 41.7257 68.3202 40.9593 68.9426 40.0796C71.5535 36.3932 73.0504 31.6003 73.0504 26.9332C73.0504 24.469 72.6651 22.0467 71.8993 19.7254C67.836 16.8103 64.2025 15.9084 64.1655 15.8985C63.5257 15.7433 63.1009 15.1445 63.1577 14.4915C63.2169 13.8385 63.7505 13.3235 64.4051 13.284C64.4051 13.284 64.4989 13.2766 64.6792 13.2766C65.2029 13.2766 66.7097 13.3333 68.95 13.8557C67.1073 11.2043 64.6619 8.90026 61.8534 7.20734C61.2754 6.8599 61.0507 6.13544 61.3298 5.52186C61.4357 5.28972 61.6061 5.0929 61.8207 4.95484C62.0352 4.81679 62.285 4.74331 62.5401 4.74316C62.676 4.74316 62.8118 4.76288 62.9477 4.80724C64.1803 5.2015 67.1197 6.3375 70.195 8.93968C70.1085 8.6218 70.1382 8.27434 70.3037 7.96386C70.5408 7.5203 71.0002 7.26156 71.4794 7.26156C71.6276 7.26156 71.7808 7.2862 71.929 7.34042C72.3242 7.48334 81.634 10.948 83.9312 22.4434C86.011 32.8521 80.0581 40.2373 73.4728 46.1809C73.9026 46.2302 74.3003 46.4421 74.5868 46.7797C74.9598 47.2134 75.1203 47.8147 75.0314 48.4307L74.8486 49.9487C74.6881 51.2966 73.9421 55.8159 71.0867 57.3905C70.4099 57.7626 69.3922 58.1372 66.559 58.3466L63.5183 58.5413L63.8271 59.5787C63.9333 59.9434 63.8789 60.3352 63.6789 60.658L61.4681 64.1892C61.5175 64.2779 61.557 64.374 61.5842 64.4751L66.3984 81.5543C66.5417 82.062 66.3713 82.6041 65.9637 82.9392L49.8685 95.9895L33.7733 82.9392V82.9392Z" fill="#EDE0C5"/>
<path d="M23.4079 36.3271C23.4079 36.3271 21.459 27.5127 22.9065 22.296C22.5212 22.7125 22.1284 23.1412 21.7678 23.6094C18.2356 28.1682 23.4079 36.3271 23.4079 36.3271ZM76.3298 36.3271C76.3298 36.3271 81.5047 28.1682 77.9724 23.6094C77.6093 23.1412 77.2166 22.7125 76.8313 22.296C78.2812 27.5127 76.3298 36.3271 76.3298 36.3271ZM17.1117 22.7026C19.2878 11.8109 28.2592 8.59018 28.2592 8.59018C24.974 11.01 21.6221 15.5638 20.2363 21.9559C21.585 20.2852 22.8349 19.0334 24.3046 18.0329C27.943 10.2165 34.1504 7.04514 37.196 6.0718C33.2463 8.45466 29.9414 12.0006 27.9332 16.0838C32.5004 14.4574 35.2595 14.6077 35.2595 14.6077C35.2595 14.6077 31.1739 15.5983 26.7105 18.9003C25.836 21.4163 25.3568 24.1195 25.3568 26.9311C25.3568 31.8817 26.955 36.9554 29.7092 40.8464C31.2579 43.0346 32.7573 44.5476 34.6197 45.9251C34.0022 44.3776 31.6581 32.4337 42.981 27.902L42.902 27.9488C40.2268 29.6787 38.2557 32.3696 37.4554 35.5385C39.5229 33.5623 41.704 33.3577 42.8526 33.2197C42.8328 33.2321 42.8155 33.2444 42.7982 33.2542C32.2855 39.3038 40.6443 47.4948 40.6443 47.4948C43.9592 44.725 45.8908 38.5202 46.3058 36.8224C46.3478 43.3796 44.1617 47.305 42.6747 49.2222C46.0637 51.5434 49.8652 51.3882 49.8652 51.3882H49.8726C49.8751 51.3882 53.6741 51.5434 57.0631 49.2222C55.5761 47.305 53.3925 43.3796 53.432 36.8224C53.847 38.5202 55.7811 44.725 59.0935 47.4948C59.0935 47.4948 67.4548 39.3038 56.942 33.2542C56.9223 33.2444 56.905 33.2321 56.8877 33.2197C58.0338 33.3577 60.2149 33.5623 62.2824 35.5385C61.4821 32.3696 59.5109 29.6787 56.8358 27.9488L56.7568 27.902C68.0797 32.4337 65.7356 44.3776 65.118 45.9251C66.983 44.5476 68.4798 43.0346 70.0286 40.8464C72.7852 36.9554 74.3834 31.8817 74.3834 26.9311C74.3834 24.1195 73.9042 21.4163 73.0273 18.9003C68.5638 15.5983 64.4808 14.6077 64.4808 14.6077C64.4808 14.6077 67.2374 14.4574 71.8046 16.0838C69.7964 12.0006 66.4939 8.45466 62.5417 6.07178C65.5874 7.04514 71.7947 10.2166 75.4332 18.033C76.9029 19.0334 78.1552 20.2852 79.5039 21.9559C78.1182 15.5638 74.7638 11.01 71.4786 8.5902C71.4786 8.5902 80.4524 11.8109 82.6261 22.7026C85.1604 35.3808 75.0108 43.2983 66.8249 50.0797L73.0742 47.5391C73.4966 47.3592 73.7906 47.7658 73.7115 48.2537L73.5287 49.7914C73.4275 50.6391 72.805 54.9292 70.4436 56.2279C69.9323 56.5112 69.0529 56.8316 66.4618 57.0238L61.7711 57.3244L62.5516 59.9562L57.9473 67.3118L60.3038 64.8328L65.118 81.9145L51.9104 92.7545L56.0305 74.1055L49.8701 81.5819L43.7072 74.1055L47.8273 92.7545L34.6197 81.9145L39.4339 64.8328L41.7929 67.3118L37.1886 59.9562L37.9667 57.3244L33.276 57.0238C30.6849 56.8316 29.8055 56.5112 29.2942 56.2279C26.9328 54.9292 26.3103 50.6391 26.209 49.7914L26.0262 48.2537C25.9472 47.7658 26.2411 47.3592 26.6635 47.5391L32.9129 50.0797C24.7294 43.2983 14.5798 35.3808 17.1117 22.7026Z" fill="#00471A"/>
<path d="M28.2593 49.7629C28.2593 49.7629 28.7138 53.5874 30.3243 54.4745C31.4087 55.0708 34.0615 55.0141 36.3785 55.1915C33.8121 54.1985 30.0328 51.4903 28.2593 49.7629ZM42.4698 57.8479C43.8728 58.9273 45.0609 58.326 45.6982 57.7025C45.9081 57.5005 45.8439 57.1506 45.5796 57.0298C44.9102 56.7243 43.6455 56.1452 42.3882 55.5686C42.1363 55.4552 41.8473 55.6105 41.8028 55.884C41.7139 56.4261 41.7263 57.2738 42.4698 57.8479ZM45.0189 65.2701L44.2631 68.5918L46.1206 71.0929H48.0917L46.2663 68.4119L46.5553 66.7584C47.3828 67.6406 48.561 68.1926 49.8677 68.1975C51.1769 68.1926 52.3526 67.6406 53.1826 66.7584L53.4716 68.4119L51.6437 71.0929H53.6173L55.4748 68.5918L54.719 65.2701C52.9455 64.139 52.5354 62.5348 52.5354 62.5348L51.2979 58.4936L49.8677 59.186L48.4375 58.4936L47.2025 62.5348C47.2025 62.5348 46.7924 64.139 45.0189 65.2701ZM54.0372 57.7026C54.6745 58.326 55.8651 58.9273 57.2657 57.8479C58.0092 57.2738 58.024 56.4261 57.9351 55.884C57.8881 55.6105 57.5991 55.4552 57.3472 55.5686C56.0899 56.1452 54.8277 56.7243 54.1583 57.0298C53.894 57.1506 53.8298 57.5005 54.0372 57.7026ZM52.5453 72.6331H47.1901L48.477 74.3753H51.2608L52.5453 72.6331ZM63.3594 55.1915C65.6763 55.0141 68.3292 55.0708 69.4136 54.4745C71.0216 53.5874 71.4786 49.7629 71.4786 49.7629C69.7026 51.4903 65.9234 54.1985 63.3594 55.1915Z" fill="#FEFEFE"/>
</svg>
