<svg width="100" height="100" viewBox="0 0 100 100" fill="none" xmlns="http://www.w3.org/2000/svg">
<mask id="mask0" mask-type="alpha" maskUnits="userSpaceOnUse" x="11" y="11" width="78" height="78">
<path d="M11.5383 88.2886H88.3699V11.6307H11.5383V88.2886Z" fill="white"/>
</mask>
<g mask="url(#mask0)">
<path d="M78.1714 23.6967C70.9778 16.0271 60.5045 11.6293 49.4325 11.6293C48.4864 11.6293 47.5352 11.6597 46.5941 11.7254C28.7293 12.935 20.0924 25.597 19.197 26.9912C17.8806 28.6613 6.54228 43.9346 14.1367 65.0405L14.2787 65.496C14.3523 65.7237 21.7463 88.2897 48.182 88.2897H48.1871C49.6025 88.2897 51.0762 88.2239 52.5601 88.0923C72.3019 86.364 86.9884 71.8093 88.2769 52.71C89.01 41.7357 85.4208 31.432 78.1714 23.6967" fill="#FEFEFE"/>
</g>
<path d="M70.3933 58.618C73.0744 52.7374 71.725 46.3431 67.2074 41.2975C65.9518 39.8982 64.3868 38.9443 62.8725 38.0207C61.8883 37.421 60.8686 36.801 59.9555 36.0647C59.5268 35.718 59.1742 35.2524 58.8013 34.7565C58.3371 34.1416 57.8121 33.4432 57.0587 32.8992C52.8709 29.8779 47.945 28.7721 43.0799 27.3374C40.7818 26.6618 38.5446 26.1608 36.4393 25.4143C39.0367 23.6127 42.3798 22.4487 46.0248 22.0945C47.1713 21.9831 48.3153 21.9249 49.4314 21.9249C60.1787 21.9249 69.5638 27.3248 74.5405 36.3683C79.5223 45.4296 79.1951 56.4241 73.6781 65.0654C68.0115 73.9419 57.9592 78.6636 46.5828 77.7274C39.7773 77.1707 32.5254 73.5674 30.2932 69.7542C31.6756 68.9065 44.1021 62.3351 52.6046 64.9819C55.0422 64.9895 51.1435 70.8777 51.1435 70.8777C51.1435 70.8777 65.3329 69.7086 70.3933 58.618V58.618ZM76.2831 25.3966C68.8764 17.5018 57.9085 13.4482 46.7147 14.2047C28.9463 15.4117 21.0653 28.5925 21.0653 28.5925C21.0653 28.5925 35.1431 32.8486 37.0835 33.4483C38.4 33.8582 47.1891 36.0242 51.1512 38.2003C51.9781 38.6533 52.7897 39.5617 53.5887 40.4093C54.1823 41.0369 54.7404 41.6315 55.3212 42.1072C56.3612 42.9574 57.3809 43.6938 58.365 44.4048C60.8077 46.166 62.9156 47.6842 63.8947 49.997C64.7444 52.0061 64.7774 54.0886 63.9885 56.0243C63.3037 57.7096 62.0151 59.2101 60.4146 60.2374C60.5769 59.3847 60.795 58.165 59.6409 57.4059C59.1488 57.0845 56.4905 56.4595 54.7124 56.2824C53.8627 56.1939 44.3507 55.751 31.143 62.8639C35.105 57.5957 37.9409 56.7176 37.9409 56.7176C37.8344 56.0825 16.5757 64.6732 16.5757 64.6732C16.5757 64.6732 23.9088 88.107 52.2926 85.6171C70.7586 83.9951 84.5167 70.5234 85.7241 52.54C86.414 42.2666 83.0607 32.6259 76.2831 25.3966" fill="#E0393D"/>
<path d="M49.3602 40.7961C44.797 40.9757 40.6015 35.5051 37.0808 39.0881C37.7632 39.2601 39.1506 38.7313 39.3662 39.3715C37.5577 46.4439 49.2815 48.2658 49.3602 40.7961Z" fill="#E0393D"/>
</svg>
