<svg width="100" height="100" viewBox="0 0 100 100" fill="none" xmlns="http://www.w3.org/2000/svg">
<path d="M88.3621 47.7337C88.3621 37.4804 84.3662 27.8396 77.1107 20.5851C70.9935 14.4706 63.2804 10.6955 54.7674 9.63848C54.6432 9.54432 54.5154 9.45493 54.3844 9.37048C50.6268 6.95232 47.3331 8.57508 45.5671 9.44918L45.182 9.63634C42.55 9.96388 39.9563 10.5657 37.4456 11.4314C37.3222 11.2974 37.1945 11.1634 37.0647 11.0337C34.9093 8.87706 32.0454 7.69246 28.9964 7.69246C22.7047 7.69246 17.5854 12.8095 17.5854 19.0985C17.5854 21.1551 18.1152 23.1118 19.1322 24.843C14.2257 31.4361 11.5383 39.503 11.5383 47.7338C11.5383 57.9892 15.5342 67.6321 22.7898 74.8845C25.9494 78.0428 29.5645 80.5907 33.5476 82.4708C33.5497 83.1727 33.6178 83.8235 33.7497 84.4062C33.5901 84.6593 33.4518 84.9485 33.3518 85.2825C32.4071 87.0137 33.2922 88.9257 36.0923 91.0546C37.7966 92.3583 39.1222 92.5816 40.218 92.5816C40.5138 92.5816 40.7946 92.5646 41.0606 92.5497L41.4585 92.5285C43.3819 92.4498 44.9522 91.1397 46.1395 89.7573L47.9949 89.4786C48.7523 89.3659 49.6907 89.1809 50.9162 88.6641C52.7801 87.8793 53.5397 86.8159 53.8291 85.9354C58.3016 85.4951 62.5826 84.2935 66.604 82.3538C66.7167 82.9727 66.8338 83.8362 66.9295 84.9507C67.0593 86.4713 67.3231 87.5135 67.9998 89.6892C68.5742 91.5395 69.5381 92.3902 70.885 92.2265C71.502 92.1499 72.951 91.6969 73.0893 89.0193C73.1254 88.294 73.2212 86.365 73.1382 84.8975C73.0212 82.9004 73.1106 81.5329 73.2106 81.2011C73.4106 80.5652 73.5872 79.4486 72.9552 78.4873C74.4255 77.3856 75.817 76.1776 77.1107 74.8845C84.3662 67.63 88.3621 57.9892 88.3621 47.7338" fill="#FEFEFE"/>
<mask id="mask0" mask-type="alpha" maskUnits="userSpaceOnUse" x="13" y="10" width="73" height="80">
<path d="M13.8462 10H85.8106V89.9999H13.8462L13.8462 10Z" fill="white"/>
</mask>
<g mask="url(#mask0)">
<path d="M85.811 47.6162C85.811 38.0054 82.0672 28.97 75.271 22.1739C69.4018 16.3031 61.8618 12.7139 53.7234 11.8446C53.5349 11.6569 53.3234 11.4839 53.0834 11.33C50.2026 9.47694 47.798 10.8531 46.131 11.6631C46.011 11.7216 45.871 11.7908 45.7134 11.8716C42.5757 12.23 39.5603 12.9954 36.7187 14.1108C36.3792 13.6023 35.9904 13.1285 35.558 12.6962C33.8195 10.9577 31.508 10 29.0487 10C23.9726 10 19.8433 14.13 19.8433 19.2062C19.8433 21.3331 20.561 23.35 21.8803 24.9808C16.8595 31.1677 13.8464 39.0454 13.8464 47.6162C13.8464 57.2277 17.5895 66.2639 24.3849 73.06C27.7041 76.3785 31.5603 78.9677 35.7534 80.75C35.5195 82.6516 35.828 83.9416 36.1757 84.4708C35.6464 84.9162 35.4241 85.1939 35.3403 85.6939C34.5064 86.8346 36.5364 88.2808 37.3703 88.92C39.0841 90.2338 39.9849 90.0054 41.3195 89.95C42.9672 89.8808 44.5172 87.9462 45.4087 86.6954C47.188 86.4454 47.5218 86.7231 47.5772 86.9454C48.1334 86.8623 48.9118 86.7231 49.9687 86.2777C52.3718 85.2662 51.6926 84.0262 51.4433 83.8031C51.378 83.7462 51.3257 83.6654 51.2749 83.5685C56.9795 83.3439 62.4472 81.7969 67.3264 79.0739C67.498 79.2662 67.6764 79.4862 67.851 79.7431C68.3795 80.5223 68.6572 83.0523 68.7687 84.3592C68.8803 85.6662 69.1026 86.5577 69.7418 88.6139C70.381 90.6723 70.6318 89.1708 70.6603 88.6139C70.688 88.0585 70.7987 86.0562 70.7157 84.6093C70.6318 83.1631 70.6041 81.0777 70.8826 80.1877C71.161 79.2985 70.6603 79.0754 70.521 78.9092C70.381 78.7416 70.521 78.6862 70.1587 77.5462C70.1387 77.4831 70.1226 77.4162 70.1095 77.3485C71.9395 76.0931 73.6687 74.6631 75.271 73.06C82.0672 66.2639 85.811 57.2277 85.811 47.6162Z" fill="white"/>
</g>
<mask id="mask1" mask-type="alpha" maskUnits="userSpaceOnUse" x="13" y="10" width="73" height="80">
<path d="M13.8462 10H85.8106V89.9999H13.8462L13.8462 10Z" fill="white"/>
</mask>
<g mask="url(#mask1)">
<path d="M85.811 47.6162C85.811 38.0054 82.0672 28.97 75.271 22.1739C69.4018 16.3031 61.8618 12.7139 53.7234 11.8446C53.5349 11.6569 53.3234 11.4839 53.0834 11.33C50.2026 9.47694 47.798 10.8531 46.131 11.6631C46.011 11.7216 45.871 11.7908 45.7134 11.8716C42.5757 12.23 39.5603 12.9954 36.7187 14.1108C36.3792 13.6023 35.9904 13.1285 35.558 12.6962C33.8195 10.9577 31.508 10 29.0487 10C23.9726 10 19.8433 14.13 19.8433 19.2062C19.8433 21.3331 20.561 23.35 21.8803 24.9808C16.8595 31.1677 13.8464 39.0454 13.8464 47.6162C13.8464 57.2277 17.5895 66.2639 24.3849 73.06C27.7041 76.3785 31.5603 78.9677 35.7534 80.75C35.5195 82.6516 35.828 83.9416 36.1757 84.4708C35.6464 84.9162 35.4241 85.1939 35.3403 85.6939C34.5064 86.8346 36.5364 88.2808 37.3703 88.92C39.0841 90.2338 39.9849 90.0054 41.3195 89.95C42.9672 89.8808 44.5172 87.9462 45.4087 86.6954C47.188 86.4454 47.5218 86.7231 47.5772 86.9454C48.1334 86.8623 48.9118 86.7231 49.9687 86.2777C52.3718 85.2662 51.6926 84.0262 51.4433 83.8031C51.378 83.7462 51.3257 83.6654 51.2749 83.5685C56.9795 83.3439 62.4472 81.7969 67.3264 79.0739C67.498 79.2662 67.6764 79.4862 67.851 79.7431C68.3795 80.5223 68.6572 83.0523 68.7687 84.3592C68.8803 85.6662 69.1026 86.5577 69.7418 88.6139C70.381 90.6723 70.6318 89.1708 70.6603 88.6139C70.688 88.0585 70.7987 86.0562 70.7157 84.6093C70.6318 83.1631 70.6041 81.0777 70.8826 80.1877C71.161 79.2985 70.6603 79.0754 70.521 78.9092C70.381 78.7416 70.521 78.6862 70.1587 77.5462C70.1387 77.4831 70.1226 77.4162 70.1095 77.3485C71.9395 76.0931 73.6687 74.6631 75.271 73.06C82.0672 66.2639 85.811 57.2277 85.811 47.6162Z" fill="#061922"/>
</g>
<path d="M41.3193 81.1894C42.6554 81.1332 44.5177 80.717 45.3662 80.3548C45.4777 80.3832 45.6585 80.494 45.9369 80.6048C46.0469 79.7155 45.4777 77.8663 45.1577 77.0171C44.9454 76.4547 44.74 76.0724 44.49 75.4886C43.7393 75.3486 42.8077 74.9463 42.14 74.6678C42.14 75.1963 42.2377 76.5732 42.3493 77.4901C42.0716 77.5186 41.6816 77.5463 41.2077 77.5463C41.2639 78.5471 41.3762 80.3548 41.3193 81.1894ZM66.4886 78.2417C66.2379 77.9909 66.794 77.2117 67.0448 75.7663C67.294 74.3201 67.3217 71.9001 66.2656 70.537C65.751 69.874 65.5017 69.4563 65.4148 69.1578C62.1209 71.554 58.3471 73.1448 54.3348 73.8271C54.2871 73.9117 54.2394 73.9855 54.1963 74.0417C53.6117 74.7932 52.4717 75.8778 51.6363 76.3224C50.8025 76.767 49.8294 77.1017 49.3009 77.2686C49.1902 78.1578 49.0455 80.144 49.274 80.827C49.3579 81.0778 50.3856 81.6901 50.7471 82.3578C50.7848 82.4263 50.8186 82.494 50.8517 82.5617C56.5263 82.3978 61.8671 80.8763 66.5579 78.3078C66.534 78.2855 66.5086 78.2609 66.4886 78.2417L66.4886 78.2417ZM74.5498 22.895C69.0675 17.4127 62.0836 13.9773 54.5267 12.9688C55.1321 14.1665 55.2259 15.5427 55.2806 16.4196C56.3652 15.9465 57.199 15.6957 57.6444 14.9734C58.0898 14.2496 58.7013 14.3888 59.0906 14.9173C59.4806 15.445 59.4806 16.1134 58.4513 16.7527C57.4221 17.3927 56.6721 17.6988 56.449 17.8103C56.2259 17.9204 56.4213 18.1158 56.6721 18.5327C56.9213 18.9496 57.5583 19.9804 57.6729 22.1481C57.6736 22.1688 57.6752 22.1903 57.6752 22.2111C61.7636 23.4696 65.5106 25.7142 68.6206 28.8242C73.6421 33.845 76.4075 40.5219 76.4075 47.6227C76.4075 51.7003 75.4929 55.6381 73.7659 59.2034C73.9959 59.3219 74.3083 60.1296 74.4144 61.1934C74.4698 61.7496 74.4413 62.3619 74.2759 62.7503C74.109 63.1404 72.7959 65.1096 72.1336 65.6988C71.8836 65.9219 71.2982 65.8942 71.049 65.5327C70.799 65.1703 70.7713 65.365 70.5759 65.5588C70.3813 65.7542 69.7136 66.7273 69.5483 66.9781C69.3806 67.2288 68.8244 67.4781 69.1852 68.4796C69.5483 69.4819 69.9636 70.2319 69.8259 70.7881C69.6859 71.345 69.6305 71.5119 70.3813 72.1519C71.1336 72.7903 71.1052 73.5688 70.7713 74.0696C70.5621 74.3834 70.2336 75.2196 70.1059 76.0819C78.9883 69.7358 84.7905 59.3404 84.7905 47.6165C84.7905 38.2781 81.1529 29.4981 74.5498 22.895ZM34.3946 73.4295C34.2969 72.4871 34.1539 70.7848 34.8123 69.5702C33.4708 68.6471 32.2016 67.5971 31.0246 66.4202C26.0039 61.3979 23.2385 54.7233 23.2385 47.6225C23.2385 40.0187 26.4477 33.151 31.5816 28.3018C31.63 28.1987 31.6916 28.1002 31.767 28.0048C30.8977 28.2725 29.9846 28.4118 29.0485 28.4118C26.5993 28.4118 24.2962 27.4602 22.56 25.7348C17.5762 31.9202 14.8669 39.5602 14.8669 47.6164C14.8669 56.9548 18.5031 65.7348 25.1069 72.3379C28.2723 75.5033 31.9393 77.9856 35.9269 79.7133C36.0808 78.9687 36.3115 78.1541 36.6477 77.2687C36.9539 76.461 36.4808 74.5987 35.7016 73.6248C35.2846 73.5125 34.757 73.4579 34.3946 73.4294L34.3946 73.4295ZM43.6653 13.1947C41.4685 13.5826 39.3144 14.1821 37.2329 14.9846C37.8991 16.2746 38.2545 17.7124 38.2545 19.2062C38.2545 21.1862 37.6329 23.0708 36.4829 24.637C38.4068 23.5162 40.4829 22.6285 42.6722 22.0162C42.8145 21.877 42.9568 21.7431 43.0999 21.6201C42.2929 20.2839 41.2083 18.1431 42.1545 15.2501C42.4206 14.4355 43.0068 13.7501 43.6653 13.1947Z" fill="#008348"/>
<path d="M57.6445 23.7329C58.423 24.1221 59.2938 24.969 58.9507 26.5413C58.8122 27.1813 58.2776 27.7967 58.2291 28.0444C58.1453 28.4606 57.2691 29.1698 56.9907 29.7259C56.7145 30.2775 56.6714 30.7475 56.7522 30.9852C56.753 30.9883 56.7545 30.9898 56.7553 30.9913C57.1991 31.409 58.2007 31.9652 58.7561 32.159C59.1914 32.3113 59.1607 32.429 58.9784 32.7159C59.2853 32.7436 59.4422 32.9321 59.7307 33.2721C60.0353 33.6344 60.8422 33.4113 61.343 33.1606C61.8437 32.9106 62.483 32.8267 62.9845 33.439C63.4845 34.0506 64.2361 35.1913 64.5968 36.2483C64.9591 37.3044 65.3484 38.1667 65.4599 38.3329C65.5707 38.5006 65.0699 41.5598 64.9299 42.7836C64.7914 44.0067 64.6799 44.5352 64.6522 44.7298C64.6245 44.9244 65.4315 44.0352 65.4599 45.0913C65.4807 45.9344 65.8745 48.6375 66.3299 50.6398C66.4453 51.149 66.5645 51.6121 66.683 51.9883C67.0176 52.0444 67.2938 52.7121 67.4891 53.7406C67.6838 54.7698 68.1007 55.4098 68.1291 55.9098C68.1568 56.4098 68.2961 56.4936 68.4622 56.5767C68.6291 56.6613 68.5737 56.9113 68.0737 57.4944C68.1845 57.5783 68.3514 57.7459 68.4622 57.8552C68.6022 57.7167 68.9907 57.2736 68.9907 57.2736C68.9907 57.2736 70.5207 57.8844 70.8545 57.9952C71.1884 58.1067 71.5853 57.2829 72.5784 57.7167C72.8507 57.8359 73.1515 58.2121 73.3653 58.5836C74.9222 55.2513 75.7953 51.5375 75.7953 47.6221C75.7953 40.6852 73.093 34.1629 68.1876 29.2575C65.1938 26.2644 61.5991 24.0936 57.6753 22.8536C57.6637 23.2359 57.6445 23.5982 57.6445 23.7329ZM65.6809 67.4784C65.2924 67.2838 65.0386 67.5661 64.8471 66.033C64.7917 65.5884 64.4309 65.003 64.1524 64.7261C63.874 64.4476 63.8401 63.9269 63.9847 63.4738C64.2071 62.7784 64.264 62.1399 64.2363 61.5838C64.2071 61.0269 64.3186 60.3323 65.0971 59.9969C64.8194 59.6923 64.6801 59.3023 64.5971 58.9969C63.4571 58.6207 63.2294 58.5884 62.9978 58.0369C62.6094 57.1107 62.3694 55.7584 62.254 55.0215C62.1971 54.6576 62.1586 54.3215 62.1501 54.0184C61.7847 53.3276 60.974 51.793 60.3463 50.6399C60.1549 50.2803 59.959 49.9231 59.7586 49.5684C59.2017 48.5953 59.7586 47.3161 60.0355 46.5653C60.314 45.8146 60.5371 45.1469 60.2863 44.3961C60.0355 43.6453 60.0355 43.4776 59.9809 43.1723C59.9255 42.8661 59.674 42.4769 59.3417 43.5346C59.0071 44.5907 58.3678 46.1484 58.0055 47.7615C57.8009 48.6776 57.6578 49.6746 57.7055 50.6399C57.7417 51.3753 57.8886 52.0907 58.2001 52.7392C58.9232 54.2407 59.7855 55.6315 59.674 56.4661C59.5632 57.2999 59.3809 57.3292 59.3686 57.4669C59.2294 59.0799 58.534 62.1676 58.1724 63.0569C57.8109 63.9461 56.3932 67.1723 56.087 68.5353C55.8532 69.5792 55.2101 71.8146 54.6601 73.1399C58.8217 72.353 62.6371 70.5715 65.8455 68.0499C65.9394 67.8161 65.9224 67.5992 65.6809 67.4784V67.4784ZM34.7734 30.985C35.0804 31.385 35.4827 31.7519 36.0073 32.0212C37.3704 32.7158 37.6488 33.2166 37.6488 34.4119C37.6488 35.6073 37.8711 38.0558 38.2611 38.4727C38.5104 38.2227 38.7896 37.8604 38.8442 37.7496C39.2334 38.4727 40.0181 39.8112 41.2634 40.6419C41.3473 40.6981 41.3096 41.0043 41.5142 41.0589C41.9311 41.1704 44.6288 41.5873 44.7127 42.1443C45.2696 41.5873 46.1588 40.1973 46.3257 39.7235C46.4919 39.2519 47.4657 37.7496 48.1888 36.9158C48.1888 36.5812 48.1888 36.3866 48.2173 36.3035C48.0219 36.4704 47.7165 36.8873 47.2711 37.0819C46.8257 37.2765 45.2696 37.9443 44.1565 38.5004C43.7673 38.695 43.0719 38.9181 42.7934 36.8873C42.515 34.8573 42.7934 33.8004 42.988 33.3281C43.1827 32.855 43.5442 32.4373 44.2404 32.6327C44.935 32.8273 46.0465 33.2443 46.3534 33.2443C46.4088 33.0219 46.6042 32.6043 45.8534 32.5212C45.3188 32.4612 43.925 32.0643 43.1357 30.985C42.8165 30.5527 42.595 30.005 42.5711 29.3227C40.9865 29.5735 37.3427 30.0466 36.5365 30.2404C35.7304 30.4358 35.0465 30.6004 34.785 28.7666C34.6734 27.9881 34.4788 26.9035 35.035 27.2927C35.4796 26.9589 36.0957 26.5666 37.1757 26.7373C37.3734 26.7681 37.6203 26.9335 37.6981 27.0881C37.7573 27.3581 37.6419 27.7989 37.5096 28.2104C37.2704 28.9558 36.8011 29.4896 38.3165 29.1419C39.9027 28.7781 41.9173 28.475 42.4457 28.3635C42.515 27.8219 42.9604 26.9866 43.4888 26.375C44.0188 25.7604 44.1011 25.2627 44.1288 25.0681C44.1565 24.8735 43.9734 24.8304 43.7119 25.0681C43.4057 25.3458 42.4873 25.9027 41.625 25.6796C41.2919 25.5942 40.875 24.9566 40.6527 24.5958C40.835 24.2135 41.2957 23.5535 41.8634 22.8881C38.9019 23.8373 36.1304 25.3196 33.6665 27.285C33.6504 27.5935 33.6911 28.3104 33.8942 29.1004C34.0304 29.6304 34.2834 30.3481 34.7734 30.985H34.7734ZM36.7037 68.98C37.8429 68.5354 38.7421 68.5562 39.6237 69.7316C39.8737 70.0646 40.0683 71.0393 42.2098 70.1762C41.0698 68.8139 40.386 67.1993 39.7629 65.0308C38.7775 61.6085 36.5506 57.7162 37.3706 55.9377C36.8983 55.4916 36.3421 53.7685 35.7575 53.9631C35.3652 54.0939 34.8129 54.1016 35.2567 52.7946C35.4575 52.2069 35.7875 51.4954 36.4113 50.64C37.1729 49.5977 38.376 48.3431 40.3183 46.8431C40.486 46.7039 40.5137 46.5939 40.4021 46.4816C40.2075 46.2877 40.0129 46.0654 39.8183 45.9539C39.6237 45.8423 39.4283 45.8977 39.2614 46.0654C39.0944 46.2323 38.8168 46.4269 38.6498 46.5377C38.4829 46.6485 37.1483 45.3416 36.4529 44.3962C35.7575 43.4508 35.0352 43.1454 34.8129 43.0339C35.0906 42.7277 35.7183 42.0639 35.4798 42.1439C35.0629 42.2823 34.3321 42.3754 33.5883 41.5869C32.6706 40.6146 33.0329 40.1131 32.8375 39.9746C32.6429 39.8354 31.6414 40.0577 30.8914 38.89C30.1398 37.7216 29.8391 37.2131 30.4452 36.3862C30.7521 35.9693 30.8629 35.7746 30.7798 35.2462C30.696 34.7177 30.7798 34.3846 31.4752 33.7169C32.1706 33.05 32.5875 32.4377 32.8929 32.4931C33.136 32.5377 32.4329 31.6539 32.0075 30.9846C31.896 30.8062 31.8044 30.6454 31.7521 30.5185C31.6429 30.2493 31.4683 29.7862 31.4283 29.2877C26.5414 34.19 23.8506 40.6993 23.8506 47.6223C23.8506 54.5585 26.5521 61.0808 31.4575 65.9862C32.5954 67.1243 33.8354 68.1553 35.1621 69.0662C35.7321 68.4477 36.4098 68.6869 36.7037 68.98Z" fill="white"/>
<path d="M21.9251 14.1314C24.2051 14.7152 25.9143 16.5583 26.6636 17.5867C26.8559 17.8491 27.0536 17.8098 27.1367 17.6152C27.3136 17.2021 27.6374 15.8629 27.6374 14.8337C27.6374 12.4983 27.9574 11.5737 28.542 10.4898C25.8136 10.6391 23.4197 12.0421 21.9251 14.1314V14.1314ZM20.5485 21.2869C24.8308 21.6761 26.1631 19.2838 26.4416 18.9215C26.7185 18.5607 26.3854 18.3377 26.2462 18.1431C25.5062 17.1061 23.8485 15.2723 21.5677 14.6885C20.7685 16.0069 20.3 17.5485 20.3 19.2038C20.3 19.9223 20.3846 20.6192 20.5485 21.2869Z" fill="#A73832"/>
<path d="M37.5411 21.1198C35.7334 20.3682 33.5888 21.0628 32.0596 22.3983C30.5296 23.7329 29.7519 24.7583 29.2234 27.929C29.1581 27.9306 29.0927 27.9305 29.0281 27.9305C26.7619 27.9305 24.705 27.0683 23.1527 25.6513C25.7681 24.9836 27.9719 23.789 30.4458 21.4528C32.9219 19.1167 34.145 16.3913 34.4788 15.1121C34.8127 13.8328 34.3388 14.5836 34.0896 15.1667C33.7019 16.0705 32.4204 18.5044 29.8904 20.8682C27.3588 23.2329 25.4134 24.399 22.7727 25.289C21.8904 24.3836 21.2111 23.2852 20.7881 22.0652C21.6781 22.1205 24.4819 21.7975 25.885 20.6459C27.7304 19.1328 27.9434 17.3367 28.1934 14.7775C28.4434 12.2198 28.8196 11.4582 29.4311 10.4852C34.0634 10.6959 37.755 14.5182 37.755 19.2036C37.755 19.8621 37.6796 20.5028 37.5411 21.1198Z" fill="#A73832"/>
<path d="M37.2994 21.9948C36.8817 21.411 35.3948 21.1302 33.0325 22.6064C32.8102 22.7464 32.6563 22.8433 32.9217 23.1071C33.4217 23.6087 34.174 24.5556 34.7025 25.8348C35.8833 24.8225 36.791 23.501 37.2994 21.9948V21.9948ZM34.005 26.3743C33.505 25.1504 33.0881 24.2612 32.6158 23.6497C32.3604 23.3197 32.3096 23.1774 31.8366 23.5943C30.522 24.7543 30.015 26.5127 29.7366 27.9027C31.315 27.7758 32.7758 27.2297 34.005 26.3743Z" fill="#A73832"/>
<path d="M31.6143 36.1366C31.2527 36.0251 30.9743 36.4412 30.8073 36.7758C30.6404 37.1104 30.445 37.4712 30.9743 38.222C31.5027 38.9735 31.8312 39.4204 32.7543 39.362C33.1997 39.3343 33.5881 39.0004 33.7273 38.8066C33.8666 38.6112 33.8943 38.9451 33.6719 39.2789C33.4496 39.612 33.2827 40.3912 33.6996 40.9197C34.1173 41.4481 34.9789 41.8927 36.1189 41.2258C37.2589 40.5589 37.7327 39.752 37.9266 39.3897C38.1212 39.0289 38.1212 38.862 37.9266 38.6397C37.7327 38.4166 37.0927 37.3581 36.9535 35.2743C36.8704 34.022 37.0927 33.2166 36.3135 32.7712C35.535 32.3258 33.7535 31.2735 33.5327 29.2112C33.4496 28.4327 33.505 27.2374 32.7266 27.8766C31.9473 28.5166 31.9473 28.9612 31.8643 29.4335C31.7804 29.9074 32.1704 30.5458 32.5043 30.9912C32.8373 31.4366 33.2266 32.4097 33.5327 32.6597C33.8389 32.9104 34.0335 33.1051 34.2843 33.1327C34.5335 33.1604 35.535 33.1604 35.785 33.2443C36.0358 33.3281 36.175 33.6343 35.5627 33.6343C34.9512 33.6343 34.0058 33.7997 33.5881 33.8558C33.172 33.9112 32.7827 33.9389 32.5873 34.7735C32.3927 35.6074 32.1143 36.5812 32.0866 36.8874C32.0589 37.1928 31.892 37.3597 31.892 37.5266C31.892 37.6935 32.2258 38.5004 32.9766 37.6935C33.7273 36.8874 34.0335 36.0812 34.1727 35.6912C34.3112 35.302 34.4789 35.3574 34.3389 35.9697C34.2004 36.5812 34.1589 38.1112 34.4504 38.6397C34.765 39.2074 35.3989 39.792 36.2027 39.3897C36.3696 39.3066 36.6473 39.1674 36.8704 39.1951C37.0927 39.2227 36.8281 39.612 36.6335 39.7797C36.4389 39.9466 35.7996 40.6543 34.6735 39.6404C34.3943 39.3897 34.0089 38.8335 33.922 38.1389C33.8943 37.9158 33.5881 37.8327 33.4496 38.0274C33.3104 38.222 32.5596 38.9174 32.0312 38.4166C31.5027 37.9158 31.2835 37.6389 31.5866 36.5812C31.6412 36.3866 31.7496 36.1781 31.6143 36.1366Z" fill="#FAB383"/>
<path d="M32.1707 34.5787C32.0507 34.9379 31.9476 35.4126 31.8922 35.5803C31.8361 35.7472 31.5868 36.1087 31.3638 35.6364C31.1422 35.1633 31.153 34.7903 31.503 34.4403C31.6145 34.3287 31.7807 34.1064 31.8922 34.2172C32.0038 34.3287 32.1984 34.4956 32.1707 34.5787ZM33.4218 33.2998C33.1926 33.4144 32.7034 33.4136 32.5318 33.7998C32.4203 34.0506 31.9757 33.7737 32.198 33.4667C32.4203 33.1606 32.588 33.1883 32.7265 33.1052C32.8657 33.0221 32.9219 32.7713 33.1995 32.9106C33.4772 33.0498 33.5326 33.2444 33.4218 33.2998ZM51.7485 19.5336C50.9701 19.6167 50.247 20.0906 49.5239 20.5906C48.8001 21.0906 46.187 23.2883 45.5747 23.7329C46.2139 24.0667 46.3808 24.7344 46.1585 25.8467C46.1085 26.0937 46.1585 26.1806 46.3262 26.0137C46.4924 25.8467 47.2708 25.0129 47.2439 24.3452C47.2155 23.6775 46.9101 23.2883 46.8539 23.2044C46.7985 23.1213 47.077 22.7875 47.3832 23.4829C47.6885 24.1783 47.6047 25.1513 46.6878 26.2359C45.7701 27.3205 45.0462 27.2921 44.657 27.4875C44.2678 27.6821 43.8793 27.9875 44.2408 28.5721C44.6016 29.1567 45.297 28.9337 45.5747 28.739C45.8532 28.5436 46.2424 28.3213 47.1324 28.4052C48.0216 28.4883 48.3185 27.9229 47.7162 27.3206C47.5216 27.126 47.0208 26.6806 47.6324 26.6806C47.9947 26.6806 48.4393 27.4875 48.6893 27.7098C48.9401 27.9321 49.4962 28.0152 50.247 28.0713C50.9978 28.1267 52.1662 28.4044 52.1662 29.1283C52.1662 29.5729 51.9262 29.7029 51.6093 29.3513C51.4847 29.2113 51.3062 29.4313 51.1647 29.5729C50.6916 30.0467 49.4816 31.3252 48.6201 31.5475C47.7585 31.7698 47.4378 31.5198 46.2978 30.9083C45.1578 30.2967 44.1008 29.6844 43.7955 29.4898C43.4893 29.2952 42.8493 28.8498 43.1555 29.7406C43.4616 30.6298 44.2124 31.5475 45.7139 32.049C47.2155 32.5483 47.4378 32.716 47.7716 32.8829C48.1055 33.0498 47.9116 33.2167 47.4662 33.1606C47.0793 33.1129 46.6593 32.7713 46.9939 33.5229C47.3262 34.2737 47.8278 35.079 49.3578 34.8852C50.8862 34.6906 50.9316 34.3667 51.8878 32.7713C52.0539 32.4929 52.2224 32.6883 52.1108 33.4113C52.8608 33.0498 53.2778 32.9383 53.7224 32.8267C54.1685 32.716 55.3247 32.3229 56.0878 30.9083C56.4762 30.1852 56.6862 29.9367 56.6155 29.1844C56.5885 28.9037 57.0047 28.3498 57.4224 27.9598C57.8393 27.5713 58.9785 26.0967 58.3962 25.0398C57.8108 23.9829 56.8378 24.5121 56.3655 25.2906C55.8924 26.0698 55.3639 26.9313 55.3362 28.266C55.0024 28.1552 54.6616 28.2775 54.5024 28.5436C54.4185 28.6836 53.1947 28.5167 52.777 28.6275C52.3608 28.739 52.2224 28.4883 52.6662 27.9044C53.1116 27.3206 54.6785 25.2044 54.5855 23.6213C54.5578 23.149 54.6209 23.0613 54.6962 22.7044C54.7939 22.2452 54.837 22.2383 54.2655 21.9252C53.8939 21.7221 53.8716 21.1429 53.807 20.7013C53.737 20.229 53.647 20.2267 53.1116 20.3398C52.7155 20.4237 52.0539 20.0337 51.7485 19.5337" fill="#FAB383"/>
<path d="M48.495 28.2381C48.3427 28.5858 47.9219 28.9189 46.9512 28.8081C46.465 28.7527 45.9896 28.7466 45.9088 29.1281C45.8534 29.3927 45.6319 29.3774 45.325 29.3651C45.0042 29.3512 44.6573 29.2674 44.6427 29.3789C44.6288 29.4897 46.0065 30.3097 46.465 30.5181C46.9242 30.7274 47.5927 31.2243 48.1335 31.172C48.8565 31.1027 49.4866 30.7451 50.5535 29.6143C50.9935 29.1489 51.3458 28.9058 50.9289 28.7104C50.645 28.5789 50.3581 28.5435 49.9835 28.5435C49.6073 28.5435 48.8004 28.4881 48.495 28.2381V28.2381ZM43.3079 28.2524C42.9325 28.2378 42.891 27.9601 43.141 27.5431C43.391 27.1254 43.6287 26.737 43.9618 26.4862C44.0172 26.667 44.1287 26.8893 44.2956 26.9862C44.0733 27.2231 43.7795 27.5193 43.8348 28.1039L43.3079 28.2524Z" fill="#FAB383"/>
<path d="M51.7742 26.5249C51.2965 26.5249 50.5873 26.3695 50.0796 26.0226C49.5658 25.6719 49.3942 25.5026 49.485 24.9834C49.5404 24.6626 49.5688 24.4896 49.5888 24.3711C49.6027 24.2849 49.6127 24.228 49.6242 24.1634C49.6673 23.9188 49.6534 23.758 49.5804 23.6719C49.5419 23.6249 49.4865 23.6011 49.4219 23.6011C49.3158 23.6011 49.175 23.6688 48.9942 23.8072C48.7004 23.5872 48.4227 23.3403 48.2165 23.158C48.0565 23.0157 47.9411 22.9134 47.8688 22.8657C47.8111 22.8272 47.7411 22.7657 47.7334 22.6903C47.7273 22.6326 47.7581 22.5711 47.8234 22.5049C47.8634 22.4649 47.9158 22.4565 47.9865 22.4565L48.0188 22.4572H48.0519C48.1019 22.4572 48.195 22.4572 48.2558 22.3865C48.3158 22.318 48.3304 22.2026 48.3034 22.0126C48.3042 22.0019 48.325 21.9811 48.4504 21.9811C48.4842 21.9811 48.5196 21.9819 48.5534 21.9834C48.5904 21.9849 48.625 21.9865 48.6558 21.9865C48.7281 21.9865 48.7727 21.9788 48.8058 21.9626C48.8681 21.9319 48.8842 21.8711 48.895 21.8272C48.9111 21.7657 48.9181 21.7403 49.0134 21.7403C49.0673 21.7403 49.1396 21.7519 49.2281 21.7742C49.2431 21.7781 49.2586 21.7802 49.2742 21.7803C49.365 21.7803 49.4088 21.7088 49.4404 21.6565L49.4573 21.6303C49.4927 21.5757 49.5265 21.5465 49.6042 21.5465C49.6227 21.5465 49.6427 21.548 49.665 21.5519C49.7404 21.5642 49.8073 21.5811 49.8665 21.5949C49.9473 21.6149 50.0165 21.6319 50.0781 21.6319C50.2419 21.6319 50.2935 21.5088 50.3173 21.4149C50.3673 21.2272 50.4058 21.1703 50.4819 21.1703C50.5488 21.1703 50.6488 21.2111 50.7788 21.2919C50.8927 21.3626 50.9888 21.3965 51.0734 21.3965C51.2011 21.3965 51.2919 21.3165 51.3204 21.1749C51.3211 21.1719 51.3234 21.1626 51.3588 21.1626C51.4411 21.1626 51.5881 21.218 51.7396 21.3072L51.815 21.3496C52.0758 21.498 52.6181 21.8065 53.2365 22.5288C53.3781 22.6934 53.4188 22.8196 53.4081 22.848C53.4058 22.8472 53.4019 22.8472 53.3988 22.8472C53.3881 22.8472 53.3742 22.8496 53.3604 22.8519C53.2658 22.8665 53.1242 22.888 53.095 23.1257C53.0781 23.2565 53.0373 23.3334 53.0173 23.3457C53.0173 23.3419 52.9973 23.3265 52.9681 23.2688C52.9304 23.1942 52.8804 23.118 52.7958 23.118C52.7812 23.1181 52.7667 23.1202 52.7527 23.1242C52.7473 23.1134 52.7358 23.0942 52.7211 23.0542C52.7081 23.0172 52.6665 22.9057 52.5627 22.9057C52.5134 22.9057 52.4727 22.9342 52.4434 22.9542C52.4378 22.9576 52.4324 22.9614 52.4273 22.9657C52.4111 22.9242 52.3673 22.8219 52.2681 22.8219C52.2419 22.8219 52.2204 22.828 52.2035 22.8334C52.1967 22.8357 52.1897 22.8375 52.1827 22.8388C52.1827 22.8365 52.175 22.8265 52.1635 22.8003C52.1442 22.7557 52.1035 22.7303 52.0496 22.7303C52.0111 22.7303 51.9688 22.7434 51.9242 22.7572C51.8765 22.7719 51.8365 22.7834 51.8073 22.7834C51.7827 22.7834 51.7765 22.7765 51.7711 22.7665C51.7327 22.6957 51.6757 22.6849 51.645 22.6849C51.5958 22.6849 51.5504 22.7095 51.5065 22.7326C51.4719 22.7503 51.4334 22.7719 51.4065 22.7719C51.3996 22.7719 51.3842 22.7719 51.3627 22.7426C51.3473 22.7234 51.3019 22.6642 51.235 22.6642C51.1688 22.6642 51.1288 22.718 51.0965 22.7611L51.0834 22.7796C51.0511 22.8219 51.0288 22.838 51.0042 22.838C50.9934 22.838 50.9819 22.8349 50.9688 22.8296C50.9319 22.8165 50.9004 22.8103 50.8711 22.8103C50.775 22.8103 50.7319 22.8803 50.7081 22.918C50.685 22.9549 50.6811 22.9565 50.6727 22.9565C50.6665 22.9565 50.6511 22.9549 50.6235 22.9434C50.5896 22.928 50.5581 22.9203 50.5281 22.9203C50.4165 22.9203 50.3696 23.0172 50.3388 23.0811C50.3065 23.1472 50.2927 23.1649 50.2719 23.1649C50.2651 23.1649 50.2584 23.1639 50.2519 23.1619C50.2058 23.1496 50.1704 23.1442 50.1388 23.1442C49.9811 23.1442 49.9604 23.2772 49.9373 23.4188C49.9334 23.4434 49.9296 23.4688 49.9242 23.4965C49.885 23.7219 49.7842 24.6526 49.7996 24.8919C49.8134 25.1149 50.1042 25.1149 50.2142 25.1149C50.4204 25.1149 50.7019 25.0772 51.0511 25.0288C51.7357 24.9334 52.995 24.5534 53.645 24.0111C53.8111 23.8726 53.9404 23.8572 53.9881 23.8572C54.0288 23.8572 54.0481 23.8672 54.0519 23.8711C54.0573 23.9042 53.9788 24.0811 53.815 24.2188C53.7996 24.2334 53.7804 24.2488 53.7604 24.2672C53.5573 24.4457 53.0827 24.8649 52.1242 25.0511C51.2073 25.2296 50.3604 25.3903 50.0758 25.3903C50.0388 25.3903 50.0204 25.3872 50.0127 25.3857C49.9958 25.3819 49.9811 25.3796 49.9665 25.3796C49.9196 25.3796 49.8827 25.4034 49.8681 25.4426C49.8496 25.4942 49.8781 25.5549 49.9473 25.6134C50.0388 25.6903 50.1673 25.7357 50.2904 25.7357C50.3281 25.7357 50.365 25.7319 50.4011 25.7234C50.4334 25.7242 50.5342 25.818 50.6073 25.8865C50.805 26.0719 51.1042 26.3511 51.4988 26.3511C51.995 26.3511 52.7127 25.8172 52.9196 25.6542C53.015 25.5796 53.2327 25.468 53.3573 25.4326C53.3365 25.4588 53.305 25.4949 53.255 25.5449L53.2188 25.5811C52.7619 26.0388 52.2896 26.5119 51.8304 26.5242C51.8119 26.5249 51.7934 26.5249 51.7742 26.5249ZM57.6448 25.9022C57.3225 26.1299 57.1441 26.2083 57.1164 26.5968C57.0887 26.986 57.0118 27.6506 56.8656 27.7099C56.6764 27.7868 56.7025 27.3491 56.6441 27.4876C56.5602 27.6822 56.3233 27.5983 56.2548 27.4183C56.2233 27.3399 55.5318 27.3476 56.0879 26.5414C56.591 25.8114 56.9771 25.4291 57.3387 25.2622C57.7002 25.0952 58.3125 25.4291 57.6448 25.9022Z" fill="#061922"/>
<path d="M71.2573 58.9551C71.1288 58.6282 71.355 58.0782 72.0504 58.4674C72.7465 58.8574 73.2742 59.192 72.7742 60.7205C72.2719 62.2497 71.9119 63.1397 71.7165 63.7797C71.5227 64.4197 70.7711 65.2259 71.0211 64.1413C71.2727 63.0567 71.4042 61.7459 71.2988 61.0821C71.1058 59.859 71.4981 59.9313 71.3696 59.3721C71.3296 59.1997 71.305 59.0721 71.2573 58.9551ZM73.8865 60.2757C74.0865 60.8765 74.3035 62.2496 73.9696 62.8057C73.6358 63.3626 72.6065 64.8919 72.2181 65.2819C71.8281 65.6711 71.5227 65.5042 71.7719 65.0865C72.0227 64.6696 72.3565 64.1134 72.3565 63.9188C72.3565 63.7242 72.3296 63.5019 72.6627 62.8619C72.9958 62.2227 73.5804 60.0804 73.6358 59.9142C73.6912 59.7473 73.8304 60.1088 73.8865 60.2757ZM66.7103 65.4207C66.5441 64.9207 66.4603 64.1969 66.1826 63.78C66.4049 63.1676 67.138 61.5238 68.3795 61.0269C68.518 60.9707 68.6026 60.8315 68.5465 60.7207C68.4895 60.6092 68.7134 60.5269 68.8242 60.9161C68.9365 61.3038 69.1303 62.4169 69.1303 62.4169C69.1857 62.6676 69.0749 62.8623 69.0195 63.1961C68.9634 63.53 68.8241 64.2807 68.908 64.6692C68.9911 65.0584 69.1303 65.3376 69.908 65.1707C70.2988 65.0861 70.2711 64.9761 70.3811 64.6415C70.4926 64.3084 70.7988 63.3623 70.9103 62.8338C71.0211 62.3053 70.9249 61.0131 70.8134 60.6792C70.7011 60.3454 70.8549 59.2184 70.7711 58.9961C70.688 58.7738 70.6318 58.4415 69.9372 58.2184C69.2418 57.9954 69.0472 57.9392 68.5742 58.4123C68.1011 58.8861 67.9357 59.08 67.7126 59.3023C67.4895 59.5246 66.9334 59.3292 67.4057 58.8861C67.8795 58.4415 68.3249 57.9954 68.4618 57.8554L68.3249 57.4938H68.0734C67.3218 58.2461 66.3211 58.6907 65.6534 58.8292C65.4026 58.8815 64.9303 58.9123 65.2641 59.3577C65.348 59.47 65.3757 59.7754 65.5711 59.6646C65.7649 59.5523 66.0703 59.0523 66.3488 59.2746C66.628 59.4961 66.2941 60.0261 65.9595 60.2761C65.6272 60.5269 65.2641 60.7761 65.0149 60.9161C64.7641 61.0546 64.6249 61.1931 64.6526 61.6384C64.6803 62.083 64.708 62.8907 64.4572 63.5023C64.2072 64.1138 64.3472 64.2807 64.5688 64.6977C64.7918 65.1153 65.1534 65.4761 65.2641 66.1438C65.3757 66.8107 65.4318 66.9776 65.8764 66.9223C66.3211 66.8669 66.4888 66.6715 66.6557 66.3938L66.7103 65.4207H66.7103Z" fill="#FAB383"/>
<path d="M66.8769 66.6995C66.6831 67.0341 66.3484 67.5618 66.3484 68.0349C66.3484 68.5079 65.8761 69.0087 65.9315 69.231C65.9877 69.4526 66.6 70.0372 66.9607 70.6495C67.3215 71.261 67.7938 72.1779 67.7938 73.7079C67.7938 75.2387 67.2938 77.3233 67.2392 77.6018C67.1823 77.8795 67.0446 78.1026 67.4615 78.4918C67.8792 78.8818 68.5461 79.6041 68.7969 81.2441C69.0469 82.8856 69.2138 83.7479 69.3253 83.831C69.4369 83.9148 69.4084 84.0533 69.4084 84.3595C69.4084 84.6649 69.6853 86.4179 69.8815 86.751C70.0753 87.0856 70.0476 84.8602 70.0192 84.2202C69.9915 83.581 70.0476 80.5225 70.1592 80.0779C70.2707 79.6318 70.3815 79.131 69.9915 78.5749C69.6038 78.0187 68.9361 77.0449 69.4369 75.4333C69.9376 73.8187 70.743 73.8479 70.4923 73.2079C70.2423 72.5679 69.7976 72.1233 69.4646 71.7626C69.1307 71.4003 69.3953 70.5387 69.3807 70.1764C69.353 69.5079 68.8238 69.3979 68.7684 68.6464C68.713 67.8956 68.6569 67.2841 69.2138 66.5333C69.77 65.7833 69.0192 65.8103 68.7684 65.3372C68.5176 64.8649 68.3846 64.2326 68.6023 63.2518C68.713 62.7503 68.6569 62.6126 68.5177 62.5564C68.3792 62.501 67.7938 62.3895 67.7938 62.3895L66.9331 64.1141C67.0731 64.4472 67.1277 64.9487 67.1277 65.2818L66.8769 66.6995V66.6995Z" fill="#A73832"/>
<path d="M58.8405 32.8552C58.1551 33.7683 57.089 36.0814 56.5874 37.5267C56.0874 38.9737 54.9466 42.4221 55.7543 44.7021C56.5597 46.9821 58.1459 45.5367 58.5059 44.6744C58.8682 43.8129 59.4251 42.3383 59.592 41.949C59.7582 41.5598 59.842 41.3367 60.1474 42.2544C60.4536 43.1729 60.8982 45.3698 60.8982 45.5644C60.8982 45.759 60.5913 46.316 60.259 47.1775C59.9251 48.039 59.7305 48.6514 60.0636 49.1806C60.3974 49.7083 61.7051 51.9606 62.122 52.9344C62.372 53.5183 62.5943 53.629 63.262 53.4621C63.9297 53.296 65.5428 52.739 66.0151 52.5167C66.4882 52.2944 66.2651 51.9044 66.1259 51.4329C65.9151 50.7129 65.0705 46.7037 65.0705 46.176C65.0705 45.6475 65.2113 44.9552 64.5128 45.7314C64.2643 46.0098 63.9297 45.7314 64.0128 45.3414C64.0966 44.9521 64.9297 39.529 64.9866 38.8621C64.5128 37.8329 63.1228 34.579 62.7343 33.9952C62.3443 33.4114 62.2059 33.3837 61.6213 33.6898C61.0374 33.9952 59.7328 34.4644 59.2574 33.356C59.1743 33.1606 59.0359 32.716 59.369 32.6606L59.1182 32.5767C59.1182 32.5767 58.9228 32.7437 58.8405 32.8552H58.8405ZM66.1256 52.8504C65.6087 53.1473 63.8464 53.9065 63.1233 54.0188C62.381 54.1334 62.5672 54.325 62.7064 54.8819C62.8441 55.4365 63.2618 57.105 63.4841 57.6896C63.7072 58.2742 64.0126 58.2634 64.5972 58.2465C65.4872 58.2188 66.9887 57.8288 68.0733 56.8273C67.7664 56.4657 67.231 54.7327 67.0726 53.9904C66.9049 53.2127 66.9049 52.4057 66.1256 52.8504ZM50.1904 36.8039C50.135 36.9162 49.9404 37.2493 49.4966 37.2493C49.052 37.2493 48.6896 37.11 48.4112 37.4993C48.1335 37.8885 46.6043 39.7524 46.2696 40.8916C46.6043 41.587 47.0496 42.8385 47.3827 43.7285C48.4673 42.8116 51.9296 39.4324 52.5827 38.7785C52.8343 38.5285 52.8612 38.3062 52.4996 38.0562C52.1381 37.8047 50.8027 36.9708 50.5804 36.8324C50.3581 36.6924 50.2466 36.6924 50.1904 36.8039ZM41.431 41.6987C41.2172 42.5557 40.7918 44.0626 40.0964 45.231C40.3741 45.6756 40.5964 46.0656 40.9303 46.2041C41.7087 45.648 43.1826 44.2841 43.5995 43.7841C44.0172 43.2841 44.5456 42.5326 44.5456 42.3664C44.5456 42.1987 44.351 42.1441 44.101 42.1987C43.8503 42.2549 42.821 41.8433 41.8203 41.6433C41.5426 41.5872 41.4587 41.5872 41.431 41.6987V41.6987ZM40.82 40.8645C40.5138 40.8037 39.4569 39.6684 39.0946 39.0568C38.7338 38.4445 38.6769 38.5007 38.5392 38.9453C38.4 39.3899 37.8715 40.3637 37.51 40.8368C37.1484 41.3091 36.203 42.533 35.9523 42.8114C35.7015 43.0891 35.9523 43.2007 36.1753 43.423C36.3976 43.6453 37.5376 45.0353 37.7876 45.3414C38.0384 45.6476 38.3169 46.2045 38.983 45.5922C39.6515 44.9799 40.4576 43.8676 40.82 42.7276C41.1807 41.5868 41.2076 40.9891 41.5138 41.0584L41.5276 40.8222L41.4446 40.6837L41.2776 40.5445C41.3192 40.6414 41.3192 40.7253 41.2507 40.8368C41.1807 40.9476 40.9584 40.8914 40.82 40.8645V40.8645ZM57.8392 15.2794C57.09 16.164 55.5853 16.947 53.0561 17.587C50.5253 18.227 48.1053 20.007 47.0769 20.8686C46.0469 21.7309 43.4538 23.854 42.21 24.3724C41.8769 24.5117 41.1669 24.9832 42.0707 25.0955C42.7384 25.1794 43.2107 24.7901 44.6569 23.7332C46.1038 22.6763 47.2261 21.914 48.3284 20.8409C49.3576 19.8394 51.2207 18.894 53.2223 18.3378C55.2253 17.7809 57.8553 16.907 58.6177 16.0847C58.9784 15.6963 59.0077 15.5009 58.6738 15.167C58.34 14.834 58.1453 14.9178 57.8392 15.2794H57.8392ZM45.074 24.0252C44.8563 24.1452 44.7686 24.2752 44.517 25.0821C44.2678 25.8883 44.2955 26.3606 44.504 26.556C44.6555 26.6967 44.8786 26.709 44.9909 26.709C45.074 26.709 45.1578 26.7375 45.1447 26.5006C45.1293 26.2644 45.114 25.256 45.867 24.8044C46.0063 24.7206 45.8486 24.1375 45.3524 24.2198C45.1855 24.2483 45.3524 23.8721 45.074 24.0252ZM36.4806 27.2096C36.8706 27.2096 37.1206 27.2096 37.0929 27.6542C37.0652 28.0996 36.8706 28.7111 36.8429 29.1288C36.8144 29.5457 36.8144 29.7119 37.0652 29.7119C37.3144 29.7119 36.7036 29.9627 36.369 30.0188C36.036 30.0742 35.5221 30.2657 35.2567 28.8504C35.1736 28.405 35.2013 27.7104 35.146 27.5434C35.5075 27.3765 36.0044 27.2096 36.4806 27.2096H36.4806ZM43.8732 28.3972C43.9763 28.958 44.1293 28.9472 44.017 29.031C43.9055 29.1149 43.7893 28.8187 43.3355 28.8926C42.9047 28.9618 39.4009 29.5041 39.1509 29.5326C38.3724 29.6149 38.3301 29.4895 39.0532 29.3372C39.7763 29.1841 42.4216 28.7018 43.2109 28.5434L43.8732 28.3972ZM39.6514 70.9273C40.013 71.1496 40.8745 71.4004 42.3491 70.788C43.823 70.1757 45.4637 70.5926 45.7137 71.6496C45.9645 72.7073 45.973 74.0696 45.5191 74.6542C45.1299 75.1542 44.7683 75.0988 44.3237 74.9604C43.5176 74.7073 41.6537 73.848 41.1253 73.5973C40.5968 73.3465 39.7068 73.0688 39.0668 73.0688C38.8168 72.5404 38.8445 71.6219 39.0114 71.2888C39.1783 70.955 39.1783 70.6211 39.3168 70.705C39.4568 70.788 39.6514 70.9273 39.6514 70.9273H39.6514ZM45.4916 75.8491C45.8532 75.8491 46.5078 76.0014 46.7147 76.6568C46.8809 77.1845 47.9663 77.323 48.4393 77.2953C48.9116 77.2691 48.8286 77.5184 48.8001 77.7968C48.7732 78.0745 48.6893 78.9099 48.6893 79.243C48.6893 79.5768 48.7732 80.7437 48.8286 80.9668C48.884 81.1891 48.6893 81.3007 48.4393 81.4114C48.1893 81.523 47.2709 81.8007 46.6878 81.3837C46.3801 81.1645 46.0193 80.856 46.3809 80.8276C46.7424 80.8007 45.937 77.6576 45.714 77.1014C45.4916 76.5445 44.8509 75.8491 45.4916 75.8491ZM35.9243 69.2866C36.0743 69.3358 36.1474 69.482 36.2582 69.6758C36.3697 69.8704 36.4074 70.0389 36.2305 70.232C35.9243 70.5658 35.5628 72.095 35.619 73.1804C35.4244 73.1243 35.0074 73.0412 34.7851 73.0966C34.7013 72.4843 34.7566 70.5658 35.0351 69.9535C35.3136 69.3427 35.5905 69.175 35.9243 69.2866ZM35.9799 86.2503C36.673 87.0303 37.9822 88.2257 38.9553 88.6426C39.9291 89.0595 40.5691 89.1987 41.4306 89.1157C42.1283 89.048 41.9868 89.338 41.4306 89.4218C40.8745 89.5049 39.5953 89.5049 38.7622 89.0595C37.9268 88.6141 36.6037 87.7918 35.7576 86.5849C35.563 86.3057 35.7576 86.001 35.9799 86.2503ZM50.4687 84.3039C49.9041 84.5608 48.8564 85.0831 47.8556 85.3331C47.9664 85.8339 47.9949 86.0562 47.9949 86.1947C48.6056 86.1947 49.7849 85.7677 50.7472 85.1662C50.9703 85.0262 51.0533 84.8608 50.9703 84.6654C50.8857 84.4708 50.7749 84.1647 50.4687 84.3039ZM43.8788 82.0233C43.7396 81.8848 44.5311 81.7187 44.698 81.7187C44.8934 81.8433 45.248 82.1564 45.3803 82.2887C45.4642 82.371 45.4226 82.4264 45.338 82.4833C45.2557 82.5379 44.7688 82.6641 44.5457 82.6779C44.2957 82.4556 43.948 82.0933 43.8788 82.0233ZM45.3526 70.4547C45.1296 70.287 45.158 70.2047 45.2696 70.037C45.3803 69.8701 45.4919 69.7594 45.6026 69.7032C45.7134 69.6478 45.8811 69.6201 46.075 69.8978C46.2696 70.1763 47.3265 71.9294 47.5488 72.4009C47.7719 72.874 48.0503 72.5678 47.9388 72.2901C47.828 72.0117 47.605 71.5394 47.5211 71.4001C47.828 70.4547 48.1334 69.0086 48.1334 68.0632C48.1334 67.1163 47.9111 66.1724 47.7434 65.8378C48.495 65.8655 50.135 65.8378 50.775 65.6432C51.4157 65.4478 50.8857 65.3932 50.6357 65.4209C50.3857 65.4478 48.5873 65.4417 47.2711 65.2817C44.9911 65.0032 42.7511 63.7209 42.0434 62.834C41.9311 62.6955 41.2634 62.7501 41.8203 63.1963C42.3773 63.6409 43.7957 64.9694 45.8811 65.3378C46.3534 65.4209 47.1034 65.5594 47.2157 67.284C47.3265 69.0086 47.1603 70.1201 47.1603 70.287C47.1603 70.4547 47.0496 70.5101 46.9096 70.3147C46.7703 70.1201 46.298 69.4817 46.0465 69.3432C45.7973 69.2032 45.6311 69.2309 45.408 69.3978C45.1857 69.5647 44.8511 69.8978 44.7126 70.0647L45.3526 70.4547V70.4547ZM40.8747 75.8912C40.6663 75.8912 39.4147 75.9889 39.1509 75.8912C38.8863 75.7943 38.7155 75.4904 38.9009 75.3627C39.1224 75.2097 39.554 75.405 39.9847 75.405C40.4163 75.405 40.8747 75.2943 40.9863 75.3627C41.097 75.4327 41.2509 75.405 41.2509 75.9335L40.8747 75.8912ZM37.8433 83.5249C37.4817 83.3034 37.0633 82.2726 36.981 80.2157C36.954 79.5203 37.2325 78.3518 37.454 77.7972C37.6763 77.2403 37.3148 77.4626 37.2325 77.6572C37.1479 77.8518 36.8702 78.631 36.7863 79.2141C36.704 79.7987 36.564 80.6603 36.7863 81.9118C37.0094 83.1634 37.1209 83.5526 37.1756 83.7757L37.8433 83.5249H37.8433Z" fill="white"/>
<path d="M50.5666 17.114C50.9427 17.1555 51.3596 17.1278 51.4573 16.864C51.5543 16.6001 51.4704 16.4324 51.3458 16.3771C51.2204 16.3217 51.165 16.3355 51.2204 16.0847C51.2758 15.8347 51.4573 15.8632 51.4435 15.4732C51.4289 15.084 51.1373 15.0701 50.8727 15.1547C50.6089 15.2371 50.5112 15.3617 50.2604 15.6955C50.0112 16.0294 50.122 15.4732 50.1635 15.3755C50.2027 15.2855 50.3027 14.6447 49.9596 14.5294C49.7666 14.6263 49.5758 14.7224 49.3927 14.8171C49.3327 14.9394 49.2858 15.0825 49.2319 15.2232C49.0927 15.5847 48.9235 15.3132 48.8004 15.1394C48.8004 15.1386 48.7989 15.1378 48.7981 15.1371C48.4273 15.3425 48.1027 15.5347 47.8558 15.6955C47.8289 15.7132 47.7996 15.7332 47.7727 15.7509C47.8058 15.9701 48.0696 16.2478 48.2173 16.3494C48.3981 16.4748 48.2858 16.7109 48.0643 16.7109C47.8412 16.7109 47.5635 16.5586 47.285 16.8909C47.0066 17.2255 47.1873 17.5455 47.4527 17.5455C47.7166 17.5455 47.9389 17.6424 48.0366 17.9478C48.1335 18.254 48.2173 18.3801 48.5789 18.4209C48.9396 18.4624 49.1481 18.1847 49.2458 18.0178C49.3435 17.8509 49.4689 17.6147 49.6212 17.6709C49.8481 17.7532 49.8197 17.9917 49.7504 18.2455C50.012 18.0917 50.2789 17.9471 50.5635 17.8086C50.5181 17.5732 50.3781 17.3563 50.275 17.2532C50.1496 17.1278 50.1904 17.0724 50.5666 17.114ZM53.6679 13.0815C53.5394 13.1115 53.4025 13.1477 53.2656 13.1869C53.3317 13.5046 53.4602 13.9131 53.3902 13.9715C53.3063 14.0407 52.9863 14.0969 52.7363 14.1654C52.4863 14.2354 51.8879 14.7923 52.194 15.1946C52.4994 15.5984 52.5971 15.8346 52.6533 16.0438C52.7079 16.2523 53.2087 16.5023 53.5556 16.0846C53.904 15.6684 54.1679 15.2092 54.2525 15.5007C54.3225 15.7461 54.3033 16.3392 54.2548 16.6577C54.3271 16.6431 54.4002 16.6277 54.474 16.6131C54.6133 15.0569 54.2256 13.9438 53.6679 13.0815ZM46.0334 20.5485C45.8396 20.3962 45.7834 20.1593 46.0188 20.0901C46.2565 20.0201 46.5765 19.9647 47.1603 19.7147C47.7434 19.4639 47.438 19.0331 47.1749 18.9216C46.9103 18.8101 46.8811 18.5608 46.9103 18.2954C46.938 18.0316 46.868 17.6431 46.3534 17.8377C45.8396 18.0316 46.0188 18.5324 45.8673 18.6993C45.7134 18.8662 45.6311 18.8101 45.658 18.5608C45.6865 18.3101 45.4642 18.1431 45.3388 18.087C45.2403 18.0447 45.0273 17.9939 44.8449 17.9793C44.3126 18.4593 43.8257 18.9616 43.4565 19.4601C43.5396 19.6316 43.7342 19.8224 43.8365 19.8531C43.9765 19.8954 44.1849 19.9931 44.1696 20.2708C44.158 20.5055 43.6288 20.5216 43.2811 20.5301C43.5265 21.1947 43.7765 21.6662 44.1249 22.0431C44.2026 22.0208 44.3065 21.9854 44.4488 21.9254C44.8796 21.7447 45.018 21.0908 45.088 20.8962C45.158 20.7016 45.3388 20.7431 45.4642 20.9939C45.5519 21.1693 45.5834 21.3308 45.5957 21.4885C45.8411 21.2431 46.0788 21.0139 46.3126 20.7977C46.2419 20.7277 46.1549 20.6447 46.0334 20.5485H46.0334ZM53.4169 37.1647C53.5 37.1508 53.2777 36.1647 53.46 36.1224C53.64 36.0808 53.7223 36.6647 54.1123 36.5947C54.5023 36.5255 54.5993 36.137 54.5439 35.7055C54.4885 35.2739 54.7385 35.5109 54.9339 35.2047C55.1269 34.8993 54.71 34.4824 54.2369 34.7739C53.7647 35.0655 53.8485 34.6762 54.0993 34.5239C54.35 34.3701 54.1685 33.8147 53.64 33.9947C53.2577 34.1262 53.0646 33.8785 52.8816 33.7739C52.74 33.8285 52.6008 33.8878 52.4608 33.9501C52.43 34.0578 52.4546 34.1885 52.4862 34.3285C52.5262 34.507 52.6108 34.9685 52.3193 34.7739C52.0646 34.6047 51.7208 34.5093 51.6239 34.8293C51.5262 35.1493 51.7208 35.1778 51.6931 35.3716C51.6646 35.5662 51.1647 35.6078 51.4008 36.0108C51.637 36.4139 51.9854 36.1924 52.2223 36.0393C52.4585 35.8862 52.6808 36.067 52.5977 36.2755C52.5316 36.4378 52.4008 36.9855 52.3916 37.3462C52.5023 37.4193 52.6185 37.4978 52.74 37.5839C52.8793 37.4439 53.1416 37.2124 53.4169 37.1647ZM45.8396 36.2062C46.0473 36.1508 46.4511 36.5808 46.8126 36.3308C47.1749 36.0808 46.6596 35.8308 46.7296 35.6216C46.7988 35.4132 46.9657 35.0101 46.715 34.8155C46.465 34.6209 46.2003 34.8016 45.9373 35.0939C45.6719 35.3855 45.7696 34.8285 45.9088 34.5932C46.0896 34.287 45.9088 34.0778 45.6026 34.0224C45.2965 33.967 45.1996 34.3978 44.9911 34.2032C44.6596 33.8947 44.1426 34.0224 44.268 34.4539C44.3934 34.8855 44.5311 35.0239 44.268 35.0793C44.0042 35.1347 43.7534 34.4401 43.448 34.997C43.1411 35.5516 43.628 35.7193 43.5865 36.137C43.5449 36.5539 43.7119 36.9985 43.9619 37.0401C44.2126 37.0824 44.4757 36.8039 44.6149 36.6378C44.7549 36.4708 45.088 36.3455 45.0465 36.6647C45.0173 36.8855 45.0026 37.3439 44.9942 37.6078C45.5065 37.3585 46.0549 37.0985 46.3534 36.9985C46.3658 36.9942 46.3781 36.9896 46.3903 36.9847C46.2511 36.9285 46.0534 36.8362 45.8673 36.7062C45.5888 36.5116 45.6311 36.2624 45.8396 36.2062ZM39.679 48.8737C40.319 48.6791 40.3467 49.1798 40.2629 49.5968C40.1798 50.0137 40.1798 50.9037 40.2075 51.3483L41.2636 51.4052C41.2082 51.126 41.2636 50.3191 41.2921 49.8475C41.319 49.3737 41.7929 48.6506 41.9598 49.3737C42.1267 50.0975 42.849 50.1252 43.3498 49.8191C43.8506 49.5129 44.2129 48.846 44.7406 47.8998C45.2698 46.9545 44.5744 46.7037 44.1567 46.7598C43.7398 46.8152 43.3221 46.8706 44.2683 46.0929C45.1475 45.3683 43.6675 45.0045 42.9875 44.8683C41.8667 46.0452 40.489 47.3783 39.2621 48.4283C39.1052 48.5622 38.959 48.6906 38.819 48.8152C38.9659 48.8998 39.2544 49.0022 39.679 48.8737ZM38.5665 55.8821C39.0949 55.7144 39.4288 56.8552 40.2073 56.1875C40.9865 55.5205 40.4296 54.9644 40.4026 54.4082C40.3742 53.8505 41.0142 53.629 40.8203 52.9344C40.5226 51.8744 39.5396 52.8782 38.928 53.4621C38.3165 54.0459 38.2888 53.5728 38.9011 52.629C39.5126 51.6828 38.5111 51.3767 37.8996 51.6275C37.3557 51.849 36.8565 51.6321 36.5373 51.3467C36.3019 51.7228 36.1296 52.0705 35.9526 52.4336C35.4242 53.5182 35.7857 53.5452 36.1757 53.5452C36.5642 53.5452 37.3988 55.1867 37.5096 55.4913C37.5488 55.6005 37.8342 56.0175 38.2126 56.5505C38.1903 56.2875 38.2411 55.9844 38.5665 55.8821ZM53.779 44.9243C53.2783 44.8135 52.6283 44.7297 52.5552 45.7589C52.5275 46.1482 52.916 46.4551 53.2783 46.5935C53.6398 46.732 53.5836 46.982 53.1944 46.8435C52.8059 46.7035 52.4998 46.6212 52.2229 47.4274C51.9429 48.2335 52.4444 48.3458 52.6952 48.4012C52.9452 48.4566 53.139 48.512 53.0836 48.8466C53.0275 49.1805 52.8613 50.1528 53.5006 50.2366C54.1406 50.3197 54.696 49.5412 54.8913 49.152C55.0867 48.7628 55.3075 48.3728 55.3644 48.8182C55.4198 49.2635 55.336 49.4851 55.1144 49.9858C54.8913 50.4866 54.8913 50.7097 55.2252 50.682C55.559 50.6528 56.1152 50.682 56.2821 50.2912C56.449 49.9028 56.6998 49.152 56.7275 48.6235C56.7436 48.2928 57.0337 48.2558 57.2483 48.2751C57.3112 47.7404 57.3879 47.2074 57.4783 46.6766C56.3867 46.8397 55.4575 45.5066 55.1344 44.3528C54.7629 44.7566 54.2167 45.022 53.779 44.9243ZM48.5789 44.7301C48.3835 45.0632 47.8281 46.0093 48.0773 46.3155C48.3281 46.6208 48.6058 46.0093 48.8289 46.2324C49.0519 46.4547 49.5519 46.7039 49.5519 46.5378C49.5519 46.3708 49.6073 46.037 49.6912 45.5924C49.775 45.147 49.9689 44.897 50.1635 45.2585C50.3581 45.6193 50.6358 45.9255 51.3312 45.7585C52.0266 45.5924 51.9435 44.8685 51.8043 44.3408C51.6643 43.8124 52.1666 43.5616 52.4166 43.4232C52.6666 43.2839 53.3066 42.7832 52.8343 42.3385C52.3612 41.8931 51.9435 42.5331 51.5266 42.6155C51.1089 42.7001 51.2758 42.3385 52.1381 41.6709C52.8827 41.0947 52.2597 40.5185 51.8066 40.3193C50.6089 41.5239 48.4881 43.4793 48.022 43.9239C47.855 44.0839 47.7112 44.2708 47.5766 44.4962C48.6958 43.9755 48.7627 44.4139 48.5789 44.7301ZM55.4753 55.9098C55.8368 56.2445 56.6999 56.7168 57.3107 56.1598C57.9237 55.6037 57.1714 54.9914 57.0891 54.5475C57.0045 54.1014 57.5337 53.8229 57.2553 53.1014C56.7722 51.8422 56.0599 53.3514 55.6414 53.7683C55.2253 54.1852 55.2945 53.4768 55.6699 53.1014C55.8653 52.906 56.7276 52.3775 56.226 51.7937C55.7253 51.2098 55.003 51.5429 54.6414 51.7937C54.2791 52.0445 54.0014 52.3498 53.4453 52.1829C52.8891 52.016 52.416 51.9606 52.083 52.7675C51.7484 53.5729 52.3883 53.3514 52.916 53.9345C53.4453 54.5183 53.1122 54.5475 52.6953 54.4083C52.2768 54.2691 52.0829 53.7406 51.4706 53.8229C50.8583 53.9068 50.8583 54.8814 51.0537 55.1314C51.2491 55.3814 51.6368 55.5206 51.3591 55.9929C51.0822 56.466 51.4983 57.0222 51.9983 57.2445C52.4999 57.4668 53.2491 56.5768 53.5291 56.2152C53.8068 55.8537 54.0837 55.9375 54.0283 56.2152C53.9822 56.4545 53.8514 57.0837 53.833 57.6091C54.2568 57.4737 54.676 57.3483 55.0784 57.2383C55.0776 56.946 55.0145 56.476 54.8914 56.0222C54.7245 55.4098 55.1145 55.576 55.4753 55.9098ZM48.2449 58.8861C47.5773 59.0799 47.4657 58.7738 47.0211 58.6076C46.5765 58.4415 46.5473 58.8292 46.8534 59.3022C47.1603 59.7753 47.4934 60.2199 47.1319 60.2199C46.7703 60.2199 46.4926 60.2761 46.4365 60.5545C46.3811 60.8315 45.7973 60.4992 45.658 59.9145C45.5196 59.3292 45.3803 58.2184 45.0742 58.7738C44.7688 59.3292 44.4903 60.2484 43.7119 59.8315C42.9326 59.4145 43.4611 58.8576 43.0719 58.4676C42.6826 58.0784 42.3211 57.5784 42.7103 56.883C43.1003 56.1876 43.4334 56.7715 43.7949 56.7715C44.1565 56.7715 44.2126 56.4376 43.8788 56.1876C43.5449 55.9376 43.1273 54.7415 44.6573 54.8253C45.2465 54.8576 45.8811 54.6584 46.3811 54.2968C46.8811 53.9345 48.1896 54.1292 47.6611 55.0484C47.1319 55.9653 47.2996 56.1599 47.6049 55.8261C47.9111 55.4915 48.3004 54.8815 48.8842 55.0484C49.4688 55.2145 49.218 55.6592 48.8565 56.1599C48.4949 56.6607 48.7173 56.9945 48.9949 57.1884C49.2734 57.3838 49.7857 58.4353 48.2449 58.8861ZM51.0823 52.3221C50.5807 52.3498 49.9684 52.2105 49.9684 52.2105C49.913 52.739 49.3999 53.4959 48.8846 54.269C48.8284 54.3528 48.523 54.3528 48.383 54.2405C48.2453 54.1298 47.8561 53.9344 48.1607 53.6005C48.4676 53.2682 48.9676 52.5721 48.8846 52.2667C48.8007 51.9605 48.5792 51.6828 48.2453 52.0998C47.9115 52.5167 47.383 53.379 46.7992 53.4075C46.2138 53.4344 45.6315 52.9059 45.9084 52.3775C46.1869 51.8498 46.2699 51.5713 45.8807 51.0975C45.4915 50.6252 45.6369 50.0205 46.4653 49.6521C46.7153 49.5413 47.1599 49.6521 47.4661 49.9021C47.7715 50.1529 47.9392 49.9021 47.5215 49.6521C47.1038 49.4021 46.7707 49.0959 46.7153 48.5398C46.6623 48.0113 46.9938 47.4559 47.7169 47.7613C48.4392 48.0667 48.8846 47.8167 49.1907 47.5667C49.4961 47.3159 50.8007 47.0036 50.6092 48.1513C50.4692 48.9844 50.0815 49.0128 49.9684 49.4575C49.8584 49.9021 50.1907 49.6244 50.3861 49.2913C50.5807 48.9567 51.0261 47.5913 51.943 48.6228C52.1661 48.8736 52.083 49.2913 51.8038 49.7636C51.5261 50.2367 51.7484 50.5144 51.9153 50.7644C52.083 51.0152 52.4699 52.2444 51.0823 52.3221Z" fill="#008348"/>
<path d="M74.0227 30.2047L74.8719 29.6024L76.7127 32.3362L77.7965 31.5678L75.9011 28.8893L76.725 28.307L78.7419 31.1347L79.8273 30.3655L76.8319 26.167L71.9042 29.6593L74.6219 33.5232L75.7065 32.7547L74.0227 30.2047ZM77.5841 39.6984L79.1956 38.953L78.0856 36.5415L81.8603 34.9692L81.1749 33.4584L75.8433 35.7776L77.5841 39.6984ZM78.5442 42.2483L78.7119 43.7352L82.2903 43.3145L82.4303 44.8652L84.0319 44.7468L83.5865 39.546L81.9834 39.6645L82.1219 41.8276L78.5442 42.2483ZM78.7244 47.3205L78.7467 49.0928L84.0067 49.0766L83.9852 47.3051L78.7244 47.3205ZM81.1952 51.5978C80.3136 51.4286 79.2698 51.5739 78.539 52.1278C77.8829 52.6262 77.5775 53.1262 77.4036 54.0339C77.2944 54.6093 77.3829 55.3647 77.5736 56.0262L78.9636 55.5601C78.8298 55.2401 78.7736 54.7539 78.9183 54.2616C79.1998 53.3109 79.9721 52.8824 80.9152 53.0216C81.9159 53.1686 82.486 54.0862 82.3052 55.1786C82.2352 55.6139 82.0182 55.9909 81.5229 56.287L82.3836 57.3239C83.0844 56.8947 83.6152 56.0493 83.729 55.4555C83.9221 54.4547 83.6836 53.7639 83.2198 52.9516C82.7682 52.1593 82.0044 51.7524 81.1952 51.5978H81.1952ZM80.2307 58.9461C79.496 58.7576 78.4953 59.5646 78.013 60.0284C77.7345 60.2961 76.763 61.2753 76.3145 61.1238C75.913 60.9892 76.0353 60.3761 76.1714 59.9753C76.3683 59.3907 76.6706 58.8992 77.1406 58.583L76.2699 58.1968C75.8468 58.5507 75.3753 59.1215 75.1814 59.6961C74.9576 60.3592 74.8653 61.1353 74.9599 61.6292C75.0814 62.2653 75.3037 62.6707 76.023 62.6053C76.5768 62.5538 77.9676 61.6507 78.7699 60.893C79.1768 60.5099 79.5237 60.4684 79.7045 60.5692C79.9983 60.7315 79.9799 61.2322 79.8745 61.5461C79.733 61.9653 79.5314 62.6061 79.1976 62.843L80.386 63.6407C80.8714 63.153 81.123 62.4199 81.2653 61.7346C81.6107 60.0792 80.7137 59.0707 80.2307 58.9461ZM73.6253 24.0332C73.5222 23.2186 73.0722 22.2816 72.6145 21.8855C71.9068 21.2709 71.0691 21.1062 70.1783 21.2216C69.2745 21.3401 68.4337 21.9201 67.9591 22.5947C67.4422 23.3278 67.1453 24.3393 67.3506 25.2339C67.5337 26.0362 67.8645 26.5209 68.6206 27.0524C69.0999 27.3901 69.8245 27.6193 70.506 27.717L70.653 26.2586C70.306 26.2493 69.8391 26.1001 69.4514 25.7655C68.6999 25.117 68.6645 24.0924 69.1414 23.4362C69.7353 22.617 70.7714 22.4416 71.693 23.0555C72.0606 23.2986 72.206 23.6924 72.2714 24.2678L73.6253 24.0332V24.0332ZM19.8257 54.3367C19.8634 53.939 19.8411 53.2121 20.2719 53.1213C20.6873 53.0336 20.9611 53.4367 21.0488 53.8506C21.1765 54.4544 21.3465 54.9244 21.1034 55.4367L22.2234 55.319C22.4073 54.7998 22.3503 54.1052 22.225 53.5129C22.0796 52.8267 21.8611 52.3452 21.3565 51.8975C20.8711 51.4667 20.5057 51.3544 19.798 51.5036C19.3665 51.5952 18.5965 52.3667 18.5696 53.9182C18.565 54.2129 18.495 54.7752 18.2303 54.7882C17.8934 54.8059 17.6449 54.4052 17.5773 54.0813C17.485 53.6482 17.6096 52.6998 17.775 52.3259L16.6026 52.3206C16.4326 52.9867 16.3673 53.9206 16.5119 54.6059C16.8311 56.1159 17.7465 56.6098 18.4896 56.5282C19.2842 56.4406 19.7011 55.6113 19.8257 54.3367ZM17.4804 47.9658L21.6335 47.9142L21.6135 46.6096L17.4604 46.6612L17.4435 44.8912L16.1143 44.9058L16.1673 49.8619L17.4966 49.8473L17.4804 47.9658ZM24.9808 34.9298L21.7746 33.0806L21.7831 33.0652L26.0293 32.9944L27.0423 31.4306L21.81 28.4136L21.0193 29.6436L24.5893 31.8859L19.7208 32.0244L19.0416 33.3382L24.19 36.3267L24.9808 34.9298ZM19.7878 37.9646C20.7116 37.9646 21.4624 38.7139 21.4624 39.6385C21.4624 40.5631 20.7116 41.3131 19.7878 41.3131C18.8624 41.3131 18.1132 40.5631 18.1132 39.6385C18.1132 38.7139 18.8624 37.9646 19.7878 37.9646ZM19.7878 42.8531C21.5632 42.8531 23.0024 41.4139 23.0024 39.6385C23.0024 37.8639 21.5632 36.4239 19.7878 36.4239C18.0116 36.4239 16.5732 37.8639 16.5732 39.6385C16.5732 41.4139 18.0116 42.8531 19.7878 42.8531ZM21.8596 62.4632C20.935 62.4632 20.185 61.7124 20.185 60.7878C20.185 59.8632 20.935 59.1139 21.8596 59.1139C22.7834 59.1139 23.5334 59.8632 23.5334 60.7878C23.5334 61.7124 22.7834 62.4632 21.8596 62.4632V62.4632ZM25.0742 60.7878C25.0742 59.0124 23.635 57.5739 21.8596 57.5739C20.0834 57.5739 18.645 59.0124 18.645 60.7878C18.645 62.5639 20.0834 64.0032 21.8596 64.0032C23.635 64.0032 25.0742 62.5639 25.0742 60.7878ZM27.897 68.2835L27.7862 68.1504C27.4316 67.725 26.2339 66.4573 26.7285 65.9919C27.18 65.5673 28.3185 67.0127 28.6408 67.3981L28.7785 67.5658L27.897 68.2835V68.2835ZM25.9223 70.0666C25.4977 69.5581 24.2316 68.5627 24.7723 68.0535C25.2877 67.5689 26.5577 69.1173 26.7154 69.3066L25.9223 70.0666ZM25.7269 64.4596C25.2339 64.8973 24.9954 65.9366 25.4608 66.6404C24.9539 66.3935 23.9316 66.3089 23.4623 66.7166C22.3054 67.7212 23.7085 69.1727 24.8608 70.3235L26.467 71.9096L30.7354 68.3789L29.007 66.3689C28.4008 65.6073 26.7254 63.5766 25.727 64.4596H25.7269Z" fill="white"/>
<path d="M44.7268 81.0774C44.9075 80.9943 45.1583 80.8827 45.2698 80.9666C45.3806 81.0497 46.0468 81.5227 46.4652 81.885C46.8814 82.2458 47.0206 82.3573 46.6875 82.552C46.3537 82.7458 46.0468 82.9412 46.1037 82.7735C46.1591 82.6081 46.2422 82.3573 46.0191 82.135C45.7975 81.912 45.2514 81.4904 45.0183 81.3004C44.866 81.175 44.7268 81.0773 44.7268 81.0773V81.0774ZM43.1552 81.537C43.016 81.6624 42.9883 81.8709 43.1552 82.037C43.3222 82.204 44.2537 82.9824 44.4068 83.1363C44.5598 83.2886 44.7822 83.3455 45.0322 83.2886C45.2829 83.2324 44.7406 83.5947 44.5314 83.6363C44.3244 83.677 44.0875 83.677 43.8652 83.4693C43.6414 83.2609 42.3906 82.0786 42.1406 81.8424C41.8898 81.6063 42.2098 81.6063 42.4322 81.5793C42.6552 81.5517 42.8491 81.5647 43.1552 81.537ZM49.2321 15.2232C49.2844 15.0878 49.329 14.9393 49.3867 14.8201C49.191 14.9221 48.9967 15.0264 48.8036 15.1332C48.9267 15.307 49.0936 15.5824 49.2321 15.2232ZM54.2524 15.5008C54.1685 15.2093 53.9039 15.6685 53.5562 16.0847C53.2093 16.5023 52.7078 16.2523 52.6532 16.0439C52.5978 15.8347 52.5001 15.5985 52.1939 15.1947C51.8878 14.7923 52.4862 14.2354 52.7362 14.1654C52.9862 14.097 53.307 14.0408 53.3901 13.9716C53.4608 13.9131 53.3347 13.5031 53.267 13.1862C52.267 13.4716 51.0478 13.9939 49.9716 14.5247C50.2993 14.65 50.2024 15.2862 50.1639 15.3754C50.1216 15.4731 50.0108 16.0293 50.2608 15.6954C50.5116 15.3616 50.6093 15.237 50.8724 15.1547C51.137 15.07 51.4285 15.0839 51.4439 15.4731C51.457 15.8631 51.2762 15.8347 51.2208 16.0847C51.1647 16.3354 51.2208 16.3216 51.3462 16.377C51.4708 16.4324 51.5539 16.6 51.457 16.8639C51.3593 17.1277 50.9424 17.1554 50.5662 17.1139C50.1908 17.0723 50.1493 17.1277 50.2755 17.2531C50.3762 17.3554 50.5132 17.5777 50.5624 17.81C51.467 17.3723 52.5616 17.0062 54.257 16.6577C54.3032 16.337 54.3208 15.7431 54.2524 15.5008H54.2524ZM45.4641 20.994C45.3387 20.7432 45.1579 20.7017 45.0887 20.8963C45.0179 21.0909 44.8795 21.7447 44.4487 21.9247C44.3425 21.9703 44.2336 22.0091 44.1225 22.0409C44.2718 22.2024 44.4379 22.347 44.6294 22.4817C44.9694 22.1224 45.2879 21.7947 45.5933 21.4893C45.5818 21.3347 45.5495 21.1655 45.4641 20.994ZM49.6208 17.6707C49.4685 17.6153 49.3432 17.8514 49.2455 18.0176C49.1485 18.1845 48.9401 18.463 48.5793 18.4214C48.217 18.3799 48.1332 18.2545 48.0362 17.9483C47.9385 17.643 47.7162 17.5453 47.4524 17.5453C47.1878 17.5453 47.007 17.2253 47.2854 16.8914C47.5639 16.5583 47.8416 16.7107 48.0639 16.7107C48.2855 16.7107 48.3978 16.4745 48.217 16.3491C48.0732 16.2499 47.8208 15.966 47.777 15.7476C46.9839 16.2691 45.847 17.076 44.8555 17.9699C45.0347 17.9853 45.2439 18.0453 45.3385 18.0876C45.4639 18.143 45.6862 18.3099 45.6585 18.5607C45.6308 18.8099 45.7139 18.8668 45.867 18.6991C46.0193 18.533 45.8393 18.0314 46.3532 17.8376C46.8686 17.643 46.9386 18.0314 46.9101 18.2953C46.8808 18.5607 46.9101 18.8099 47.1747 18.9214C47.4378 19.033 47.7439 19.4637 47.1601 19.7145C46.5762 19.9645 46.2562 20.0207 46.0193 20.0907C45.7832 20.1591 45.8393 20.396 46.0332 20.5483C46.1524 20.6422 46.2378 20.733 46.307 20.803C47.0424 20.1199 47.7378 19.5614 48.5232 19.033C48.9532 18.7445 49.3455 18.4837 49.7539 18.2437C49.8208 17.9937 49.8447 17.7514 49.6208 17.6707ZM44.1697 20.2705C44.1851 19.9928 43.9766 19.8951 43.8366 19.8536C43.7351 19.822 43.5443 19.6251 43.4604 19.4559C43.322 19.6413 43.1997 19.8251 43.0997 20.0067C43.1604 20.1936 43.2212 20.3667 43.2805 20.5297C43.6289 20.5213 44.1582 20.5036 44.1697 20.2705H44.1697ZM55.9208 33.2442C55.01 33.1865 53.9261 33.3711 52.8908 33.7703C53.0715 33.878 53.2646 34.1234 53.64 33.995C54.1684 33.8142 54.35 34.3704 54.0992 34.5242C53.8484 34.6765 53.7646 35.065 54.2377 34.7734C54.71 34.4819 55.1269 34.8988 54.9338 35.205C54.7385 35.5104 54.4885 35.2742 54.5438 35.705C54.5992 36.1365 54.5023 36.5257 54.1123 36.595C53.7231 36.665 53.64 36.0811 53.46 36.1227C53.2777 36.1642 53.5008 37.1511 53.4169 37.165C53.1454 37.2111 52.8862 37.4465 52.7462 37.588C52.7577 37.5957 52.7669 37.6026 52.7769 37.6103C54.3084 38.7096 54.6961 38.1111 54.9192 37.5827C55.1415 37.0542 55.6362 35.488 55.7808 34.6627C55.8654 34.1896 55.9761 33.6896 55.9208 33.2442ZM52.5975 36.2757C52.6805 36.0672 52.4582 35.8864 52.2228 36.0387C51.9852 36.1926 51.6367 36.4141 51.4005 36.011C51.1651 35.6072 51.6644 35.5664 51.6928 35.3718C51.7205 35.1772 51.5259 35.1495 51.6236 34.8295C51.7205 34.5095 52.0652 34.6049 52.3198 34.7733C52.6113 34.9687 52.5259 34.5072 52.4859 34.3287C52.4552 34.1933 52.4336 34.0564 52.4582 33.951C52.159 34.0872 51.8628 34.2403 51.5821 34.4118C50.1528 35.2864 50.1082 36.0249 50.4413 36.3033C50.7405 36.5518 51.3521 36.6687 52.3913 37.3472C52.4021 36.9864 52.5328 36.4364 52.5975 36.2757H52.5975ZM48.0505 35.4407C47.4589 35.146 46.8812 34.4953 46.4928 33.7445C46.4928 33.7445 46.5205 33.6337 46.3535 33.6337C46.1874 33.6337 45.5743 33.5776 44.5458 33.216C43.5166 32.8553 43.3782 33.0776 43.2397 33.5222C43.0997 33.9668 42.9881 34.7737 42.9604 36.1091C42.9328 37.4437 43.5166 38.2776 43.8789 38.1383C44.0543 38.0699 44.5089 37.8445 44.9958 37.6076C45.0028 37.3422 45.0174 36.883 45.0466 36.6645C45.0882 36.3453 44.7551 36.4707 44.6151 36.6376C44.4758 36.8037 44.2128 37.0822 43.962 37.0399C43.712 36.9983 43.5451 36.5537 43.5866 36.1368C43.6282 35.7191 43.1412 35.5522 43.4482 34.9968C43.7536 34.4399 44.0043 35.1353 44.2681 35.0791C44.5312 35.0237 44.3935 34.8853 44.2681 34.4537C44.1427 34.0222 44.6597 33.8945 44.9912 34.203C45.1997 34.3984 45.2966 33.9668 45.6028 34.0222C45.9089 34.0783 46.0897 34.2868 45.9089 34.593C45.7697 34.8291 45.672 35.3853 45.9374 35.0937C46.2004 34.8014 46.4651 34.6207 46.7151 34.816C46.9658 35.0099 46.7989 35.413 46.7297 35.6214C46.6597 35.8306 47.1751 36.0814 46.8128 36.3306C46.4512 36.5806 46.0474 36.1506 45.8397 36.206C45.6312 36.2622 45.5889 36.5122 45.8674 36.7068C46.0489 36.8337 46.2389 36.933 46.3789 36.9891C46.9581 36.7922 47.6358 36.4122 47.8558 36.2753L48.2174 36.3037C48.2451 35.8307 48.2174 35.5245 48.0505 35.4407H48.0505ZM45.9922 41.5596C45.7698 41.0588 45.6922 41.4434 45.0745 42.4219C44.7622 42.9165 43.9729 43.8334 42.9852 44.8696C43.6698 45.008 45.1445 45.3703 44.2683 46.0934C43.3222 46.8711 43.7398 46.8157 44.1568 46.7596C44.5744 46.7034 45.2698 46.9542 44.7406 47.9003C44.2129 48.8465 43.8506 49.5127 43.3498 49.8196C42.8491 50.125 42.1268 50.0973 41.9598 49.3742C41.7929 48.6511 41.3191 49.3742 41.2922 49.8473C41.2637 50.3196 41.2083 51.1265 41.2637 51.405L40.2075 51.3488C40.1798 50.9034 40.1798 50.0134 40.2629 49.5965C40.3468 49.1803 40.3191 48.6788 39.6791 48.8734C39.2614 49.0011 38.9752 48.8934 38.8268 48.808C37.5837 49.9142 36.9552 50.678 36.5337 51.3519C36.8529 51.635 37.3591 51.848 37.8991 51.6273C38.5106 51.3765 39.5129 51.6827 38.9006 52.6288C38.2883 53.5727 38.3168 54.0457 38.9275 53.4619C39.5398 52.878 40.5229 51.8742 40.8198 52.9342C41.0137 53.6288 40.3745 53.8511 40.4022 54.408C40.4298 54.9642 40.9868 55.5203 40.2076 56.188C39.4291 56.855 39.0952 55.7142 38.5668 55.8819C38.2483 55.9834 38.1837 56.2765 38.2014 56.5365C38.8937 57.5157 39.9014 58.9003 40.2629 59.4957C40.8198 60.415 40.8198 61.528 41.0414 61.3603C41.2637 61.1927 41.7929 60.6919 41.9598 60.5542C42.1268 60.415 42.2929 60.248 42.2098 59.9419C42.1268 59.6365 41.8068 57.9957 41.9044 56.855C42.0152 55.548 42.6268 54.1157 43.0722 53.2957C43.4998 52.5065 44.796 49.9857 45.1022 49.318C45.4083 48.6511 45.9645 47.8726 46.1037 47.2603C46.2422 46.648 46.7706 45.2303 46.9937 44.5627C46.9383 44.0065 46.5791 42.8811 45.9922 41.5596V41.5596ZM50.1635 35.3573C49.9966 35.8027 49.7751 36.3588 49.6635 36.6373C49.552 36.9157 49.0397 36.8073 49.0789 36.6088C49.1628 36.1919 48.5681 36.468 48.6343 36.1365C48.6897 35.858 48.5789 35.4127 48.8843 35.4127C49.1905 35.4127 49.7751 35.3573 50.1635 35.3573Z" fill="#BB9753"/>
<path d="M49.2322 15.2234C49.2845 15.088 49.3291 14.9395 49.3868 14.8203C49.1912 14.9223 48.9968 15.0267 48.8037 15.1334C48.9268 15.3072 49.0937 15.5826 49.2322 15.2234ZM51.0824 52.3222C50.5809 52.3499 49.9686 52.2107 49.9686 52.2107C49.9132 52.7392 49.4001 53.4961 48.8847 54.2692C48.8286 54.353 48.5232 54.353 48.3832 54.2407C48.2455 54.1299 47.8563 53.9345 48.1609 53.6007C48.4678 53.2684 48.9678 52.5722 48.8847 52.2669C48.8009 51.9607 48.5793 51.683 48.2455 52.0999C47.9117 52.5169 47.3832 53.3792 46.7994 53.4076C46.214 53.4345 45.6317 52.9061 45.9086 52.3776C46.187 51.8499 46.2701 51.5715 45.8809 51.0976C45.4917 50.6253 45.637 50.0207 46.4655 49.6522C46.7155 49.5415 47.1601 49.6522 47.4663 49.9022C47.7717 50.153 47.9394 49.9022 47.5217 49.6522C47.104 49.4022 46.7709 49.0961 46.7155 48.5399C46.6624 48.0115 46.994 47.4561 47.717 47.7615C48.4394 48.0669 48.8847 47.8169 49.1909 47.5669C49.4963 47.3161 50.8009 47.0038 50.6094 48.1515C50.4694 48.9845 50.0817 49.013 49.9686 49.4576C49.8586 49.9022 50.1909 49.6245 50.3863 49.2915C50.5809 48.9569 51.0263 47.5915 51.9432 48.623C52.1663 48.8738 52.0832 49.2915 51.804 49.7638C51.5263 50.2369 51.7486 50.5145 51.9155 50.7645C52.0832 51.0153 52.4701 52.2445 51.0824 52.3222ZM48.2455 58.8861C47.577 59.0799 47.4663 58.7745 47.0209 58.6076C46.5763 58.4415 46.5478 58.8292 46.854 59.3022C47.1601 59.7753 47.494 60.2207 47.1324 60.2207C46.7709 60.2207 46.4924 60.2761 46.437 60.5545C46.3817 60.8322 45.7978 60.4992 45.6586 59.9145C45.5194 59.3292 45.3809 58.2184 45.074 58.7745C44.7686 59.3292 44.4901 60.2484 43.7117 59.8315C42.9332 59.4145 43.4617 58.8576 43.0717 58.4676C42.6832 58.0784 42.3217 57.5784 42.7109 56.883C43.1001 56.1876 43.434 56.7715 43.7955 56.7715C44.157 56.7715 44.2124 56.4384 43.8794 56.1876C43.5447 55.9376 43.1278 54.7422 44.657 54.8253C45.247 54.8576 45.8809 54.6584 46.3817 54.2969C46.8817 53.9345 48.1894 54.1299 47.6609 55.0484C47.1324 55.9653 47.2994 56.1599 47.6047 55.8269C47.9117 55.4915 48.3001 54.8815 48.8847 55.0484C49.4686 55.2145 49.2186 55.6592 48.857 56.1599C48.4955 56.6615 48.7178 56.9945 48.9955 57.1884C49.274 57.3838 49.7855 58.4353 48.2455 58.8861ZM58.1178 53.9069C57.3948 52.7122 57.2555 52.2392 57.144 51.0153C57.074 50.243 57.1371 49.2392 57.2486 48.2745C57.0348 48.2576 56.744 48.2984 56.7278 48.623C56.7001 49.1522 56.4494 49.9022 56.2824 50.2915C56.1155 50.6822 55.5594 50.653 55.2255 50.6822C54.8917 50.7099 54.8917 50.4868 55.1147 49.9861C55.3363 49.4853 55.4201 49.263 55.364 48.8184C55.3078 48.373 55.0871 48.763 54.8917 49.1522C54.6963 49.5415 54.1409 50.3192 53.5009 50.2368C52.8617 50.153 53.0278 49.1807 53.084 48.8461C53.1394 48.5122 52.9455 48.4569 52.6955 48.4007C52.4447 48.3461 51.9432 48.2338 52.2225 47.4276C52.5001 46.6207 52.8063 46.7038 53.1947 46.843C53.584 46.9822 53.6401 46.7322 53.2778 46.5938C52.9163 46.4553 52.5278 46.1484 52.5555 45.7592C52.6286 44.7292 53.2778 44.8138 53.7794 44.9246C54.2148 45.0207 54.764 44.7592 55.1371 44.3607C55.1294 44.3353 55.1201 44.3099 55.1147 44.2838C54.3724 41.4538 55.7809 37.9715 56.1702 36.9984C56.5602 36.0253 58.0617 33.2861 58.5763 32.4653C58.2986 32.3261 57.5617 31.9515 57.1578 31.7422C56.7555 31.5345 56.5324 31.4368 56.4209 31.5899C56.3094 31.7422 56.1701 31.8253 55.9763 32.1038C55.5855 32.6615 55.9209 32.5769 56.0317 32.5769C56.1432 32.5769 56.6155 33.1884 56.7001 33.3284C56.7832 33.4669 56.7001 33.5776 56.5047 34.0222C56.2494 34.6045 56.0878 35.9422 55.8655 36.7484C55.1917 39.1907 54.1409 38.9453 53.6678 38.6399C53.1948 38.333 53.0563 38.8069 52.5832 39.4738C52.4701 39.6322 52.187 39.9361 51.8132 40.3122C52.2663 40.5145 52.8794 41.0976 52.1386 41.6707C51.2763 42.3384 51.1086 42.6999 51.5263 42.6161C51.9432 42.533 52.3609 41.893 52.834 42.3384C53.307 42.7838 52.6671 43.2838 52.4163 43.423C52.1663 43.5622 51.6647 43.8122 51.804 44.3407C51.9432 44.8684 52.0271 45.5922 51.3309 45.7592C50.6363 45.9261 50.3586 45.6199 50.164 45.2584C49.9686 44.8969 49.7747 45.1469 49.6909 45.5922C49.6078 46.0368 49.5524 46.3707 49.5524 46.5376C49.5524 46.7038 49.0517 46.4553 48.8286 46.2322C48.6063 46.0092 48.3286 46.6207 48.077 46.3153C47.8286 46.0092 48.3832 45.063 48.5794 44.7299C48.7624 44.4153 48.6855 43.9792 47.5801 44.4907C47.2224 45.0899 46.9386 45.9584 46.4924 47.3161C45.8809 49.1807 44.4955 51.7184 43.9201 52.6422C42.4224 55.0499 42.1547 57.3284 42.3778 58.7468C42.5986 60.1576 42.794 60.053 43.1001 60.053C43.4063 60.053 44.157 60.9984 44.657 61.5838C45.1578 62.1676 45.3532 61.9169 45.6032 61.7215C46.407 61.0969 48.0217 60.053 50.3024 58.9692C51.2755 58.5069 52.5709 58.0138 53.8347 57.6092C53.854 57.0853 53.9825 56.4538 54.0286 56.2161C54.084 55.9376 53.8071 55.8538 53.5294 56.2161C53.2494 56.5769 52.5001 57.4669 51.9986 57.2445C51.4986 57.0222 51.0824 56.4661 51.3594 55.993C51.637 55.5207 51.2494 55.3815 51.054 55.1315C50.8586 54.8815 50.8586 53.9069 51.4709 53.823C52.0832 53.7407 52.277 54.2692 52.6955 54.4084C53.1124 54.5476 53.4455 54.5184 52.9163 53.9345C52.3886 53.3515 51.7486 53.573 52.0832 52.7676C52.4163 51.9607 52.8894 52.0169 53.4455 52.183C54.0017 52.3499 54.2794 52.0445 54.6417 51.7938C55.0032 51.543 55.7255 51.2099 56.2263 51.7938C56.7278 52.3776 55.8655 52.9061 55.6701 53.1015C55.2947 53.4769 55.2255 54.1853 55.6417 53.7684C56.0601 53.3515 56.7717 51.8422 57.2555 53.1015C57.534 53.823 57.0048 54.1015 57.0894 54.5476C57.1717 54.9915 57.924 55.6038 57.3109 56.1599C56.7001 56.7169 55.837 56.2445 55.4755 55.9099C55.1147 55.5761 54.7248 55.4099 54.8917 56.0222C55.014 56.4722 55.0763 56.9461 55.0778 57.2384C56.2948 56.9015 57.3548 56.6969 57.894 56.7445C58.6886 56.8153 59.2855 57.0499 59.2578 56.3269C59.2301 55.6038 58.8409 55.103 58.1178 53.9069ZM41.6376 76.0986C41.5153 76.0986 41.2499 76.0555 41.2499 75.9424L40.9291 75.907C41.123 75.9462 41.2999 76.1685 41.0953 76.3078C40.873 76.4632 40.1637 76.547 39.4145 76.5032C38.6637 76.4632 38.4807 76.0555 38.4676 75.7601C38.4584 75.5647 38.4807 75.3939 38.4807 75.1124C38.4807 74.8324 38.4137 74.5785 38.5799 74.4662C38.7453 74.3547 38.7045 74.6339 38.8145 74.6339C39.2891 74.6339 40.9291 74.7893 41.3191 74.8462C41.7107 74.9008 41.683 74.6685 41.596 74.4078C41.5699 74.3232 41.4599 74.3547 41.4184 74.4662C41.3753 74.5785 41.0137 74.537 41.0137 74.537C41.0137 74.537 40.2907 74.4662 39.8207 74.437C39.3461 74.4078 38.9814 74.3547 38.6922 74.2978C38.3984 74.2393 38.0353 74.2555 38.066 74.3962C38.0891 74.537 38.1753 76.2932 38.1914 76.547C38.2037 76.7993 38.2184 76.8993 38.343 76.8993C38.6637 76.8993 40.8214 76.927 41.3191 76.927C41.8207 76.927 41.7945 76.8701 41.806 76.5901C41.8207 76.3078 41.766 76.0985 41.6376 76.0985" fill="#BB9753"/>
</svg>
