<svg width="100" height="100" viewBox="0 0 100 100" fill="none" xmlns="http://www.w3.org/2000/svg">
<path d="M87.163 23.5989L87.1693 20.2181L85.1736 19.21C84.5685 18.9065 70.1528 11.7394 50.2361 11.7394H49.3359C29.3428 11.7394 14.9992 18.9086 14.4047 19.2078L12.4027 20.2159L12.409 23.5289C12.2477 32.0203 13.305 53.5895 26.5552 70.4131C37.3702 84.1552 47.7351 87.4151 48.8794 87.7398L49.8752 88.0242L50.8666 87.7461C51.3125 87.6209 61.9024 84.5287 73.0126 70.4132C86.2755 53.5852 87.3286 32.0882 87.163 23.5989Z" fill="#FEFEFE"/>
<path d="M85.0401 23.6149C85.0465 22.8657 85.0465 22.4434 85.0465 22.4434V21.5244L84.2142 21.1042C83.6304 20.8092 69.6498 13.8628 50.2363 13.8628H49.3361C29.9353 13.8628 15.9399 20.8092 15.3582 21.1042L14.5238 21.5244V22.4434C14.5238 22.4434 14.5238 22.8657 14.5323 23.5703C14.3752 31.8304 15.3879 52.8053 28.222 69.1005C38.6315 82.3268 48.385 85.3936 49.4614 85.6992L49.8796 85.8202L50.2936 85.7013C50.7161 85.5846 60.6522 82.6834 71.3462 69.1005C84.193 52.799 85.2036 31.8516 85.0401 23.6149Z" fill="#2D2925"/>
<path d="M49.8789 83.5757C49.0891 83.3486 39.8027 80.4941 29.8263 67.8132C16.6759 51.1211 16.6186 29.2633 16.7184 24.1146C16.712 23.3909 16.712 22.9834 16.712 22.9834C16.712 22.9834 16.7248 22.977 16.7524 22.9622V22.9197L17.0454 22.7818C17.7439 22.4634 19.3001 21.7822 21.5548 20.9736C27.1576 18.9234 37.1935 16.0455 49.3396 16.0455H50.225C62.3499 16.0455 72.3582 18.9085 77.9695 20.9565C80.2497 21.7736 81.825 22.4613 82.5277 22.7817L82.8207 22.9154V22.9621C82.8441 22.977 82.8611 22.9834 82.8611 22.9834C82.8611 22.9834 82.8611 23.3908 82.8526 24.1146C82.9545 29.2633 82.9014 51.1211 69.7467 67.8132C59.7449 80.5195 50.6389 83.3656 49.8789 83.5757L49.8789 83.5757ZM70.4261 68.3756C82.9948 52.42 83.9842 31.8695 83.8186 23.7771C83.8249 23.0237 83.8249 22.6077 83.8249 22.6056V22.3L83.5511 22.162C82.98 21.8713 69.2903 15.0713 50.2335 15.0713H49.3354C30.2934 15.0713 16.5952 21.8713 16.0178 22.162L15.7396 22.3V22.6056C15.7396 22.6077 15.7396 23.0237 15.7502 23.7304C15.5953 31.8526 16.5889 52.4263 29.1469 68.3756C39.2974 81.273 48.7048 84.2357 49.743 84.5286L49.8831 84.5668L50.019 84.5286C50.4224 84.4182 59.9912 81.621 70.4261 68.3756" fill="#FEFEFE"/>
<path d="M74.0928 33.3003C69.422 28.4699 68.8827 27.6868 68.8827 25.7003C68.8827 23.7329 69.7426 23.4697 70.5876 23.4697C71.0249 23.4697 71.5663 23.5589 72.1884 23.7371C75.5683 24.7092 75.5683 26.5535 75.5683 27.9203V29.8813C75.5683 30.0362 75.6702 30.1763 75.8167 30.2272C76.632 30.5052 77.0417 30.6496 77.8973 30.9658C78.0077 31.0061 78.1351 30.9913 78.2328 30.9255C78.3326 30.8533 78.3899 30.7429 78.3899 30.622V28.9835C78.3899 26.9143 78.3899 23.4485 72.3455 21.7146C68.1184 20.5027 65.9613 21.7995 65.9613 25.4668C65.9613 28.5124 67.8276 30.3354 70.923 33.3555L71.5472 33.9667C75.218 37.5641 75.9611 38.7505 75.9611 41.032C75.9611 41.8491 75.838 42.4221 75.5853 42.7808C75.3242 43.1458 74.9102 43.3135 74.2796 43.3135C73.7892 43.3135 73.1692 43.2052 72.4368 42.9951C70.8275 42.5324 69.6598 41.9021 68.9676 41.119C68.1227 40.1682 68.1227 39.3617 68.1227 37.753V36.0127C68.1227 35.9301 68.0948 35.85 68.0435 35.7852C67.9923 35.7205 67.9206 35.675 67.8403 35.6561C66.9358 35.4524 66.5027 35.3632 65.6365 35.1913C65.5303 35.1722 65.4178 35.1998 65.3329 35.2677C65.248 35.3378 65.2013 35.4418 65.2013 35.55V38.6316C65.2013 41.5286 67.5685 43.7358 72.0567 45.0156C73.3221 45.3785 74.4155 45.5589 75.3093 45.5589C78.823 45.5589 78.823 42.7298 78.823 41.5222C78.823 38.3366 77.201 36.5114 74.0928 33.3003ZM64.6854 20.1992C60.2226 19.3821 55.6623 18.9407 51.1316 18.8898C51.0318 18.8855 50.9384 18.9258 50.8704 18.9938C50.8004 19.0659 50.7621 19.1572 50.7621 19.2548V20.6555C50.7621 20.855 50.9214 21.0185 51.1231 21.0227C53.2462 21.046 54.3396 21.0927 56.3501 21.2519V41.5137C56.3501 41.7047 56.4924 41.8639 56.6835 41.8809C57.5709 41.9509 58.0019 41.9934 58.8957 42.0889C58.9063 42.0931 58.9233 42.0952 58.9339 42.0952C59.0252 42.0952 59.1102 42.0613 59.1781 41.9997C59.2545 41.9297 59.3012 41.8321 59.3012 41.726V21.5363C61.3182 21.7634 62.4243 21.9289 64.5516 22.3194C64.6599 22.3407 64.7724 22.3088 64.8531 22.2388C64.9338 22.1709 64.9826 22.0669 64.9826 21.9586V20.56C64.9826 20.3818 64.8595 20.2311 64.6854 20.1992ZM48.8939 18.9258C45.0978 18.9874 41.2677 19.3248 37.512 19.9276C37.3336 19.9552 37.2041 20.1101 37.2041 20.2884V42.2565C37.2041 42.3648 37.253 42.4667 37.3336 42.5367C37.4016 42.5919 37.4865 42.6216 37.5714 42.6216C37.5884 42.6216 37.6096 42.6216 37.6266 42.6195C41.3314 42.0252 45.1105 41.6899 48.862 41.6262C49.0595 41.6241 49.2208 41.4607 49.2208 41.2612V39.8923C49.2208 39.7946 49.1826 39.697 49.1104 39.6312C49.0425 39.5633 48.9384 39.5251 48.8471 39.5272C45.3355 39.5867 43.4587 39.7182 40.1021 40.1554V31.4624C42.8876 31.1016 44.361 30.9806 47.2761 30.8745C47.4714 30.866 47.6306 30.7026 47.6306 30.5074V29.1682C47.6306 29.0684 47.5903 28.9729 47.516 28.905C47.4459 28.8371 47.3503 28.7968 47.2484 28.8031C44.3972 28.9093 42.86 29.0323 40.1488 29.3825V21.6573C43.5649 21.2095 45.3504 21.0842 48.9066 21.0269C49.1062 21.0248 49.2654 20.8614 49.2654 20.6619V19.293C49.2654 19.1933 49.2251 19.0978 49.1571 19.032C49.0871 18.9619 48.9894 18.9237 48.8939 18.9258ZM34.3465 20.5006C33.4696 20.6768 33.0471 20.768 32.1894 20.9654C32.0217 21.0036 31.9049 21.1543 31.907 21.3283L32.0832 37.3073C32.0832 38.3684 32.1108 39.3426 32.1533 40.2149C29.9941 34.6947 27.7394 28.9793 25.4507 23.1938C25.3764 23.0134 25.1768 22.9179 24.99 22.9816C23.7162 23.4039 23.0983 23.6225 21.8436 24.0958C21.7034 24.1468 21.6079 24.2868 21.6079 24.4354V46.4057C21.6079 46.5267 21.6652 46.6391 21.765 46.7071C21.8245 46.7495 21.8988 46.7729 21.9752 46.7729C22.0156 46.7729 22.0623 46.7644 22.1026 46.7474C22.8775 46.4545 23.2682 46.3144 24.0941 46.0258C24.2406 45.9749 24.3403 45.8369 24.3382 45.682C24.3085 40.4823 24.2787 35.2847 24.2533 30.0914C24.2533 28.7225 24.2363 27.9585 24.1917 26.9907C26.4464 32.7252 28.6417 38.3387 30.7245 43.7103C30.7945 43.8822 30.975 43.9799 31.1555 43.9311C32.493 43.6021 33.149 43.4557 34.4908 43.1861C34.6585 43.15 34.7838 43.0015 34.7838 42.8274V20.8593C34.7838 20.7489 34.7329 20.6449 34.6501 20.5749C34.563 20.507 34.4505 20.4794 34.3465 20.5006ZM62.1029 70.2281C61.8905 70.3746 61.6804 70.5295 61.4447 70.6908C60.829 71.1195 60.2303 71.4824 59.5891 71.8644C59.294 72.047 58.9861 72.2274 58.6698 72.4247C56.483 73.7788 53.8632 75.2771 51.0543 76.1367C50.2412 76.3892 49.4917 76.5717 48.7635 76.6885C48.0862 76.7861 47.4535 76.837 46.823 76.837H46.702C45.8718 76.8307 45.0672 76.7521 44.2944 76.6099C47.2327 77.652 50.4959 77.877 53.7464 77.0705C55.6062 76.6099 57.3153 75.8459 58.8248 74.8463C60.2749 73.713 61.4468 72.1021 62.1984 70.1581C62.1665 70.1814 62.1368 70.2048 62.1029 70.2281ZM47.2264 76.0157C49.0926 75.795 50.6382 75.3238 52.3982 74.441C52.6551 74.3157 52.9078 74.1841 53.1583 74.0525C53.3727 73.9422 53.585 73.8297 53.7994 73.7215C55.2941 72.9405 56.897 72.0915 58.8354 71.0516C59.5169 70.6865 60.1984 70.296 60.8587 69.9204L61.6337 69.4896C61.933 69.3283 62.2133 69.1776 62.4978 69.0057C62.5232 68.9887 62.5572 68.9675 62.5912 68.9462C62.8396 68.04 63.0009 67.0552 63.0752 66.0153C61.1708 66.9682 58.3089 67.8044 54.1116 68.647C48.7359 69.7145 43.477 69.237 38.7807 67.2569C35.6258 65.9283 34.1354 64.0882 33.5091 63.0738C33.5898 63.7954 33.715 64.517 33.8976 65.2407C34.9337 69.3325 37.4453 72.6752 40.7361 74.8399L40.7212 74.8123L41.1841 75.084C41.5577 75.3068 42.0227 75.5 42.5683 75.657C43.5938 75.9626 44.6022 76.1133 45.6595 76.1133C46.1563 76.1133 46.6744 76.0794 47.2264 76.0157ZM63.9796 69.1288C63.9669 69.063 63.952 69.0608 63.9181 69.0608C63.8671 69.0608 63.7546 69.0842 63.5253 69.2306C63.485 69.2625 63.4404 69.29 63.3937 69.3219C63.3555 69.3474 63.3151 69.3728 63.2812 69.3983C62.8735 70.4786 62.3321 71.4994 61.7122 72.4099C62.6124 71.4548 63.3894 70.3937 64.0285 69.2582H64.0072L63.9796 69.1288ZM64.606 65.073C64.5487 65.1133 64.4956 65.1536 64.4382 65.1961C64.3491 65.2619 64.2578 65.3298 64.1601 65.3956C64.0837 66.4334 63.8905 67.4606 63.5975 68.4539C64.1113 68.2735 64.2875 68.4815 64.3406 68.6003C64.3448 68.6173 64.3491 68.6364 64.3533 68.6534C65.2004 66.9916 65.7588 65.1855 65.9902 63.3051C65.7291 63.9333 65.3045 64.587 64.606 65.073ZM64.2111 64.1837C64.2514 64.154 64.2918 64.1243 64.3279 64.0989C65.7036 63.1438 66.0582 61.5924 66.107 61.3377C66.107 60.0367 65.9478 58.7166 65.6102 57.3987C65.5975 57.3456 65.5847 57.2947 65.5677 57.2416C65.4425 58.4514 64.8459 59.5719 63.7928 60.5737C64.0731 61.7813 64.2111 62.9931 64.2111 64.1837ZM39.7128 66.1617C43.5895 67.4394 45.7423 67.849 48.5724 67.849C49.6021 67.849 50.774 67.7875 52.2666 67.6644C56.4002 67.3078 60.7589 65.9432 63.1007 64.8077C63.0965 63.6701 62.9924 62.5177 62.7907 61.3717C62.0965 61.7919 61.3109 61.9893 60.3428 61.9893C59.3704 61.9893 58.1943 61.8046 56.2856 61.3462C54.0309 60.8114 50.8038 58.8907 47.9588 57.1992C46.3984 56.2675 44.925 55.3888 43.7042 54.7882C39.0589 52.4919 36.422 52.8145 35.7192 52.9651C34.0611 55.722 33.2267 58.9649 33.4411 62.3055C33.7533 62.7512 35.3435 64.7228 39.7128 66.1618L39.7128 66.1617ZM42.0821 52.8739C43.6617 53.5339 45.7338 54.6439 47.9227 55.8218C51.377 57.6767 54.9502 59.5974 57.3684 60.198C59.5233 60.7307 61.2918 60.684 62.5338 60.0601C62.5296 60.0367 62.5254 60.0113 62.519 59.99C62.5041 59.8988 62.4871 59.8139 62.4595 59.7247C61.4107 55.323 55.8992 45.6856 46.3538 45.6856C45.9525 45.6856 45.5406 45.7068 45.133 45.7429C41.4431 46.8125 38.4049 49.0771 36.3477 52.008C36.6959 51.8976 37.1523 51.7979 37.7723 51.7979C38.9378 51.7979 40.3879 52.1587 42.0821 52.8739ZM63.4765 59.3682C63.727 59.1093 63.9223 58.8249 64.0731 58.5278C65.2259 56.3121 64.192 53.8289 63.7589 52.9652C60.5488 47.6721 54.4895 44.5544 48.1712 45.1614C54.7124 45.5137 61.0498 51.3649 63.4765 59.3682Z" fill="#FEFEFE"/>
<path d="M56.2294 64.6399C56.2294 63.4493 56.2294 61.6792 54.8197 60.3061C54.9772 60.031 55.1053 59.74 55.2018 59.4381C55.4375 58.7292 55.4566 57.9524 55.4439 57.4473L55.4375 54.1705V54.1195C55.3993 52.9013 55.2146 51.6131 54.2189 50.4946C53.325 49.4886 51.9811 48.9602 50.3294 48.9602L45.8794 48.9708C45.3953 48.9708 44.9134 49.1597 44.5588 49.5141C44.217 49.86 44.0132 50.3312 44.0132 50.8299L44.0556 72.3503C44.0556 72.9891 44.3826 73.5833 44.9303 73.9123C45.2318 74.0948 45.5758 74.1967 45.9388 74.1967L50.4631 74.1882C52.0979 74.184 53.4652 73.7192 54.5331 72.8002L54.5479 72.7917C56.0405 71.4525 56.1997 69.8756 56.2379 68.3667V68.3497L56.2294 64.6399Z" fill="#FEFEFE"/>
<path d="M50.2343 59.323C49.8521 59.4312 49.6674 59.463 48.8373 59.4928L48.0114 59.4949C47.8692 59.4991 47.831 59.4312 47.831 59.323C47.831 59.2572 47.8225 52.4063 47.8225 52.4063C47.8225 52.296 47.8607 52.2302 47.9775 52.2175H49.3596C49.971 52.2366 50.6504 52.2556 51.0878 52.5252C51.2916 52.6483 51.4126 52.7968 51.4869 52.9942C51.5464 53.2001 51.6058 53.5566 51.6398 54.1657L51.6483 56.8441C51.6398 56.8887 51.6398 56.9587 51.6398 57.0478C51.6186 57.7397 51.6058 58.9134 50.2343 59.323ZM51.7969 70.497C51.4636 70.7326 51.0602 70.8705 50.0241 70.9087C50.0241 70.9087 48.2471 70.913 48.1091 70.913C47.9499 70.913 47.8862 70.8153 47.8862 70.6625C47.8862 69.3531 47.8692 62.1372 47.8692 62.0756C47.8692 62.0077 47.8862 61.9164 48.0242 61.9164C48.1579 61.9164 48.918 61.908 48.918 61.908C49.8606 61.9547 50.8457 62.0268 51.4869 62.4322C51.8563 62.6571 52.1069 62.9712 52.2661 63.3936C52.4083 63.8265 52.4359 64.3041 52.4359 64.7498L52.4423 67.9332C52.4423 69.3849 52.351 70.0683 51.7969 70.497ZM55.0749 64.788C55.0749 63.5825 55.0749 62.1117 53.8223 61.0739C53.5612 60.8553 53.247 60.6664 52.8754 60.5157C53.455 60.1252 53.852 59.5883 54.0707 58.9134C54.2724 58.3085 54.2618 57.5614 54.2554 57.2686L54.2469 53.8516C54.213 52.9051 54.1111 51.8269 53.3446 50.9525C52.6674 50.2012 51.6398 49.815 50.3362 49.8192L45.6973 49.832C45.5593 49.832 45.4297 49.885 45.3236 49.989C45.2196 50.0866 45.1729 50.2182 45.1729 50.354L45.2132 72.8103C45.2132 72.9886 45.3045 73.1669 45.4616 73.2581C45.5505 73.3123 45.6526 73.3409 45.7567 73.3409L50.4785 73.3282C50.9774 73.3282 52.5166 73.3239 53.799 72.2309C54.9348 71.2037 55.0495 69.9919 55.0834 68.6293L55.0749 64.7879V64.788Z" fill="#2D2925"/>
</svg>
