<svg width="100" height="100" viewBox="0 0 100 100" fill="none" xmlns="http://www.w3.org/2000/svg">
<mask id="mask0" mask-type="alpha" maskUnits="userSpaceOnUse" x="6" y="6" width="88" height="88">
<path d="M6.92358 93.6847H93.0087V6.16437H6.92358V93.6847Z" fill="white"/>
</mask>
<g mask="url(#mask0)">
<path d="M90.9463 14.7214C90.9463 14.7214 90.2519 15.0547 89.4678 15.432C90.5532 11.6275 91.2096 8.57752 91.2176 8.53958L91.7264 6.16628L89.6953 7.49764C89.5197 7.61144 72.4865 18.8013 59.4777 29.069L59.4677 29.0471C59.3659 28.7557 59.1923 28.3964 58.8911 28.0271C58.9848 27.9612 59.0786 27.8954 59.1704 27.8275C60.4653 26.9053 60.6987 26.7297 60.7606 26.6558C62.253 25.3584 62.6082 23.7855 62.4605 22.8334L61.9936 19.8173L54.0287 25.7496C51.9317 25.2127 49.3519 24.8634 45.9321 25.7476L37.9692 19.8173L37.5003 22.8314C37.3507 23.7855 37.7078 25.3584 39.1164 26.574C39.2601 26.7317 39.4995 26.9093 40.8243 27.8534C40.9041 27.9113 40.9859 27.9712 41.0677 28.0271C40.8143 28.3405 40.6188 28.6838 40.4891 29.0511L40.4831 29.0671C27.7337 19.0049 10.4451 7.61542 10.2656 7.49766L8.23844 6.16426L8.74124 8.53758C8.77916 8.71124 9.49744 12.0826 10.4611 15.416C9.68498 15.0427 9.01458 14.7214 9.01458 14.7214L6.92358 13.7193L7.6339 15.927C7.6758 16.0607 8.68936 19.2065 9.51538 21.3004C10.7345 24.6478 13.0489 29.9433 15.1279 33.6061C16.2053 35.4305 17.8893 37.1052 20.0003 38.4525C21.2054 39.219 22.4983 39.8517 23.851 40.3328C24.0964 40.8917 24.5693 41.9276 25.134 42.9257H21.0458V50.0017L15.096 52.8521L21.0498 55.8521L21.0577 61.4251L26.379 64.6787L26.7242 64.6368C26.7242 64.6368 29.9305 64.2396 31.7721 64.04L45.5251 71.9823C48.3025 84.7231 48.9948 88.346 49.0008 88.3799L50.0044 93.6854L50.9621 88.3719C50.9701 88.334 51.6644 84.5115 54.4358 71.9843L68.1888 64.04C70.0304 64.2396 73.2347 64.6368 73.2367 64.6368L73.5819 64.6787L78.9031 61.4251L78.9091 55.8541L84.8649 52.8521L78.9151 50.0017V42.9257H74.8189C75.3896 41.9177 75.8624 40.8897 76.1078 40.3328C77.7778 39.73 82.4147 37.7479 84.8349 33.6021C86.0001 31.604 88.5101 26.4722 90.4395 21.3143C90.5073 21.1387 91.5429 18.452 92.331 15.919L93.0093 13.7333L90.9463 14.7214L90.9463 14.7214Z" fill="#FEFEFE"/>
</g>
<path d="M28.7542 44.7805H22.8862V51.1519L19.3587 52.8805L22.8862 54.7228V60.3857L26.7829 62.771C28.2195 62.5833 30.0511 62.3618 32.172 62.1462L47.2339 70.831L49.9793 83.4661C49.9973 83.4361 52.7527 70.831 52.7527 70.831L67.7887 62.1462C69.9116 62.3618 71.7432 62.5833 73.1777 62.771L77.0704 60.3857V54.7229L80.6059 52.9204L77.0704 51.1519V44.7805H71.2065C71.2065 44.7805 72.1143 43.9022 73.2655 41.9221C73.7464 41.0938 74.1993 40.0618 74.756 38.8382C79.0317 37.5368 82.1862 34.8062 83.5389 32.1434C87.2001 25.4367 89.9555 17.2369 89.9555 17.2369C89.9555 17.2369 88.3753 17.9954 86.4679 18.9375C88.0162 14.2128 88.946 10.2028 88.946 10.2028C88.946 10.2028 72.0564 21.3807 58.9 31.882L57.7607 31.1973C57.7647 31.0895 57.7966 30.1294 57.7966 30.0496C57.7966 30.0496 57.9243 28.9338 55.961 28.2671C55.8393 28.2252 55.7256 28.1873 55.6119 28.1493C56.5636 27.4347 58.044 26.3409 59.1234 25.6004C60.8453 24.4187 60.6418 23.1193 60.6418 23.1193L54.4007 27.7661C49.5783 26.2012 45.5599 27.7661 45.5599 27.7661L39.3209 23.1193C39.3209 23.1193 39.1154 24.4187 40.8372 25.6004C41.9186 26.3409 43.3971 27.4347 44.3508 28.1493C44.2371 28.1873 44.1214 28.2252 44.0017 28.2671C42.0364 28.9338 42.1681 30.0496 42.1681 30.0496C42.1681 30.1294 42.196 31.0895 42.202 31.1973L41.0607 31.882C27.9062 21.3807 11.0187 10.2028 11.0187 10.2028C11.0187 10.2028 11.9445 14.2128 13.4928 18.9375C11.4516 17.9275 10.0051 17.2369 10.0051 17.2369C10.0051 17.2369 12.7605 25.4367 16.4237 32.1434C17.7745 34.8062 20.9289 37.5368 25.2047 38.8382C25.2047 38.8382 25.927 40.4949 26.5515 41.6846C27.3216 43.1557 28.7542 44.7805 28.7542 44.7805" fill="#1C1060"/>
<path d="M57.0633 35.2317C57.0074 35.4173 56.9416 35.5949 56.8797 35.7726C62.7935 31.9082 73.1248 25.1655 84.7011 17.6424C84.7011 17.6424 84.715 17.8939 85.7406 14.9178C73.5099 22.3072 62.6778 30.6826 57.0633 35.2317V35.2317ZM42.8972 35.2323C37.2827 30.6833 26.4526 22.3078 14.2219 14.9164C15.2455 17.8945 15.2594 17.641 15.2594 17.641C26.8357 25.1641 37.167 31.9068 43.0808 35.7712C43.0169 35.5955 42.9551 35.4159 42.8972 35.2323ZM32.1595 45.1098C32.1555 45.1078 29.2545 43.0339 27.6164 39.2374L28.7756 39.5827C32.5606 40.5847 39.7972 41.5827 39.7972 41.5827C36.3116 41.6606 33.3647 41.934 31.6827 42.1217C31.3335 41.6885 30.9325 41.1356 30.7789 40.7244C30.7789 40.7244 30.9085 42.0518 31.2058 42.8821C31.5829 44.0957 32.1556 45.1057 32.1595 45.1097V45.1098ZM49.9749 41.2055C48.9633 40.8182 46.4154 39.5467 44.8871 36.2213C46.1401 37.3012 47.7442 37.6465 49.0271 36.4049C47.4609 35.7303 47.2673 32.9358 46.9641 32.2032C46.3515 30.7182 45.3819 29.9676 44.6157 29.6523C44.9685 29.5328 45.3231 29.4184 45.6792 29.309C46.4114 29.7062 47.6345 30.6204 48.0176 32.4428C48.0176 32.4428 48.1772 30.3629 47.1476 28.9038C49.1448 28.4227 51.16 28.4886 52.8041 28.9018C51.7726 30.3609 51.9302 32.4428 51.9302 32.4428C52.3153 30.6184 53.5423 29.7022 54.2766 29.307C54.6058 29.4088 54.9609 29.5245 55.344 29.6523C54.5758 29.9677 53.6062 30.7182 52.9956 32.2032C52.6943 32.9358 52.4988 35.7303 50.9366 36.4049C51.2957 38.5327 50.8528 40.5168 49.9749 41.2055V41.2055ZM68.7463 42.8814C69.0436 42.051 69.1733 40.7236 69.1733 40.7236C69.0196 41.1348 68.6186 41.6877 68.2674 42.1209C66.5874 41.9352 63.6385 41.6618 60.1549 41.5839C60.1549 41.5839 67.3895 40.5839 71.1745 39.5819L72.3337 39.2385C70.6976 43.035 67.7966 45.1089 67.7926 45.1089C67.7966 45.1069 68.3672 44.0969 68.7463 42.8813V42.8814ZM40.9686 63.0789L33.5983 58.8233C33.0676 58.8732 32.5468 58.9231 32.046 58.975L42.2795 64.8853C41.7807 64.3344 41.3417 63.7276 40.9686 63.0789ZM58.9901 63.0789L66.3604 58.8233C66.8891 58.8732 67.4099 58.9231 67.9107 58.975L57.6792 64.8853C58.178 64.3344 58.617 63.7276 58.9901 63.0789ZM46.7025 64.0725C43.4483 63.3659 42.1015 61.7611 42.1015 61.7611C42.7679 63.1184 43.7755 64.2801 45.0106 65.1324C45.0106 65.1324 46.3813 64.7352 46.7025 64.0725V64.0725ZM44.7103 60.5952C44.4754 60.3665 44.2439 60.1342 44.0159 59.8985C42.9784 60.2598 42.3878 60.663 42.0766 60.9365C42.7969 61.6231 44.1696 62.5353 46.6337 63.0483C46.3344 62.202 45.5682 61.4435 44.7103 60.5952" fill="#008CA8"/>
<path d="M49.9154 68.2756C48.836 68.2935 48.0659 68.7107 47.8085 68.8065C47.5391 68.2975 47.2239 67.7805 46.9266 67.3234C47.8544 67.4372 48.6704 67.2636 48.6704 67.2636C48.2813 67.1358 47.2797 66.7965 45.9629 65.9282C45.9609 65.9282 45.9589 65.9262 45.9589 65.9262C46.0726 65.8783 46.1884 65.8264 46.3061 65.7685C46.3061 65.7685 46.3081 65.7665 46.3081 65.7645C46.6552 65.5909 47.0044 65.3653 47.2797 65.0819C47.6089 64.7425 47.8344 64.3214 47.8344 63.7984C47.8344 62.1816 46.747 61.6367 45.5239 60.429C45.2785 60.1875 45.0152 59.938 44.7478 59.6745C45.8691 59.3731 47.3935 59.1376 49.4446 59.1017L49.9354 65.9621H50.0072L50.514 59.1017C52.5651 59.1376 54.0874 59.3731 55.2107 59.6745C54.9434 59.938 54.68 60.1875 54.4346 60.429C53.2115 61.6367 52.1241 62.1816 52.1241 63.7984C52.1241 64.3214 52.3496 64.7425 52.6788 65.0819C52.9541 65.3653 53.3013 65.5909 53.6485 65.7645L53.6525 65.7685C53.7702 65.8264 53.8859 65.8783 53.9976 65.9262C53.9976 65.9262 53.9976 65.9282 53.9956 65.9282C52.6788 66.7965 51.6772 67.1358 51.2881 67.2636C51.2881 67.2636 52.1022 67.4372 53.0319 67.3234C52.7347 67.7805 52.4194 68.2975 52.1481 68.8065C51.8927 68.7107 51.1225 68.2935 50.0431 68.2756H49.9154V68.2756Z" fill="#008CA8"/>
<path d="M54.9488 65.1319C56.1838 64.2796 57.1894 63.1179 57.8578 61.7626C57.8578 61.7626 56.5111 63.3654 53.2568 64.072C53.5761 64.7347 54.9488 65.1319 54.9488 65.1319ZM53.3247 63.0485C55.7888 62.5355 57.1615 61.6233 57.8818 60.9366C57.5705 60.6612 56.9799 60.258 55.9424 59.8987C55.711 60.1382 55.4755 60.3717 55.2481 60.5953C54.3881 61.4436 53.624 62.2021 53.3247 63.0485" fill="#008CA8"/>
<path d="M47.7737 36.5914C47.7737 36.5914 46.5806 35.8029 46.389 34.1262C46.389 34.1262 44.8427 36.7171 47.7737 36.5914ZM52.2713 36.5914C52.2713 36.5914 53.4645 35.8029 53.656 34.1262C53.656 34.1262 55.2043 36.7171 52.2713 36.5914H52.2713ZM51.3944 70.7844C51.181 70.5628 50.8697 70.3054 49.918 70.3034C49.0201 70.3014 48.7069 70.5309 48.4455 70.7445L49.9798 76.8125L51.3944 70.7844V70.7844ZM61.5367 44.1285V46.3501H60.7905V44.1285H60.172V43.4937H62.1533V44.1285H61.5367ZM58.0637 44.1285V46.3501H57.3155V44.1285H56.6969V43.4937H58.6822V44.1285H58.0637Z" fill="#FEFEFE"/>
<mask id="mask1" mask-type="alpha" maskUnits="userSpaceOnUse" x="6" y="6" width="88" height="88">
<path d="M6.9231 93.6847H93.0088V6.1635H6.9231V93.6847Z" fill="white"/>
</mask>
<g mask="url(#mask1)">
<path d="M46.3406 44.6953H47.1366V44.1305H46.3406V44.6953ZM47.5696 45.3381H47.837V43.8011L47.5257 43.4937H45.6362V46.3501H46.3406V45.3381H46.8693L47.2763 46.3501H47.9746L47.5696 45.3381V45.3381Z" fill="#FEFEFE"/>
</g>
<mask id="mask2" mask-type="alpha" maskUnits="userSpaceOnUse" x="6" y="6" width="88" height="88">
<path d="M6.9231 93.6847H93.0088V6.1635H6.9231V93.6847Z" fill="white"/>
</mask>
<g mask="url(#mask2)">
<path d="M65.8364 44.1294V43.4947H63.7415V46.351H65.8364V45.7083H64.4717V45.2392H65.8364V44.5985H64.4717V44.1294H65.8364Z" fill="#FEFEFE"/>
</g>
<mask id="mask3" mask-type="alpha" maskUnits="userSpaceOnUse" x="6" y="6" width="88" height="88">
<path d="M6.9231 93.6847H93.0088V6.1635H6.9231V93.6847Z" fill="white"/>
</mask>
<g mask="url(#mask3)">
<path d="M50.3641 45.709V43.4934H49.6318V46.3497H51.4175V45.709H50.3641Z" fill="#FEFEFE"/>
</g>
<mask id="mask4" mask-type="alpha" maskUnits="userSpaceOnUse" x="6" y="6" width="88" height="88">
<path d="M6.9231 93.6847H93.0088V6.1635H6.9231V93.6847Z" fill="white"/>
</mask>
<g mask="url(#mask4)">
<path d="M53.5074 45.7094H54.3175V44.1305H53.5074V45.7094ZM54.7026 43.4938H52.8071V46.0288L53.1264 46.3502H55.0178V43.8112L54.7026 43.4938V43.4938Z" fill="#FEFEFE"/>
</g>
<mask id="mask5" mask-type="alpha" maskUnits="userSpaceOnUse" x="6" y="6" width="88" height="88">
<path d="M6.9231 93.6847H93.0088V6.1635H6.9231V93.6847Z" fill="white"/>
</mask>
<g mask="url(#mask5)">
<path d="M42.418 44.7773H43.23V44.1285H42.418V44.7773V44.7773ZM43.9523 46.3502L43.9483 43.8132L43.6331 43.4938H41.6997V46.3502H42.418V45.422H43.228V46.3502H43.9523V46.3502Z" fill="#FEFEFE"/>
</g>
<mask id="mask6" mask-type="alpha" maskUnits="userSpaceOnUse" x="6" y="6" width="88" height="88">
<path d="M6.9231 93.6847H93.0088V6.1635H6.9231V93.6847Z" fill="white"/>
</mask>
<g mask="url(#mask6)">
<path d="M39.4201 43.4938V44.7773H38.614V43.4938H37.8958V46.3502H38.614V45.422H39.4201V46.3502H40.1364V43.4938H39.4201Z" fill="#FEFEFE"/>
</g>
<mask id="mask7" mask-type="alpha" maskUnits="userSpaceOnUse" x="6" y="6" width="88" height="88">
<path d="M6.9231 93.6847H93.0088V6.1635H6.9231V93.6847Z" fill="white"/>
</mask>
<g mask="url(#mask7)">
<path d="M82.2671 23.2177C83.6557 19.9521 84.7012 17.6407 84.7012 17.6407C73.125 25.1639 62.7917 31.9085 56.8799 35.7729C56.6544 36.4017 56.397 36.9746 56.1157 37.4995L79.4338 24.7906L61.2314 37.9426L62.0714 37.7909L71.6904 36.8608C71.6904 36.8608 78.1908 36.232 81.8082 31.3676C83.5101 28.7548 86.4091 21.1198 86.4091 21.1198L82.2671 23.2177Z" fill="#FEFEFE"/>
</g>
<mask id="mask8" mask-type="alpha" maskUnits="userSpaceOnUse" x="6" y="6" width="88" height="88">
<path d="M6.9231 93.6847H93.0088V6.1635H6.9231V93.6847Z" fill="white"/>
</mask>
<g mask="url(#mask8)">
<path d="M26.5524 53.6519L28.795 52.6858V57.7777C29.4355 57.6899 30.0979 57.608 30.7683 57.5282L30.7663 46.3503H28.797C28.793 46.3363 28.793 50.3564 28.795 50.3763L26.5524 51.3225L26.5544 46.3503H24.5712V52.1369C24.5712 52.1369 22.9391 52.9193 22.9471 52.9353L24.5712 53.7477V58.4404C25.2076 58.3246 25.88 58.2148 26.5524 58.107V53.6519H26.5524Z" fill="#FEFEFE"/>
</g>
<mask id="mask9" mask-type="alpha" maskUnits="userSpaceOnUse" x="6" y="6" width="88" height="88">
<path d="M6.9231 93.6847H93.0088V6.1635H6.9231V93.6847Z" fill="white"/>
</mask>
<g mask="url(#mask9)">
<path d="M41.9295 49.9062H44.1642C44.1642 50.4551 44.1602 51.1617 44.1602 51.6588C43.414 51.6687 42.6758 51.6827 41.9315 51.6947L41.9295 49.9062ZM41.9315 53.6189C42.4243 53.6049 42.9052 53.5909 43.4 53.579C43.7631 54.5251 44.1382 55.599 44.5014 56.5471C45.1538 56.5291 45.8122 56.5132 46.4747 56.5012C46.1115 55.5491 45.7424 54.4812 45.3813 53.539C45.6307 53.535 45.8821 53.529 46.1355 53.5271L46.1335 48.9561L45.2596 48.0938H39.2061L39.9543 48.986V56.7427C40.6067 56.7068 41.2631 56.6728 41.9315 56.6429V53.6189V53.6189Z" fill="#FEFEFE"/>
</g>
<mask id="mask10" mask-type="alpha" maskUnits="userSpaceOnUse" x="6" y="6" width="88" height="88">
<path d="M6.9231 93.6847H93.0088V6.1635H6.9231V93.6847Z" fill="white"/>
</mask>
<g mask="url(#mask10)">
<path d="M49.6389 49.9062H51.9035V56.4753C52.5839 56.4813 53.2902 56.4912 53.9625 56.5052V48.99L53.0607 48.0938H46.8735L47.6178 48.986V56.4832C48.2882 56.4753 48.9586 56.4693 49.6389 56.4673V49.9062V49.9062Z" fill="#FEFEFE"/>
</g>
<mask id="mask11" mask-type="alpha" maskUnits="userSpaceOnUse" x="6" y="6" width="88" height="88">
<path d="M6.9231 93.6847H93.0088V6.1635H6.9231V93.6847Z" fill="white"/>
</mask>
<g mask="url(#mask11)">
<path d="M61.3523 54.9016C60.0734 54.8337 58.8144 54.7758 57.5354 54.7319C57.5295 54.2628 57.5294 53.7958 57.5294 53.3287C58.804 53.3643 60.0783 53.4088 61.3523 53.4624V51.4903C60.0714 51.4564 58.8024 51.4264 57.5255 51.4045C57.5235 51.0252 57.5235 50.3825 57.5235 49.9055H61.3523V48.095H54.7102L55.4464 48.9813V56.5443C57.4676 56.6022 59.4449 56.6921 61.3523 56.8118V54.9016L61.3523 54.9016Z" fill="#FEFEFE"/>
</g>
<mask id="mask12" mask-type="alpha" maskUnits="userSpaceOnUse" x="6" y="6" width="88" height="88">
<path d="M6.9231 93.6847H93.0088V6.1635H6.9231V93.6847Z" fill="white"/>
</mask>
<g mask="url(#mask12)">
<path d="M66.3274 49.9062H68.0293V48.0938H62.4487V49.9062H64.1846V57.0181C64.8969 57.076 65.6391 57.1359 66.3274 57.2018V49.9062V49.9062Z" fill="#FEFEFE"/>
</g>
<mask id="mask13" mask-type="alpha" maskUnits="userSpaceOnUse" x="6" y="6" width="88" height="88">
<path d="M6.9231 93.6847H93.0088V6.1635H6.9231V93.6847Z" fill="white"/>
</mask>
<g mask="url(#mask13)">
<path d="M36.5065 54.9986C35.7463 55.0465 35.0021 55.0944 34.2419 55.1503V49.9067H36.5085L36.5065 54.9986ZM38.4917 48.9865L37.5978 48.0943H31.5244L32.2427 48.9585L32.2447 56.3399L33.0288 57.2741C34.7706 57.0984 36.6102 56.9487 38.4897 56.827L38.4917 48.9865V48.9865Z" fill="#FEFEFE"/>
</g>
<mask id="mask14" mask-type="alpha" maskUnits="userSpaceOnUse" x="6" y="6" width="88" height="88">
<path d="M6.9231 93.6847H93.0088V6.1635H6.9231V93.6847Z" fill="white"/>
</mask>
<g mask="url(#mask14)">
<path d="M75.1804 53.7081C75.7909 53.4347 76.4055 53.1552 77.018 52.8678C75.0487 51.9556 73.0774 51.1252 71.1062 50.3588L71.1022 48.1172H73.1932V48.9316H75.1804V46.3507H68.3767L69.1329 47.2269V51.8478L73.1932 53.6123V56.1952C73.1932 56.1952 72.2514 56.0755 71.1042 55.9278V55.0994L69.1329 54.8639V57.5007C71.2897 57.7522 73.3149 58.0476 75.1804 58.3769C75.1784 56.9717 75.1804 54.7541 75.1804 53.7081" fill="#FEFEFE"/>
</g>
<mask id="mask15" mask-type="alpha" maskUnits="userSpaceOnUse" x="6" y="6" width="88" height="88">
<path d="M6.9231 93.6847H93.0088V6.1635H6.9231V93.6847Z" fill="white"/>
</mask>
<g mask="url(#mask15)">
<path d="M35.5735 45.4628V45.7083H34.935V44.1294H35.5735V44.365H36.2898V43.4947H34.2307V46.0297L34.552 46.3491H36.2898V45.4628H35.5735Z" fill="#FEFEFE"/>
</g>
<mask id="mask16" mask-type="alpha" maskUnits="userSpaceOnUse" x="6" y="6" width="88" height="88">
<path d="M6.9231 93.6847H93.0088V6.1635H6.9231V93.6847Z" fill="white"/>
</mask>
<g mask="url(#mask16)">
<path d="M17.6946 23.2177C16.3059 19.9521 15.2604 17.6407 15.2604 17.6407C26.8366 25.1639 37.1699 31.9085 43.0817 35.7729C43.3072 36.4017 43.5646 36.9746 43.8459 37.4995L20.5278 24.7906L38.7302 37.9426L37.8902 37.7909L28.2712 36.8608C28.2712 36.8608 21.7708 36.232 18.1535 31.3676C16.4516 28.7548 13.5525 21.1198 13.5525 21.1198L17.6946 23.2177Z" fill="#FEFEFE"/>
</g>
<mask id="mask17" mask-type="alpha" maskUnits="userSpaceOnUse" x="6" y="6" width="88" height="88">
<path d="M6.9231 93.6847H93.0088V6.1635H6.9231V93.6847Z" fill="white"/>
</mask>
<g mask="url(#mask17)">
<path d="M28.7542 44.7803H22.8863V51.1517L19.3587 52.8803L22.8863 54.7227V60.3855L26.7829 62.7708C28.2195 62.5832 30.0511 62.3616 32.172 62.146L47.2339 70.8309L49.9793 83.4659C49.9973 83.436 52.7527 70.8309 52.7527 70.8309L67.7887 62.146C69.9116 62.3616 71.7432 62.5832 73.1777 62.7708L77.0704 60.3855V54.7227L80.6059 52.9203L77.0704 51.1518V44.7803H71.2065C71.2065 44.7803 72.1143 43.9021 73.2656 41.922C73.7464 41.0936 74.1993 40.0617 74.756 38.8381C79.0317 37.5366 82.1862 34.806 83.5389 32.1433C87.2002 25.4365 89.9556 17.2367 89.9556 17.2367C89.9556 17.2367 88.3754 17.9952 86.4679 18.9374C88.0162 14.2127 88.946 10.2026 88.946 10.2026C88.946 10.2026 72.0565 21.3805 58.9 31.8818L57.7607 31.1972C57.7647 31.0894 57.7966 30.1293 57.7966 30.0494C57.7966 30.0494 57.9243 28.9336 55.961 28.2669C55.8393 28.225 55.7256 28.1871 55.6119 28.1492C56.5636 27.4346 58.044 26.3408 59.1235 25.6002C60.8453 24.4185 60.6418 23.1191 60.6418 23.1191L54.4008 27.7659C49.5783 26.201 45.56 27.7659 45.56 27.7659L39.3209 23.1191C39.3209 23.1191 39.1154 24.4185 40.8373 25.6002C41.9187 26.3408 43.3971 27.4346 44.3508 28.1492C44.2371 28.1871 44.1214 28.225 44.0017 28.2669C42.0364 28.9336 42.1681 30.0494 42.1681 30.0494C42.1681 30.1293 42.196 31.0894 42.202 31.1972L41.0607 31.8818C27.9062 21.3806 11.0187 10.2026 11.0187 10.2026C11.0187 10.2026 11.9445 14.2127 13.4928 18.9374C11.4516 17.9274 10.0051 17.2367 10.0051 17.2367C10.0051 17.2367 12.7605 25.4365 16.4237 32.1433C17.7745 34.806 20.9289 37.5366 25.2047 38.8381C25.2047 38.8381 25.9269 40.4948 26.5514 41.6844C27.3216 43.1555 28.7542 44.7803 28.7542 44.7803H28.7542ZM89.5066 20.9594C87.6571 25.9076 85.2009 30.9955 83.9739 33.0994C81.9048 36.6404 77.7847 38.7522 75.3685 39.5307C75.3685 39.5307 74.1953 42.3631 72.9862 43.922H77.9184V50.6308L82.6032 52.8743L77.9124 55.2397L77.9064 60.8665L73.3593 63.6451C73.3593 63.6451 69.736 63.1959 67.9722 63.0123L53.5568 71.3399C50.6657 84.3941 49.9813 88.1946 49.9813 88.1946C49.9813 88.1946 49.303 84.6097 46.4059 71.3399L31.9884 63.0123C30.2247 63.1959 26.6013 63.6451 26.6013 63.6451L22.0542 60.8666L22.0463 55.2397L17.3595 52.8744L22.0423 50.6308V43.922H26.9745C25.7873 42.437 24.5922 39.5307 24.5922 39.5307C23.1416 39.0556 21.7709 38.3969 20.5379 37.6085C18.5905 36.3689 16.9944 34.804 15.9868 33.0994C14.0235 29.6362 11.715 24.4225 10.454 20.9594C9.62004 18.8475 8.58252 15.6219 8.58252 15.6219C8.58252 15.6219 11.2661 16.9054 12.0901 17.3086C10.8052 13.4582 9.7178 8.33232 9.7178 8.33232V8.33032C9.7178 8.33032 28.1796 20.4723 41.1285 30.8578L41.334 30.7321C41.3281 30.5165 41.3221 30.2989 41.3221 30.0734C41.3181 29.9436 41.3261 29.6881 41.4338 29.3728C41.5835 28.9456 41.9186 28.4107 42.6708 27.9516C41.7191 27.2529 40.0052 26.0693 39.8556 25.9036C38.6026 24.8158 38.3911 23.5902 38.4869 22.9874L38.7004 21.6061L45.7255 26.8398C49.5464 25.7459 52.2459 26.2869 54.2351 26.8398L61.2603 21.6061L61.4738 22.9874C61.5696 23.5902 61.3581 24.8158 60.1071 25.9036C59.9614 26.0593 58.2395 27.2529 57.2918 27.9516C58.04 28.4107 58.3772 28.9456 58.5269 29.3728C58.6346 29.6881 58.6446 29.9436 58.6366 30.0734C58.6366 30.2989 58.6346 30.5165 58.6266 30.7321L58.8321 30.8578C72.0904 20.2348 90.2429 8.33032 90.2429 8.33032V8.33232C90.2429 8.33232 89.339 12.552 87.8705 17.3086C88.5689 16.9693 91.3781 15.6219 91.3781 15.6219C90.582 18.1849 89.5066 20.9594 89.5066 20.9594" fill="#A0A0A4"/>
</g>
</svg>
