<svg width="100" height="100" viewBox="0 0 100 100" fill="none" xmlns="http://www.w3.org/2000/svg">
<path d="M23.028 52.9538C25.2031 51.7725 31.0367 50.8563 36.4175 50.0451C36.4039 52.0878 36.372 54.2722 36.3128 56.6599C26.8071 55.6157 23.3579 53.7718 23.028 52.9538H23.028ZM46.1053 21.6484C51.7637 22.4138 55.0013 23.9173 55.2697 25.9257C55.5473 28.0004 55.0627 29.7027 53.8614 31.0462C51.9184 32.8193 48.9629 33.7492 46.4579 34.2336C46.4852 29.4125 46.3715 25.3499 46.1053 21.6484ZM46.2668 44.1089C46.3169 42.1942 46.3692 40.22 46.4056 38.2048C51.0311 38.888 53.7203 40.1698 53.6748 41.7235L53.5292 57.318C51.0948 57.3796 48.5284 57.3682 46.1144 57.302L46.1485 56.2509C46.0439 52.723 46.1531 48.5394 46.2668 44.1089ZM63.399 56.733L63.4763 50.1159C74.0082 51.5531 76.6656 52.6887 76.9955 53.3217C76.9955 53.3217 76.9864 53.3697 76.9204 53.4747C75.0206 54.8594 70.0403 56.0544 63.399 56.733ZM87.0428 53.7672C86.9995 52.851 86.549 51.9941 85.7027 51.2173C82.5288 48.3132 73.5077 46.5926 63.515 46.8805L63.6015 39.5186C63.5992 37.99 63.0987 36.7264 62.1181 35.7622C61.4287 35.0859 60.5254 34.5786 59.4151 34.2427C60.4549 33.6189 61.4742 32.8489 62.3387 31.9053C64.7846 29.6295 65.9085 26.762 65.6833 23.3849C65.5377 21.244 64.6094 19.4297 62.9212 17.9948C59.5812 15.1478 53.5156 14.0351 45.3613 14.764C44.7424 10.4569 43.8733 6.72341 42.7107 3.37373L41.5958 0.163452L41.2113 1.35617L41.002 0.750672L39.96 3.99067C38.513 8.50333 37.5506 12.3191 36.959 15.9224C30.2586 17.1334 25.6627 18.6323 25.4625 18.6963L15.9067 21.8335L17.5767 21.6804L15.3356 22.4161L25.3282 21.509C25.3828 21.5021 30.4474 21.0977 36.3379 21.0726C36.008 25.3659 36.1126 29.6912 36.2446 35.047C36.3265 38.4584 36.4198 42.2902 36.4266 46.8988C27.4009 46.78 17.4629 48.1418 14.5507 51.5623C13.2902 52.6362 13.0536 53.7215 13.0786 54.4504C13.2766 60.1238 29.8854 62.2442 36.4653 62.8611L37.0113 80.3794L39.282 80.4297L39.3275 79.8242L39.4822 79.8288L39.5937 84.2775L41.8666 84.3346L41.9121 83.7291L42.1692 83.736L42.2829 87.9562L44.5581 87.963L44.5786 87.3712H45.1451L45.9187 63.4049C48.4305 63.4735 51.0447 63.4712 53.5542 63.3958L54.3414 88.4292L56.6144 88.452L56.6439 87.8556L56.9261 93.8375L59.199 93.8444L59.2263 93.2503L59.4515 93.2526L59.6108 99.2253L61.886 99.2207L61.8996 98.6289H62.4775L63.3102 62.8131C75.0024 61.6981 83.3137 59.3264 85.4956 56.5708C86.5217 55.7025 87.0427 54.7771 87.0427 53.8198V53.7672H87.0428Z" fill="#FEFEFE"/>
<path d="M85.317 54.4109C85.317 58.5809 69.129 62.3144 49.592 62.3144C30.0526 62.3144 14.3607 58.5786 14.215 54.4109C14.0831 50.6523 25.1473 48.1891 37.8292 48.6758C29.5908 49.9188 21.2727 51.0932 21.2727 53.3302C21.2727 56.7072 33.7635 59.0904 49.5919 59.0904C65.4159 59.0904 78.1319 56.7072 78.1319 53.3302C78.1319 51.1504 70.5009 49.8526 61.3274 48.6781C74.1663 47.9926 85.1531 50.7848 85.317 54.4109" fill="#2D2925"/>
<path d="M42.9525 70.6818L43.4212 87.926L44.4223 56.8764C44.0196 43.2333 46.7794 20.8413 41.0436 4.34204C34.9552 23.309 38.2315 27.5772 37.4306 57.3814L38.1473 80.3447L39.1006 67.7846C39.1324 66.2263 40.3133 66.3702 40.3133 67.7069L40.7319 84.2473L41.7466 70.7869C41.7307 68.9727 43.0003 69.055 42.9525 70.6818Z" fill="#2D2925"/>
<path d="M61.6195 61.8524L60.7481 99.1945L60.1611 77.2046C60.1293 75.644 58.8301 75.5732 58.7778 77.2046L58.0634 93.7953L57.3604 74.5884C57.3626 73.0438 56.1864 72.9547 56.175 74.6981L55.4765 88.3938L54.6279 61.3474L54.8121 41.7338C54.9669 36.49 39.6116 36.5562 39.6116 36.5562C39.6116 36.5562 57.895 36.9378 56.398 25.7738C55.3082 17.635 25.2256 20.3723 25.2256 20.3723C25.2256 20.3723 33.7302 17.5778 44.3963 16.5382C56.3524 15.3752 63.5648 18.261 63.9561 24.051C64.6455 34.2965 51.4335 35.7885 51.4335 35.7885C51.4335 35.7885 61.8584 33.7572 61.8766 40.1115L61.6195 61.8524Z" fill="#2D2925"/>
<path d="M85.9055 53.8196C85.9055 57.9895 69.7199 61.7253 50.1828 61.7253C30.6412 61.7253 14.9492 57.9872 14.8059 53.8196C14.6717 50.0632 25.7382 47.5955 38.4178 48.0845C30.1794 49.3298 21.8613 50.5042 21.8613 52.7388C21.8613 56.1182 34.3543 58.5036 50.1828 58.5036C66.0068 58.5036 78.7205 56.1182 78.7205 52.7388C78.7205 50.5613 71.0918 49.2635 61.916 48.0845C74.7526 47.399 85.7394 50.1912 85.9055 53.8196Z" fill="#C21F32"/>
<path d="M43.5425 70.0905L44.009 87.3346L45.01 56.2852C44.6073 42.6397 47.3671 20.25 41.6359 3.75073C35.543 22.7177 38.8193 26.9859 38.0207 56.7878L38.7374 79.7511L39.6907 67.191C39.7202 65.635 40.9011 65.7766 40.9011 67.1179L41.3242 83.656L42.3367 70.1956C42.3208 68.3791 43.5858 68.4637 43.5425 70.0905Z" fill="#C21F32"/>
<path d="M62.2083 61.2612L61.3392 98.6033L60.7499 76.6134C60.7203 75.0528 59.4212 74.9797 59.3666 76.6134L58.6522 93.2018L57.9492 73.9972C57.9514 72.4526 56.7752 72.3612 56.7661 74.1069L56.0653 87.8026L55.2166 60.7562L55.4009 41.1426C55.5557 35.8965 40.2027 35.9696 40.2027 35.9696C40.2027 35.9696 58.4838 36.3489 56.9867 25.1826C55.8947 17.0438 25.8167 19.7834 25.8167 19.7834C25.8167 19.7834 34.3213 16.9844 44.9851 15.947C56.9435 14.7817 64.1559 17.6676 64.5472 23.4621C65.2343 33.7053 52.0245 35.1996 52.0245 35.1996C52.0245 35.1996 62.4472 33.1638 62.4654 39.5203L62.2083 61.2612Z" fill="#C21F32"/>
</svg>
