<svg width="100" height="100" viewBox="0 0 100 100" fill="none" xmlns="http://www.w3.org/2000/svg">
<mask id="mask0" mask-type="alpha" maskUnits="userSpaceOnUse" x="11" y="13" width="78" height="73">
<path d="M88.4597 13.9216H11.5391V85.3771H88.4597V13.9216Z" fill="white"/>
</mask>
<g mask="url(#mask0)">
<path d="M82.3677 23.8893C77.0554 17.4753 69.4353 13.9356 60.9066 13.9208L27.2421 13.9232L11.5391 85.3597L41.9353 85.377L45.9375 68.6888L58.5447 68.6912H58.8353C68.4207 68.6912 76.3116 65.3782 81.6313 59.1318C91.4752 48.4016 89.7365 32.7881 82.3677 23.8893" fill="#FEFEFE"/>
</g>
<path d="M81.4206 24.6771C76.3595 18.5663 69.0719 15.167 60.9052 15.1547L28.2308 15.1571L13.072 84.1261L40.9636 84.1459L44.9657 67.4552C48.7117 67.4552 58.563 67.4576 58.5507 67.4576C67.8972 67.5242 75.5615 64.3591 80.7236 58.2976C90.0972 48.0825 88.4495 33.1666 81.4206 24.6771" fill="#B3B1B1"/>
<path d="M43.5392 65.637L39.5371 82.3252L15.3274 82.3351L29.6931 16.9724L60.8997 16.9946C68.6699 17.0069 75.3269 20.1622 80.0236 25.8367C86.9466 34.1956 87.6214 48.0909 79.3414 57.1203C74.263 63.0808 66.8179 65.6986 58.5674 65.6395L43.5392 65.637Z" fill="#081E3F"/>
<path d="M26.4754 31.4921L40.154 31.5044C41.7253 31.5044 43.3976 32.8232 42.671 34.8224C42.2253 36.0574 41.8805 37.4895 41.7228 38.833C41.5972 39.8831 42.7695 40.5462 43.4394 40.5462L71.3187 40.5659C71.8433 40.5659 72.1191 40.418 72.1191 40.1666C72.1191 39.9176 72.0945 38.9932 71.996 38.3449C71.8975 37.7262 71.7965 37.6202 71.2965 37.6202C67.8215 37.6153 66.4053 36.0672 62.7628 33.7156C59.1203 31.3639 53.7784 30.0131 49.1877 30.0082L26.8079 29.9958L26.4754 31.4921ZM43.3636 49.5625C42.8809 48.5297 42.4351 47.2996 42.1617 46.1682C41.8169 44.7187 40.5929 43.5404 38.4995 43.5404L23.8259 43.5306L24.1904 41.8839L71.7403 41.916C72.2157 41.916 72.1147 42.1157 72.0901 42.6407C72.063 43.1658 71.9423 44.1394 71.8659 44.7138C71.7896 45.2857 71.3167 45.1501 70.8636 45.16C69.7947 45.1846 67.8047 45.4385 66.6447 46.3087C64.6745 47.7901 60.4729 50.3932 58.111 51.15C55.5768 51.9585 46.1072 54.8574 43.334 49.5157" fill="#FCB424"/>
<path d="M21.197 55.5194L46.0273 55.5366C47.1233 55.5366 48.0665 55.7979 48.798 56.4068C50.8963 58.1397 53.6178 59.3968 56.5042 60.2325C57.7997 60.6072 60.0285 60.124 62.0209 58.995C66.9909 56.1824 70.1877 50.8309 71.2393 47.3848C71.5127 46.485 70.9881 46.559 70.2936 46.6083C68.1977 46.7586 65.996 48.6542 63.1021 50.503C60.2034 52.3469 54.3123 54.0946 48.7216 54.0872L21.5147 54.0699L21.197 55.5194ZM57.6218 22.2363C57.9716 22.1747 59.2276 22.0983 59.927 22.3719C64.6434 24.2305 69.106 29.1483 70.9728 34.3716C71.3324 35.3749 71.4211 36.0183 70.9728 36.07C68.8105 36.3092 67.8007 35.2418 65.2591 33.5163C62.715 31.7932 60.3704 30.6149 57.149 29.5895C53.9744 28.5788 48.1916 28.4334 47.4429 28.4087C46.6967 28.3841 46.7903 28.071 47.1179 27.7457C49.8885 24.9774 53.6123 22.9684 57.6218 22.2363H57.6218ZM80.2521 40.1462C80.2669 40.3459 80.0526 40.5727 79.8014 40.5727C79.7792 40.5727 74.3634 40.5677 74.3634 40.5677C73.6664 40.5677 73.6541 40.2423 73.6295 39.843C73.6024 39.4437 73.4916 38.645 73.467 38.1693C73.4423 37.7083 73.2749 37.1808 73.8906 36.922C75.4052 36.2811 76.8361 34.7995 77.4888 33.5276C77.708 33.0987 78.0355 32.3888 78.4074 32.9902C79.6955 35.051 80.0994 37.5924 80.2521 40.1462V40.1462ZM78.3052 49.9277C78.2116 50.1126 77.8644 50.2481 77.7511 49.9499C76.958 47.825 75.0715 46.3633 73.7736 45.6385C73.382 45.4191 73.3475 45.1628 73.3968 44.7758C73.451 44.3888 73.6135 43.1513 73.6381 42.6287C73.6578 42.2146 73.8253 41.9163 74.1356 41.9163L79.8026 41.9188C80.0046 41.9213 80.2558 42.1012 80.2558 42.2516C80.2558 44.9557 79.4332 47.6278 78.3052 49.9277" fill="#FCB424"/>
<path d="M63.5667 60.5733C63.1677 60.63 62.2959 60.4919 63.6701 59.6957C67.788 57.2997 71.4576 51.677 72.4378 48.4478C72.8097 47.2153 72.8491 47.1512 73.322 47.2868C73.9525 47.4667 74.945 48.3246 75.7035 49.3746C76.467 50.4223 76.7946 52.4658 76.3562 53.0525C73.3959 57.0286 68.6919 59.8214 63.5667 60.5733ZM74.0436 35.1236C73.0855 35.6388 72.8984 35.5426 72.6939 34.8228C70.906 28.5395 65.6281 23.888 63.4707 22.5125C63.0594 22.2537 63.1653 22.0786 63.4633 22.1181C68.6278 22.8058 73.6889 25.6258 76.238 29.4861C77.691 31.6997 74.9671 34.6232 74.0436 35.1236" fill="#FCB424"/>
</svg>
