<svg width="100" height="100" viewBox="0 0 100 100" fill="none" xmlns="http://www.w3.org/2000/svg">
<path d="M21.7516 32.5836C21.7516 32.5836 30.2628 18.694 47.6897 18.694C65.1166 18.694 73.2233 32.1799 73.2233 32.1799H96.8658L95.9186 37.975C95.9186 37.975 95.2428 40.2695 94.1625 40.5386H95.7838C95.7838 40.5386 96.3248 42.5622 93.0821 49.5735H99.972C99.972 49.5735 100.242 61.8417 85.3816 67.6401C85.3816 67.6401 77.6811 70.0675 73.7626 65.8889C73.7626 65.8889 65.9272 80.4515 47.6897 80.4515C29.4521 80.4515 21.2106 65.4852 21.2106 65.4852H0L3.37916 59.4176H1.08198L3.78366 54.4283H8.37636L9.18702 52.5376H7.02634L12.2949 42.8298H15.2662L16.483 39.8641H13.9162L17.8331 32.5836H21.7516Z" fill="#FEFEFE"/>
<path d="M47.9441 77.2028C62.8551 77.2028 74.9411 64.9577 74.9411 49.8486C74.9411 34.7428 62.8551 22.496 47.9441 22.496C33.0347 22.496 20.947 34.7428 20.947 49.8486C20.947 64.9577 33.0347 77.2028 47.9441 77.2028Z" fill="#FEC42F"/>
<path d="M50.923 49.7139L49.7456 49.704C49.6618 49.704 49.5943 49.7713 49.5943 49.8534C49.5943 49.9355 49.6617 50.0027 49.7456 50.0027L50.9394 49.9913C51.3423 49.9913 51.7139 50.0421 51.612 50.221L48.5173 56.1196C48.1325 56.8237 47.3185 56.6448 47.1886 56.0835L45.6561 48.1777L51.0463 44.0025C51.5824 43.5429 52.6117 42.7945 53.1396 42.8044L54.3153 42.7978C55.0306 42.7929 55.2838 43.1277 55.1161 43.5577L54.9089 43.9581C54.7741 44.1813 54.3498 44.2092 53.9913 44.2092H53.3122C53.23 44.2092 53.1626 44.2765 53.1626 44.3619C53.1626 44.4439 53.23 44.5112 53.3122 44.5112H53.9815C54.2709 44.5112 54.6343 44.5178 54.5011 44.7344L52 49.494C51.8849 49.6794 51.3653 49.7139 50.923 49.7139ZM60.2498 52.65C57.7273 55.7027 56.2984 56.7482 53.7365 56.7482C52.865 56.7482 52.4111 56.5529 52.6545 56.1311L55.6933 50.0339H56.8525C58.1466 50.0339 57.9674 51.1204 57.6155 52.5926C57.5514 52.7994 57.7092 52.8125 57.8638 52.632L60.7529 47.5655C60.8927 47.2471 60.5293 47.1831 60.3501 47.4277C58.903 49.3857 57.3804 49.2412 56.7391 49.2412H56.2162L59.4588 43.0588H60.7677C62.4154 43.1622 63.1833 44.5588 62.7064 47.9233H63.3921L65.7765 43.2294C65.9689 42.8339 65.5611 42.4712 65.1121 42.4712L48.9218 42.4778C47.9862 42.4778 47.945 43.1933 48.8412 43.1933C49.5697 43.1933 49.5319 44.2371 48.8774 44.741L42.0056 50.1866L43.3918 56.6185C43.4954 57.1043 43.8062 57.3357 44.3455 57.3357H57.7323C58.2848 57.3357 58.5117 57.1109 58.6909 56.8811L61.1164 52.7009C61.4502 52.1002 60.674 52.138 60.2498 52.65" fill="#542582"/>
<path d="M30.6309 50.8953H26.3704L31.7589 43.8036L30.6309 50.8953ZM29.6443 55.3003C29.516 56.029 28.7827 56.5132 27.8602 56.7545L26.9081 56.9924L27.6892 55.5875C27.8947 55.2035 27.4442 54.977 26.9525 55.5498C23.6407 59.3952 22.5867 61.2383 17.481 61.2498L16.1096 61.253C15.6952 61.253 15.2397 61.0922 15.5209 60.695L17.3281 57.3387H24.1867C25.1223 57.3387 24.8822 56.6363 24.3314 56.6166C23.9696 56.6051 23.5717 56.3967 23.2905 55.9535C23.2132 55.8304 23.0422 55.343 23.3102 54.9672L25.9363 51.4845H30.3037L29.6443 55.3003H29.6443ZM39.8081 56.6166C39.4463 56.6051 39.2128 56.3556 39.1322 56.1177C39.0171 55.7714 39.0254 55.1625 39.1668 54.8933L45.412 43.8364C45.514 43.6329 45.7672 43.2029 46.078 43.2062C46.6289 43.2078 46.8673 42.484 45.9333 42.484H40.9312C39.9955 42.484 39.9857 43.193 40.8818 43.193C41.2485 43.193 41.3916 43.5508 41.2896 43.7691L39.9067 46.2687C39.7341 46.5444 39.3509 46.5641 38.9481 46.5641L37.7559 46.5608C37.6737 46.5608 37.6063 46.6281 37.6063 46.7118C37.6063 46.7939 37.6737 46.8612 37.7559 46.8612H38.9382C39.2589 46.8612 39.5137 46.9564 39.3279 47.3289L34.7171 55.7106C34.385 56.1718 33.7239 56.2736 33.7618 55.3922L35.4012 43.1143C35.4653 42.7302 35.3634 42.4709 34.9539 42.4709L32.4808 42.4742C32.1865 42.4742 32.0039 42.6186 31.8625 42.809L30.9779 43.9185C30.8628 44.0333 30.6128 44.0333 30.3382 44.0333L28.263 44.0301C28.1808 44.0301 28.1134 44.0974 28.1134 44.1794C28.1134 44.2615 28.1808 44.3288 28.263 44.3288H29.9567C30.2576 44.3288 30.6095 44.3993 30.4829 44.5405L28.1052 47.5259C28.0328 47.6096 27.801 47.6325 27.6596 47.6325L26.9887 47.6293C26.9064 47.6293 26.8374 47.6966 26.8374 47.777C26.8374 47.8623 26.9064 47.9296 26.9887 47.9296H27.5494C27.722 47.9296 27.7237 48.015 27.653 48.0921L25.4183 50.8953C25.3032 51.0036 25.0796 51.0266 24.8609 51.0266L22.8893 51.025C22.8054 51.025 22.7396 51.0906 22.7396 51.1743C22.7396 51.1939 22.7434 51.2134 22.7509 51.2316C22.7585 51.2497 22.7695 51.2662 22.7834 51.2801C22.7973 51.294 22.8138 51.305 22.832 51.3125C22.8502 51.3199 22.8696 51.3237 22.8893 51.3237H24.583C24.8395 51.3237 25.0384 51.3713 24.9036 51.5436L21.7251 55.5219C21.1282 56.2801 18.2505 56.6658 17.6915 56.6658L28.4373 36.5953C28.5409 36.3639 28.9389 36.0127 29.3532 36.0127H31.634C32.711 36.0127 32.6798 35.2971 31.7442 35.2971H20.2731C19.3375 35.2971 19.2997 36.0127 20.3767 36.0127H22.4996C23.1014 36.0127 23.2971 36.3771 23.1409 36.6725L22.8383 37.2256C22.7347 37.4061 22.5933 37.4783 22.0112 37.4783L18.2571 37.475C18.1749 37.475 18.1075 37.5423 18.1075 37.6244C18.1075 37.7064 18.1749 37.7737 18.2571 37.7737H22.0013C22.2052 37.7737 22.5094 37.8279 22.3171 38.1922L21.7925 39.1671C21.7021 39.3132 21.4719 39.3838 21.2104 39.3838L19.5068 39.3805C19.423 39.3805 19.3556 39.4461 19.3556 39.5298C19.3556 39.6119 19.423 39.6792 19.5068 39.6792H21.2005C21.4439 39.6792 21.4488 39.84 21.3091 40.0632L20.1005 42.3051C19.9969 42.4972 19.8012 42.5201 19.4164 42.5201L18.7373 42.5169C18.6551 42.5169 18.5877 42.5841 18.5877 42.6679C18.5877 42.7516 18.6551 42.8189 18.7373 42.8189H19.4065C19.6631 42.8189 19.7305 42.9616 19.6154 43.2029L18.6222 45.0427C18.4742 45.3069 18.2637 45.412 17.6027 45.412L13.8503 45.4087C13.8306 45.4086 13.8111 45.4124 13.793 45.4199C13.7748 45.4274 13.7583 45.4384 13.7444 45.4522C13.7305 45.4661 13.7194 45.4826 13.7119 45.5008C13.7044 45.5189 13.7006 45.5384 13.7006 45.558C13.7006 45.6417 13.7664 45.709 13.8503 45.709H17.5928C18.0171 45.7156 18.1733 45.9027 18.0056 46.203L16.0685 49.8383C15.9534 49.9975 15.636 50.0222 15.0983 50.0222L11.3459 50.0189C11.262 50.0189 11.1946 50.0862 11.1946 50.1682C11.1946 50.2503 11.262 50.3159 11.3459 50.3159L15.0885 50.3192C15.5374 50.3192 15.8103 50.3373 15.6771 50.5736L14.5606 52.6695C14.3551 52.9895 13.7796 52.9895 13.5543 52.9895L12.3638 52.9862C12.2816 52.9862 12.2141 53.0502 12.2141 53.1339C12.2141 53.2176 12.2815 53.2849 12.3638 53.2849H13.5444C13.9604 53.2849 14.1824 53.3571 14.0722 53.582L12.5825 56.3786C12.4476 56.6281 11.8639 56.6396 11.415 56.6396L5.61202 56.6363C5.52982 56.6363 5.4624 56.7036 5.4624 56.7856C5.4624 56.8677 5.5298 56.935 5.61202 56.935L11.4051 56.9366C11.7899 56.9366 12.275 56.9842 12.0974 57.2895L11.1453 59.0768C11.0549 59.2245 10.7293 59.236 10.2623 59.236L9.07176 59.2343C8.9879 59.2343 8.92048 59.3016 8.92048 59.3837C8.92048 59.4658 8.98788 59.533 9.07176 59.533H10.2524C10.5418 59.533 10.8921 59.5659 10.7687 59.7841L10.1751 60.9248C9.98272 61.2071 9.79034 61.4582 9.32992 61.4582H6.41774C5.34234 61.4582 5.3785 62.1771 6.31414 62.1771L23.4138 62.1853C23.9137 62.1853 23.9302 62.118 24.1653 61.752L26.7009 57.3387H39.6634C40.599 57.3387 40.3589 56.6363 39.8081 56.6166ZM72.9073 48.5231C72.4371 48.9088 71.6971 49.3519 71.554 49.2107C71.3534 49.0121 70.7318 48.5838 70.398 48.4312L73.1885 43.3368C73.3036 43.1563 73.4368 43.0594 73.7443 43.0594C74.8313 43.0594 75.1881 44.2362 74.6767 45.7018C74.3199 46.7292 73.7394 47.8403 72.9073 48.5231ZM95.4515 53.0906C95.3808 52.741 95.2525 52.9527 95.0223 53.3942C94.9516 53.5272 94.7263 53.5304 94.5027 53.5304L93.817 53.5337C93.7348 53.5337 93.6674 53.601 93.6674 53.6831C93.6674 53.7651 93.7348 53.8324 93.817 53.8324H94.4912C94.7477 53.8324 94.751 54.0031 94.6309 54.2591C94.1607 55.2636 93.674 55.9365 93.0294 56.739C92.9274 56.8687 92.6676 56.9754 92.4621 56.9754L91.7747 56.9803C91.6908 56.9803 91.6234 57.0443 91.6234 57.1296C91.6234 57.2117 91.6908 57.279 91.7747 57.279H92.4473C92.7877 57.279 92.444 57.4874 92.3864 57.5646C91.191 59.1565 90.3671 59.8672 89.4874 60.5795C89.3855 60.6615 88.8889 60.6336 88.5419 60.632L87.8644 60.6353C87.7806 60.6353 87.7132 60.7009 87.7132 60.7846C87.7132 60.8667 87.7805 60.934 87.8644 60.934H88.5337C89.0451 60.934 88.6619 61.2278 88.5847 61.2918C86.7216 62.8411 83.9443 63.3417 82.6765 63.1825C78.5508 62.6671 77.7023 59.5439 77.3981 58.2949C77.334 58.034 77.1366 57.5006 77.0709 57.169C76.9443 56.5158 78.804 56.3304 79.3171 56.6734C80.0981 57.1936 81.9135 57.7254 83.3425 57.732C84.6645 57.7369 87.3695 56.7784 88.1522 54.5102C88.953 52.1945 86.9403 49.621 86.049 48.7331C84.9145 47.5991 83.844 45.7954 84.2945 44.4709C84.6349 43.4747 85.2055 43.0217 86.4256 43.0217C88.0025 43.0217 89.1503 44.0327 89.1503 45.4688C89.1503 45.5968 89.0714 45.7494 88.9678 45.7494L88.4103 45.7527C88.3281 45.7527 88.2607 45.82 88.2607 45.902C88.2607 45.9841 88.3281 46.0514 88.4103 46.0514H88.9349C89.0812 46.0514 89.1733 46.163 89.1355 46.3419C89.0319 46.8228 88.999 47.1609 88.8938 47.6434C88.8329 47.9224 89.244 48.1161 89.3855 47.9109L91.8635 43.4944C92.0427 43.1612 91.6448 43.0726 91.3505 43.1743C90.673 43.4107 89.568 43.5715 89.1783 43.2909C88.2508 42.6295 87.4073 42.2011 86.1115 42.2011C83.9098 42.2011 82.3657 42.7427 81.3758 44.553C81.3001 44.6941 81.0831 44.6925 80.8973 44.6925L80.4747 44.6908C80.4548 44.6907 80.4352 44.6946 80.4168 44.7022C80.3984 44.7097 80.3817 44.7208 80.3677 44.7349C80.3536 44.7489 80.3425 44.7656 80.3349 44.7839C80.3273 44.8023 80.3234 44.822 80.3234 44.8418C80.3234 44.9239 80.3908 44.9912 80.4747 44.9912L80.8348 44.9879C80.9877 44.9879 81.0913 45.0306 81.014 45.2078C80.945 45.3719 80.8858 45.5443 80.8282 45.7215C80.5766 46.5044 80.6589 47.6023 81.0502 48.5838C81.0765 48.6478 80.9943 48.679 80.843 48.6773L80.1672 48.6806C80.085 48.6806 80.0175 48.7479 80.0175 48.83C80.0175 48.9137 80.085 48.981 80.1672 48.981H80.8397C81.1472 48.981 81.2179 49.0122 81.3462 49.1911C81.6931 49.6785 82.05 50.0412 82.4989 50.6091C82.6386 50.7896 82.0368 50.8388 81.7162 50.8356H79.0457C79.0261 50.8355 79.0066 50.8393 78.9884 50.8468C78.9703 50.8542 78.9538 50.8652 78.9398 50.8791C78.9259 50.893 78.9149 50.9095 78.9074 50.9276C78.8999 50.9458 78.8961 50.9653 78.8961 50.9849C78.8961 51.0686 78.9619 51.1343 79.0457 51.1343L81.7507 51.131C82.1864 51.131 82.9314 51.1244 83.0152 51.2196C83.6697 51.9729 84.4606 53.1349 84.5938 54.1114C84.6333 54.3937 84.5264 54.5102 84.1794 54.5102H83.8177C83.7355 54.5102 83.668 54.5775 83.668 54.6612C83.668 54.7449 83.7354 54.8106 83.8177 54.8106H84.1367C84.4113 54.8106 84.5625 54.8533 84.4984 55.0584C84.1482 56.1794 83.622 56.9885 81.481 56.9754C79.2365 56.9655 78.7793 54.7696 79.4371 52.4784C79.567 52.0222 79.4305 51.8269 79.2266 52.183L77.6645 54.635C77.625 54.6924 77.4737 54.8319 77.237 54.8319L77.0149 54.8303C76.9327 54.8303 76.8653 54.8976 76.8653 54.9813C76.8653 55.0633 76.9344 55.129 77.0166 55.129C77.2156 55.129 77.2928 55.2357 77.2172 55.344L76.6417 56.2368C75.6995 54.0819 74.1176 51.428 73.274 50.4614L73.2888 50.4154C75.3689 50.289 78.4406 48.3442 78.9421 46.6045C79.8153 43.5863 76.8785 42.4702 75.2785 42.4702L68.2423 42.4735C67.3083 42.4735 67.2392 43.1793 68.1371 43.1793C68.6205 43.1793 69.0447 43.6027 68.8293 44.0311L67.2705 46.8343C67.1422 47.0657 66.6604 47.0509 66.0323 47.0509H65.3499C65.2677 47.0509 65.2002 47.1182 65.2002 47.2002C65.2002 47.2823 65.2677 47.3496 65.3499 47.3496H66.0208C66.4697 47.3496 66.963 47.3775 66.7969 47.6975L64.9552 51.0161C64.8648 51.1704 64.6264 51.1851 63.9982 51.1851L63.3191 51.1868C63.2369 51.1868 63.1695 51.2541 63.1695 51.3361C63.1695 51.4198 63.2369 51.4871 63.3191 51.4871L63.9834 51.4855C64.4784 51.4855 64.6625 51.5511 64.5211 51.8072L62.0595 56.25C61.7652 56.57 61.4149 56.6291 60.8131 56.6291C59.9169 56.6291 59.9268 57.3381 60.8624 57.3381H66.8873C67.823 57.3381 67.5845 56.6159 67.0337 56.6159C66.7098 56.6176 66.3661 56.0218 66.5815 55.6657L69.6581 49.8492H69.9705C71.3386 49.8492 71.6691 52.0894 71.9273 54.5365C71.9454 54.7105 71.6099 54.7187 70.9292 54.7187L69.219 54.7203C69.1368 54.7203 69.0694 54.7876 69.0694 54.873C69.0694 54.955 69.1368 55.0207 69.219 55.0207H70.9111C71.36 55.0207 71.9882 55.0256 72.0029 55.17C72.1213 56.2434 72.2102 57.1871 72.414 58.0471C72.4798 58.3162 71.9996 58.2736 71.4866 58.2736L69.3095 58.2785C69.2256 58.2785 69.1598 58.3458 69.1598 58.4262C69.1598 58.5099 69.2256 58.5772 69.3095 58.5772L71.485 58.5805C72.169 58.5805 72.5209 58.5788 72.5604 58.72C73.4977 62.1501 77.5165 64.8499 81.4251 64.7006C84.778 64.5726 87.6096 62.7525 89.0599 61.5921C90.9903 60.0461 93.8236 56.8112 94.9763 54.4594C95.1884 54.0277 95.5288 53.4746 95.4515 53.0906" fill="#542582"/>
<path d="M38.9771 37.9434C38.4131 38.6738 37.6633 38.8592 36.823 38.8592H36.5846L38.0678 35.9296C38.1385 35.7951 38.2947 35.6917 38.4871 35.6917C38.6729 35.6917 38.6515 35.3207 38.4082 35.3207H36.0715C35.8726 35.3207 35.8019 35.6917 35.9877 35.6917C36.1866 35.6917 36.2245 35.9116 36.1274 36.0954L34.8004 38.7099C34.7116 38.851 34.5636 38.8871 34.4009 38.9281C34.2052 38.979 34.0687 39.3319 34.2923 39.3319H38.0234C38.3111 39.3319 38.3786 39.2252 38.4542 39.1234L39.204 37.9647C39.3126 37.8236 39.0856 37.8023 38.9771 37.9434ZM50.213 35.4238C50.0995 35.4845 49.8332 35.5206 49.7181 35.4238C49.4204 35.176 48.835 34.9856 48.5292 34.9856C47.6495 34.9856 47.0114 35.1596 46.63 35.9884C46.3027 36.6925 46.6382 37.285 47.4143 37.6427C47.7498 37.797 48.1954 38.0005 48.0244 38.4043C47.8994 38.6997 47.5557 38.7309 47.245 38.7276C46.8289 38.7243 46.2024 38.4108 46.1054 37.8249C46.0725 37.6329 45.8489 37.6756 45.7848 37.7806L45.2553 38.8343C45.1714 38.9754 45.3901 39.133 45.4773 39.0394C45.6565 38.849 46.0462 38.8031 46.2386 38.9311C46.5033 39.1051 47.1825 39.4153 47.5886 39.412C48.4799 39.4054 49.0669 39.1756 49.5536 38.4125C50.0009 37.7182 49.7263 37.0273 48.914 36.6432C48.4832 36.4414 48.1165 36.0836 48.3088 35.6913C48.4322 35.4353 48.8153 35.4895 49.006 35.5239C49.3694 35.5846 49.8348 35.926 49.8891 36.2247C49.9121 36.3527 50.0749 36.3774 50.1456 36.2641L50.4251 35.6109C50.4893 35.4845 50.2837 35.3861 50.213 35.4238ZM76.0957 36.4735L76.4196 35.8761C76.561 35.6135 76.3292 35.3165 75.9576 35.3165H71.6017C71.2876 35.3165 71.3797 35.6431 71.5079 35.6431C71.7875 35.6431 71.8713 35.9828 71.702 36.27L70.3914 38.6761C70.1957 38.9042 70.0708 39.0043 69.7912 39.0043C69.5676 39.0043 69.487 39.3309 69.8011 39.3309H74.2162C74.3938 39.3309 74.4727 39.2669 74.5368 39.1783L75.137 38.3823C75.2834 38.1903 74.9677 38.1903 74.8706 38.2855C74.1093 39.047 73.2937 39.024 72.7017 39.024H72.1871L72.7922 37.6782H72.9204C73.3085 37.6782 73.7558 37.6733 73.8742 37.9687C73.9054 38.0376 74.0978 38.0951 74.1734 37.9687L74.6881 36.9396C74.772 36.787 74.5401 36.7591 74.4776 36.8691C74.2737 37.2318 73.3792 37.1349 73.1441 37.1349H73.0158L73.7689 35.6529H74.6075C75.1288 35.6529 75.5777 36.0205 75.7241 36.4227C75.7602 36.5179 76.0381 36.595 76.0957 36.4735ZM54.5617 37.2365L56.0136 36.0516L56.0202 37.2365H54.5617ZM64.9524 35.3163H63.4017C63.0877 35.3163 63.1814 35.6429 63.3097 35.6429C63.6402 35.6429 63.9411 36.0302 63.7602 36.388L63.1189 37.5599L61.7031 35.4936C61.6077 35.3656 61.3841 35.3032 61.1934 35.3032H59.6674C59.3533 35.3032 59.4273 35.6281 59.5556 35.6281C59.8779 35.6281 59.7957 35.8694 59.7151 36.0417L58.4999 38.3772C58.4226 38.5659 58.0921 38.5905 57.9885 38.3542L57.0479 35.295C57.0085 35.1735 56.4593 35.1801 56.3195 35.295L53.9615 37.2349L52.7414 37.2365C52.498 37.2365 52.4026 37.3367 52.4026 37.4647C52.4026 37.5927 52.4947 37.7092 52.7512 37.7092L53.3892 37.7076L52.7512 38.2328C52.396 38.497 52.0326 38.8597 51.7909 38.8597H51.6429C51.4111 38.8597 51.2828 38.8958 51.2828 39.0813C51.2828 39.2667 51.3798 39.3307 51.5969 39.3307H53.4994C53.8562 39.3307 53.7872 38.8646 53.6079 38.8646C53.4123 38.8646 53.0867 38.6152 53.3876 38.2623L53.9681 37.7092H55.1125C55.79 37.7092 56.2652 38.4954 55.8607 38.7366L55.5466 38.9106C55.4003 38.9861 55.3345 39.3307 55.5466 39.3307H59.2629C59.5375 39.3307 59.4816 38.968 59.3533 38.968C58.9735 38.968 59.1527 38.4215 59.2251 38.2754L60.2018 36.4307L61.5732 39.0813C61.662 39.2503 61.7426 39.3307 61.9037 39.3307H62.4283C62.596 39.3307 62.6503 39.2355 62.7292 39.1075L64.2897 36.2928C64.5413 35.7906 64.7337 35.6446 65.0494 35.6446C65.1776 35.6446 65.2664 35.3163 64.9524 35.3163ZM43.3177 37.6485C42.9033 38.474 42.2094 38.9631 41.7687 38.7432C41.3264 38.5216 41.305 37.6731 41.7178 36.8492C42.1322 36.0237 42.8261 35.5346 43.2684 35.7545C43.7091 35.9744 43.7321 36.8229 43.3177 37.6485ZM42.9477 35.1391C41.6421 35.1391 40.2954 35.7824 40.0274 37.1512C39.7939 38.3411 40.6177 39.5769 42.0779 39.5769C43.4657 39.5769 44.7483 38.6693 45.0065 37.3547C45.2646 36.0352 44.2797 35.1391 42.9477 35.1391ZM69.3696 37.1356H67.6907C67.3766 37.1356 67.4687 37.4622 67.597 37.4622C67.7302 37.4622 67.8535 37.5328 67.8535 37.7429C67.8535 38.4207 67.5641 38.6816 66.982 38.6816C66.3423 38.6816 66.1121 37.9086 66.543 36.96C66.8176 36.3527 67.5444 35.7865 68.4077 35.7865C68.9355 35.7865 69.3795 35.8998 69.4469 36.3954C69.4633 36.5152 69.6459 36.5152 69.71 36.402L70.1079 35.688C70.1523 35.6125 70.0833 35.5223 69.9616 35.5157C69.8596 35.5092 69.6294 35.6388 69.4781 35.5288C69.1427 35.2777 68.4109 35.0381 67.8601 35.0381C66.959 35.0381 65.701 35.2416 64.8509 36.7122C64.083 38.0448 65.2012 39.453 66.2388 39.4546C66.8159 39.4563 67.4852 39.0296 67.8683 38.8704L68.2958 39.1576C68.36 39.2347 68.4948 39.3299 68.6231 39.3299H68.7826C68.9306 39.3299 68.9881 39.1313 69.0457 39.0033L69.7034 37.4113C69.7873 37.2521 69.7412 37.1356 69.3696 37.1356ZM92.3633 35.4238C92.2499 35.4845 91.9835 35.5206 91.8684 35.4238C91.5707 35.176 90.9854 34.9856 90.6795 34.9856C89.8014 34.9856 89.1618 35.1596 88.7803 35.9884C88.453 36.6925 88.7885 37.285 89.5646 37.6427C89.9001 37.797 90.3473 38.0005 90.1747 38.4043C90.0497 38.6997 89.706 38.7309 89.3953 38.7276C88.9792 38.7243 88.3544 38.4108 88.2557 37.8249C88.2245 37.6329 88.0008 37.6756 87.9367 37.7806L87.4039 38.8343C87.3217 38.9754 87.5404 39.133 87.6276 39.0394C87.8068 38.849 88.1982 38.8031 88.3889 38.9311C88.6536 39.1051 89.3328 39.4153 89.7389 39.412C90.6302 39.4054 91.2172 39.1756 91.7056 38.4125C92.1512 37.7182 91.8766 37.0273 91.0643 36.6432C90.6335 36.4414 90.2668 36.0836 90.4592 35.6913C90.5841 35.4353 90.9673 35.4895 91.158 35.5239C91.5198 35.5846 91.9851 35.926 92.0394 36.2247C92.0624 36.3527 92.2252 36.3774 92.2959 36.2641L92.5771 35.6109C92.6396 35.4845 92.434 35.3861 92.3633 35.4238ZM80.6923 37.9434C80.1283 38.6738 79.3785 38.8592 78.5382 38.8592H78.2998L79.783 35.9296C79.8537 35.7951 80.0099 35.6917 80.2023 35.6917C80.3881 35.6917 80.3651 35.3207 80.1217 35.3207H77.7867C77.5878 35.3207 77.5171 35.6917 77.7029 35.6917C77.9019 35.6917 77.938 35.9116 77.8427 36.0954L76.5157 38.7099C76.4252 38.851 76.2789 38.8871 76.1161 38.9281C75.9188 38.979 75.7839 39.3319 76.0076 39.3319H79.737C80.0264 39.3319 80.0921 39.2252 80.1694 39.1234L80.9192 37.9647C81.0278 37.8236 80.8008 37.8023 80.6923 37.9434ZM86.3175 35.6529C86.8388 35.6529 87.2877 36.0206 87.434 36.4227C87.4702 36.5179 87.7481 36.5933 87.8057 36.4735L88.1312 35.8761C88.271 35.6152 88.0392 35.3165 87.6675 35.3165H83.3116C82.9976 35.3165 83.0913 35.6414 83.2179 35.6414C83.4974 35.6414 83.5813 35.9828 83.4119 36.27L82.103 38.676C81.9073 38.9042 81.7807 39.0043 81.5012 39.0043C81.2776 39.0043 81.197 39.3309 81.5127 39.3309H85.9245C86.1054 39.3309 86.1827 39.2669 86.2484 39.1766L86.847 38.3806C86.995 38.1919 86.6776 38.1919 86.5823 38.2854C85.8193 39.047 85.0037 39.0256 84.4117 39.0256H83.897L84.5021 37.6765H84.6304C85.0185 37.6765 85.4657 37.6733 85.5825 37.967C85.6154 38.0376 85.8061 38.0951 85.8834 37.967L86.3997 36.938C86.4819 36.7854 86.2484 36.7607 86.1876 36.8691C85.9837 37.2334 85.0892 37.1349 84.854 37.1349H84.7258L85.4772 35.6529H86.3175L86.3175 35.6529Z" fill="#542582"/>
<path d="M50.923 49.7139L49.7456 49.704C49.6618 49.704 49.5943 49.7713 49.5943 49.8534C49.5943 49.9355 49.6617 50.0027 49.7456 50.0027L50.9394 49.9913C51.3423 49.9913 51.7139 50.0421 51.612 50.221L48.5173 56.1196C48.1325 56.8237 47.3185 56.6448 47.1886 56.0835L45.6561 48.1777L51.0463 44.0025C51.5824 43.5429 52.6117 42.7945 53.1396 42.8044L54.3153 42.7978C55.0306 42.7929 55.2838 43.1277 55.1161 43.5577L54.9089 43.9581C54.7741 44.1813 54.3498 44.2092 53.9913 44.2092H53.3122C53.23 44.2092 53.1626 44.2765 53.1626 44.3619C53.1626 44.4439 53.23 44.5112 53.3122 44.5112H53.9815C54.2709 44.5112 54.6343 44.5178 54.5011 44.7344L52 49.494C51.8849 49.6794 51.3653 49.7139 50.923 49.7139ZM60.2498 52.65C57.7273 55.7027 56.2984 56.7482 53.7365 56.7482C52.865 56.7482 52.4111 56.5529 52.6545 56.1311L55.6933 50.0339H56.8525C58.1466 50.0339 57.9674 51.1204 57.6155 52.5926C57.5514 52.7994 57.7092 52.8125 57.8638 52.632L60.7529 47.5655C60.8927 47.2471 60.5293 47.1831 60.3501 47.4277C58.903 49.3857 57.3804 49.2412 56.7391 49.2412H56.2162L59.4588 43.0588H60.7677C62.4154 43.1622 63.1833 44.5588 62.7064 47.9233H63.3921L65.7765 43.2294C65.9689 42.8339 65.5611 42.4712 65.1121 42.4712L48.9218 42.4778C47.9862 42.4778 47.945 43.1933 48.8412 43.1933C49.5697 43.1933 49.5319 44.2371 48.8774 44.741L42.0056 50.1866L43.3918 56.6185C43.4954 57.1043 43.8062 57.3357 44.3455 57.3357H57.7323C58.2848 57.3357 58.5117 57.1109 58.6909 56.8811L61.1164 52.7009C61.4502 52.1002 60.674 52.138 60.2498 52.65" fill="#542582"/>
<mask id="mask0" mask-type="alpha" maskUnits="userSpaceOnUse" x="20" y="35" width="27" height="28">
<path d="M23.8413 62.1852C21.9904 58.4792 20.9475 54.2885 20.9475 49.851C20.9475 44.5023 22.4627 39.5121 25.0817 35.2971H46.5631V62.1852H23.8413Z" fill="white"/>
</mask>
<g mask="url(#mask0)">
<path d="M30.6309 50.8953H26.3704L31.759 43.8036L30.6309 50.8953ZM29.6443 55.3003C29.5161 56.029 28.7827 56.5132 27.8602 56.7545L26.9081 56.9924L27.6892 55.5875C27.8947 55.2035 27.4442 54.977 26.9525 55.5498C23.6408 59.3952 22.5867 61.2383 17.481 61.2498L16.1096 61.253C15.6952 61.253 15.2397 61.0922 15.5209 60.695L17.3281 57.3387H24.1867C25.1223 57.3387 24.8823 56.6363 24.3314 56.6166C23.9696 56.6051 23.5717 56.3967 23.2905 55.9535C23.2132 55.8304 23.0422 55.343 23.3103 54.9672L25.9363 51.4845H30.3037L29.6443 55.3003H29.6443ZM39.8081 56.6166C39.4463 56.6051 39.2128 56.3556 39.1323 56.1177C39.0172 55.7714 39.0254 55.1625 39.1668 54.8933L45.4121 43.8364C45.514 43.6329 45.7673 43.2029 46.078 43.2062C46.6289 43.2078 46.8673 42.484 45.9333 42.484H40.9312C39.9955 42.484 39.9857 43.193 40.8819 43.193C41.2485 43.193 41.3916 43.5508 41.2897 43.7691L39.9068 46.2687C39.7341 46.5444 39.351 46.5641 38.9481 46.5641L37.7559 46.5608C37.6737 46.5608 37.6063 46.6281 37.6063 46.7118C37.6063 46.7939 37.6737 46.8612 37.7559 46.8612H38.9382C39.2589 46.8612 39.5138 46.9564 39.3279 47.3289L34.7172 55.7106C34.385 56.1718 33.724 56.2736 33.7618 55.3922L35.4012 43.1143C35.4653 42.7302 35.3634 42.4709 34.9539 42.4709L32.4808 42.4742C32.1865 42.4742 32.004 42.6186 31.8626 42.809L30.9779 43.9185C30.8628 44.0333 30.6128 44.0333 30.3382 44.0333L28.263 44.0301C28.1808 44.0301 28.1134 44.0974 28.1134 44.1794C28.1134 44.2615 28.1808 44.3288 28.2631 44.3288H29.9567C30.2577 44.3288 30.6095 44.3993 30.4829 44.5405L28.1052 47.5259C28.0328 47.6096 27.801 47.6326 27.6596 47.6326L26.9887 47.6293C26.9065 47.6293 26.8374 47.6966 26.8374 47.777C26.8374 47.8623 26.9065 47.9296 26.9887 47.9296H27.5494C27.7221 47.9296 27.7237 48.015 27.653 48.0921L25.4183 50.8953C25.3032 51.0036 25.0796 51.0266 24.8609 51.0266L22.8893 51.025C22.8054 51.025 22.7397 51.0906 22.7397 51.1743C22.7396 51.194 22.7435 51.2134 22.751 51.2316C22.7585 51.2498 22.7695 51.2663 22.7834 51.2801C22.7973 51.294 22.8138 51.305 22.832 51.3125C22.8502 51.32 22.8697 51.3238 22.8893 51.3237H24.583C24.8395 51.3237 25.0385 51.3713 24.9036 51.5436L21.7251 55.5219C21.1282 56.2801 18.2506 56.6658 17.6915 56.6658L28.4373 36.5953C28.5409 36.3639 28.9389 36.0127 29.3532 36.0127H31.634C32.711 36.0127 32.6798 35.2971 31.7441 35.2971H20.2731C19.3375 35.2971 19.2997 36.0127 20.3767 36.0127H22.4996C23.1014 36.0127 23.2971 36.377 23.1409 36.6725L22.8383 37.2256C22.7347 37.4061 22.5933 37.4783 22.0112 37.4783L18.2571 37.475C18.1749 37.475 18.1075 37.5423 18.1075 37.6244C18.1075 37.7064 18.1749 37.7737 18.2571 37.7737H22.0013C22.2052 37.7737 22.5095 37.8279 22.3171 38.1922L21.7925 39.1671C21.7021 39.3132 21.4719 39.3838 21.2104 39.3838L19.5069 39.3805C19.423 39.3805 19.3556 39.4461 19.3556 39.5298C19.3556 39.6119 19.423 39.6792 19.5069 39.6792H21.2005C21.4439 39.6792 21.4488 39.84 21.3091 40.0632L20.1005 42.3051C19.9969 42.4972 19.8012 42.5201 19.4164 42.5201L18.7373 42.5169C18.6551 42.5169 18.5877 42.5841 18.5877 42.6679C18.5877 42.7516 18.6551 42.8189 18.7373 42.8189H19.4065C19.6631 42.8189 19.7305 42.9616 19.6154 43.2029L18.6222 45.0427C18.4742 45.3069 18.2637 45.412 17.6027 45.412L13.8503 45.4087C13.8306 45.4086 13.8112 45.4124 13.793 45.4199C13.7748 45.4274 13.7583 45.4383 13.7444 45.4522C13.7305 45.4661 13.7194 45.4826 13.7119 45.5008C13.7044 45.5189 13.7006 45.5384 13.7006 45.558C13.7006 45.6417 13.7664 45.709 13.8503 45.709H17.5928C18.0171 45.7156 18.1733 45.9027 18.0056 46.203L16.0685 49.8383C15.9534 49.9975 15.636 50.0222 15.0983 50.0222L11.3459 50.0189C11.262 50.0189 11.1946 50.0862 11.1946 50.1682C11.1946 50.2503 11.262 50.3159 11.3459 50.3159L15.0885 50.3192C15.5374 50.3192 15.8103 50.3373 15.6771 50.5736L14.5606 52.6695C14.3551 52.9895 13.7796 52.9895 13.5543 52.9895L12.3638 52.9862C12.2816 52.9862 12.2141 53.0502 12.2141 53.1339C12.2141 53.2176 12.2815 53.2849 12.3638 53.2849H13.5444C13.9604 53.2849 14.1824 53.3571 14.0723 53.582L12.5825 56.3786C12.4476 56.6281 11.8639 56.6396 11.415 56.6396L5.61204 56.6363C5.52982 56.6363 5.4624 56.7036 5.4624 56.7857C5.4624 56.8677 5.5298 56.935 5.61204 56.935L11.4051 56.9367C11.7899 56.9367 12.275 56.9843 12.0974 57.2895L11.1453 59.0768C11.0549 59.2245 10.7293 59.236 10.2623 59.236L9.07176 59.2344C8.9879 59.2344 8.92048 59.3017 8.92048 59.3837C8.92048 59.4658 8.98788 59.5331 9.07176 59.5331H10.2524C10.5418 59.5331 10.8921 59.5659 10.7687 59.7842L10.1751 60.9248C9.98274 61.2071 9.79034 61.4582 9.32994 61.4582H6.41776C5.34236 61.4582 5.37854 62.1771 6.31416 62.1771L23.4138 62.1853C23.9137 62.1853 23.9302 62.118 24.1653 61.752L26.7009 57.3387H39.6634C40.599 57.3387 40.359 56.6363 39.8081 56.6166V56.6166Z" fill="#542582"/>
</g>
<mask id="mask1" mask-type="alpha" maskUnits="userSpaceOnUse" x="60" y="42" width="15" height="23">
<path d="M70.6175 64.7066C73.3531 60.4288 74.9415 55.3279 74.9415 49.8511C74.9415 47.1958 74.5682 44.6288 73.8717 42.2012H60.1506V64.7066H70.6175Z" fill="white"/>
</mask>
<g mask="url(#mask1)">
<path d="M72.9073 48.5231C72.4371 48.9088 71.6971 49.352 71.554 49.2108C71.3534 49.0122 70.7318 48.5839 70.398 48.4312L73.1885 43.3369C73.3036 43.1564 73.4368 43.0595 73.7443 43.0595C74.8312 43.0595 75.1881 44.2363 74.6767 45.7019C74.3198 46.7293 73.7394 47.8404 72.9073 48.5231ZM95.4515 53.0907C95.3808 52.7411 95.2525 52.9528 95.0223 53.3943C94.9516 53.5272 94.7263 53.5305 94.5027 53.5305L93.817 53.5338C93.7348 53.5338 93.6674 53.6011 93.6674 53.6831C93.6674 53.7652 93.7348 53.8325 93.817 53.8325H94.4912C94.7477 53.8325 94.751 54.0032 94.631 54.2592C94.1607 55.2636 93.674 55.9365 93.0294 56.7391C92.9274 56.8688 92.6676 56.9754 92.4621 56.9754L91.7747 56.9804C91.6909 56.9804 91.6234 57.0444 91.6234 57.1297C91.6234 57.2118 91.6908 57.2791 91.7747 57.2791H92.4473C92.7876 57.2791 92.444 57.4875 92.3864 57.5646C91.191 59.1566 90.3671 59.8673 89.4874 60.5796C89.3855 60.6616 88.8888 60.6337 88.5419 60.6321L87.8644 60.6354C87.7806 60.6354 87.7131 60.701 87.7131 60.7847C87.7131 60.8668 87.7806 60.9341 87.8644 60.9341H88.5337C89.0451 60.9341 88.6619 61.2279 88.5847 61.2919C86.7216 62.8412 83.9443 63.3417 82.6765 63.1825C78.5508 62.6672 77.7023 59.5439 77.3981 58.295C77.3339 58.034 77.1366 57.5006 77.0709 57.1691C76.9442 56.5159 78.804 56.3304 79.3171 56.6735C80.0981 57.1937 81.9135 57.7255 83.3424 57.7321C84.6645 57.737 87.3695 56.7785 88.1522 54.5103C88.953 52.1946 86.9403 49.6211 86.049 48.7332C84.9144 47.5991 83.844 45.7954 84.2945 44.471C84.6349 43.4748 85.2055 43.0218 86.4256 43.0218C88.0025 43.0218 89.1503 44.0328 89.1503 45.4688C89.1503 45.5968 89.0714 45.7495 88.9678 45.7495L88.4103 45.7528C88.3281 45.7528 88.2607 45.8201 88.2607 45.9021C88.2607 45.9842 88.3281 46.0515 88.4103 46.0515H88.9349C89.0813 46.0515 89.1733 46.1631 89.1355 46.342C89.0319 46.8228 88.999 47.1609 88.8938 47.6435C88.833 47.9225 89.244 48.1161 89.3855 47.911L91.8635 43.4945C92.0427 43.1613 91.6448 43.0727 91.3505 43.1744C90.673 43.4108 89.568 43.5716 89.1783 43.291C88.2508 42.6296 87.4073 42.2012 86.1115 42.2012C83.9097 42.2012 82.3657 42.7428 81.3758 44.5531C81.3001 44.6942 81.0831 44.6926 80.8973 44.6926L80.4747 44.6909C80.4548 44.6908 80.4351 44.6947 80.4168 44.7023C80.3984 44.7098 80.3817 44.7209 80.3677 44.735C80.3536 44.749 80.3424 44.7657 80.3349 44.784C80.3273 44.8024 80.3234 44.822 80.3234 44.8419C80.3234 44.924 80.3908 44.9913 80.4747 44.9913L80.8348 44.988C80.9877 44.988 81.0913 45.0307 81.014 45.2079C80.945 45.372 80.8858 45.5443 80.8282 45.7216C80.5766 46.5044 80.6588 47.6024 81.0502 48.5839C81.0765 48.6479 80.9943 48.6791 80.843 48.6774L80.1672 48.6807C80.085 48.6807 80.0175 48.748 80.0175 48.8301C80.0175 48.9138 80.0849 48.9811 80.1672 48.9811H80.8397C81.1472 48.9811 81.2179 49.0122 81.3462 49.1911C81.6931 49.6786 82.05 50.0413 82.4989 50.6091C82.6386 50.7897 82.0368 50.8389 81.7162 50.8356H79.0457C79.0261 50.8356 79.0066 50.8394 78.9884 50.8468C78.9703 50.8543 78.9537 50.8653 78.9398 50.8792C78.9259 50.8931 78.9149 50.9096 78.9074 50.9277C78.8999 50.9459 78.896 50.9653 78.8961 50.985C78.8961 51.0687 78.9619 51.1343 79.0457 51.1343L81.7507 51.1311C82.1864 51.1311 82.9313 51.1245 83.0152 51.2197C83.6697 51.973 84.4606 53.135 84.5938 54.1115C84.6333 54.3938 84.5264 54.5103 84.1794 54.5103H83.8177C83.7354 54.5103 83.668 54.5776 83.668 54.6613C83.668 54.745 83.7354 54.8107 83.8177 54.8107H84.1367C84.4113 54.8107 84.5625 54.8533 84.4984 55.0585C84.1482 56.1794 83.622 56.9886 81.481 56.9754C79.2365 56.9656 78.7793 54.7696 79.4371 52.4785C79.567 52.0222 79.4305 51.8269 79.2266 52.1831L77.6645 54.6351C77.625 54.6925 77.4737 54.832 77.237 54.832L77.015 54.8304C76.9328 54.8304 76.8653 54.8977 76.8653 54.9814C76.8653 55.0634 76.9344 55.1291 77.0166 55.1291C77.2156 55.1291 77.2929 55.2357 77.2172 55.3441L76.6417 56.2369C75.6995 54.082 74.1176 51.4281 73.274 50.4615L73.2888 50.4155C75.3689 50.2891 78.4406 48.3443 78.9421 46.6046C79.8153 43.5864 76.8785 42.4703 75.2785 42.4703L68.2423 42.4736C67.3083 42.4736 67.2392 43.1794 68.137 43.1794C68.6205 43.1794 69.0447 43.6028 68.8293 44.0312L67.2705 46.8343C67.1422 47.0657 66.6604 47.051 66.0323 47.051H65.3499C65.2676 47.051 65.2002 47.1183 65.2002 47.2003C65.2002 47.2824 65.2676 47.3497 65.3499 47.3497H66.0207C66.4697 47.3497 66.963 47.3776 66.7969 47.6976L64.9552 51.0162C64.8648 51.1704 64.6263 51.1852 63.9982 51.1852L63.3191 51.1869C63.2369 51.1869 63.1694 51.2541 63.1694 51.3362C63.1694 51.4199 63.2368 51.4872 63.3191 51.4872L63.9834 51.4856C64.4783 51.4856 64.6625 51.5512 64.5211 51.8072L62.0595 56.25C61.7652 56.5701 61.4149 56.6291 60.8131 56.6291C59.9169 56.6291 59.9268 57.3381 60.8624 57.3381H66.8873C67.823 57.3381 67.5845 56.616 67.0337 56.616C66.7098 56.6177 66.3661 56.0219 66.5815 55.6657L69.6581 49.8493H69.9705C71.3386 49.8493 71.6691 52.0895 71.9273 54.5366C71.9454 54.7106 71.6099 54.7188 70.9292 54.7188L69.219 54.7204C69.1368 54.7204 69.0694 54.7877 69.0694 54.873C69.0694 54.9551 69.1368 55.0207 69.219 55.0207H70.9111C71.36 55.0207 71.9881 55.0257 72.0029 55.1701C72.1213 56.2435 72.2101 57.1872 72.414 58.0472C72.4798 58.3163 71.9996 58.2736 71.4866 58.2736L69.3095 58.2786C69.2256 58.2786 69.1598 58.3459 69.1598 58.4263C69.1598 58.51 69.2256 58.5773 69.3095 58.5773L71.4849 58.5806C72.169 58.5806 72.5209 58.5789 72.5603 58.7201C73.4976 62.1502 77.5165 64.85 81.4251 64.7007C84.7779 64.5727 87.6095 62.7525 89.0598 61.5922C90.9903 60.0462 93.8236 56.8113 94.9763 54.4594C95.1884 54.0278 95.5288 53.4747 95.4515 53.0907" fill="#542582"/>
</g>
<path d="M38.9771 37.9434C38.4131 38.6738 37.6633 38.8592 36.823 38.8592H36.5846L38.0678 35.9296C38.1385 35.7951 38.2947 35.6917 38.4871 35.6917C38.6729 35.6917 38.6515 35.3207 38.4082 35.3207H36.0715C35.8726 35.3207 35.8019 35.6917 35.9877 35.6917C36.1866 35.6917 36.2245 35.9116 36.1274 36.0954L34.8004 38.7099C34.7116 38.851 34.5636 38.8871 34.4009 38.9281C34.2052 38.979 34.0687 39.3319 34.2923 39.3319H38.0234C38.3111 39.3319 38.3786 39.2252 38.4542 39.1235L39.204 37.9647C39.3126 37.8236 39.0856 37.8023 38.9771 37.9434ZM50.213 35.4238C50.0995 35.4845 49.8332 35.5206 49.7181 35.4238C49.4204 35.176 48.835 34.9856 48.5292 34.9856C47.6495 34.9856 47.0114 35.1596 46.63 35.9884C46.3027 36.6925 46.6382 37.285 47.4143 37.6427C47.7498 37.797 48.1954 38.0005 48.0244 38.4043C47.8994 38.6997 47.5557 38.7309 47.245 38.7276C46.8289 38.7243 46.2024 38.4108 46.1054 37.8249C46.0725 37.6329 45.8489 37.6756 45.7848 37.7806L45.2553 38.8343C45.1714 38.9754 45.3901 39.133 45.4773 39.0394C45.6565 38.849 46.0462 38.8031 46.2386 38.9311C46.5033 39.1051 47.1825 39.4153 47.5886 39.412C48.4799 39.4054 49.0669 39.1756 49.5536 38.4125C50.0009 37.7182 49.7263 37.0273 48.914 36.6432C48.4832 36.4414 48.1165 36.0836 48.3088 35.6913C48.4322 35.4353 48.8153 35.4895 49.006 35.5239C49.3694 35.5846 49.8348 35.926 49.8891 36.2247C49.9121 36.3527 50.0749 36.3774 50.1456 36.2641L50.4251 35.6109C50.4893 35.4845 50.2837 35.3861 50.213 35.4238Z" fill="#542582"/>
<mask id="mask2" mask-type="alpha" maskUnits="userSpaceOnUse" x="69" y="35" width="4" height="5">
<path d="M72.873 39.3309C72.3 37.9387 71.6132 36.596 70.8197 35.3165H69.5938V39.3309H72.873V39.3309Z" fill="white"/>
</mask>
<g mask="url(#mask2)">
<path d="M76.0958 36.4736L76.4197 35.8762C76.5611 35.6136 76.3293 35.3165 75.9576 35.3165H71.6018C71.2877 35.3165 71.3798 35.6431 71.508 35.6431C71.7876 35.6431 71.8714 35.9828 71.7021 36.2701L70.3915 38.6761C70.1958 38.9042 70.0709 39.0044 69.7913 39.0044C69.5677 39.0044 69.4871 39.331 69.8012 39.331H74.2163C74.3939 39.331 74.4728 39.267 74.5369 39.1783L75.1371 38.3823C75.2835 38.1903 74.9677 38.1903 74.8707 38.2855C74.1094 39.047 73.2938 39.0241 72.7018 39.0241H72.1872L72.7923 37.6783H72.9205C73.3086 37.6783 73.7558 37.6733 73.8742 37.9687C73.9055 38.0377 74.0979 38.0951 74.1735 37.9687L74.6882 36.9397C74.7721 36.7871 74.5402 36.7592 74.4777 36.8691C74.2738 37.2318 73.3793 37.135 73.1441 37.135H73.0159L73.769 35.653H74.6076C75.1289 35.653 75.5778 36.0206 75.7241 36.4227C75.7603 36.5179 76.0382 36.595 76.0958 36.4736" fill="#542582"/>
</g>
<path d="M54.5619 37.2365L56.0138 36.0516L56.0204 37.2365H54.5619ZM64.9526 35.3163H63.4019C63.0879 35.3163 63.1816 35.6429 63.3098 35.6429C63.6404 35.6429 63.9413 36.0302 63.7604 36.388L63.1191 37.5599L61.7033 35.4936C61.6079 35.3656 61.3843 35.3032 61.1936 35.3032H59.6676C59.3535 35.3032 59.4275 35.6281 59.5558 35.6281C59.8781 35.6281 59.7958 35.8694 59.7153 36.0417L58.5001 38.3772C58.4228 38.5659 58.0923 38.5905 57.9887 38.3542L57.0481 35.295C57.0087 35.1735 56.4594 35.1801 56.3197 35.295L53.9617 37.2349L52.7416 37.2365C52.4982 37.2365 52.4028 37.3367 52.4028 37.4647C52.4028 37.5927 52.4949 37.7092 52.7514 37.7092L53.3894 37.7076L52.7514 38.2328C52.3962 38.497 52.0328 38.8597 51.7911 38.8597H51.6431C51.4113 38.8597 51.283 38.8958 51.283 39.0813C51.283 39.2667 51.38 39.3307 51.5971 39.3307H53.4996C53.8564 39.3307 53.7874 38.8646 53.6081 38.8646C53.4125 38.8646 53.0869 38.6152 53.3878 38.2623L53.9682 37.7092H55.1127C55.7902 37.7092 56.2654 38.4954 55.8609 38.7366L55.5468 38.9106C55.4005 38.9861 55.3347 39.3307 55.5468 39.3307H59.2631C59.5377 39.3307 59.4818 38.968 59.3535 38.968C58.9737 38.968 59.1529 38.4215 59.2253 38.2754L60.202 36.4307L61.5734 39.0813C61.6622 39.2503 61.7428 39.3307 61.9039 39.3307H62.4285C62.5962 39.3307 62.6505 39.2355 62.7294 39.1075L64.2899 36.2928C64.5415 35.7906 64.7339 35.6446 65.0496 35.6446C65.1778 35.6446 65.2666 35.3163 64.9526 35.3163ZM43.3179 37.6485C42.9035 38.474 42.2096 38.9631 41.7689 38.7432C41.3266 38.5216 41.3052 37.6731 41.7179 36.8492C42.1323 36.0237 42.8262 35.5346 43.2686 35.7545C43.7093 35.9744 43.7323 36.823 43.3179 37.6485ZM42.9479 35.1391C41.6423 35.1391 40.2956 35.7824 40.0275 37.1512C39.794 38.3411 40.6179 39.5769 42.0781 39.5769C43.4659 39.5769 44.7485 38.6693 45.0067 37.3547C45.2648 36.0352 44.2799 35.1391 42.9479 35.1391ZM69.3698 37.1356H67.6909C67.3768 37.1356 67.4689 37.4622 67.5972 37.4622C67.7304 37.4622 67.8537 37.5328 67.8537 37.7429C67.8537 38.4207 67.5643 38.6816 66.9822 38.6816C66.3425 38.6816 66.1123 37.9086 66.5431 36.96C66.8177 36.3527 67.5445 35.7865 68.4078 35.7865C68.9357 35.7865 69.3796 35.8998 69.4471 36.3954C69.4635 36.5152 69.646 36.5152 69.7102 36.402L70.1081 35.688C70.1525 35.6125 70.0834 35.5223 69.9618 35.5157C69.8598 35.5092 69.6296 35.6388 69.4783 35.5288C69.1429 35.2777 68.4111 35.0381 67.8603 35.0381C66.9592 35.0381 65.7012 35.2416 64.8511 36.7122C64.0832 38.0448 65.2013 39.453 66.2389 39.4546C66.8161 39.4563 67.4853 39.0296 67.8685 38.8704L68.296 39.1576C68.3602 39.2347 68.495 39.3299 68.6233 39.3299H68.7828C68.9308 39.3299 68.9883 39.1313 69.0459 39.0033L69.7036 37.4113C69.7875 37.2521 69.7414 37.1356 69.3698 37.1356H69.3698ZM92.3635 35.4238C92.25 35.4845 91.9837 35.5206 91.8685 35.4238C91.5709 35.176 90.9855 34.9856 90.6797 34.9856C89.8016 34.9856 89.1619 35.1596 88.7804 35.9884C88.4532 36.6925 88.7887 37.285 89.5648 37.6427C89.9003 37.797 90.3475 38.0005 90.1749 38.4043C90.0499 38.6997 89.7062 38.7309 89.3954 38.7276C88.9794 38.7243 88.3546 38.4108 88.2559 37.8249C88.2247 37.6329 88.001 37.6756 87.9369 37.7806L87.4041 38.8343C87.3219 38.9754 87.5406 39.133 87.6277 39.0394C87.807 38.849 88.1983 38.8031 88.3891 38.9311C88.6538 39.1051 89.3329 39.4153 89.7391 39.412C90.6303 39.4054 91.2174 39.1756 91.7058 38.4125C92.1514 37.7182 91.8768 37.0273 91.0645 36.6432C90.6336 36.4414 90.2669 36.0836 90.4593 35.6913C90.5843 35.4353 90.9674 35.4895 91.1582 35.5239C91.5199 35.5846 91.9853 35.926 92.0396 36.2247C92.0626 36.3527 92.2254 36.3774 92.2961 36.2641L92.5773 35.6109C92.6398 35.4845 92.4342 35.3861 92.3635 35.4238H92.3635ZM80.6925 37.9434C80.1285 38.6738 79.3787 38.8592 78.5384 38.8592H78.3L79.7832 35.9296C79.8539 35.7951 80.0101 35.6917 80.2025 35.6917C80.3883 35.6917 80.3653 35.3207 80.1219 35.3207H77.7869C77.588 35.3207 77.5173 35.6917 77.7031 35.6917C77.902 35.6917 77.9382 35.9116 77.8428 36.0954L76.5158 38.7099C76.4254 38.851 76.279 38.8871 76.1163 38.9281C75.9189 38.979 75.7841 39.3319 76.0077 39.3319H79.7371C80.0265 39.3319 80.0923 39.2252 80.1696 39.1235L80.9194 37.9647C81.028 37.8236 80.801 37.8023 80.6925 37.9434ZM86.3177 35.6529C86.839 35.6529 87.2879 36.0206 87.4342 36.4227C87.4704 36.5179 87.7483 36.5933 87.8058 36.4735L88.1314 35.8761C88.2712 35.6152 88.0393 35.3165 87.6677 35.3165H83.3118C82.9977 35.3165 83.0915 35.6414 83.2181 35.6414C83.4976 35.6414 83.5815 35.9828 83.4121 36.27L82.1032 38.676C81.9075 38.9042 81.7809 39.0043 81.5014 39.0043C81.2777 39.0043 81.1972 39.3309 81.5129 39.3309H85.9247C86.1056 39.3309 86.1829 39.2669 86.2486 39.1766L86.8472 38.3806C86.9952 38.1919 86.6778 38.1919 86.5824 38.2854C85.8194 39.047 85.0038 39.0256 84.4119 39.0256H83.8972L84.5023 37.6765H84.6306C85.0186 37.6765 85.4659 37.6733 85.5827 37.967C85.6155 38.0376 85.8063 38.0951 85.8836 37.967L86.3999 36.938C86.4821 36.7854 86.2486 36.7607 86.1878 36.8691C85.9839 37.2334 85.0894 37.1349 84.8542 37.1349H84.726L85.4774 35.6529H86.3177L86.3177 35.6529Z" fill="#542582"/>
<path d="M52.6339 25.2816C50.5784 25.1355 48.8995 25.0765 47.4311 25.2307C47.857 24.1607 48.7071 23.1611 49.3632 22.7229C50.7626 22.7804 52.2096 22.9839 53.3541 23.2104C57.021 23.9325 62.7187 26.1613 65.1737 29.4503C61.9015 27.2691 56.4636 25.5541 52.6339 25.2816ZM46.479 25.3587C45.2425 25.4342 43.0028 25.92 42.2037 26.1515C41.9981 25.6131 41.4325 23.9506 41.2516 23.4139C43.5258 22.7705 46.1699 22.5457 48.204 22.7229C47.6383 23.1579 46.6846 24.8713 46.479 25.3587ZM36.1261 28.4016C35.8729 27.9749 34.6676 26.8785 34.0148 26.6619C35.5342 25.5376 39.063 23.926 40.4015 23.6453C40.6333 24.0277 41.2516 25.6657 41.4572 26.355C40.2732 26.611 37.1308 27.7369 36.1262 28.4016H36.1261ZM69.1662 32.1354C68.8308 31.7513 68.3671 30.934 65.0455 28.0438C60.1617 23.7947 53.6895 21.8547 47.612 21.8547C43.1311 21.8547 39.2093 22.8575 34.8649 25.2471C29.3284 28.2867 27.0361 31.7825 26.4705 32.4931C26.0528 33.0167 25.9936 33.3219 26.2633 33.4779C26.4573 33.5895 26.829 33.1825 27.1776 32.7229C28.8236 30.5532 30.9892 28.4016 33.2683 27.1362C33.977 27.2379 34.9685 28.2227 35.3533 28.7462C33.8948 29.5406 31.4792 31.3755 30.5649 32.0845C29.774 32.695 29.501 33.038 29.7148 33.2858C29.8907 33.4926 30.4959 33.0856 31.0023 32.672C31.8771 31.9565 34.4785 30.115 35.766 29.424C36.6425 30.4482 36.358 32.3389 36.0489 32.7492C35.8828 32.9691 35.8598 33.2038 36.0489 33.3121C36.2297 33.4139 36.4254 33.1546 36.6803 32.7869C37.2772 31.9269 37.0388 29.8426 36.5257 29.0925C38.0961 28.1193 40.3505 27.4677 41.7153 27.1608C41.8304 27.3791 43.4846 32.2043 43.8004 33.0807C43.973 33.5616 44.144 34.136 44.4959 34.0277C44.7294 33.9555 44.5749 33.4303 44.3792 32.9018C44.1391 32.2486 42.8861 28.1964 42.4997 26.995C42.9519 26.7521 45.67 26.2007 46.3508 26.227C46.0153 27.9929 47.2667 28.7167 48.6808 29.6423C49.4323 30.1347 54.2108 32.8739 55.2089 33.491C55.7779 33.8422 56.2202 34.0687 56.3419 33.8997C56.4816 33.7109 56.0936 33.3121 55.569 33.0052C55.1497 32.7607 50.705 30.1856 48.8469 29.0154C47.5183 28.1767 46.803 27.279 47.122 26.0989C47.561 25.9726 48.8995 25.9611 50.2906 25.9726C59.7671 26.0481 67.364 31.4707 68.2141 32.3389C68.6433 32.7804 69.2435 33.1578 69.4754 32.9789C69.6217 32.8657 69.3685 32.3668 69.1662 32.1353V32.1354ZM71.2164 64.5155C71.5667 63.8721 71.8511 63.5062 71.5519 63.3404C71.2773 63.1878 71.0092 63.7852 70.6754 64.3629C69.5688 66.2798 68.3602 67.8636 65.6289 70.3484C62.6033 73.0974 59.1254 74.6944 57.9168 75.1047C56.8858 72.2145 52.9591 59.9053 52.8555 59.5541C52.7009 59.0305 52.5694 58.8779 52.3918 58.9419C52.1928 59.0125 52.3145 59.2981 52.4181 59.7592C52.5201 60.2188 57.195 74.7846 57.3495 75.295C56.4221 75.7579 52.6549 76.8066 50.0223 76.8936C47.6807 76.9707 44.9248 76.8936 43.5336 76.5752C41.9041 75.2606 38.1961 70.0349 36.7885 67.2531C35.1293 63.9739 34.0309 60.9573 33.7481 59.6805C33.6116 59.0683 33.4373 58.6268 33.1298 58.6843C32.7977 58.7483 32.9884 59.2324 33.1824 59.8889C33.6807 61.5728 34.4946 63.9608 36.2212 67.3679C38.0514 70.9753 41.3187 75.2064 42.2708 76.3569C39.2863 75.7316 35.6572 74.3366 32.209 71.7713C29.2393 69.5606 26.6872 66.7459 25.4046 64.696C25.1843 64.3432 24.9261 63.8442 24.6071 64.056C24.4624 64.1512 24.64 64.55 24.8636 64.9521C26.7267 68.292 31.2717 73.022 37.096 75.6167C43.8839 78.6399 51.2851 78.479 57.9037 75.922C63.6918 73.685 68.7285 69.083 71.2164 64.5155Z" fill="#2D2925"/>
<mask id="mask3" mask-type="alpha" maskUnits="userSpaceOnUse" x="26" y="22" width="44" height="13">
<path d="M69.5188 33.4043C64.5919 26.7797 56.7616 22.4968 47.9428 22.4968C38.9635 22.4968 31.0073 26.9399 26.0994 33.775V34.041H69.5188V33.4043H69.5188Z" fill="white"/>
</mask>
<g mask="url(#mask3)">
<path d="M52.6338 25.2816C50.5783 25.1355 48.8995 25.0764 47.431 25.2307C47.8569 24.1606 48.7071 23.1611 49.3632 22.7229C50.7625 22.7804 52.2096 22.9839 53.354 23.2104C57.0209 23.9325 62.7186 26.1613 65.1737 29.4503C61.9014 27.2691 56.4635 25.554 52.6338 25.2816ZM46.479 25.3587C45.2424 25.4342 43.0028 25.92 42.2036 26.1514C41.9981 25.6131 41.4324 23.9506 41.2516 23.4139C43.5257 22.7705 46.1698 22.5457 48.2039 22.7229C47.6382 23.1578 46.6845 24.8713 46.479 25.3587ZM36.1261 28.4015C35.8729 27.9748 34.6675 26.8785 34.0147 26.6619C35.5341 25.5376 39.0629 23.9259 40.4014 23.6453C40.6333 24.0277 41.2515 25.6656 41.4571 26.3549C40.2731 26.611 37.1308 27.7369 36.1261 28.4015ZM69.1661 32.1353C68.8307 31.7513 68.367 30.9339 65.0454 28.0438C60.1617 23.7946 53.6895 21.8547 47.6119 21.8547C43.1311 21.8547 39.2093 22.8575 34.8649 25.2471C29.3283 28.2867 27.0361 31.7825 26.4704 32.4931C26.0528 33.0167 25.9936 33.3219 26.2632 33.4779C26.4573 33.5895 26.8289 33.1825 27.1775 32.7229C28.8235 30.5532 30.9891 28.4016 33.2682 27.1362C33.9769 27.2379 34.9685 28.2227 35.3532 28.7462C33.8947 29.5406 31.4791 31.3755 30.5649 32.0845C29.7739 32.695 29.501 33.038 29.7147 33.2859C29.8907 33.4926 30.4958 33.0856 31.0023 32.672C31.8771 31.9565 34.4785 30.115 35.766 29.424C36.6424 30.4482 36.3579 32.3388 36.0488 32.7492C35.8827 32.9691 35.8597 33.2038 36.0488 33.3121C36.2297 33.4139 36.4254 33.1545 36.6802 32.7869C37.2771 31.9269 37.0387 29.8426 36.5257 29.0925C38.096 28.1193 40.3505 27.4677 41.7153 27.1608C41.8304 27.3791 43.4846 32.2043 43.8003 33.0807C43.973 33.5616 44.144 34.136 44.4959 34.0277C44.7294 33.9555 44.5748 33.4303 44.3791 32.9018C44.139 32.2486 42.886 28.1964 42.4996 26.995C42.9518 26.7521 45.6699 26.2007 46.3507 26.2269C46.0153 27.9929 47.2666 28.7167 48.6808 29.6423C49.4322 30.1347 54.2107 32.8739 55.2089 33.491C55.7778 33.8422 56.2201 34.0687 56.3418 33.8997C56.4816 33.7109 56.0935 33.3121 55.569 33.0052C55.1497 32.7607 50.705 30.1856 48.8468 29.0154C47.5182 28.1767 46.8029 27.279 47.1219 26.0989C47.561 25.9726 48.8995 25.9611 50.2906 25.9726C59.767 26.0481 67.3639 31.4707 68.2141 32.3389C68.6433 32.7803 69.2434 33.1578 69.4753 32.9789C69.6217 32.8657 69.3684 32.3667 69.1662 32.1353" fill="#2D2925"/>
</g>
<mask id="mask4" mask-type="alpha" maskUnits="userSpaceOnUse" x="24" y="58" width="48" height="20">
<path d="M24.5547 63.5202C29.2215 71.7008 37.9484 77.2052 47.9428 77.2052C58.1911 77.2052 67.1044 71.4215 71.6776 62.9002V58.6792H24.5547V63.5202Z" fill="white"/>
</mask>
<g mask="url(#mask4)">
<path d="M71.2164 64.5155C71.5667 63.8721 71.8511 63.5061 71.5519 63.3404C71.2773 63.1877 71.0092 63.7851 70.6754 64.3628C69.5688 66.2798 68.3602 67.8636 65.6289 70.3484C62.6033 73.0974 59.1254 74.6943 57.9168 75.1046C56.8858 72.2144 52.9591 59.9053 52.8555 59.5541C52.7009 59.0305 52.5694 58.8779 52.3918 58.9419C52.1928 59.0125 52.3145 59.298 52.4181 59.7592C52.5201 60.2187 57.195 74.7846 57.3495 75.295C56.4221 75.7578 52.6549 76.8066 50.0223 76.8936C47.6807 76.9707 44.9248 76.8936 43.5337 76.5752C41.9041 75.2606 38.1961 70.0349 36.7885 67.253C35.1293 63.9739 34.0309 60.9573 33.7481 59.6804C33.6116 59.0683 33.4373 58.6268 33.1298 58.6842C32.7976 58.7482 32.9884 59.2324 33.1824 59.8889C33.6807 61.5728 34.4946 63.9607 36.2212 67.3679C38.0514 70.9753 41.3187 75.2064 42.2708 76.3569C39.2863 75.7316 35.6572 74.3365 32.209 71.7713C29.2393 69.5606 26.6872 66.7459 25.4046 64.696C25.1843 64.3431 24.9261 63.8442 24.6071 64.0559C24.4624 64.1511 24.64 64.5499 24.8636 64.952C26.7267 68.2919 31.2717 73.0219 37.096 75.6167C43.8839 78.6398 51.2852 78.479 57.9037 75.922C63.6918 73.685 68.7285 69.083 71.2164 64.5155" fill="#2D2925"/>
</g>
</svg>
