<svg width="100" height="100" viewBox="0 0 100 100" fill="none" xmlns="http://www.w3.org/2000/svg">
<path d="M11.5383 50C11.5383 28.7582 28.7581 11.5385 49.9999 11.5385C71.2416 11.5385 88.4614 28.7583 88.4614 50C88.4614 71.2417 71.2416 88.4615 49.9999 88.4615C28.7581 88.4615 11.5383 71.2417 11.5383 50Z" fill="white"/>
<path d="M76.4332 70.317C72.2432 64.8829 69.8633 58.423 69.5384 51.6027H83.3178C82.992 58.4285 80.6161 64.89 76.4332 70.317H76.4332ZM51.6027 83.317V73.762H48.3971V83.317C39.7173 82.9041 31.6679 79.182 25.6906 72.8154C30.5752 66.7157 33.3311 59.3884 33.6686 51.6027V48.3971C33.3311 40.6113 30.5752 33.284 25.6906 27.1843C31.6679 20.8178 39.7173 17.0949 48.3971 16.6828V26.1522H51.6027V16.6828C60.2825 17.0949 68.3327 20.8178 74.3099 27.1844C69.4245 33.284 66.6694 40.6114 66.3319 48.3971V51.6027C66.6694 59.3884 69.4245 66.7157 74.3099 72.8154C68.3327 79.182 60.2825 82.9041 51.6027 83.317ZM23.5674 70.317C19.3837 64.89 17.0077 58.4285 16.6828 51.6027H30.4622C30.1372 58.423 27.7566 64.8837 23.5674 70.317H23.5674ZM23.5674 29.6828C27.7573 35.1168 30.1372 41.5776 30.4622 48.3971H16.6828C17.0077 41.5713 19.3837 35.1106 23.5674 29.6828H23.5674ZM76.4332 29.6828C80.6161 35.1098 82.992 41.5705 83.3178 48.3971H69.5383C69.8633 41.5776 72.2432 35.1168 76.4332 29.6828H76.4332ZM49.9999 13.4324C29.8366 13.4324 13.4324 29.8366 13.4324 49.9999C13.4324 70.1639 29.8366 86.5674 49.9999 86.5674C70.1639 86.5674 86.5674 70.1639 86.5674 49.9999C86.5674 29.8366 70.1639 13.4324 49.9999 13.4324Z" fill="#061922"/>
<path d="M42.176 34.746V65.2538H58.4758V61.0592H46.5386V34.746H42.176Z" fill="#C8102E"/>
<path d="M64.0168 44.9669V32.3963C64.0168 30.5125 63.2585 29.744 61.399 29.744H39.2122C37.3771 29.744 36.6274 30.5125 36.6274 32.3963V67.7275C36.6274 69.6106 37.3771 70.379 39.2122 70.379H61.399C63.2585 70.379 64.0168 69.6106 64.0168 67.7275V55.1427H59.6204V66.5211H40.9909V33.6019H59.6204V44.9669H64.0168Z" fill="#1D428A"/>
<mask id="mask0" mask-type="alpha" maskUnits="userSpaceOnUse" x="11" y="11" width="78" height="78">
<path d="M11.5383 88.4615H88.4614V11.5385H11.5383V88.4615Z" fill="white"/>
</mask>
<g mask="url(#mask0)">
<path d="M52.0923 47.865H54.2171V38.9404H52.0923V47.865ZM58.4683 59.8792L58.4754 34.7457H47.8843L47.7815 59.8792H52.0225L52.0908 52.044H54.247L54.2164 59.8792H58.4683H58.4683Z" fill="#C8102E"/>
</g>
</svg>
