<svg width="100" height="100" viewBox="0 0 100 100" fill="none" xmlns="http://www.w3.org/2000/svg">
<path d="M84.7392 29.1585C85.7284 27.2916 86.2 25.42 86.2 23.63C86.2 19.5508 83.9246 15.9008 80.7269 13.7246C76.28 10.6977 69.5976 10.28 64.8746 15.9285C57.9792 14.9862 52.1976 16.8831 50 17.7862C47.8023 16.8831 42.02 14.9862 35.1254 15.9285C30.4023 10.28 23.72 10.6977 19.273 13.7247C16.0746 15.9008 13.8 19.5508 13.8 23.63C13.8 25.42 14.2715 27.2916 15.2607 29.1585C11.6969 34.3023 9.23071 40.4023 9.23071 46.6147C9.23071 54.097 12.4253 57.9485 13.63 59.6054C13.63 59.6054 14.1476 59.0877 14.5946 58.6416C17.9776 67.2531 23.7715 71.887 30.7646 76.1108C30.7646 76.1108 30.9192 75.2593 31.0576 74.497C38.5869 81.0224 42.1746 79.4177 50 88.2693C57.7969 79.4508 61.4792 80.9662 68.9423 74.497C69.0404 75.0348 69.1381 75.5728 69.2353 76.1108C72.3484 74.2308 81.1315 69.52 85.4061 58.6416C85.8515 59.0877 86.3692 59.6054 86.3692 59.6054C87.1076 58.5908 90.7692 54.5054 90.7692 46.6147C90.7692 40.4039 88.3038 34.3031 84.7392 29.1585Z" fill="#707271"/>
<path d="M82.585 29.2648C89.7673 18.241 73.4796 6.7625 65.5881 17.8671C57.6166 16.4548 50.9012 19.3602 50.0004 19.7794C49.1004 19.3602 42.3835 16.4548 34.4119 17.8671C26.5204 6.7625 10.2335 18.241 17.415 29.2648C9.23193 40.5017 10.0565 51.5817 13.8512 56.794L15.4204 55.224C15.4204 55.224 17.6504 66.0548 29.4366 73.1686L29.8612 70.8325C37.1166 78.5825 43.745 78.4079 50.0004 85.4856C56.255 78.4079 62.8843 78.5825 70.1389 70.8325L70.5635 73.1687C82.3496 66.0548 84.5804 55.224 84.5804 55.224L86.1496 56.794C89.955 51.5663 90.775 40.511 82.585 29.2648" fill="#12173F"/>
<path d="M50.0729 70.4848C50.0729 70.4848 44.4137 70.5702 43.5775 71.0933C43.5775 71.0933 42.6052 72.7763 50.0729 72.7448C57.176 72.7125 56.1283 71.4179 56.1798 71.2263C56.1798 71.2263 53.776 70.4848 50.0729 70.4848ZM45.1665 63.9088C45.1665 63.9088 46.0488 61.3527 46.9911 62.1611C48.2995 63.2811 50.0003 65.5596 50.0003 65.8034V68.8473L47.9372 68.955C46.7526 68.9888 42.9303 69.9019 42.9303 69.9019C37.668 56.8711 40.5857 47.0103 41.9911 43.4919C36.7742 44.6227 35.9326 38.3611 35.9326 38.3611C36.4742 38.2503 37.2726 38.4873 38.1726 38.918C39.5672 39.585 41.2072 40.7173 42.5149 41.7326H42.5157C42.8743 42.0114 43.2277 42.2969 43.5757 42.5888C47.1226 45.5734 50.0003 44.968 50.0003 44.968V57.7219C50.0003 57.7219 39.6511 56.9203 45.1665 63.9088H45.1665ZM54.8656 63.911C61.4518 57.2287 50.7048 57.6187 50.0248 57.7233C51.1279 57.7857 59.4595 57.8318 54.8656 63.911Z" fill="#5D76A9"/>
<path d="M59.2419 43.6943C65.1696 59.6566 57.655 69.9273 57.6127 69.9842C62.2781 57.7689 59.2796 47.6097 57.2381 43.8366C56.1896 43.9412 54.9312 43.8804 54.9312 43.8804C54.9312 43.8804 56.5065 42.9073 57.5273 41.9797C57.5981 41.915 57.6781 41.8427 57.7665 41.7643C58.6142 41.012 60.2327 39.6881 62.1973 38.9227C62.915 38.6427 63.6804 38.4366 64.4704 38.3612C64.4704 38.3612 63.905 43.622 59.2419 43.6943Z" fill="#5D76A9"/>
<path d="M22.5612 28.1451C22.3473 26.1274 24.8966 24.1274 24.8966 24.1274C23.845 23.042 22.0104 23.9828 22.0104 23.9828C23.6758 20.7258 27.4058 22.3181 27.4058 22.3181C25.9919 20.5858 22.9973 20.6951 22.9973 20.6951C26.7027 17.0227 31.1758 22.6358 31.1758 22.6358C27.1927 23.5381 22.5612 28.1451 22.5612 28.1451ZM68.6265 23.0389C68.6265 23.0389 71.045 16.9927 78.455 18.4527C78.455 18.4527 71.6519 13.9758 66.9181 22.0689C66.9181 22.0689 60.1265 18.8827 49.9996 23.2612C49.9996 23.2612 40.4827 19.9166 33.2496 21.8104C33.2496 21.8104 29.0312 14.4912 23.0896 17.5058C17.1496 20.5189 20.2488 27.4927 21.2835 29.3004C21.2835 29.3004 11.4396 39.3289 15.1404 51.7297L17.1212 49.2589C17.1212 49.2589 19.9488 62.7627 27.245 67.0189L27.6827 63.6989C27.6827 63.6989 35.2996 72.8897 44.2565 76.7927C45.1088 77.192 49.8535 79.5504 49.9996 80.7143V74.2835C49.9996 74.2835 43.7865 74.8004 42.1473 71.9327C41.0335 69.982 33.8896 57.2381 37.4196 43.8912C37.4196 43.8912 33.9827 43.3774 33.335 37.5797C33.335 37.5797 30.7727 36.332 27.5873 36.5904C27.5873 36.5904 33.2842 34.802 38.6235 36.8697C43.9612 38.9358 45.3912 44.1974 49.0081 41.872L49.9996 27.0497L51.0912 41.872C54.7081 44.1974 56.1388 38.9358 61.4765 36.8697C66.8158 34.802 72.5142 36.5904 72.5142 36.5904C72.5142 36.5904 70.235 34.9835 66.5727 34.2512C63.5158 33.6397 59.0227 35.6043 59.0227 35.6043C59.0227 35.6043 59.6442 31.3989 61.6835 29.1574C63.435 27.2297 67.4012 26.8043 68.6265 23.0389Z" fill="#5D76A9"/>
<path d="M42.5144 41.7325C41.9421 41.554 40.9975 42.1448 40.4706 43.1702C38.7021 42.6594 38.0967 40.7494 38.1713 38.9186L38.1721 38.9178C39.5667 39.5848 41.2067 40.7171 42.5144 41.7324L42.5144 41.7325ZM59.8977 43.1706C59.3431 42.0914 58.3246 41.4898 57.7661 41.7645C58.6138 41.0122 60.2331 39.6883 62.1969 38.9229C62.2769 40.7537 61.6561 42.6629 59.8977 43.1706Z" fill="#FFBB22"/>
</svg>
