<svg width="100" height="100" viewBox="0 0 100 100" fill="none" xmlns="http://www.w3.org/2000/svg">
<path d="M23.5506 42.1863C23.5303 42.1749 23.5076 42.1636 23.485 42.1523C22.1004 41.3906 21.7045 40.7989 21.6751 40.6855C21.7814 39.4613 28.3583 36.1424 42.4918 35.265C41.666 36.3986 40.976 37.8608 40.7203 39.713L40.5665 40.8283C40.4827 41.4041 40.3741 42.0707 40.1389 42.6896C39.761 43.678 38.6705 44.7118 36.976 45.6888C31.0506 44.9158 26.2927 43.6734 23.5506 42.1863ZM69.3583 38.1306C69.7701 37.9809 70.0529 37.6092 70.0959 37.1852C74.0212 38.1555 76.9036 39.3797 77.9737 40.5608C78.1592 40.7671 78.2067 40.8873 78.2158 40.8895C78.1683 41.055 77.7294 41.6671 76.2814 42.4266C74.0846 43.585 70.709 44.5621 66.5189 45.274C67.1954 44.4306 67.666 43.2903 67.718 41.6853C67.761 40.2366 67.8606 39.7946 67.9126 39.6721C68.2158 39.0691 68.9579 38.2757 69.3583 38.1306ZM86.2723 35.0701C83.5054 32.0119 77.7678 29.4479 70.0235 27.7929C70.1457 27.7045 70.2904 27.6025 70.4601 27.4846C70.9918 27.1174 71.6524 26.6571 72.3131 26.0292C75.0122 23.4606 73.2746 19.7926 71.8221 18.0334L70.1343 15.9704C69.8108 15.5759 69.2633 15.4444 68.7995 15.653C68.3334 15.8616 68.0642 16.3558 68.1411 16.8613L68.5461 19.5001C68.6705 20.3117 68.6411 20.6722 67.8312 21.3546C67.7859 20.6949 67.6886 19.9876 67.5008 19.2122C67.0189 17.2127 66.0008 16.3308 65.8877 16.2356C65.5597 15.9726 65.1185 15.9024 64.7316 16.0679C64.5981 16.1223 64.4782 16.2039 64.3764 16.3014L64.3357 16.0679C63.9986 14.1046 64.4601 13.0165 64.4624 12.953C64.5755 12.885 64.6773 12.7988 64.7588 12.6968C65.1479 12.2207 65.9217 11.4363 65.9262 11.4295C66.1864 11.162 66.3018 10.7857 66.2316 10.423C66.1615 10.058 65.9194 9.74966 65.58 9.59776C65.3606 9.50256 64.7022 9.29626 63.3131 9.47308C60.6954 9.8358 58.0913 11.3661 58.1751 13.9663C58.209 15.084 58.5597 16.1155 58.8447 16.952C58.9601 17.2966 59.123 17.7772 59.1773 18.0696C59.0325 18.1331 58.7723 18.2215 58.3334 18.3009C54.2837 19.0377 51.1592 20.976 49.5325 23.7531C49.1479 24.4105 48.8515 25.1065 48.6456 25.8319C39.6411 25.9294 31.0868 27.1037 24.4646 29.1577C16.3945 31.6582 11.9352 35.2061 11.5642 39.4092C11.3674 41.6059 12.2361 44.8251 17.4239 47.8062C17.5167 47.9037 17.6253 47.9853 17.752 48.0443L19.8696 49.0576C19.9262 49.0871 19.9873 49.1098 20.0484 49.1256C21.666 49.8398 23.4782 50.4881 25.4624 51.0662C25.1592 51.302 24.8696 51.54 24.5936 51.7849C19.6004 55.895 16.7361 61.9684 16.7361 68.4475C16.7361 74.2149 18.9759 79.6376 23.0438 83.7114C27.1117 87.7875 32.5212 90.0319 38.2746 90.0319C48.4511 90.0319 57.3244 82.7956 59.3379 72.9521C61.0529 67.815 60.8538 62.3651 60.7791 60.318C60.6434 56.4958 62.3877 54.3081 63.5959 53.2562C70.0303 52.4151 75.6366 50.996 79.8425 49.1415C79.9036 49.1257 79.9647 49.103 80.0212 49.0735L80.6864 48.7561C80.6954 48.7516 80.7045 48.7493 80.7135 48.7448L82.1841 48.042C82.304 47.9853 82.4103 47.9015 82.4986 47.8062C86.0732 45.7319 88.0846 43.2178 88.3244 40.5223C88.4941 38.5998 87.804 36.7658 86.2723 35.0701" fill="#FEFEFE"/>
<path d="M20.5478 40.5853C20.7763 37.976 30.1609 34.5301 45.3283 33.9928C43.9211 35.0492 42.2514 36.8969 41.8396 39.8689L41.6858 40.9934C41.584 41.6871 41.4618 42.3944 41.1948 43.0949C40.6111 44.6297 38.964 45.8947 37.2016 46.8605C31.0953 46.0897 25.9912 44.802 23.0116 43.1833H23.007C21.3758 42.2969 20.4799 41.3516 20.5478 40.5854V40.5853ZM78.8125 39.8009C79.3917 40.4402 79.3532 40.8528 79.3419 40.9911C79.2785 41.7279 78.3555 42.6166 76.8125 43.4304H76.808C73.5636 45.1398 67.989 46.432 61.351 47.1121C61.6405 46.9239 61.9596 46.7584 62.3034 46.6179L62.412 46.5748C64.3193 45.7972 66.4822 44.9176 66.584 41.7574C66.5998 41.2564 66.627 39.7125 66.903 39.1616C67.2582 38.4543 68.1699 37.3571 68.9731 37.0669C68.9844 37.0601 67.6315 36.7971 67.6315 36.7971C67.5591 36.7903 67.4912 36.7858 67.4211 36.7858C67.8758 36.4548 68.1993 36.0603 68.4369 35.6455C73.8283 36.7699 77.455 38.3024 78.8125 39.8009ZM85.4347 35.8314C82.584 32.6825 76.2989 30.1275 68.2016 28.5814C68.2378 27.6497 68.8034 27.2552 69.8125 26.557C70.3396 26.192 70.9347 25.7771 71.5342 25.2081C74.1473 22.7212 71.0795 18.9125 70.9482 18.7516L69.2604 16.6886L69.6654 19.3274C69.9414 21.1342 69.2808 21.7735 67.3215 23.1451C67.0704 23.3174 66.8577 23.5101 66.6699 23.7141C66.7514 22.5081 66.8079 21.1637 66.403 19.4793C65.9957 17.7926 65.1699 17.1103 65.1699 17.1103L64.955 19.5564C64.9528 19.57 64.765 21.4652 62.2401 23.7572C62.4573 23.5124 62.6609 23.2585 62.8419 22.9932C64.0795 21.1887 63.722 19.1347 63.308 16.7589L63.222 16.2579C62.7966 13.78 63.4573 12.2339 63.8826 11.98C64.2966 11.4745 65.1202 10.6334 65.1202 10.6334C65.1202 10.6334 64.6835 10.4384 63.4686 10.5971C61.8894 10.8147 59.2356 11.7624 59.3057 13.9274C59.3351 14.8795 59.6428 15.7841 59.912 16.5821C60.2016 17.4345 60.4754 18.2438 60.2333 18.6587C60.0387 18.9874 59.4528 19.2481 58.5365 19.4159C54.8148 20.0937 51.9641 21.8393 50.5093 24.3285C50.0274 25.1514 49.7062 26.0333 49.5455 26.9583C40.3147 26.9854 31.5749 28.1394 24.7989 30.2409C17.2039 32.5963 13.0184 35.8019 12.6903 39.5108C12.5161 41.4627 13.3962 44.2783 18.2718 46.9852L18.2378 47.0215L19.6224 47.6834C19.6236 47.6847 19.6252 47.6855 19.627 47.6857L20.3555 48.0371L20.3668 48.0257C22.6134 49.0323 25.2491 49.9028 28.1858 50.6192C27.1405 51.2109 26.1767 51.891 25.3125 52.6618C20.5885 56.5475 17.8668 62.308 17.8668 68.4471C17.8668 73.9106 19.989 79.0477 23.8442 82.9107C27.6994 86.7737 32.8238 88.9002 38.2763 88.9002C47.9256 88.9002 56.3238 82.047 58.265 72.5935C59.9121 67.6536 59.722 62.3556 59.6496 60.3584C59.4867 55.8175 61.7107 53.3056 63.1247 52.1744C69.5727 51.356 75.2785 49.9414 79.5274 48.0439L79.5342 48.0507L80.222 47.7242L80.2265 47.7197L81.6971 47.0192L81.6564 46.9806C85.0749 45.0673 86.9844 42.8184 87.1971 40.4221C87.3374 38.8261 86.7446 37.2823 85.4347 35.8314" fill="#2D2925"/>
<path d="M18.6535 69.8944C19.1875 72.5854 20.7237 75.8091 23.7757 77.9605C24.6988 78.6089 25.7033 79.1348 26.7689 79.5406C26.1083 78.4139 25.3413 77.2781 24.5608 76.1219C23.0992 73.966 21.5902 71.733 20.6332 69.3344C19.6422 66.852 19.3707 64.2563 19.8029 61.647C19.0246 63.7666 18.5947 66.0563 18.5947 68.4481C18.5947 68.9355 18.6173 69.4183 18.6535 69.8944Z" fill="#8B2231"/>
<path d="M21.9418 68.8076C22.8445 71.0678 24.3106 73.2328 25.7269 75.3298C26.8241 76.9485 27.8943 78.5332 28.7088 80.1337C29.6047 80.3445 30.5346 80.4783 31.4825 80.5349C30.5029 79.1362 29.6522 77.5447 28.9237 75.7243C26.0911 68.6693 26.5006 59.9481 30.0119 54.9017C31.8287 52.2991 33.9983 50.5286 36.7925 49.0029C39.1952 47.6857 40.6997 47.2935 42.2291 46.3799C43.892 45.387 44.7812 43.7252 43.6884 39.9982C43.3671 38.9101 43.3106 38.0508 43.3762 37.3821C42.9961 38.1189 42.6997 38.9735 42.5617 39.9688L42.5708 39.9597C42.3988 41.0139 42.3264 42.1723 41.8784 43.3534C40.4078 47.2119 33.2879 49.3542 32.349 49.6399C29.6477 50.456 27.4825 51.7029 25.797 53.2082C20.9214 57.5541 20.0504 64.0741 21.9418 68.8076" fill="#8B2231"/>
<path d="M51.6392 33.9391C51.7116 34.1771 51.7704 34.4129 51.7999 34.6441C51.9854 35.993 51.5781 37.0812 49.9288 37.3464C48.2297 37.6207 47.6505 36.1404 47.5193 34.932C47.5057 34.5126 47.5374 34.1771 47.5713 33.9346C47.2863 33.9391 47.0035 33.9436 46.7207 33.9527C46.1754 34.2633 45.4672 34.7484 44.7862 35.4444C44.4469 36.1744 44.0374 37.1832 44.6664 39.55C45.775 43.7236 45.3043 46.2422 41.9605 47.6841C37.6958 49.5226 34.9718 50.6017 31.3157 55.2083C29.5759 57.4005 28.6256 61.0323 28.4695 64.689C28.3179 68.2369 29.0464 72.0274 30.293 75.1332C31.1279 77.2121 32.103 79.0189 33.2478 80.5537C34.3903 80.5106 35.5465 80.3633 36.7026 80.1094C35.4333 78.6177 34.7025 76.804 34.5713 74.7682C34.1347 68.0012 37.7727 65.1538 43.37 60.6583L45.8745 58.5522C55.87 50.0463 52.9537 41.3953 54.0532 34.0094C53.2636 33.9777 52.4582 33.955 51.6392 33.9391Z" fill="#8B2231"/>
<path d="M55.6436 34.0815C55.3382 35.5574 55.2002 37.0967 55.1029 38.6904C54.707 45.1242 54.8993 52.4082 46.7726 59.6423L44.3133 61.635C38.8744 66.0058 35.7635 68.7353 35.9785 74.6795C36.0486 76.6404 36.8744 78.3566 38.2522 79.7055C39.7726 79.2475 41.2771 78.6082 42.7228 77.783C49.7929 73.7636 54.2409 67.7537 55.94 60.0435C57.0169 55.1694 56.9943 51.2044 56.9762 48.0169C56.9672 46.4051 57.1753 43.2449 57.1753 43.2449C57.4015 41.2499 57.7228 38.4524 60.0328 34.7866C60.1074 34.6687 60.1889 34.5485 60.2658 34.4284C58.7929 34.2833 57.2522 34.1677 55.6436 34.0815Z" fill="#8B2231"/>
<path d="M58.0229 54.7648V54.7399C58.0229 54.7513 58.0207 54.7648 58.0207 54.7762C57.7989 55.9301 57.7424 57.2268 57.6021 58.519C57.5342 59.0132 57.4686 59.4916 57.3962 59.9563C57.3713 60.0878 57.3465 60.2193 57.317 60.3485C55.532 68.4667 50.9121 74.7872 43.4822 79.013C42.2062 79.7384 40.9098 80.3346 39.6089 80.7971C41.7876 82.2457 44.3283 82.6924 46.075 82.4294C52.7469 81.4251 55.998 77.0633 57.5637 72.3978C59.17 67.6098 58.9981 62.4999 58.9211 60.3848C58.6677 53.3185 64.1225 50.7114 64.1225 50.7114C59.8804 50.4802 58.489 52.3323 58.0229 54.7648" fill="#8B2231"/>
<path d="M53.5676 80.8294C50.8391 83.1146 47.8979 83.6156 46.5608 83.8219C43.9341 84.2254 40.8232 83.5997 38.0721 81.4256C38.0269 81.3894 37.9839 81.3508 37.9409 81.3145C36.7622 81.6297 35.5812 81.8405 34.4047 81.938C37.097 84.8352 40.6422 86.4811 45.3956 86.8053C45.416 86.8053 45.4386 86.8075 45.4567 86.8075H45.4613C48.6965 85.5357 51.5156 83.4319 53.6536 80.7546C53.6242 80.7818 53.597 80.8045 53.5676 80.8294ZM28.7384 85.696C28.7904 84.2066 28.3719 82.7421 27.6886 81.2776C26.0574 80.806 24.4579 80.1033 22.9194 79.167C22.0529 78.6388 21.2723 77.8317 20.5823 77.0813C20.58 77.0768 20.5755 77.0768 20.5732 77.0723C22.347 80.7199 25.209 83.7373 28.7384 85.6983V85.696ZM42.3443 87.7266C39.6837 87.11 37.4076 86.1646 35.4099 84.648C34.3895 83.8704 33.4597 82.9953 32.6135 82.0024C31.5366 81.9888 30.4665 81.8845 29.4076 81.685C29.9959 83.2062 30.2922 84.7568 30.1022 86.3845V86.3868C32.5932 87.5271 35.3579 88.1687 38.2764 88.1687C39.6814 88.1687 41.0524 88.0191 42.3737 87.7379C42.3624 87.7357 42.3533 87.7289 42.3443 87.7266L42.3443 87.7266ZM65.2092 39.2936C64.7499 40.8307 63.2409 40.6493 62.8042 39.8196C62.1096 38.5092 62.3721 37.4959 63.0961 36.8044C63.8178 36.113 65.0011 35.7434 66.1481 35.2243C66.1532 35.2209 66.1585 35.2179 66.1639 35.2152C64.8382 34.9885 63.4264 34.7845 61.9332 34.6077C61.9128 34.6326 61.8925 34.6553 61.8721 34.6779C61.7386 34.8298 61.6074 34.9795 61.4784 35.1359C59.1051 38.7132 58.8088 41.3634 58.5757 43.4015L58.5033 44.0294C58.3721 45.0995 58.3789 46.4483 58.3857 48.0081C58.3879 48.2212 58.3902 48.4433 58.3902 48.67C58.3721 49.2141 58.3518 49.7514 58.3269 50.2751C58.3404 50.2796 58.3495 50.2819 58.3608 50.2842C58.3789 50.0665 58.3879 49.9826 58.3857 50.0937C59.0576 47.9514 60.2907 46.6478 62.0282 45.9405C63.9106 45.1765 65.768 44.4715 65.854 41.7329C65.8925 40.5903 65.9762 39.4455 66.2363 38.8629C66.7115 37.8042 67.5621 37.5231 67.5621 37.5231C66.6481 37.4347 65.6504 37.8178 65.2092 39.2936Z" fill="#8B2231"/>
<path d="M67.4871 28.4472C67.6251 26.6154 69.3559 26.2731 71.0301 24.6771C73.1817 22.6323 70.3853 19.2158 70.3853 19.2158C70.7382 21.5123 69.6771 22.3897 67.736 23.7431C67.1206 24.1738 66.6726 24.7769 66.6115 25.5363C66.5436 26.3887 66.4871 27.3091 66.3016 28.2409C66.702 28.3066 67.0957 28.3769 67.4871 28.4472ZM61.5649 25.255C61.0468 25.6404 60.5626 26.0371 60.1102 26.4429C59.7889 26.7512 59.4744 27.0595 59.1848 27.3542C61.074 27.5175 62.9111 27.7306 64.6826 27.989C65.8138 25.926 66.3545 23.5842 65.6826 19.5987C65.6826 19.5987 65.5265 22.2988 61.5649 25.255ZM51.0047 26.9618C53.1654 26.9822 55.2853 27.0706 57.3531 27.2112C57.4233 27.1432 57.4866 27.0729 57.559 27.0049C58.9482 25.5132 61.093 24.2527 62.2423 22.5797C63.3893 20.9043 62.9278 18.8595 62.5025 16.3816C61.7717 12.1105 63.5681 11.3193 63.5681 11.3193C63.5681 11.3193 59.9663 11.8158 60.0341 13.9037C60.1269 16.7058 63.0093 19.3423 58.6676 20.1335C53.9029 21.0018 50.9414 23.5839 50.2898 26.9595C50.5274 26.9618 50.7649 26.9595 51.0047 26.9618Z" fill="#F9A11A"/>
<path d="M50.9924 28.0807C31.0332 27.8834 14.3816 33.0455 13.8024 39.6108C13.5716 42.2246 15.9268 44.6685 20.1055 46.6748C22.6893 47.9149 25.9675 48.9849 29.7617 49.8282C30.5196 49.4905 31.3137 49.1889 32.1508 48.935C32.8114 48.7355 34.0309 48.3343 35.3748 47.7494C29.7865 46.931 25.2617 45.6751 22.4789 44.1675C20.4246 43.0521 19.3182 41.8007 19.4359 40.4858C19.825 36.0787 33.7979 32.6396 50.6485 32.8051C67.4969 32.9729 80.8431 36.6795 80.4539 41.0889C80.3476 42.2881 79.2345 43.4171 77.3295 44.4214C73.8092 46.2736 67.592 47.6995 60.0399 48.3637C59.7797 48.7219 59.549 49.1187 59.3612 49.5698C62.7956 48.264 66.7526 50.1932 66.7526 50.1932C66.7526 50.1932 67.0173 50.2952 67.2028 50.4222C72.2141 49.5267 76.5196 48.2527 79.7458 46.7111C83.5626 44.8907 85.877 42.6984 86.0852 40.3226C86.6644 33.7596 70.954 28.2756 50.9924 28.0807Z" fill="#FEFEFE"/>
</svg>
