<svg width="100" height="100" viewBox="0 0 100 100" fill="none" xmlns="http://www.w3.org/2000/svg">
<mask id="mask0" mask-type="alpha" maskUnits="userSpaceOnUse" x="0" y="30" width="100" height="40">
<path d="M0.000732422 69.7483H99.8493V30.126H0.000732422V69.7483Z" fill="white"/>
</mask>
<g mask="url(#mask0)">
<path d="M98.4485 41.6972C85.3522 34.0553 66.319 30.2755 57.4525 30.126C55.3018 30.126 54.308 31.1407 53.8507 31.9952C53.6678 32.3401 53.5443 32.7002 53.4803 33.0726C52.991 32.7658 52.5886 32.5629 52.5642 32.5492L51.2442 31.8823L51.3601 32.6468C50.8297 32.3584 50.3297 32.0593 50.3251 32.0563L49.9364 31.8213L49.5462 32.0532C49.5462 32.0532 49.0295 32.3584 48.493 32.6484L48.6119 31.8778L47.2888 32.5492C47.2629 32.5629 46.8605 32.7658 46.3712 33.0726C46.3072 32.7002 46.1822 32.3386 45.9993 31.9937C45.5451 31.1407 44.5513 30.126 42.2725 30.126C33.531 30.2755 14.4993 34.0553 1.38779 41.7064L0.000732422 42.5639L0.232432 43.1575C0.284232 43.2887 1.40457 46.0721 4.11923 47.3874L4.28691 47.6621C4.35703 47.7735 5.78677 50.0593 8.13867 51.1061L8.30177 51.3701C8.37951 51.4953 10.0196 54.0955 13.2053 55.1941L13.5619 55.5802C13.6625 55.6886 15.7385 57.8981 19.0705 58.7176L19.0401 58.7404L19.9287 59.334C20.0308 59.4027 22.1556 60.8005 25.4282 61.4826L25.0242 61.8427L26.2223 62.2806C26.5149 62.389 33.2018 64.7908 39.2302 62.9459C41.1614 67.0416 45.3729 69.7486 49.9273 69.7486C54.4802 69.7486 58.6902 67.0416 60.6214 62.9459C66.6452 64.7908 73.3366 62.389 73.6293 62.2806L74.8258 61.8427L74.4234 61.4841C77.6944 60.8005 79.8192 59.4027 79.9213 59.334L80.81 58.7404L80.781 58.7176C84.1115 57.8981 86.1875 55.6886 86.2881 55.5802L86.6417 55.1957C89.8304 54.097 91.4705 51.4953 91.5467 51.3701L91.7098 51.1077C94.0633 50.0609 95.4945 47.7735 95.5631 47.6621L95.7323 47.3874C98.447 46.0721 99.5658 43.2888 99.6176 43.1575L99.8493 42.5639L98.4485 41.6972V41.6972Z" fill="#FEFEFE"/>
</g>
<path d="M98.908 42.879L98.0636 42.3556C85.077 34.7778 66.2221 31.0361 57.566 30.8896H57.4517C56.028 30.8896 55.0418 31.3825 54.5236 32.353C54.0861 33.1786 54.1364 34.0056 54.3498 34.706C54.2004 34.5351 53.984 34.3536 53.7477 34.1796C53.0451 33.6486 52.2189 33.2305 52.2189 33.2305C52.2189 33.2305 52.3271 33.9141 52.0757 33.8301C51.9583 33.7935 51.8135 33.731 51.6534 33.6577C50.9508 33.3205 49.9326 32.7101 49.9326 32.7101C49.9326 32.7101 48.8991 33.3205 48.198 33.6577C48.0379 33.731 47.8916 33.7935 47.7742 33.8301C47.5227 33.9141 47.6325 33.2305 47.6325 33.2305C47.6325 33.2305 46.8063 33.6486 46.1021 34.1796C45.8659 34.3536 45.6494 34.5351 45.5001 34.706C45.7135 34.0056 45.7653 33.1786 45.3263 32.353C44.8081 31.3825 43.8219 30.8896 42.3982 30.8896H42.2839C33.6278 31.0361 14.7729 34.7778 1.78783 42.3556L0.941895 42.879C0.941895 42.879 2.21615 46.1293 5.36371 47.054L4.93539 47.2615C4.93539 47.2615 6.71419 50.1501 9.47917 50.7498L8.95025 50.9696C8.95025 50.9696 10.8998 54.1237 14.6784 54.7905L14.1205 55.0606C14.1205 55.0606 16.8169 57.9782 20.9521 58.2392L20.3516 58.6985C20.3516 58.6985 23.0922 60.5265 27.133 60.9859L26.4836 61.5642C26.4836 61.5642 33.6491 64.1873 39.65 62.0006C41.3054 66.168 45.3736 68.9849 49.9234 68.9849H49.9265C54.4763 68.9849 58.5445 66.168 60.1999 62.0006C66.2008 64.1873 73.3663 61.5642 73.3663 61.5642L72.7169 60.9859C76.7577 60.5265 79.4983 58.6985 79.4983 58.6985L78.8977 58.2392C83.033 57.9782 85.7279 55.0606 85.7279 55.0606L85.1715 54.7905C88.9501 54.1237 90.8981 50.9696 90.8981 50.9696L90.3707 50.7498C93.1357 50.1501 94.9145 47.2615 94.9145 47.2615L94.4862 47.054C97.6337 46.1293 98.908 42.879 98.908 42.879Z" fill="#B49759"/>
<path d="M97.542 43.253C84.8389 35.8446 66.1761 32.0755 57.552 31.929C56.5124 31.9122 55.8052 32.1655 55.4424 32.843C54.8419 33.9722 55.6893 35.2327 56.0506 35.7759C56.8325 36.9417 57.8675 38.7668 57.8675 40.9611C57.8675 45.2169 54.4303 48.3649 50.1975 48.3649C50.106 48.3649 50.0161 48.3665 49.9262 48.3665C49.8347 48.3665 49.7448 48.3649 49.6533 48.3649C45.422 48.3649 41.9833 45.2169 41.9849 40.9611C41.9849 38.7668 43.0198 36.9417 43.8002 35.7759C44.1615 35.2327 45.0105 33.9722 44.4084 32.843C44.0472 32.1655 43.3399 31.9122 42.2989 31.929C33.6747 32.0755 15.0134 35.8446 2.30884 43.253C2.3195 43.2851 4.34524 46.7551 8.38904 46.459C7.76564 46.7627 7.14374 47.074 6.5249 47.3944C6.53556 47.4326 8.3799 50.4708 12.8337 50.0313C12.0914 50.3822 11.3537 50.7393 10.6175 51.1101C10.6266 51.1513 12.7545 54.1376 17.4461 54.0598C16.3654 54.6076 15.7115 54.9555 15.7161 54.954C15.7191 54.9769 18.8164 57.9769 23.8235 57.1514C23.2824 57.5466 22.7367 57.9662 22.0905 58.4179C22.092 58.4255 25.7685 60.4367 30.0943 59.8111C29.5344 60.2351 28.977 60.6624 28.4222 61.0929C28.4115 61.0364 35.0465 62.9118 39.7656 60.8319C43.8262 59.0405 46.082 54.6519 46.5972 53.5471C47.399 53.7241 48.0986 53.8263 48.6321 53.8889C48.6306 53.9469 49.4918 54.0216 49.9262 54.0033C50.3591 54.0216 51.2218 53.9468 51.2203 53.8889C51.7522 53.8263 52.4534 53.7241 53.2536 53.5471C53.7673 54.6519 56.0247 59.0405 60.0852 60.8319C64.8043 62.9118 71.4378 61.0364 71.4286 61.0929C70.8743 60.6616 70.317 60.2343 69.7566 59.8111C74.0824 60.4367 77.7588 58.4255 77.7588 58.4179C77.1156 57.9662 76.5684 57.5466 76.0273 57.1514C81.0344 57.9769 84.1317 54.9769 84.1347 54.954C84.1393 54.9555 83.4854 54.6076 82.4047 54.0598C87.0963 54.1376 89.2242 51.1513 89.2333 51.1101C88.4986 50.7393 87.7594 50.3822 87.0186 50.0313C91.4709 50.4708 93.3153 47.4326 93.3244 47.3944C92.7074 47.075 92.0865 46.7632 91.4618 46.459C95.5056 46.7551 97.5313 43.2851 97.542 43.253Z" fill="#002A5B"/>
<path d="M46.2698 51.306C46.2698 51.306 34.9172 47.5018 39.8497 35.398C39.8497 35.398 27.8478 35.897 11.3951 42.5425C11.3951 42.5425 10.2413 43.0232 9.56907 43.2643C8.89535 43.5054 7.81315 43.9357 6.26147 43.191C6.26147 43.191 21.3088 35.3156 40.6423 33.4891C43.1908 33.248 43.5277 33.634 42.854 34.5969C42.3022 35.3858 35.3989 44.1798 46.2698 51.306Z" fill="#FEFEFE"/>
<path d="M36.1844 38.8257C26.4566 40.0922 16.9438 43.4844 16.9438 43.4844C18.5641 46.3684 22.957 45.1584 22.957 45.1584C31.1986 42.8222 34.8766 42.0302 36.0563 41.8013C36.0106 40.8827 36.0487 39.8908 36.1844 38.8257V38.8257ZM36.2566 43.5674C34.6318 43.8818 27.8214 45.281 20.9517 47.8584C20.9517 47.8584 23.1176 50.3274 27.4145 49.1066C31.0285 48.0812 35.6622 46.601 37.0446 46.1569C36.6986 45.3772 36.4288 44.515 36.2566 43.5674ZM37.7659 47.5224C36.2981 47.9969 28.9588 50.3774 25.8601 51.5676C25.8601 51.5676 27.6373 53.9542 32.7695 51.9323C36.3438 50.5239 38.3131 49.7014 39.1819 49.3291C38.6652 48.7935 38.1866 48.1922 37.7659 47.5224ZM40.3151 50.367C39.0332 50.924 34.2699 53.0069 31.5156 54.336C31.5156 54.336 34.9817 56.042 39.3426 53.3441L42.0542 51.5633C41.4643 51.2185 40.8775 50.8217 40.3151 50.367ZM43.3731 52.2566C42.5013 52.8014 38.8888 55.0765 37.1253 56.3812C37.1253 56.3812 40.1189 57.6203 43.1902 54.724C44.1901 53.7825 44.7358 53.2484 45.0361 52.9433C44.5072 52.7525 43.9478 52.5267 43.3731 52.2566Z" fill="#B49759"/>
<path d="M53.5816 51.306C53.5816 51.306 64.9341 47.5018 60.0017 35.398C60.0017 35.398 72.0035 35.897 88.4547 42.5425C88.4547 42.5425 89.6085 43.0232 90.2823 43.2643C90.956 43.5054 92.0382 43.9357 93.5883 43.191C93.5883 43.191 78.541 35.3156 59.2091 33.4891C56.659 33.248 56.3237 33.634 56.9959 34.5969C57.5492 35.3858 64.4525 44.1798 53.5815 51.306" fill="#FEFEFE"/>
<path d="M63.6659 38.8257C73.3936 40.0922 82.9064 43.4844 82.9064 43.4844C81.2877 46.3684 76.8933 45.1584 76.8933 45.1584C68.6517 42.8222 64.9752 42.0302 63.7955 41.8013C63.8412 40.8827 63.8016 39.8908 63.6659 38.8257V38.8257ZM63.5944 43.5674C65.2177 43.8818 72.028 45.281 78.8993 47.8584C78.8993 47.8584 76.7319 50.3274 72.4365 49.1066C68.8226 48.0812 64.1889 46.601 62.8064 46.1569C63.1509 45.3772 63.4207 44.515 63.5944 43.5674ZM62.0851 47.5224C63.5514 47.9969 70.8922 50.3774 73.9894 51.5676C73.9894 51.5676 72.2137 53.9542 67.0816 51.9323C63.5072 50.5239 61.5379 49.7014 60.6691 49.3291C61.1858 48.7935 61.6644 48.1922 62.0851 47.5224H62.0851ZM59.536 50.367C60.8179 50.924 65.5811 53.0069 68.3354 54.336C68.3354 54.336 64.8693 56.042 60.5069 53.3441L57.7968 51.5633C58.3867 51.2185 58.972 50.8217 59.536 50.367ZM56.4779 52.2566C57.3497 52.8014 60.9622 55.0765 62.7257 56.3812C62.7257 56.3812 59.7306 57.6203 56.6577 54.724C55.6609 53.7825 55.1152 53.2484 54.8149 52.9433C55.3438 52.7525 55.9032 52.5267 56.4779 52.2566Z" fill="#B49759"/>
<path d="M59.2214 57.9132C59.2214 63.0557 55.0602 67.223 49.925 67.223C44.7898 67.223 40.6287 63.0557 40.6287 57.9132C40.6287 52.7738 44.7899 48.605 49.925 48.605C55.0602 48.605 59.2214 52.7738 59.2214 57.9132Z" fill="#FEFEFE"/>
<path d="M57.2983 59.8388C57.2983 63.9191 53.9967 67.2228 49.9255 67.2228C45.8527 67.2228 42.5527 63.9191 42.5527 59.8388C42.5527 55.763 45.8527 52.4578 49.9255 52.4578C53.9967 52.4578 57.2983 55.763 57.2983 59.8388Z" fill="#B49759"/>
<path d="M54.8184 64.9575C54.445 64.6645 53.9145 64.1457 53.82 63.5048C53.8109 63.4483 53.8063 63.3918 53.7987 63.3339C55.6888 62.5404 57.2846 61.1731 58.3638 59.4213C57.9568 61.7057 56.6475 63.6787 54.8184 64.9575H54.8184ZM41.4859 59.4137C42.565 61.1701 44.1609 62.5388 46.054 63.3339C46.0464 63.3919 46.0418 63.4483 46.0327 63.5063C45.9367 64.1487 45.4077 64.666 45.0343 64.9575C43.2022 63.6787 41.8913 61.7026 41.4859 59.4137ZM43.4613 52.2845C43.0787 54.404 43.9567 56.4015 44.7615 58.228C45.3209 59.5007 45.8574 60.7214 46.0296 61.9574C43.8164 60.8511 42.1352 58.8262 41.5087 56.2886C41.7999 54.7748 42.4888 53.4015 43.4613 52.2845ZM52.532 62.461C51.8949 62.6655 51.2288 62.7998 50.5444 62.8501V49.3547C51.9193 49.4539 53.2042 49.8766 54.3246 50.5495C56.0256 53.0093 55.0669 55.2052 53.9557 57.7275C53.2896 59.2413 52.6067 60.7977 52.532 62.461ZM50.5444 64.0907C51.2547 64.048 51.9437 63.9336 52.6067 63.752C52.7454 64.55 53.2378 65.1848 53.695 65.6197C52.7317 66.0958 51.6678 66.3934 50.5444 66.4742V64.0907ZM47.246 63.752C47.909 63.9336 48.598 64.048 49.3052 64.0907V66.4742C48.1834 66.3934 47.1195 66.0958 46.1561 65.6197C46.6149 65.1848 47.1073 64.55 47.246 63.752ZM45.5282 50.5495C46.647 49.8766 47.9334 49.4539 49.3052 49.3547V62.8501C48.6208 62.8028 47.9563 62.6731 47.3207 62.4763C47.2505 60.8069 46.5646 59.2474 45.8955 57.7275C44.7828 55.2051 43.8256 53.0093 45.5282 50.5495ZM58.344 56.2962C57.7251 58.7804 56.0256 60.8084 53.8261 61.9285C54.0029 60.7016 54.5349 59.49 55.0897 58.2281C55.8945 56.4 56.7725 54.4025 56.3884 52.2845C57.3639 53.4045 58.0529 54.7794 58.344 56.2962ZM49.9256 47.8806C44.4017 47.8806 39.9067 52.3822 39.9067 57.9137C39.9067 63.4453 44.4017 67.9453 49.9256 67.9453C55.451 67.9453 59.946 63.4453 59.946 57.9137C59.946 52.3822 55.451 47.8806 49.9256 47.8806H49.9256Z" fill="#002A5B"/>
<path d="M52.9019 34.8586C52.9019 34.8586 52.8272 35.1745 52.6352 35.1745C52.4431 35.1745 51.2405 34.5962 50.6628 34.2818C50.4159 34.1491 50.0699 33.9476 49.9494 33.8774C49.9494 33.8774 49.4342 34.149 49.1873 34.2818C48.6096 34.5962 47.4085 35.1745 47.215 35.1745C47.0229 35.1745 46.9482 34.8586 46.9482 34.8586C46.9482 34.8586 43.7915 36.7661 43.7915 42.0367C43.7915 45.9599 45.8309 47.7406 45.8309 47.7406L46.1083 48.85H53.7402L54.0176 47.7406C54.0176 47.7406 56.0586 45.9599 56.0586 42.0367C56.0586 36.7661 52.9019 34.8586 52.9019 34.8586Z" fill="#002A5B"/>
<path d="M54.4058 40.7046C54.4058 39.0765 53.7443 37.7489 53.031 36.9584C53.031 36.9584 53.0066 37.4254 52.2292 36.905C51.5586 36.4427 50.769 36.1726 49.9215 36.1726C49.0695 36.1726 48.2784 36.4442 47.6062 36.9081C46.8563 37.4193 46.8197 36.9585 46.8197 36.9585C46.1079 37.7489 45.4448 39.0765 45.4448 40.7047C45.4448 42.0582 45.7756 42.7235 45.8914 42.9142C46.5606 44.637 48.1122 45.8455 49.9215 45.8455C51.7079 45.8455 53.2444 44.6629 53.9272 42.9676C53.9669 42.9127 54.4058 42.2642 54.4058 40.7046Z" fill="#FEFEFE"/>
<path d="M51.6113 44.3837C51.6068 44.3745 51.5991 44.3654 51.5946 44.3562C51.5946 44.3562 51.151 43.523 51.8811 42.9462C51.8811 42.9462 53.5334 43.2911 53.573 41.0983C53.573 41.0983 53.5334 40.8648 53.7651 40.4055C53.7651 40.4055 53.3414 40.0195 52.4192 40.7138C51.4955 41.4035 50.9971 43.3674 50.4971 42.9066C50.0033 42.4488 50.1847 39.8928 49.9271 39.7952H49.9179C49.6634 39.8943 49.8447 42.4488 49.3494 42.9066C48.851 43.3674 48.3495 41.4035 47.4273 40.7138C46.5036 40.0195 46.0829 40.4055 46.0829 40.4055C46.3131 40.8648 46.2734 41.0983 46.2734 41.0983C46.3131 43.2911 47.9654 42.9462 47.9654 42.9462C48.697 43.523 48.255 44.3593 48.255 44.3593C48.2504 44.3684 48.2443 44.3776 48.2397 44.3852C46.2674 42.2641 45.1211 42.5525 45.6866 44.9284C46.243 47.2631 48.3769 57.2825 48.7153 59.6065C48.6696 61.697 48.4272 62.4432 48.3647 62.6034L48.1483 63.0353L48.3861 63.5098C48.7625 64.0576 49.0217 64.6696 49.1146 64.903L49.9286 66.9722L50.7349 64.9076C50.8309 64.6696 51.0916 64.0577 51.465 63.5098L51.7135 63.0582L51.4894 62.605C51.4254 62.4478 51.1907 61.7291 51.1373 59.7133C51.4178 57.6304 53.599 47.3028 54.1645 44.9284C54.7284 42.5525 53.5837 42.2641 51.6113 44.3837Z" fill="#002A5B"/>
<path d="M48.5879 54.83C47.8791 51.1021 47.3213 48.3432 46.8701 46.3427C46.5271 44.8153 47.4447 45.4256 47.9386 46.3809L48.5879 54.83ZM51.2628 54.83C51.9716 51.1021 52.5294 48.3432 52.9806 46.3427C53.3236 44.8153 52.406 45.4256 51.9121 46.3809L51.2628 54.83H51.2628ZM47.4679 42.2022C47.3292 42.1641 47.2454 42.0191 47.2865 41.8772C47.3017 41.8238 47.3353 41.7811 47.3764 41.746C47.2834 41.6422 47.1752 41.5369 47.0442 41.4438C47.0442 41.4438 46.814 42.5227 47.7758 42.4067C47.7758 42.4067 47.7423 42.3106 47.6706 42.1732C47.6112 42.2083 47.5395 42.2205 47.4679 42.2022V42.2022ZM52.8049 41.4438C52.6738 41.5369 52.5656 41.6422 52.4726 41.746C52.5153 41.7811 52.5488 41.8238 52.5656 41.8787C52.6037 42.0191 52.5198 42.1641 52.3811 42.2022C52.3095 42.2205 52.2379 42.2099 52.1799 42.1748C52.1083 42.309 52.0748 42.4067 52.0748 42.4067C53.0366 42.5227 52.8049 41.4438 52.8049 41.4438ZM50.3757 56.213C50.6805 50.4541 51.1393 46.3737 51.1393 45.864C51.1393 45.684 51.1195 45.449 51.0433 45.1926L50.7095 46.2882L50.6058 44.3518C50.4382 44.1351 50.2095 43.9184 49.9199 43.7109H49.9016C49.6136 43.9185 49.4108 44.1351 49.2416 44.3518L49.1426 46.2882L48.8057 45.1911C48.731 45.449 48.7097 45.684 48.7097 45.864C48.7097 46.3737 49.167 50.4541 49.4718 56.213C49.7782 61.9734 49.0648 63.0446 49.0648 63.0446C49.4779 63.6428 49.9245 64.7079 49.9245 64.7079C49.9245 64.7079 50.3711 63.6428 50.7842 63.0446C50.7842 63.0446 50.0708 61.9734 50.3757 56.213Z" fill="#E21836"/>
<path d="M97.542 43.253C84.8389 35.8446 66.1761 32.0755 57.552 31.929C56.5124 31.9122 55.8052 32.1655 55.4424 32.843C54.8419 33.9722 55.6893 35.2327 56.0506 35.7759C56.8325 36.9417 57.8675 38.7668 57.8675 40.9611C57.8675 45.2169 54.4303 48.3649 50.1975 48.3649C50.106 48.3649 50.0161 48.3665 49.9262 48.3665C49.8347 48.3665 49.7448 48.3649 49.6533 48.3649C45.422 48.3649 41.9833 45.2169 41.9849 40.9611C41.9849 38.7668 43.0198 36.9417 43.8002 35.7759C44.1615 35.2327 45.0105 33.9722 44.4084 32.843C44.0472 32.1655 43.3399 31.9122 42.2989 31.929C33.6747 32.0755 15.0134 35.8446 2.30884 43.253C2.3195 43.2851 4.34524 46.7551 8.38904 46.459C7.76564 46.7627 7.14374 47.074 6.5249 47.3944C6.53556 47.4326 8.3799 50.4708 12.8337 50.0313C12.0914 50.3822 11.3537 50.7393 10.6175 51.1101C10.6266 51.1513 12.7545 54.1376 17.4461 54.0598C16.3654 54.6076 15.7115 54.9555 15.7161 54.954C15.7191 54.9769 18.8164 57.9769 23.8235 57.1514C23.2824 57.5466 22.7367 57.9662 22.0905 58.4179C22.092 58.4255 25.7685 60.4367 30.0943 59.8111C29.5344 60.2351 28.977 60.6624 28.4222 61.0929C28.4115 61.0364 35.0465 62.9118 39.7656 60.8319C43.8262 59.0405 46.082 54.6519 46.5972 53.5471C47.399 53.7241 48.0986 53.8263 48.6321 53.8889C48.6306 53.9469 49.4918 54.0216 49.9262 54.0033C50.3591 54.0216 51.2218 53.9468 51.2203 53.8889C51.7522 53.8263 52.4534 53.7241 53.2536 53.5471C53.7673 54.6519 56.0247 59.0405 60.0852 60.8319C64.8043 62.9118 71.4378 61.0364 71.4286 61.0929C70.8743 60.6616 70.317 60.2343 69.7566 59.8111C74.0824 60.4367 77.7588 58.4255 77.7588 58.4179C77.1156 57.9662 76.5684 57.5466 76.0273 57.1514C81.0344 57.9769 84.1317 54.9769 84.1347 54.954C84.1393 54.9555 83.4854 54.6076 82.4047 54.0598C87.0963 54.1376 89.2242 51.1513 89.2333 51.1101C88.4986 50.7393 87.7594 50.3822 87.0186 50.0313C91.4709 50.4708 93.3153 47.4326 93.3244 47.3944C92.7074 47.075 92.0865 46.7632 91.4618 46.459C95.5056 46.7551 97.5313 43.2851 97.542 43.253Z" fill="#002A5B"/>
<path d="M46.2698 51.306C46.2698 51.306 34.9172 47.5018 39.8497 35.398C39.8497 35.398 27.8478 35.897 11.3951 42.5425C11.3951 42.5425 10.2413 43.0232 9.56907 43.2643C8.89535 43.5054 7.81315 43.9357 6.26147 43.191C6.26147 43.191 21.3088 35.3156 40.6423 33.4891C43.1908 33.248 43.5277 33.634 42.854 34.5969C42.3022 35.3858 35.3989 44.1798 46.2698 51.306Z" fill="#FEFEFE"/>
<path d="M36.1844 38.8257C26.4566 40.0922 16.9438 43.4844 16.9438 43.4844C18.5641 46.3684 22.957 45.1584 22.957 45.1584C31.1986 42.8222 34.8766 42.0302 36.0563 41.8013C36.0106 40.8827 36.0487 39.8908 36.1844 38.8257V38.8257ZM36.2566 43.5674C34.6318 43.8818 27.8214 45.281 20.9517 47.8584C20.9517 47.8584 23.1176 50.3274 27.4145 49.1066C31.0285 48.0812 35.6622 46.601 37.0446 46.1569C36.6986 45.3772 36.4288 44.515 36.2566 43.5674ZM37.7659 47.5224C36.2981 47.9969 28.9588 50.3774 25.8601 51.5676C25.8601 51.5676 27.6373 53.9542 32.7695 51.9323C36.3438 50.5239 38.3131 49.7014 39.1819 49.3291C38.6652 48.7935 38.1866 48.1922 37.7659 47.5224ZM40.3151 50.367C39.0332 50.924 34.2699 53.0069 31.5156 54.336C31.5156 54.336 34.9817 56.042 39.3426 53.3441L42.0542 51.5633C41.4643 51.2185 40.8775 50.8217 40.3151 50.367ZM43.3731 52.2566C42.5013 52.8014 38.8888 55.0765 37.1253 56.3812C37.1253 56.3812 40.1189 57.6203 43.1902 54.724C44.1901 53.7825 44.7358 53.2484 45.0361 52.9433C44.5072 52.7525 43.9478 52.5267 43.3731 52.2566Z" fill="#B49759"/>
<path d="M53.5816 51.306C53.5816 51.306 64.9341 47.5018 60.0017 35.398C60.0017 35.398 72.0035 35.897 88.4547 42.5425C88.4547 42.5425 89.6085 43.0232 90.2823 43.2643C90.956 43.5054 92.0382 43.9357 93.5883 43.191C93.5883 43.191 78.541 35.3156 59.2091 33.4891C56.659 33.248 56.3237 33.634 56.9959 34.5969C57.5492 35.3858 64.4525 44.1798 53.5815 51.306" fill="#FEFEFE"/>
<path d="M63.6659 38.8257C73.3936 40.0922 82.9064 43.4844 82.9064 43.4844C81.2877 46.3684 76.8933 45.1584 76.8933 45.1584C68.6517 42.8222 64.9752 42.0302 63.7955 41.8013C63.8412 40.8827 63.8016 39.8908 63.6659 38.8257V38.8257ZM63.5944 43.5674C65.2177 43.8818 72.028 45.281 78.8993 47.8584C78.8993 47.8584 76.7319 50.3274 72.4365 49.1066C68.8226 48.0812 64.1889 46.601 62.8064 46.1569C63.1509 45.3772 63.4207 44.515 63.5944 43.5674ZM62.0851 47.5224C63.5514 47.9969 70.8922 50.3774 73.9894 51.5676C73.9894 51.5676 72.2137 53.9542 67.0816 51.9323C63.5072 50.5239 61.5379 49.7014 60.6691 49.3291C61.1858 48.7935 61.6644 48.1922 62.0851 47.5224H62.0851ZM59.536 50.367C60.8179 50.924 65.5811 53.0069 68.3354 54.336C68.3354 54.336 64.8693 56.042 60.5069 53.3441L57.7968 51.5633C58.3867 51.2185 58.972 50.8217 59.536 50.367ZM56.4779 52.2566C57.3497 52.8014 60.9622 55.0765 62.7257 56.3812C62.7257 56.3812 59.7306 57.6203 56.6577 54.724C55.6609 53.7825 55.1152 53.2484 54.8149 52.9433C55.3438 52.7525 55.9032 52.5267 56.4779 52.2566Z" fill="#B49759"/>
<path d="M59.2214 57.9132C59.2214 63.0557 55.0602 67.223 49.925 67.223C44.7898 67.223 40.6287 63.0557 40.6287 57.9132C40.6287 52.7738 44.7899 48.605 49.925 48.605C55.0602 48.605 59.2214 52.7738 59.2214 57.9132Z" fill="#FEFEFE"/>
<path d="M57.2983 59.8388C57.2983 63.9191 53.9967 67.2228 49.9255 67.2228C45.8527 67.2228 42.5527 63.9191 42.5527 59.8388C42.5527 55.763 45.8527 52.4578 49.9255 52.4578C53.9967 52.4578 57.2983 55.763 57.2983 59.8388Z" fill="#B49759"/>
<path d="M54.8184 64.9575C54.445 64.6645 53.9145 64.1457 53.82 63.5048C53.8109 63.4483 53.8063 63.3918 53.7987 63.3339C55.6888 62.5404 57.2846 61.1731 58.3638 59.4213C57.9568 61.7057 56.6475 63.6787 54.8184 64.9575H54.8184ZM41.4859 59.4137C42.565 61.1701 44.1609 62.5388 46.054 63.3339C46.0464 63.3919 46.0418 63.4483 46.0327 63.5063C45.9367 64.1487 45.4077 64.666 45.0343 64.9575C43.2022 63.6787 41.8913 61.7026 41.4859 59.4137ZM43.4613 52.2845C43.0787 54.404 43.9567 56.4015 44.7615 58.228C45.3209 59.5007 45.8574 60.7214 46.0296 61.9574C43.8164 60.8511 42.1352 58.8262 41.5087 56.2886C41.7999 54.7748 42.4888 53.4015 43.4613 52.2845ZM52.532 62.461C51.8949 62.6655 51.2288 62.7998 50.5444 62.8501V49.3547C51.9193 49.4539 53.2042 49.8766 54.3246 50.5495C56.0256 53.0093 55.0669 55.2052 53.9557 57.7275C53.2896 59.2413 52.6067 60.7977 52.532 62.461ZM50.5444 64.0907C51.2547 64.048 51.9437 63.9336 52.6067 63.752C52.7454 64.55 53.2378 65.1848 53.695 65.6197C52.7317 66.0958 51.6678 66.3934 50.5444 66.4742V64.0907ZM47.246 63.752C47.909 63.9336 48.598 64.048 49.3052 64.0907V66.4742C48.1834 66.3934 47.1195 66.0958 46.1561 65.6197C46.6149 65.1848 47.1073 64.55 47.246 63.752ZM45.5282 50.5495C46.647 49.8766 47.9334 49.4539 49.3052 49.3547V62.8501C48.6208 62.8028 47.9563 62.6731 47.3207 62.4763C47.2505 60.8069 46.5646 59.2474 45.8955 57.7275C44.7828 55.2051 43.8256 53.0093 45.5282 50.5495ZM58.344 56.2962C57.7251 58.7804 56.0256 60.8084 53.8261 61.9285C54.0029 60.7016 54.5349 59.49 55.0897 58.2281C55.8945 56.4 56.7725 54.4025 56.3884 52.2845C57.3639 53.4045 58.0529 54.7794 58.344 56.2962ZM49.9256 47.8806C44.4017 47.8806 39.9067 52.3822 39.9067 57.9137C39.9067 63.4453 44.4017 67.9453 49.9256 67.9453C55.451 67.9453 59.946 63.4453 59.946 57.9137C59.946 52.3822 55.451 47.8806 49.9256 47.8806H49.9256Z" fill="#002A5B"/>
<path d="M52.9019 34.8586C52.9019 34.8586 52.8272 35.1745 52.6352 35.1745C52.4431 35.1745 51.2405 34.5962 50.6628 34.2818C50.4159 34.1491 50.0699 33.9476 49.9494 33.8774C49.9494 33.8774 49.4342 34.149 49.1873 34.2818C48.6096 34.5962 47.4085 35.1745 47.215 35.1745C47.0229 35.1745 46.9482 34.8586 46.9482 34.8586C46.9482 34.8586 43.7915 36.7661 43.7915 42.0367C43.7915 45.9599 45.8309 47.7406 45.8309 47.7406L46.1083 48.85H53.7402L54.0176 47.7406C54.0176 47.7406 56.0586 45.9599 56.0586 42.0367C56.0586 36.7661 52.9019 34.8586 52.9019 34.8586Z" fill="#002A5B"/>
<path d="M54.4058 40.7046C54.4058 39.0765 53.7443 37.7489 53.031 36.9584C53.031 36.9584 53.0066 37.4254 52.2292 36.905C51.5586 36.4427 50.769 36.1726 49.9215 36.1726C49.0695 36.1726 48.2784 36.4442 47.6062 36.9081C46.8563 37.4193 46.8197 36.9585 46.8197 36.9585C46.1079 37.7489 45.4448 39.0765 45.4448 40.7047C45.4448 42.0582 45.7756 42.7235 45.8914 42.9142C46.5606 44.637 48.1122 45.8455 49.9215 45.8455C51.7079 45.8455 53.2444 44.6629 53.9272 42.9676C53.9669 42.9127 54.4058 42.2642 54.4058 40.7046Z" fill="#FEFEFE"/>
<path d="M51.6113 44.3837C51.6068 44.3745 51.5991 44.3654 51.5946 44.3562C51.5946 44.3562 51.151 43.523 51.8811 42.9462C51.8811 42.9462 53.5334 43.2911 53.573 41.0983C53.573 41.0983 53.5334 40.8648 53.7651 40.4055C53.7651 40.4055 53.3414 40.0195 52.4192 40.7138C51.4955 41.4035 50.9971 43.3674 50.4971 42.9066C50.0033 42.4488 50.1847 39.8928 49.9271 39.7952H49.9179C49.6634 39.8943 49.8447 42.4488 49.3494 42.9066C48.851 43.3674 48.3495 41.4035 47.4273 40.7138C46.5036 40.0195 46.0829 40.4055 46.0829 40.4055C46.3131 40.8648 46.2734 41.0983 46.2734 41.0983C46.3131 43.2911 47.9654 42.9462 47.9654 42.9462C48.697 43.523 48.255 44.3593 48.255 44.3593C48.2504 44.3684 48.2443 44.3776 48.2397 44.3852C46.2674 42.2641 45.1211 42.5525 45.6866 44.9284C46.243 47.2631 48.3769 57.2825 48.7153 59.6065C48.6696 61.697 48.4272 62.4432 48.3647 62.6034L48.1483 63.0353L48.3861 63.5098C48.7625 64.0576 49.0217 64.6696 49.1146 64.903L49.9286 66.9722L50.7349 64.9076C50.8309 64.6696 51.0916 64.0577 51.465 63.5098L51.7135 63.0582L51.4894 62.605C51.4254 62.4478 51.1907 61.7291 51.1373 59.7133C51.4178 57.6304 53.599 47.3028 54.1645 44.9284C54.7284 42.5525 53.5837 42.2641 51.6113 44.3837Z" fill="#002A5B"/>
<path d="M48.5879 54.83C47.8791 51.1021 47.3213 48.3432 46.8701 46.3427C46.5271 44.8153 47.4447 45.4256 47.9386 46.3809L48.5879 54.83ZM51.2628 54.83C51.9716 51.1021 52.5294 48.3432 52.9806 46.3427C53.3236 44.8153 52.406 45.4256 51.9121 46.3809L51.2628 54.83H51.2628ZM47.4679 42.2022C47.3292 42.1641 47.2454 42.0191 47.2865 41.8772C47.3017 41.8238 47.3353 41.7811 47.3764 41.746C47.2834 41.6422 47.1752 41.5369 47.0442 41.4438C47.0442 41.4438 46.814 42.5227 47.7758 42.4067C47.7758 42.4067 47.7423 42.3106 47.6706 42.1732C47.6112 42.2083 47.5395 42.2205 47.4679 42.2022V42.2022ZM52.8049 41.4438C52.6738 41.5369 52.5656 41.6422 52.4726 41.746C52.5153 41.7811 52.5488 41.8238 52.5656 41.8787C52.6037 42.0191 52.5198 42.1641 52.3811 42.2022C52.3095 42.2205 52.2379 42.2099 52.1799 42.1748C52.1083 42.309 52.0748 42.4067 52.0748 42.4067C53.0366 42.5227 52.8049 41.4438 52.8049 41.4438ZM50.3757 56.213C50.6805 50.4541 51.1393 46.3737 51.1393 45.864C51.1393 45.684 51.1195 45.449 51.0433 45.1926L50.7095 46.2882L50.6058 44.3518C50.4382 44.1351 50.2095 43.9184 49.9199 43.7109H49.9016C49.6136 43.9185 49.4108 44.1351 49.2416 44.3518L49.1426 46.2882L48.8057 45.1911C48.731 45.449 48.7097 45.684 48.7097 45.864C48.7097 46.3737 49.167 50.4541 49.4718 56.213C49.7782 61.9734 49.0648 63.0446 49.0648 63.0446C49.4779 63.6428 49.9245 64.7079 49.9245 64.7079C49.9245 64.7079 50.3711 63.6428 50.7842 63.0446C50.7842 63.0446 50.0708 61.9734 50.3757 56.213Z" fill="#E21836"/>
</svg>
