<svg width="108" height="100" viewBox="0 0 108 100" fill="none" xmlns="http://www.w3.org/2000/svg">
<g filter="url(#filter0_d)">
<mask id="mask0" mask-type="alpha" maskUnits="userSpaceOnUse" x="4" y="20" width="100" height="59">
<path d="M103.992 78.8556H4V20.208H103.992V78.8556Z" fill="white"/>
</mask>
<g mask="url(#mask0)">
<path d="M57.7112 34.136V34.138L57.7092 34.1401L57.7112 34.136ZM60.8243 48.9721V48.97H60.8264C60.8243 48.97 60.8243 48.9721 60.8243 48.9721ZM103.97 38.1094C103.966 38.0907 103.972 38.072 103.968 38.0533C103.955 38.0055 103.926 37.9681 103.91 37.9224C103.885 37.858 103.864 37.7936 103.829 37.7354C103.796 37.6834 103.754 37.6418 103.713 37.5961C103.667 37.5483 103.628 37.4985 103.574 37.4569C103.518 37.4174 103.458 37.3904 103.396 37.3613C103.344 37.3364 103.294 37.3073 103.238 37.2906C103.168 37.2719 103.095 37.2698 103.02 37.2657C102.971 37.2615 102.925 37.2428 102.873 37.247C96.8524 37.7312 90.6615 38.6581 84.4437 39.9653C84.8075 38.9867 85.153 38.0015 85.48 37.0101C91.3683 35.944 97.2938 34.9839 103.103 34.1588C103.149 34.1526 103.184 34.1276 103.228 34.1152C103.29 34.0985 103.35 34.0819 103.406 34.0549C103.466 34.0237 103.518 33.9863 103.572 33.9468C103.621 33.9094 103.667 33.8741 103.709 33.8305C103.754 33.7806 103.789 33.7266 103.825 33.6684C103.856 33.6164 103.889 33.5665 103.912 33.5084C103.937 33.446 103.947 33.3795 103.959 33.3109C103.968 33.2652 103.99 33.2257 103.993 33.1779C103.993 33.1592 103.984 33.1405 103.984 33.1218C103.984 33.1031 103.993 33.0844 103.99 33.0636C103.988 33.0117 103.963 32.9659 103.953 32.9161C103.941 32.8537 103.93 32.7914 103.908 32.7332C103.881 32.6708 103.841 32.6168 103.804 32.5607C103.771 32.5087 103.742 32.4589 103.698 32.4152C103.653 32.3653 103.595 32.33 103.539 32.2905C103.489 32.2552 103.445 32.2178 103.389 32.1929C103.323 32.1617 103.253 32.1492 103.182 32.1347C103.132 32.1222 103.089 32.0973 103.037 32.0931C97.8721 31.6899 92.4958 31.5923 87.0407 31.7731C87.1878 31.2203 87.3329 30.6612 87.4739 30.0939C87.5899 29.6263 87.3702 29.14 86.9433 28.9197C74.9595 22.7309 65.4151 20.208 54.0033 20.208C42.5895 20.208 33.0452 22.7309 21.0551 28.9197C20.6282 29.14 20.4085 29.6263 20.5225 30.0939L21.2479 33.0241C22.3381 37.4195 23.8573 41.6195 25.733 45.5805C18.168 48.8266 11.0134 52.5674 4.48052 56.732C4.03492 57.0168 3.87326 57.5924 4.10538 58.0683C4.2857 58.432 4.65256 58.6481 5.03598 58.6481C5.15412 58.6481 5.27434 58.6273 5.3904 58.5858C11.6248 56.3144 18.1183 54.1364 24.6905 52.0686C23.4863 54.6206 22.3008 57.1851 21.1609 59.76L20.9764 60.1714C20.3463 61.5597 19.482 63.4633 20.0955 65.0614C20.3857 65.8179 20.9536 66.3831 21.936 66.7967C22.0562 66.8279 22.1744 66.8549 22.2946 66.8757C17.7017 70.0927 13.3762 73.4947 9.3781 77.038C8.98222 77.3892 8.91384 77.9835 9.2185 78.4158C9.41954 78.7005 9.73872 78.8564 10.0662 78.8564C10.2419 78.8566 10.4146 78.8115 10.5678 78.7254C19.6437 73.6879 29.2357 68.7917 39.0827 64.1678C43.2424 68.2078 48.0633 71.882 53.4707 75.1302C53.7982 75.3256 54.2065 75.3256 54.536 75.1302C67.2825 67.4679 75.9357 58.3468 81.6705 46.5053C88.9101 43.8868 96.1726 41.4574 103.261 39.2774C103.306 39.2628 103.34 39.2317 103.383 39.213C103.439 39.188 103.491 39.1631 103.541 39.1298C103.599 39.0883 103.646 39.0405 103.696 38.9906C103.735 38.947 103.775 38.9075 103.808 38.8576C103.847 38.7994 103.872 38.7391 103.899 38.6747C103.922 38.6207 103.947 38.5667 103.959 38.5064C103.974 38.4378 103.974 38.3692 103.976 38.2986C103.976 38.2529 103.993 38.2092 103.986 38.1635C103.984 38.1448 103.972 38.1282 103.97 38.1095V38.1094Z" fill="#FEFEFE"/>
</g>
<path d="M102.957 38.2842C95.7421 40.5016 88.3947 42.9622 80.9499 45.6617C81.6132 44.2714 82.2349 42.8375 82.8236 41.3599L102.957 38.2842ZM82.824 41.3599C89.705 39.8262 96.4493 38.8058 102.957 38.2842L82.824 41.3599ZM10.0652 77.8164C15.8208 72.7145 22.3101 67.8598 29.4212 63.3917C30.7581 62.7122 32.097 62.0388 33.4421 61.3717C33.9955 61.0974 35.0794 60.5696 36.4432 59.9129C37.3593 60.9457 38.3086 61.9474 39.291 62.9241C29.0793 67.6998 19.309 72.6854 10.0652 77.8164Z" fill="#0070B9"/>
<path d="M102.957 33.1296C96.9771 33.9795 90.8857 34.9667 84.7031 36.0951C85.0451 35.0353 85.3663 33.9525 85.6772 32.8511" fill="#EF5133"/>
<path d="M85.678 32.8504C91.6264 32.5989 97.4069 32.6966 102.957 33.1289L85.678 32.8504Z" fill="#ED2A37"/>
<path d="M5.03613 57.609C11.7161 53.3508 19.1153 49.473 27.1052 46.1042C27.3705 46.6404 27.6462 47.1745 27.9239 47.7003C27.497 48.5814 27.0679 49.4605 26.6451 50.3458C19.2169 52.6443 12.0063 55.0695 5.03613 57.609Z" fill="#EF5133"/>
<path d="M54.0015 23.3159C65.2619 23.3159 74.0933 25.9573 84.0625 30.9408C79.1857 49.3743 70.259 61.7561 54.0035 71.8165C47.8956 68.028 42.7037 63.8051 38.3657 58.9921C40.2953 58.0735 42.4716 57.0386 44.3825 56.1325C45.1556 56.2032 45.8976 56.2406 46.5878 56.2593C46.5442 57.3212 46.2106 58.1005 45.6758 58.6596C45.9867 59.0149 46.3038 59.3724 46.6209 59.7215C47.4645 58.965 48.0054 57.8512 48.0489 56.2634C50.0262 56.2323 51.9351 56.0286 53.7072 55.6524C53.6077 58.5557 53.2035 60.6941 52.3786 61.542C52.3496 61.569 52.3351 61.5898 52.3206 61.6189C52.1154 61.835 51.9309 62.0179 51.7713 62.1571C52.5693 62.0117 53.3507 61.8267 54.1237 61.6085C55.1186 59.5449 55.131 55.9309 55.1455 55.3033C56.9922 54.8378 58.6337 54.3702 60.1115 53.8631C60.1695 55.561 60.8452 57.182 62.1385 57.7805C62.7209 57.369 63.2847 56.9305 63.8298 56.4775C63.5023 56.5274 61.4587 56.6687 61.4877 53.3706C65.8132 51.7351 68.6299 49.7649 71.1087 46.8202C71.7637 45.3384 72.2922 43.784 72.6653 42.1734C69.7015 46.8638 66.9698 49.6008 61.6369 51.7475C61.7882 50.802 62.0618 49.6714 62.5033 48.3165C64.0577 47.6639 65.6806 46.8846 66.6589 46.4814L68.9905 44.025C69.5771 41.7556 70.1595 39.4842 70.7419 37.2148L68.918 37.7842L71.0611 35.5252C71.5129 33.7484 71.9544 31.9674 72.3958 30.1906C71.3222 30.3485 70.2465 30.5085 69.1709 30.6768C69.3512 29.7874 69.4797 28.9083 69.5481 28.0292C69.0299 27.8983 68.5118 27.7715 67.9895 27.6552C67.8796 28.6423 67.6869 29.7375 67.3947 30.9574L67.2475 30.9803C66.2402 31.1507 65.208 31.4832 64.3106 32.2417L64.5987 31.3668C62.8701 31.6806 61.1478 31.9986 59.4255 32.3332L57.7094 34.1412L57.7653 33.9957L58.3208 32.5472C56.6171 32.8984 54.9176 33.258 53.216 33.6299C52.8615 31.3252 52.505 29.2429 52.1962 27.5575C51.7133 27.6136 51.2304 27.6822 50.7516 27.7508C51.0625 29.4549 51.4252 31.5892 51.7879 33.9458L50.5817 34.2181L49.05 35.837C47.9764 34.6981 45.7981 35.4172 44.424 35.7642C42.9358 36.1404 41.4498 36.5311 39.9637 36.9322C39.5202 37.0548 39.0787 37.1899 38.6455 37.3395C37.5325 35.731 36.4859 34.0705 35.6216 32.2833L35.4662 31.9529C35.0163 32.1357 34.5692 32.3256 34.1252 32.5223L34.3159 32.9171C35.1573 34.6649 36.1709 36.2983 37.2631 37.884C35.661 38.5989 34.1812 39.5902 32.8982 41.0075C32.8982 41.0075 30.8152 43.1937 30.5707 43.4618C30.0297 44.0853 29.5634 44.7482 29.1509 45.4236C26.9643 41.0096 25.2296 36.2069 23.928 30.9429C33.8993 25.9594 42.7348 23.3139 54.0015 23.3159H54.0015ZM55.102 51.2197C56.1383 50.7625 57.1746 50.3094 58.2068 49.8543L58.6918 49.3493C58.8949 49.3826 59.1291 49.3888 59.3923 49.3639C59.7965 49.2953 60.2898 49.1561 60.8245 48.969C60.4763 50.2429 60.2649 51.3443 60.1695 52.3024C58.6959 52.824 57.042 53.3166 55.1621 53.7925C55.1601 52.9695 55.1393 52.1091 55.102 51.2197V51.2197ZM47.9308 54.4596L48.9029 54.0065L51.3983 51.9948L51.9537 50.457C52.3144 51.1885 52.5092 51.4753 52.8677 52.213L53.6885 51.8514C53.7175 52.6432 53.73 53.4142 53.73 54.1499C51.9289 54.5635 49.9827 54.7858 47.9743 54.817L47.9308 54.4596Z" fill="#FEFEFE"/>
<path d="M60.0676 27.0886C62.4469 27.0886 64.7952 27.2133 67.1103 27.4627C68.872 27.8326 70.6171 28.2815 72.3478 28.8052C73.0068 31.1224 73.3633 33.5705 73.3633 36.0975C73.3633 38.1903 73.1229 40.2207 72.6649 42.1721C69.701 46.8625 66.9693 49.6016 61.6365 51.7483C61.7878 50.8028 62.0635 49.6701 62.5029 48.3172C64.0573 47.6626 65.6802 46.8854 66.6564 46.4801L68.9901 44.0237C69.5767 41.7543 70.1591 39.4829 70.7415 37.2135L68.9176 37.7829L71.0627 35.524C71.5125 33.7471 71.956 31.9682 72.3954 30.1914C71.3218 30.3472 70.2461 30.5072 69.1704 30.6756C69.3508 29.7882 69.4793 28.907 69.5477 28.028C69.0299 27.8966 68.5103 27.7726 67.9891 27.656C67.8813 28.641 67.6865 29.7383 67.3942 30.9582L67.2471 30.9811C66.2377 31.1515 65.2076 31.484 64.3102 32.2404L64.5983 31.3655C62.8697 31.6793 61.1474 31.9994 59.4251 32.3319L57.7089 34.1399L57.767 33.9944L58.3204 32.548C56.6188 32.8971 54.9171 33.2587 53.2155 33.6307C52.8611 31.326 52.5067 29.2437 52.1958 27.5583C54.7762 27.2445 57.4001 27.0886 60.0676 27.0886ZM71.1083 46.8189C69.4482 50.5804 66.9403 53.8785 63.8314 56.4762C63.5019 56.526 61.4562 56.6674 61.4873 53.3693C65.8149 51.7338 68.6295 49.7637 71.1083 46.8189ZM62.1381 57.7792C59.7277 59.4812 57.0291 60.7884 54.1254 61.6072C55.1182 59.5436 55.1306 55.9296 55.1472 55.3041C56.9918 54.8386 58.6333 54.3689 60.1111 53.8639C60.1691 55.5597 60.8448 57.1807 62.1381 57.7792ZM51.773 62.1579C50.9585 62.3096 50.1336 62.4218 49.2983 62.4967C48.3779 61.5984 47.4849 60.6725 46.6205 59.7202C47.462 58.9638 48.005 57.8499 48.0485 56.2642C50.0258 56.231 51.9347 56.0294 53.7067 55.6512C53.6073 58.5544 53.2031 60.6928 52.3803 61.5407C52.3492 61.5677 52.3347 61.5906 52.3222 61.6176C52.1129 61.8358 51.9305 62.0166 51.773 62.1579ZM45.6775 58.6583C45.037 57.9226 44.4132 57.1703 43.8059 56.4055L44.3821 56.1312C45.1552 56.2039 45.8972 56.2414 46.5873 56.258C46.5459 57.3199 46.2101 58.1013 45.6775 58.6583ZM34.2284 39.7385C33.4222 37.6873 32.7092 35.5863 32.0999 33.4395C32.7693 33.1216 33.4471 32.8161 34.1269 32.521L34.3155 32.9179C35.157 34.6657 36.1705 36.297 37.2627 37.8827C36.1891 38.3607 35.1694 38.9654 34.2284 39.7385V39.7385ZM35.4658 31.9516C40.4317 29.9129 45.5096 28.508 50.7533 27.7516C51.0621 29.4557 51.4248 31.5879 51.7875 33.9466L50.5813 34.2168L49.0496 35.8378C47.9739 34.6989 45.7956 35.418 44.4235 35.763C42.9354 36.1433 41.4473 36.5298 39.9633 36.9309C39.5198 37.0535 39.0783 37.1886 38.6451 37.3382C37.5321 35.7297 36.4855 34.0692 35.6212 32.282L35.4658 31.9516ZM55.1037 51.2184C56.1379 50.7612 57.1742 50.3081 58.2064 49.8551L58.6914 49.3501C58.8945 49.3813 59.1287 49.3917 59.3919 49.3626C59.794 49.294 60.2873 49.1548 60.8261 48.9698C60.4759 50.2416 60.2665 51.3431 60.1691 52.3011C58.6955 52.8248 57.0416 53.3153 55.1617 53.7933C55.1596 52.9682 55.1389 52.1099 55.1037 51.2184ZM47.9304 54.4583L48.9024 54.0073L51.3979 51.9935L51.9533 50.4557C52.314 51.1893 52.5109 51.474 52.8674 52.2138L53.6881 51.8501C53.7171 52.644 53.7296 53.415 53.7296 54.1528C51.9285 54.5622 49.9823 54.7845 47.9739 54.8157L47.9304 54.4583L47.9304 54.4583Z" fill="#EF5133"/>
<path d="M54.4885 68.7498C49.7029 65.4995 45.4375 61.6736 41.7503 57.38L43.8063 56.4054C44.4136 57.1701 45.0375 57.9204 45.6779 58.6581C45.9889 59.0158 46.3032 59.3704 46.6209 59.7221C49.3526 62.7293 52.3766 65.4829 55.672 67.9559C55.2799 68.2241 54.8854 68.4887 54.4885 68.7498V68.7498ZM31.9407 42.016C30.5417 38.9465 29.3644 35.7545 28.4255 32.4522C36.7698 28.5037 45.4105 26.3735 54.5818 26.1262C58.87 26.1636 63.038 26.6125 67.1128 27.4625C64.7956 27.2152 62.4473 27.0884 60.068 27.0884C57.3985 27.0884 54.7766 27.2464 52.1962 27.5581C51.7133 27.6142 51.2325 27.6807 50.7537 27.7514C45.5079 28.5078 40.4321 29.9127 35.4662 31.9514C35.0164 32.1363 34.5708 32.3254 34.1252 32.5229C33.4475 32.8159 32.7697 33.1214 32.1003 33.4394C32.7096 35.5861 33.4205 37.6872 34.2288 39.7383C33.7666 40.1166 33.321 40.5405 32.9003 41.006L31.9407 42.016H31.9407Z" fill="#FCB424"/>
<path d="M21.5288 29.8438C32.3147 24.2763 41.7761 21.2463 54.0024 21.2463C66.2225 21.2463 75.686 24.2763 86.4677 29.8438C81.4582 50.0811 71.8932 63.4833 54.0024 74.2379C47.2499 70.1813 41.3492 65.4285 36.4433 59.913C35.0795 60.5697 33.9956 61.0955 33.4401 61.3698C31.7509 62.2135 30.0618 63.0614 28.3809 63.9197C26.4845 64.8902 24.3787 66.3574 22.1941 65.7901C19.8065 64.751 21.3796 61.8353 22.1092 60.179C23.9662 55.9832 25.9041 51.8226 27.9249 47.6995C25.4979 43.1317 23.589 38.1648 22.2522 32.774L21.5288 29.8438ZM54.0024 23.3162C42.7337 23.3141 33.9002 25.9597 23.9268 30.9431C25.2305 36.203 26.9632 41.014 29.1519 45.4239C29.5623 44.7485 30.0286 44.0856 30.5716 43.46C30.8141 43.194 32.8991 41.0078 32.8991 41.0078C34.18 39.5884 35.662 38.5971 37.262 37.8843C36.1697 36.2986 35.1583 34.6652 34.3147 32.9174L34.1262 32.5226C34.5718 32.3251 35.0173 32.136 35.4671 31.9511L35.6226 32.2836C36.4868 34.0687 37.5314 35.7292 38.6465 37.3398C39.0797 37.1902 39.5191 37.0551 39.9647 36.9325C41.4487 36.5293 42.9347 36.1407 44.4249 35.7625C45.797 35.4175 47.9753 34.6984 49.0489 35.8373L50.5826 34.2184L51.7868 33.9461C51.4262 31.5895 51.0614 29.4552 50.7526 27.7511C51.2313 27.6825 51.7142 27.6139 52.1951 27.5578C52.506 29.2432 52.8604 31.3255 53.2148 33.6302C54.9164 33.2582 56.618 32.8987 58.3217 32.5475L57.7663 33.9939L57.7082 34.1394L59.4244 32.3314C61.1467 31.9989 62.8711 31.6788 64.5976 31.365L64.3095 32.242C65.2069 31.4835 66.2391 31.151 67.2463 30.9806L67.3956 30.9577C67.6857 29.7378 67.8806 28.6426 67.9884 27.6555C68.5107 27.7718 69.0309 27.8986 69.549 28.0275C69.4785 28.9065 69.3501 29.7877 69.1697 30.6751C70.2454 30.5088 71.3232 30.3488 72.3947 30.1909C71.9553 31.9677 71.5118 33.7466 71.062 35.5255L68.9169 37.7824L70.7408 37.213C70.1604 39.4845 69.576 41.7538 68.9915 44.0253L66.6577 46.4796C65.6815 46.8849 64.0566 47.6642 62.5022 48.3167C62.0628 49.6696 61.7871 50.8023 61.6358 51.7478C66.9686 49.6011 69.7003 46.862 72.6642 42.1716C72.2911 43.7842 71.7626 45.3387 71.1076 46.8205C68.6288 49.7652 65.8142 51.7354 61.4887 53.3709C61.4576 56.669 63.5032 56.5256 63.8307 56.4757C63.2856 56.9308 62.7198 57.3693 62.1374 57.7787C60.8441 57.1823 60.1684 55.5613 60.1104 53.8634C58.6326 54.3705 56.9932 54.8381 55.1465 55.3036C55.1299 55.9291 55.1175 59.5452 54.1247 61.6088C53.3494 61.8276 52.5644 62.0107 51.7723 62.1574C51.9298 62.0182 52.1143 61.8353 52.3215 61.6171C52.334 61.5901 52.3485 61.5693 52.3796 61.5423C53.2024 60.6944 53.6066 58.5559 53.706 55.6527C51.934 56.0289 50.0251 56.2305 48.0499 56.2637C48.0064 57.8494 47.4633 58.9653 46.6219 59.7197C46.3027 59.3748 45.9877 59.0152 45.6768 58.6578C46.2115 58.1008 46.5452 57.3215 46.5866 56.2575C45.8965 56.2409 45.1565 56.2034 44.3814 56.1307C42.4705 57.0368 40.2963 58.0759 38.3646 58.9924C42.7026 63.8054 47.8965 68.0283 54.0024 71.8148C70.2579 61.7564 79.1846 49.3725 84.0635 30.9411C74.0922 25.9576 65.2629 23.3162 54.0024 23.3162ZM55.103 51.2179C55.1403 52.1094 55.1589 52.9698 55.161 53.7928C57.0429 53.3148 58.6948 52.8243 60.1684 52.3006C60.2658 51.3426 60.4752 50.2411 60.8254 48.9693C60.2886 49.1584 59.7954 49.2956 59.3933 49.3621C59.13 49.3891 58.8958 49.3808 58.6907 49.3475L58.2077 49.8546C57.1735 50.3076 56.1372 50.7607 55.103 51.2179ZM47.9297 54.4599L47.9732 54.8173C49.9816 54.7882 51.9277 54.5638 53.7309 54.1502C53.7309 53.4145 53.7185 52.6435 53.6874 51.8497L52.8666 52.2133C52.5101 51.4756 52.3132 51.1888 51.9547 50.4573L51.3972 51.9951L48.9017 54.0089L47.9297 54.4599Z" fill="#081E3F"/>
<path d="M40.1518 37.7809C37.6149 38.4729 35.3516 39.5598 33.5402 41.5694C32.4997 42.7643 31.7577 44.1339 31.0655 45.5346C29.0385 49.6681 27.0944 53.8369 25.2332 58.0431C24.7482 59.1404 23.2559 61.8088 24.8435 62.4988C26.6011 62.956 28.798 61.4763 30.3484 60.6845C32.0334 59.8262 33.7205 58.9742 35.4138 58.1325C38.2968 56.6986 40.8814 54.9591 42.6348 52.164C43.3332 50.9836 43.8535 49.718 44.3654 48.4544C45.466 45.7382 46.5872 43.022 47.7292 40.3162C48.1583 39.3021 48.9065 38.024 48.6681 36.9163C48.1873 35.4304 45.6836 36.3386 44.5934 36.6108C43.1135 36.9891 41.6316 37.3777 40.1518 37.7809H40.1518ZM36.9455 53.3007C35.6045 53.9013 34.2697 54.504 32.9329 55.1212C34.8708 50.6157 36.8812 46.1414 38.9808 41.7024C40.1539 41.3283 41.3311 40.9646 42.5146 40.601C40.5933 44.8072 38.7404 49.0425 36.9455 53.3007ZM59.8892 33.1257C58.0322 35.5593 56.1979 38.0115 54.3864 40.4804C55.2321 38.2214 56.0901 35.9645 56.9544 33.7159C55.029 34.1108 53.1097 34.5327 51.1926 34.9691C50.6972 36.1329 50.1998 37.2946 49.7107 38.4604C50.1252 38.344 50.5418 38.2298 50.9542 38.1154C49.4433 41.7772 47.9738 45.4514 46.5313 49.1319C45.9412 50.629 45.3526 52.1267 44.7654 53.6249C46.6909 52.7147 48.6163 51.8107 50.548 50.9212C51.4226 48.5001 52.3035 46.0811 53.1968 43.6684C54.0155 45.3143 54.83 46.9644 55.6383 48.6186C56.8798 48.0596 58.1275 47.5109 59.3773 46.9664C58.6166 45.2291 57.8456 43.4959 57.0684 41.7627C58.4508 39.6595 59.8436 37.5647 61.2509 35.4782C61.6463 35.3828 62.0422 35.2892 62.4385 35.1977L63.3277 32.4794C62.1815 32.6893 61.0333 32.9013 59.8892 33.1257V33.1257ZM67.3423 31.8477C66.3081 32.0201 65.3733 32.3527 64.6023 33.1299C63.9702 33.8157 63.6344 34.6283 63.3525 35.4969C62.5297 38.0905 61.7007 40.6862 60.8737 43.2818C60.5504 44.3084 60.0219 46.1767 61.6613 46.0375C62.2209 45.946 62.7473 45.7154 63.2717 45.4888C64.9298 44.7802 66.592 44.0798 68.2584 43.3899C68.6833 41.7627 69.1061 40.1313 69.5227 38.4978C68.646 38.7722 67.7734 39.0527 66.8988 39.3333C66.6915 40.0689 66.4884 40.8067 66.2832 41.5403C65.6759 41.7647 65.0687 41.985 64.4614 42.2115C65.2303 39.5785 65.9993 36.9475 66.762 34.3124C67.3008 34.196 67.8377 34.0817 68.3786 33.9695C68.2501 34.4308 68.1257 34.8922 67.9972 35.3556C68.7828 35.1665 69.5703 34.9795 70.3559 34.8008C70.6546 33.6137 70.9524 32.4263 71.2492 31.2388C69.9476 31.432 68.6439 31.6336 67.3423 31.8477Z" fill="#FEFEFE"/>
<path d="M74.3418 29.4411C75.1315 29.7008 75.8693 29.9648 76.6072 30.2412C78.4559 30.9311 80.0912 31.6335 81.4426 32.284C77.2683 46.6505 68.7188 58.6977 56.6542 67.2723L55.6697 67.956C52.138 65.3042 50.053 63.2219 50.053 63.2219L51.7152 62.9476C56.7599 62.1038 61.6222 59.8116 65.6431 56.0522C72.4951 49.641 75.2765 40.4907 73.8651 31.8684C73.8299 31.673 73.7905 31.4777 73.7594 31.2823L73.7428 31.1971L73.7262 31.1057L73.7055 31.0101L73.6869 30.9207L73.6703 30.821L73.6496 30.7274L73.6268 30.6235L73.604 30.5259L73.5832 30.4323L73.5687 30.3534L73.5397 30.2432L73.519 30.1393L73.4983 30.0624L73.4837 29.9855L73.4651 29.9107C73.3884 29.6011 73.32 29.3371 73.2454 29.0815C73.6112 29.2005 73.9766 29.3203 74.3418 29.4411ZM74.4745 29.6094C75.2123 29.8629 75.9729 30.131 76.6984 30.4033C75.9605 30.1206 75.2185 29.8588 74.4745 29.6094Z" fill="#0070B9"/>
</g>
<defs>
<filter id="filter0_d" x="0" y="0" width="108" height="108" filterUnits="userSpaceOnUse" color-interpolation-filters="sRGB">
<feFlood flood-opacity="0" result="BackgroundImageFix"/>
<feColorMatrix in="SourceAlpha" type="matrix" values="0 0 0 0 0 0 0 0 0 0 0 0 0 0 0 0 0 0 127 0"/>
<feOffset dy="4"/>
<feGaussianBlur stdDeviation="2"/>
<feColorMatrix type="matrix" values="0 0 0 0 0 0 0 0 0 0 0 0 0 0 0 0 0 0 0.25 0"/>
<feBlend mode="normal" in2="BackgroundImageFix" result="effect1_dropShadow"/>
<feBlend mode="normal" in="SourceGraphic" in2="effect1_dropShadow" result="shape"/>
</filter>
</defs>
</svg>
