<svg width="108" height="100" viewBox="0 0 108 100" fill="none" xmlns="http://www.w3.org/2000/svg">
<g filter="url(#filter0_d)">
<mask id="mask0" mask-type="alpha" maskUnits="userSpaceOnUse" x="4" y="20" width="100" height="60">
<path d="M103.834 79.0064V20.7986H4.00049V79.0064L103.834 79.0064Z" fill="white"/>
</mask>
<g mask="url(#mask0)">
<path d="M90.536 35.0728C91.2714 34.7492 92.1324 34.3782 92.9254 34.0464L95.4899 32.9726L87.0837 30.2458L85.063 20.7979L79.9794 28.4011L71.3611 26.2061L74.2572 29.9696C63.4039 28.5907 51.3498 29.6089 40.5233 32.8324L41.2381 30.5859L39.3884 31.1176C24.6462 35.3449 11.7434 46.825 5.71223 61.0773L4.00049 65.1252L7.33123 62.2603C14.5365 56.0709 21.9725 49.6816 32.766 46.2603L29.7586 53.2555L32.3808 51.819C34.7496 50.5205 37.4233 49.5229 40.2761 48.8345L44.128 50.1577C50.1592 52.225 55.3932 54.016 60.5346 57.3055C60.4954 62.9157 62.7716 68.4806 66.8315 72.6584C70.8172 76.7578 76.0183 79.0065 81.4933 79.0065H81.6561C94.2252 78.9117 101.636 69.6554 103.406 60.529C104.996 52.3239 102.473 41.0148 90.536 35.0728" fill="#FEFEFE"/>
</g>
<path d="M42.8555 48.6335C49.999 47.537 57.1281 47.8586 63.3693 50.4947L64.1294 48.8211C54.0321 45.5687 41.3395 45.7357 31.8848 50.9151L34.577 44.6536C22.6939 47.8668 14.6976 54.5735 6.66016 61.4801C12.5204 47.6277 25.2625 36.2403 39.6731 32.1079L38.9398 34.406C51.5583 30.2859 65.4086 29.5048 76.6223 31.3577L73.996 27.9384L80.4289 29.579L84.5671 23.3958L86.2026 31.0423L92.5283 33.0951C92.5283 33.0951 87.9205 35.0263 88.1409 35.117C112.099 44.9916 104.43 77.8017 81.6483 77.9769C70.1256 78.0717 61.1859 67.653 61.5752 56.7541C55.7171 52.8958 49.8383 51.0388 42.8555 48.6335" fill="#C4CDD3"/>
<path d="M85.771 35.1258C87.0893 34.5508 89.5508 33.477 89.5508 33.477L89.7342 33.3966L89.5426 33.3327C89.5426 33.3327 85.5836 32.0301 84.7329 31.7539C84.6052 30.8573 83.979 26.5497 83.979 26.5497L83.9501 26.3416L82.5103 28.685C82.5103 28.685 81.6843 30.0144 81.2394 30.7399C80.3022 30.5008 76.2114 29.4579 76.2114 29.4579L75.9951 29.4043L76.1311 29.5795C76.1352 29.5836 77.7974 31.7251 78.8047 33.0276C74.6871 32.1331 69.9371 31.6323 64.4909 31.6323C62.703 31.6323 60.8409 31.6859 58.9047 31.7972C51.479 32.2218 44.1769 33.6068 37.1693 36.1399L37.9706 33.7552L37.8285 33.7985C26.862 37.226 14.8696 47.5128 9.56763 57.6842L9.68711 57.7749C17.1828 50.7405 27.3275 45.122 36.4216 43.0774L34.0322 48.6485L34.2176 48.5598C38.4485 46.5153 44.0039 45.6104 49.6107 45.6104C55.3453 45.6104 61.1334 46.5585 65.6074 48.1888L63.8915 51.9297C59.8131 50.0582 53.9137 48.7969 49.0196 48.7969C48.1483 48.7969 47.3078 48.836 46.5148 48.9205L46.5024 49.071C52.2823 50.7033 58.2682 52.548 63.012 56.3527C62.9832 56.7554 62.9688 57.1589 62.9687 57.5626C62.9708 67.5752 71.6097 76.6377 81.7461 76.6398C81.8141 76.6398 81.8841 76.6377 81.9521 76.6377C93.1246 76.5058 101.403 66.2561 101.405 55.5695C101.407 47.6983 96.9044 39.586 85.771 35.1258Z" fill="#120C0D"/>
<path d="M79.6767 53.4667C75.5509 53.4667 71.423 51.9539 67.2765 50.4287C66.1848 52.7412 65.6287 55.165 65.6287 57.6301C65.6287 58.9409 65.7852 60.2662 66.1045 61.5894C66.4464 61.5976 66.7904 61.6017 67.1344 61.6017C75.1389 61.6017 83.6336 59.3758 90.4949 55.3052C89.704 53.8336 88.7235 52.4589 87.7059 51.1356C85.0343 52.8257 82.3565 53.4667 79.6767 53.4667Z" fill="#C4CDD3"/>
<path d="M66.8462 63.1569H66.5763C69.079 69.6348 74.8198 73.928 81.8211 74.0249C84.0622 68.5012 86.5484 62.4664 92.2315 59.6448C91.9349 58.6494 91.5703 57.6806 91.1686 56.7264C83.85 61.0052 75.3059 63.1569 66.8462 63.1569ZM84.1477 42.8276C81.6594 41.8775 80.0734 41.5827 79.925 41.5559C79.2288 41.6507 78.2834 41.7435 77.5192 41.896C81.7501 43.582 84.8728 45.6265 88.0119 49.1283C89.6248 47.8525 91.0419 46.4077 92.0245 44.6331C89.1469 41.8321 83.7275 38.4004 70.2109 37.3369C75.9187 38.6952 81.1671 40.5275 84.2177 42.6936L84.1477 42.8276ZM46.2507 40.9514C47.0891 40.9329 47.9934 40.9226 48.9512 40.9226C58.5541 40.9267 73.3746 42.0562 79.1215 48.8844L79.0247 48.9998C77.037 47.891 73.0594 46.0546 70.5794 46.0567C70.4991 46.0567 70.4208 46.0587 70.3446 46.0628C69.4918 47.0047 68.7379 48.0476 68.0623 49.1276C71.9039 50.5436 75.7928 51.9513 79.6468 51.9492C82.0671 51.9492 84.473 51.3969 86.8562 49.9438C80.1947 42.6807 68.9212 39.5128 58.2863 39.5128C54.0637 39.5128 49.9399 40.0116 46.2507 40.9514V40.9514ZM91.6924 54.5454C93.5504 53.2799 95.155 51.9587 96.6113 50.2604C95.6947 48.5168 94.1107 46.5588 92.9737 45.5509C91.9149 47.4182 90.5595 48.9599 88.9117 50.3161C89.8819 51.6104 90.9077 53.1212 91.6925 54.5454" fill="#C4CDD3"/>
<path d="M83.4497 73.9575C86.8237 73.5453 89.9258 72.3931 92.5336 70.1775C92.9352 68.6832 93.1062 67.1374 93.1062 65.5875C93.1062 64.1076 92.9496 62.6216 92.6839 61.1768C87.5941 63.6233 85.4807 68.9965 83.4497 73.9575H83.4497ZM94.6086 66.5828C94.6086 67.0939 94.5963 67.6051 94.5716 68.1162C96.5511 65.4368 97.6119 63.1099 98.1989 59.6864C96.755 59.8142 95.3234 60.0574 93.9618 60.5088C94.4068 62.5266 94.6086 64.5464 94.6086 66.5828ZM92.3933 55.9621C92.8382 56.9844 93.2358 58.0211 93.5818 59.0825C95.1679 58.5652 96.7004 58.2993 98.3544 58.1983C98.3565 58.0809 98.3565 57.9655 98.3565 57.848C98.3565 55.6571 98.0331 53.9711 97.3204 51.875C95.8023 53.429 94.1998 54.7523 92.3933 55.9621Z" fill="#C4CDD3"/>
<path d="M98.354 58.1994C96.6999 58.3004 95.1695 58.5663 93.5813 59.0836C93.2353 58.0201 92.8398 56.9855 92.3928 55.9632C94.1993 54.7513 95.8039 53.4281 97.3199 51.874C98.0326 53.9722 98.356 55.6581 98.356 57.8491C98.356 57.9645 98.356 58.082 98.354 58.1994Z" fill="#C4CDD3"/>
<path d="M98.354 58.1993C96.6999 58.3003 95.1695 58.5662 93.5814 59.0835C93.2353 58.02 92.8398 56.9853 92.3928 55.9631C94.1993 54.7512 95.8039 53.4279 97.3199 51.8739C98.0326 53.9721 98.356 55.658 98.356 57.8489C98.356 57.9643 98.356 58.0818 98.354 58.1993ZM92.9729 45.5506C94.1099 46.5584 95.696 48.5185 96.6126 50.2601C95.1542 51.9584 93.5496 53.2816 91.6917 54.545C90.9069 53.1208 89.881 51.6101 88.9109 50.3157C90.5587 48.9596 91.9141 47.4179 92.9729 45.5505" fill="#C4CDD3"/>
<path d="M92.9729 45.5506C94.11 46.5585 95.696 48.5185 96.6127 50.2601C95.1543 51.9585 93.5497 53.2817 91.6917 54.5451C90.9069 53.1209 89.8811 51.6101 88.911 50.3158C90.5588 48.9596 91.9142 47.4179 92.973 45.5506L92.9729 45.5506ZM70.21 37.3364C83.7266 38.402 89.146 41.8337 92.0256 44.6326C91.041 46.4072 89.6239 47.852 88.0131 49.1278C84.8739 45.6281 81.7491 43.5815 77.5203 41.8955C78.2824 41.745 79.2279 41.6502 79.9241 41.5554C80.0724 41.5822 81.6585 41.877 84.1468 42.8271L84.2189 42.6931C81.1662 40.5269 75.9178 38.6967 70.21 37.3364Z" fill="#C4CDD3"/>
<path d="M70.2099 37.3364C83.7265 38.402 89.1459 41.8337 92.0255 44.6326C91.0409 46.4072 89.6238 47.852 88.013 49.1278C84.8738 45.6281 81.7491 43.5815 77.5202 41.8955C78.2824 41.745 79.2278 41.6502 79.924 41.5554C80.0724 41.5822 81.6584 41.877 84.1467 42.8271L84.2188 42.6931C81.1661 40.5269 75.9177 38.6967 70.2099 37.3364ZM67.1341 61.6022C66.7901 61.6022 66.4462 61.5981 66.1042 61.5898C65.785 60.2645 65.6284 58.9413 65.6284 57.6305C65.6284 55.1634 66.1846 52.7396 67.2783 50.4291C71.4227 51.9523 75.5506 53.4671 79.6765 53.4671C82.3563 53.4671 85.0341 52.8261 87.7057 51.134C88.7232 52.4593 89.7037 53.834 90.4947 55.3056C83.6334 59.3762 75.1386 61.6022 67.1341 61.6022Z" fill="#C4CDD3"/>
<path d="M67.1341 61.6022C66.7901 61.6022 66.4462 61.5981 66.1042 61.5899C65.785 60.2646 65.6284 58.9414 65.6284 57.6306C65.6284 55.1635 66.1846 52.7397 67.2783 50.4292C71.4227 51.9523 75.5506 53.4672 79.6765 53.4672C82.3563 53.4672 85.0341 52.8262 87.7057 51.1341C88.7232 52.4593 89.7037 53.8341 90.4947 55.3057C83.6334 59.3763 75.1386 61.6022 67.1341 61.6022Z" fill="#C4CDD3"/>
<path d="M81.8212 74.0246C74.8199 73.9277 69.0791 69.6345 66.5764 63.1566H66.8463C75.306 63.1566 83.8502 61.0049 91.1687 56.7261C91.5704 57.6824 91.935 58.6491 92.2316 59.6445C86.5485 62.4661 84.0623 68.5009 81.8212 74.0246Z" fill="#C4CDD3"/>
<path d="M81.8212 74.0246C74.8199 73.9277 69.0791 69.6345 66.5764 63.1566H66.8463C75.306 63.1566 83.8502 61.0049 91.1687 56.7261C91.5704 57.6824 91.935 58.6491 92.2316 59.6445C86.5485 62.4661 84.0623 68.5009 81.8212 74.0246ZM94.5716 68.1172C94.5963 67.604 94.6087 67.0928 94.6087 66.5837C94.6087 64.5474 94.4068 62.5255 93.9619 60.5077C95.3234 60.0563 96.755 59.8152 98.1989 59.6853C97.6119 63.1108 96.5511 65.4378 94.5716 68.1172Z" fill="#C4CDD3"/>
<path d="M94.5715 68.117C94.5962 67.6038 94.6086 67.0926 94.6086 66.5835C94.6086 64.5472 94.4067 62.5253 93.9618 60.5075C95.3234 60.0561 96.7549 59.815 98.1989 59.6851C97.6118 63.1106 96.551 65.4376 94.5715 68.117ZM86.8552 49.9429C84.472 51.396 82.0681 51.9504 79.6458 51.9504C75.7918 51.9504 71.9029 50.5447 68.0613 49.1267C68.7369 48.0467 69.4908 47.0059 70.3436 46.0619C70.4198 46.0599 70.4981 46.0557 70.5784 46.0557C73.0584 46.0537 77.036 47.8921 79.0237 49.001L79.1205 48.8835C73.3757 42.0552 58.5531 40.9258 48.9502 40.9216C47.9944 40.9216 47.0881 40.934 46.2498 40.9505C49.941 40.0127 54.0627 39.5139 58.2874 39.5139C68.9223 39.5119 80.1958 42.6797 86.8552 49.9429" fill="#C4CDD3"/>
<path d="M86.8552 49.9429C84.472 51.396 82.0681 51.9504 79.6458 51.9504C75.7918 51.9504 71.9029 50.5447 68.0613 49.1267C68.7369 48.0467 69.4908 47.0059 70.3436 46.0619C70.4198 46.0599 70.4981 46.0557 70.5784 46.0557C73.0584 46.0537 77.036 47.8921 79.0237 49.001L79.1205 48.8835C73.3757 42.0552 58.5531 40.9258 48.9502 40.9216C47.9944 40.9216 47.0881 40.934 46.2498 40.9505C49.941 40.0127 54.0627 39.5139 58.2874 39.5139C68.9223 39.5119 80.1958 42.6797 86.8552 49.9429H86.8552ZM92.5333 70.1768C89.9256 72.3925 86.8235 73.5466 83.4495 73.9568C85.4805 68.9958 87.5938 63.6247 92.6837 61.1761C92.9494 62.6209 93.1059 64.107 93.1059 65.5868C93.1059 67.1367 92.935 68.6825 92.5333 70.1768" fill="#C4CDD3"/>
<path d="M92.5332 70.1769C89.9255 72.3926 86.8234 73.5467 83.4494 73.9569C85.4804 68.9959 87.5938 63.6248 92.6836 61.1763C92.9493 62.6211 93.1059 64.1071 93.1059 65.5869C93.1059 67.1369 92.9349 68.6827 92.5332 70.1769V70.1769ZM79.1791 36.5721L82.1185 35.5436L84.3493 38.0767L84.0898 34.7707L86.9365 33.5279L83.8385 32.5118L83.3585 29.21L81.7045 31.8914L78.5674 31.0896L80.6478 33.7649L79.1791 36.5721Z" fill="#C4CDD3"/>
<path d="M63.5201 38.9537L65.5614 37.9458L67.2628 39.4586L66.9311 37.208L68.8962 36.0641L66.6531 35.6807L66.169 33.4609L65.1164 35.4787L62.8486 35.2479L64.4408 36.8741L63.5201 38.9537ZM40.5662 43.4715L41.9112 42.8079L43.0277 43.8034L42.8093 42.3235L44.1008 41.5692L42.626 41.3157L42.3067 39.8564L41.6126 41.1776L40.1233 41.0312L41.1697 42.1009L40.5662 43.4715Z" fill="#FEFEFE"/>
<path d="M91.3866 63.7845L91.3845 63.5104L89.4895 66.6865L90.0333 63.8896L89.8994 63.8257C87.1227 67.1956 86.0619 69.6173 85.1989 72.6017L85.1577 72.744L85.2977 72.6966C88.4142 71.6145 90.023 70.3634 90.6821 69.8399L90.6965 69.8276L90.7048 69.8111C91.1682 68.8053 91.3866 66.7669 91.3886 64.2689C91.3886 64.1081 91.3866 63.9473 91.3866 63.7845ZM85.0507 56.43C82.0187 57.0463 78.4799 57.409 75.2377 57.409C74.7495 57.409 74.2696 57.4008 73.8 57.3843L80.756 55.3253L80.7375 55.1748C76.1441 54.9584 72.5991 54.8719 68.1107 52.7675L68.0469 52.7366L68.0118 52.7984C67.3444 53.998 66.9634 55.6777 66.9634 57.3802C66.9634 58.3468 67.087 59.3217 67.3506 60.2162L67.3671 60.2698L67.4207 60.2718C67.4248 60.2718 67.5834 60.276 67.8779 60.276C69.8842 60.276 78.1256 60.0554 85.1002 56.5743L85.0507 56.43ZM86.5849 62.0757C83.077 64.6829 80.4363 66.7914 75.2641 67.7663C80.0532 65.2765 83.2665 63.5638 86.2862 60.5031L86.1935 60.3836C80.838 63.504 73.8634 64.8396 68.9425 65.0251L68.8086 65.0292L68.8807 65.1426C72.9324 71.5566 78.0572 72.1316 79.7236 72.1316H79.7339C80.08 72.1316 80.2736 72.109 80.2777 72.109L80.3127 72.1028L80.3313 72.0739C82.5065 68.634 83.8886 65.3219 86.6879 62.189L86.5849 62.0757H86.5849Z" fill="#0077C0"/>
<path d="M82.9932 40.7016C82.7398 40.5676 82.4803 40.4419 82.2104 40.3203C86.3528 41.5508 89.1459 43.1502 90.7072 44.3662C90.4662 44.7227 90.1984 45.0669 89.9245 45.4008C88.0068 43.4119 85.6648 41.7919 82.9932 40.7016H82.9932ZM95.7538 63.9113L95.7394 63.6413C95.9639 62.5262 96.0896 61.4071 96.1287 60.3023C96.4212 60.224 96.722 60.1643 97.0227 60.1086C96.7014 61.4792 96.3018 62.7262 95.7538 63.9113ZM97.4841 56.6398C96.9444 56.712 96.4439 56.7903 95.9495 56.8975C95.8383 56.0957 95.6776 55.3022 95.4737 54.5211C96.0113 54.0697 96.5263 53.6101 97.0474 53.1195C97.3461 54.2717 97.4717 55.3537 97.4841 56.6398ZM95.6364 49.8342C95.1771 50.3288 94.7322 50.7679 94.2811 51.178C93.7785 50.098 93.1914 49.0613 92.5116 48.0823C92.8659 47.6556 93.2079 47.2146 93.5292 46.7529C94.3943 47.7113 95.1462 48.8325 95.6364 49.8342Z" fill="#FEFEFE"/>
</g>
<defs>
<filter id="filter0_d" x="0" y="0" width="108" height="108" filterUnits="userSpaceOnUse" color-interpolation-filters="sRGB">
<feFlood flood-opacity="0" result="BackgroundImageFix"/>
<feColorMatrix in="SourceAlpha" type="matrix" values="0 0 0 0 0 0 0 0 0 0 0 0 0 0 0 0 0 0 127 0"/>
<feOffset dy="4"/>
<feGaussianBlur stdDeviation="2"/>
<feColorMatrix type="matrix" values="0 0 0 0 0 0 0 0 0 0 0 0 0 0 0 0 0 0 0.25 0"/>
<feBlend mode="normal" in2="BackgroundImageFix" result="effect1_dropShadow"/>
<feBlend mode="normal" in="SourceGraphic" in2="effect1_dropShadow" result="shape"/>
</filter>
</defs>
</svg>
