<svg width="108" height="100" viewBox="0 0 108 100" fill="none" xmlns="http://www.w3.org/2000/svg">
<g filter="url(#filter0_d)">
<path d="M80.2875 10.0007L71.4753 18.7667L57.299 11.346L54.7379 25.423L40.3539 28.5366L48.3989 33.3806L39.3729 37.9053L46.7168 38.54L13.4457 64.3928L39.1232 50.7668L11.3301 71.9053L41.0091 56.4451L8.33144 80.9927L42.2358 62.9418L4.00024 90.6108L49.2819 65.8378L20.2222 89.2836L63.2864 64.5585L62.735 68.4425L69.4995 64.6902L82.8666 77.3182L89.9588 56.03L99.1406 54.7167L95.187 42.45L103.905 34.8736L92.5918 30.1014L95.7843 16.5692L85.0742 21.4691L80.2875 10.0007Z" fill="#FEFEFE"/>
<path d="M17.4285 82.127L58.6027 59.5994L30.6817 82.127L64.5601 62.6751L64.0047 66.597L69.6544 63.4615L82.4142 75.5166L89.2067 55.1306L97.8271 53.8951L94.0353 42.1273L102.042 35.1717L91.4262 30.6929L94.343 18.3263L84.5479 22.8051L79.939 11.7559L71.6602 19.9909L58.0393 12.8616L55.6021 26.256L43.024 28.9784L50.4658 33.4612L42.9761 37.2155L49.341 37.7663L23.1681 58.1025L49.4949 44.1312L21.2562 65.609L51.3148 49.9532L19.2045 74.0736L54.5912 55.2344L17.4285 82.127Z" fill="#F9A01B"/>
<path d="M92.7734 42.3086C92.3079 53.6133 82.7565 62.3992 71.4391 61.9282C60.1256 61.4651 51.3334 51.9208 51.8029 40.6181C52.2684 29.3113 61.8198 20.5294 73.1332 20.9945C84.4486 21.4655 93.2428 31.0039 92.7734 42.3086" fill="#E55F1F"/>
<path d="M74.7983 59.1353C63.4869 58.6682 54.6927 49.1238 55.1582 37.8211C55.3739 32.5879 57.5355 27.9055 60.9158 24.4187C55.6536 27.9295 52.0796 33.8114 51.8019 40.6193C51.3324 51.9201 60.1266 61.4625 71.4381 61.9295C77.5193 62.181 83.0871 59.756 87.0128 55.7083C83.5286 58.0335 79.3073 59.3209 74.7983 59.1353Z" fill="#B85914"/>
<path d="M92.7843 41.7024C92.7943 40.9679 92.7643 40.2454 92.6964 39.5269C91.5137 38.7046 90.1073 38.0779 88.4431 37.8623C88.1275 37.8244 87.8238 37.8044 87.5181 37.7805C87.3196 36.4359 87.015 35.1091 86.6071 33.8126C86.8169 33.8306 87.0327 33.8386 87.2464 33.8506C88.6888 33.9583 90.1093 34.12 91.5117 34.3256C91.3179 33.8027 91.0962 33.2937 90.8624 32.7927C89.2882 32.5512 87.686 32.3656 86.0638 32.2439H86.0478C85.5284 30.9266 84.8951 29.6572 84.1519 28.4497C85.1987 28.2341 86.1337 27.805 86.8908 27.0905C86.5053 26.6993 86.1017 26.3201 85.6822 25.9588C85.0249 26.5636 84.1719 26.8869 83.1929 27.0186C83.0411 26.8051 82.8933 26.5975 82.7355 26.3919C81.343 24.5836 79.7368 23.0368 77.9688 21.7814C76.4245 21.3343 74.8103 21.0629 73.1321 20.995C73.0402 20.991 72.9483 20.995 72.8544 20.989C75.971 22.2145 78.7539 24.2723 80.9914 27.0246C78.8578 26.819 76.3985 26.1045 73.9652 25.392C73.246 25.1784 72.5408 24.9708 71.8595 24.7832C67.7161 23.6396 64.5317 23.4559 62.1403 23.6655C60.3643 24.6754 58.7561 25.9468 57.3596 27.4258C59.9428 26.352 65.149 24.5118 71.468 26.2602C72.1392 26.4458 72.8365 26.6494 73.5457 26.8569C76.3386 27.6793 79.4691 28.5934 82.1801 28.6213C82.9273 29.733 83.5725 30.9066 84.1059 32.1301C83.5765 32.1061 83.0451 32.0922 82.5197 32.0802C69.3523 31.8547 58.0648 35.7906 51.7998 42.0696C51.8358 43.3171 51.9776 44.5366 52.2273 45.7241C53.9934 43.1893 56.6105 40.902 59.9867 39.002C66.3597 35.4233 74.8162 33.5392 83.8003 33.6969C84.1079 33.7009 84.4196 33.7128 84.7292 33.7248C85.1827 35.0241 85.5224 36.3674 85.7381 37.7485C79.9506 37.992 76.1987 41.5986 71.8915 45.4367C68.0258 48.8956 63.307 52.3385 56.4047 54.4102C57.054 55.2106 57.7612 55.9571 58.5263 56.6476C65.0311 54.031 69.3523 49.9554 73.0042 46.6941C77.1477 42.9897 80.7077 39.441 85.9339 39.2654C86.0678 40.7084 86.0737 42.1794 85.9419 43.6644C85.2387 51.6898 80.5878 58.4938 74.2449 61.8489C75.8691 61.6992 77.4393 61.3539 78.9337 60.839C79.4411 60.4199 79.9386 59.9768 80.416 59.5078C84.5754 55.4162 87.1585 49.8416 87.686 43.818C87.8178 42.3091 87.8178 40.8122 87.696 39.3373C87.9557 39.3652 88.2154 39.3892 88.4831 39.4331C90.2651 39.7245 91.6775 40.6206 92.7843 41.7024" fill="#051821"/>
</g>
<defs>
<filter id="filter0_d" x="0" y="0" width="108" height="108" filterUnits="userSpaceOnUse" color-interpolation-filters="sRGB">
<feFlood flood-opacity="0" result="BackgroundImageFix"/>
<feColorMatrix in="SourceAlpha" type="matrix" values="0 0 0 0 0 0 0 0 0 0 0 0 0 0 0 0 0 0 127 0"/>
<feOffset dy="4"/>
<feGaussianBlur stdDeviation="2"/>
<feColorMatrix type="matrix" values="0 0 0 0 0 0 0 0 0 0 0 0 0 0 0 0 0 0 0.25 0"/>
<feBlend mode="normal" in2="BackgroundImageFix" result="effect1_dropShadow"/>
<feBlend mode="normal" in="SourceGraphic" in2="effect1_dropShadow" result="shape"/>
</filter>
</defs>
</svg>
