<svg width="100" height="101" viewBox="0 0 100 101" fill="none" xmlns="http://www.w3.org/2000/svg">
<g filter="url(#filter0_d)">
<path d="M77.642 31.9148C76.4559 30.1594 75.0936 28.5094 73.5936 27.0086C72.9428 26.3578 72.2636 25.7332 71.5605 25.1371L86.3128 10.3848H43.3343L26.7459 26.974H26.7482C26.7366 26.9857 26.7248 26.9972 26.7128 27.0086C25.2128 28.5094 23.8513 30.1594 22.6651 31.9148C21.4682 33.6871 20.4397 35.5817 19.609 37.5455C17.8797 41.6324 17.0036 45.974 17.0036 50.4494C17.0036 54.9248 17.8797 59.2655 19.609 63.3524C20.4397 65.3163 21.4682 67.2109 22.6651 68.9832C23.8513 70.7386 25.2128 72.3901 26.7128 73.8894C27.3664 74.5429 28.047 75.1688 28.7528 75.7655L14.0051 90.5132H56.9713L73.6267 73.8571H73.6251C75.1128 72.3655 76.4643 70.7271 77.642 68.9832C78.839 67.2109 79.8674 65.3163 80.6982 63.3524C82.4266 59.2655 83.3021 54.9248 83.3021 50.4494C83.3021 45.974 82.4266 41.6324 80.6982 37.5455C79.8674 35.5817 78.839 33.6871 77.642 31.9148Z" fill="#061922"/>
<path d="M77.642 31.9148C76.4559 30.1594 75.0936 28.5094 73.5936 27.0086C72.9428 26.3578 72.2636 25.7332 71.5605 25.1371L86.3128 10.3848H43.3343L26.7459 26.974H26.7482C26.7366 26.9857 26.7248 26.9972 26.7128 27.0086C25.2128 28.5094 23.8513 30.1594 22.6651 31.9148C21.4682 33.6871 20.4397 35.5817 19.609 37.5455C17.8797 41.6324 17.0036 45.974 17.0036 50.4494C17.0036 54.9248 17.8797 59.2655 19.609 63.3524C20.4397 65.3163 21.4682 67.2109 22.6651 68.9832C23.8513 70.7386 25.2128 72.3901 26.7128 73.8894C27.3664 74.5429 28.047 75.1688 28.7528 75.7655L14.0051 90.5132H56.9713L73.6267 73.8571H73.6251C75.1128 72.3655 76.4643 70.7271 77.642 68.9832C78.839 67.2109 79.8674 65.3163 80.6982 63.3524C82.4266 59.2655 83.3021 54.9248 83.3021 50.4494C83.3021 45.974 82.4266 41.6324 80.6982 37.5455C79.8674 35.5817 78.839 33.6871 77.642 31.9148" stroke="white" stroke-width="3.8462"/>
<path d="M71.6514 28.9151C71.0014 28.2651 70.3299 27.6505 69.6384 27.072L51.5999 45.1097C52.4884 45.3597 53.3268 45.8336 54.0261 46.5305L54.0307 46.5359C56.2091 48.7143 56.2091 52.2459 54.0307 54.4243L20.6191 87.8359H24.5337L55.9884 56.3813C59.2384 53.132 59.2476 47.8697 56.0176 44.6074L57.9745 42.6505C62.2853 46.9928 62.2761 54.0082 57.9453 58.3382L28.4468 87.8359H32.3622L59.903 60.2951C65.3145 54.8843 65.3238 46.1166 59.9322 40.6936L61.8899 38.7359C68.363 45.2405 68.3522 55.7605 61.8599 62.2528L36.2768 87.8359H40.1922L63.8168 64.2105C71.3907 56.6374 71.4007 44.3636 63.8468 36.7782L65.8045 34.8212C74.4399 43.4874 74.4299 57.5136 65.7745 66.1682L44.1068 87.8359H48.0214L67.7322 68.1251C77.4684 58.3905 77.4776 42.6112 67.7614 32.8636L69.7314 30.8928C80.5361 41.7289 80.5261 59.2712 69.703 70.0959L51.9614 87.8359H55.8768L71.6607 72.0536L71.6514 72.0443C83.5614 60.1343 83.5614 40.8243 71.6514 28.9151Z" fill="white"/>
<path d="M28.6734 72.0104C29.3234 72.6604 29.995 73.275 30.6865 73.8535L48.725 55.815C47.8373 55.565 46.9988 55.0919 46.2996 54.395L46.2942 54.3896C44.1157 52.2112 44.1157 48.6788 46.2942 46.5012L79.7519 13.0435H75.8373L44.3365 44.5435C41.0873 47.7935 41.0773 53.0558 44.308 56.3181L42.3511 58.275C38.0404 53.9319 38.0488 46.9165 42.3796 42.5873L71.9235 13.0435H68.008L40.4219 40.6296C35.0111 46.0404 35.0019 54.8088 40.3934 60.2312L38.4365 62.1888C31.9627 55.6842 31.9727 45.1642 38.465 38.6719L64.0934 13.0435H60.1788L36.508 36.7142C28.9342 44.2881 28.9242 56.5612 36.4788 64.1465L34.5211 66.1042C25.8857 57.4381 25.895 43.4112 34.5504 34.7565L56.2634 13.0435H52.3488L32.5927 32.7996C22.8565 42.5358 22.8473 58.3135 32.5634 68.0619L30.5934 70.0319C19.7888 59.1965 19.7988 41.6535 30.6227 30.8296L48.4088 13.0435H44.4934L28.665 28.8719L28.6735 28.8804C16.7635 40.7904 16.7635 60.1004 28.6735 72.0104" fill="#E03A3E"/>
</g>
<defs>
<filter id="filter0_d" x="-4" y="0" width="108" height="108" filterUnits="userSpaceOnUse" color-interpolation-filters="sRGB">
<feFlood flood-opacity="0" result="BackgroundImageFix"/>
<feColorMatrix in="SourceAlpha" type="matrix" values="0 0 0 0 0 0 0 0 0 0 0 0 0 0 0 0 0 0 127 0"/>
<feOffset dy="4"/>
<feGaussianBlur stdDeviation="2"/>
<feColorMatrix type="matrix" values="0 0 0 0 0 0 0 0 0 0 0 0 0 0 0 0 0 0 0.25 0"/>
<feBlend mode="normal" in2="BackgroundImageFix" result="effect1_dropShadow"/>
<feBlend mode="normal" in="SourceGraphic" in2="effect1_dropShadow" result="shape"/>
</filter>
</defs>
</svg>
