<svg width="100" height="100" viewBox="0 0 100 100" fill="none" xmlns="http://www.w3.org/2000/svg">
<path d="M74.0148 7.69287L68.7359 17.0537L67.7618 24.2698L59.3819 39.2035H50.4988L58.2919 25.4141V7.69287H47.486L42.4205 16.9933L41.5113 24.2745L28.7757 46.9883L31.3827 53.5197H38.2944L36.033 59.2481L28.3536 50.9411L29.2976 63.6604L15.5229 64.2384L26.5839 72.0255L18.7909 83.6517L31.5451 79.4807L36.752 92.0028L40.681 78.5036L54.9798 82.1917L45.714 71.4685L56.9258 62.2075L46.4887 62.855L54.7479 53.5197H68.6733L84.2593 25.8783L84.4078 25.6114V7.69289L74.0148 7.69287Z" fill="#FEFEFE"/>
<path d="M74.6933 8.85205L69.7438 17.6257L68.8833 24.6375L60.0605 40.3627H48.5078L57.1312 25.1064V8.85205H48.1738L43.4377 17.5491L42.6375 24.6375L30.0573 47.0705L32.1703 52.3579H40.0004L36.4356 61.3891L29.7581 54.166L30.5444 64.7686L18.9824 65.2537L28.1787 71.7294L21.6288 81.501L32.2027 78.0427L36.5608 88.5153L39.8821 77.1003L51.6761 80.1386L44.0593 71.3302L53.4318 63.5895L43.7624 64.1883L54.2273 52.3579H67.9973L83.2494 25.3083V8.85205H74.6933ZM74.6933 9.68137V8.85275V9.68135V9.68137Z" fill="#FEFEFE"/>
<path d="M74.6933 8.85205L69.7438 17.6257L68.8833 24.6375L60.0605 40.3627H48.5078L57.1312 25.1064V8.85205H48.1738L43.4377 17.5491L42.6375 24.6375L30.0573 47.0705L32.1703 52.3579H40.0004L36.4356 61.3891L29.7581 54.166L30.5444 64.7686L18.9824 65.2537L28.1787 71.7294L21.6288 81.501L32.2027 78.0427L36.5608 88.5153L39.8821 77.1003L51.6761 80.1386L44.0593 71.3302L53.4318 63.5895L43.7624 64.1883L54.2273 52.3579H67.9973L83.2494 25.3083V8.85205H74.6933Z" fill="#2D2925"/>
<path d="M72.84 16.6773H77.0171L79.9256 11.2135H75.8992L72.84 16.6773ZM46.5717 16.6863L51.0712 16.6747L53.9379 11.2109L49.6007 11.2133L46.5717 16.6863ZM45.5015 23.5678L49.5557 23.5794L49.9338 18.8839H46.0118L45.5015 23.5678ZM71.6824 23.5678L75.7389 23.5794L76.1216 18.8839H72.1903L71.6824 23.5678ZM34.9046 72.4935C33.8771 72.4935 33.0445 71.6626 33.0445 70.6367C33.0445 69.6084 33.8771 68.7775 34.9046 68.7775C35.9321 68.7775 36.7624 69.6084 36.7624 70.6367C36.7624 71.6626 35.9321 72.4935 34.9046 72.4935V72.4935ZM70.8129 26.3765L61.6677 42.4892H39.7173L48.8671 26.3765H44.5624L33.5269 45.878H45.7685L36.4841 66.6561L32.6409 62.3853L32.8543 67.4197L26.6663 67.7609L31.6506 71.2726L28.0996 76.5646L33.8284 74.6915L36.1872 80.3712L37.9894 74.1832L44.3792 75.8289L40.253 71.0545L45.3324 66.858L37.4953 67.2038L51.9287 45.878H64.1957L75.0457 26.3765H70.8129H70.8129Z" fill="#C4CDD3"/>
</svg>
