<svg width="100" height="100" viewBox="0 0 100 100" fill="none" xmlns="http://www.w3.org/2000/svg">
<path d="M62.5185 86.5685C62.2747 86.5685 62.0416 86.4532 61.8954 86.2509L61.7477 86.0462C61.467 85.6362 61.5293 85.2793 61.5908 85.1016C61.7877 84.5324 62.3801 84.3447 62.9531 84.1647C63.1501 84.1024 63.4801 83.9985 63.5685 83.9301C63.7639 83.7639 63.9793 83.617 64.197 83.4724C64.667 83.1578 65.0547 82.7908 65.4093 82.437C65.5501 82.2947 65.71 82.1632 65.87 82.0332C65.87 82.0332 66.0793 81.8616 66.1239 81.8278L66.67 81.2624L67.1 80.807L67.4185 80.4762C67.647 80.2409 67.8762 80.007 68.087 79.7555C68.5731 79.1916 69.0739 78.5832 69.5831 77.9385C69.7608 77.7185 69.9093 77.4893 70.0601 77.2593L70.3262 76.8601C70.3785 76.7801 70.4308 76.7016 70.4908 76.6224C70.7901 76.2063 71.0231 75.8347 71.2154 75.4655C71.497 74.9439 71.8131 74.4616 72.1193 73.9947L72.3877 73.5847C72.6008 73.2516 72.8239 72.8932 72.9793 72.5263C73.0631 72.3239 73.1716 72.1286 73.2816 71.9332C73.3539 71.8063 73.427 71.6793 73.487 71.5463C73.6377 71.2155 73.777 70.8808 73.9162 70.547L74.137 70.0208C74.157 69.9632 74.2016 69.8355 74.2977 69.7055C74.6577 69.1255 74.917 68.4109 75.1916 67.6532L75.3677 67.1663C75.687 66.287 75.9893 65.457 76.1577 64.5839C76.2618 64.0286 76.4275 63.4865 76.6516 62.9678C76.7093 62.8301 76.747 62.6378 76.787 62.4332L76.9831 61.4924C77.1654 60.6262 77.3477 59.7601 77.5131 58.8893C77.6116 58.3655 77.6947 57.8101 77.7747 57.1409C77.8101 56.8547 77.8301 56.5686 77.8516 56.2824L77.9054 55.5809C77.9385 55.1439 77.9708 54.7101 78.0116 54.2739C78.0247 54.107 78.0362 53.9232 78.047 53.7362C78.0677 53.4047 78.0885 53.067 78.1231 52.7524C78.1508 52.4647 78.1931 52.0224 78.5977 51.7432C78.8262 51.6001 79.0462 51.5386 79.2839 51.5386C79.3816 51.5386 79.4854 51.5493 79.597 51.5693C79.8916 51.6193 80.3701 51.7308 80.7016 51.8424C81.1154 51.9893 81.5208 52.1332 81.9077 52.2993C82.8385 52.7032 83.7031 53.2193 84.5547 53.877C84.6362 53.9401 84.7116 54.0024 84.7985 54.0516C84.8254 54.0663 84.8508 54.0832 84.8762 54.1009C85.097 54.2601 85.2985 54.4562 85.5139 54.6624L85.7685 54.9055C85.8601 54.9724 86.0293 55.1109 86.1808 55.2901C86.2854 55.4124 86.5639 55.7655 86.667 55.9216C86.6901 55.9555 86.7247 56.0016 86.7616 56.0493C86.8485 56.1662 86.9408 56.2924 87.0147 56.4155C87.1001 56.5578 87.1777 56.707 87.2531 56.8555C87.337 57.0185 87.417 57.1809 87.5154 57.3193C87.7316 57.6262 87.7785 57.9816 87.6577 58.3793C87.3116 59.5855 86.6647 61.917 86.6647 61.917L86.1085 63.7055C86.0993 63.7332 86.0901 63.7609 86.0777 63.787L85.5716 64.9385L84.6262 66.8647L84.0616 67.927L83.1054 69.8224L82.6654 70.5547L81.1985 72.6685L80.4231 73.6278L80.2047 73.9286L79.5108 74.8585L78.2154 76.3524L77.0777 77.4493L76.1754 78.4201L75.5685 79.0208L74.9985 79.5562C74.9753 79.5773 74.9511 79.5973 74.9262 79.6163L73.6839 80.5332L72.7485 81.2101L72.1301 81.7009L70.7739 82.6578L69.9901 83.1708L69.3508 83.5247L68.887 83.8108L68.6154 83.997C68.5762 84.0232 68.5347 84.047 68.4924 84.0655L68.2385 84.1778C68.2377 84.1801 67.8831 84.367 67.82 84.4024L67.8154 84.3939C67.5823 84.5216 66.9493 84.8232 64.9577 85.7732L63.7847 86.2324L63.4131 86.3924C63.3624 86.4155 63.3077 86.4316 63.2531 86.4424L62.6624 86.5547C62.615 86.5639 62.5668 86.5685 62.5185 86.5685Z" fill="#CE1141"/>
<path d="M79.2847 50.7693C78.9031 50.7693 78.5478 50.8685 78.2293 51.0647C78.2067 51.0786 78.1844 51.0929 78.1624 51.1077C77.4608 51.5916 77.3893 52.3477 77.3631 52.6323L77.3585 52.6777C77.3239 52.9954 77.3016 53.3447 77.2808 53.6893C77.2693 53.87 77.2578 54.0508 77.2447 54.2239C77.2055 54.6423 77.1731 55.08 77.1401 55.52L77.1224 55.7454C77.1083 55.9097 77.0958 56.074 77.0847 56.2385C77.0639 56.5085 77.0455 56.7785 77.0124 57.0454C76.9339 57.7016 76.8531 58.2408 76.7578 58.7462C76.5947 59.6085 76.4093 60.4893 76.2293 61.3408L76.0808 62.0485C76.0647 62.1216 76.0493 62.2016 76.0331 62.2831C76.0016 62.4416 75.9693 62.6062 75.937 62.6854C75.7008 63.2308 75.517 63.8308 75.4016 64.4454C75.2462 65.2523 74.9531 66.0562 74.6439 66.907L74.5177 67.2554L74.4693 67.3878C74.2124 68.097 73.9701 68.767 73.6277 69.3231C73.5077 69.5047 73.4454 69.6708 73.4147 69.7562C73.3454 69.9185 73.2777 70.0808 73.2101 70.2439C73.0731 70.5724 72.9362 70.9008 72.7893 71.2239C72.7354 71.3416 72.6731 71.4485 72.6124 71.5547C72.5024 71.7501 72.3778 71.9708 72.2685 72.2316C72.1385 72.5385 71.9354 72.8654 71.7385 73.1724L71.4854 73.5593C71.167 74.0439 70.8385 74.5447 70.5439 75.0923C70.3593 75.4439 70.1447 75.7854 69.8577 76.1847C69.807 76.2524 69.7477 76.3408 69.6885 76.4293L69.627 76.5208C69.5501 76.6354 69.4839 76.7362 69.4185 76.8362C69.2708 77.0608 69.1324 77.2724 68.9924 77.4454C68.4793 78.0954 67.9862 78.6954 67.5116 79.2447C67.3131 79.4801 67.1001 79.7001 66.8739 79.9331C66.7624 80.0485 66.6501 80.1639 66.5408 80.2801L66.0754 80.7716L65.6516 81.2201C65.5962 81.2631 65.5524 81.2985 65.5131 81.3324L65.3877 81.4354C65.2277 81.5647 65.0454 81.7124 64.8647 81.8939C64.5408 82.217 64.1877 82.5516 63.8062 82.807L63.7562 82.8408C63.5639 82.9693 63.3501 83.1131 63.1347 83.2893C63.0416 83.3293 62.8531 83.3893 62.7224 83.4301C62.0747 83.6347 61.1878 83.9147 60.8647 84.8501C60.6793 85.3847 60.7662 85.9731 61.1016 86.4631C61.1093 86.4747 61.117 86.4854 61.1254 86.4962L61.2731 86.7008C61.4159 86.8977 61.6032 87.058 61.8198 87.1686C62.0364 87.2792 62.2761 87.3369 62.5193 87.337C62.6154 87.337 62.7124 87.3278 62.8093 87.3101L63.4001 87.1962C63.5093 87.1754 63.6162 87.1424 63.7185 87.0993L64.0893 86.9393L65.1854 86.5116C65.2208 86.4978 65.2554 86.4831 65.2893 86.467C67.117 85.5947 67.8493 85.2454 68.1847 85.0624L68.1924 85.0747C68.2531 85.0408 68.4931 84.9147 68.5954 84.8601L68.8047 84.7678C68.8906 84.7297 68.9729 84.6841 69.0508 84.6316L69.3224 84.4454L69.7531 84.1808L70.3101 83.8754C70.3454 83.8562 70.3793 83.8354 70.4124 83.8139L71.1739 83.3162C71.1893 83.3062 71.2039 83.2962 71.2193 83.2854L72.5401 82.3539C72.5631 82.3377 72.5857 82.3207 72.6077 82.3031L73.227 81.8139L74.1285 81.1616L74.9885 80.5224L75.3801 80.237C75.431 80.2001 75.4793 80.1598 75.5247 80.1162L76.0808 79.597C76.0908 79.587 76.1001 79.577 76.1108 79.5678L76.6962 78.9893C76.7108 78.9739 76.7254 78.9585 76.7393 78.9431L77.6424 77.9731L78.7016 76.9562C78.7345 76.9242 78.7661 76.8908 78.7962 76.8562L80.0562 75.407C80.0809 75.3782 80.1047 75.3487 80.1277 75.3185L80.817 74.3962L81.047 74.0808L81.7631 73.1985C81.787 73.1685 81.8093 73.1385 81.8316 73.107L83.2724 71.0331C83.2908 71.0062 83.3078 70.9785 83.3255 70.9508L83.7362 70.2716C83.7562 70.2377 83.7755 70.2039 83.7924 70.1685L84.757 68.257L85.2939 67.2477C85.3023 67.2331 85.3103 67.2182 85.3178 67.2031L86.2493 65.3062C86.2585 65.287 86.2678 65.2677 86.277 65.247L86.7832 64.0962C86.8062 64.0431 86.827 63.9893 86.8439 63.9331L87.3932 62.167L87.407 62.1224C87.407 62.1216 88.0532 59.7931 88.4016 58.577C88.6332 57.8101 88.3939 57.23 88.1501 56.8824C88.0885 56.7962 88.0124 56.647 87.9385 56.5024C87.8547 56.34 87.7701 56.177 87.6778 56.0224C87.5724 55.8485 87.4639 55.7031 87.377 55.587C87.3478 55.5477 87.3193 55.5116 87.2962 55.4777C87.1632 55.2777 86.8708 54.9116 86.7608 54.7831C86.5947 54.5854 86.4101 54.427 86.2447 54.297C86.1798 54.2357 86.1154 54.1739 86.0516 54.1116C85.8262 53.8939 85.5932 53.6693 85.327 53.477C85.277 53.4402 85.2246 53.4068 85.1701 53.377C85.1239 53.3485 85.0801 53.31 85.0355 53.2747C84.1232 52.5693 83.2047 52.0216 82.2178 51.5939C81.7785 51.4054 81.3277 51.247 80.967 51.1193C80.5639 50.9831 80.0424 50.8647 79.7208 50.8093C79.5739 50.7831 79.427 50.7693 79.2847 50.7693ZM79.2847 52.3077C79.3393 52.3077 79.3977 52.3147 79.4608 52.3254C79.747 52.3747 80.1847 52.4793 80.4547 52.5708C80.8439 52.7085 81.2339 52.8462 81.6062 53.0054C82.5047 53.3954 83.3024 53.8793 84.0855 54.4847C84.1939 54.5693 84.3024 54.6547 84.4262 54.7231C84.6793 54.9062 84.9424 55.1877 85.2455 55.4685C85.3685 55.5631 85.4916 55.6647 85.5939 55.7854C85.6901 55.8977 85.9355 56.2077 86.0262 56.3454C86.1178 56.48 86.2578 56.647 86.3555 56.81C86.5439 57.1246 86.6901 57.4839 86.8909 57.7654C86.9778 57.8893 86.9647 58.0139 86.9224 58.1546C86.5732 59.3755 85.9239 61.7108 85.9239 61.7108L85.3747 63.477L84.8685 64.6285L83.937 66.5247L83.3832 67.5647L82.4193 69.4754L82.0085 70.1554L80.5678 72.2285L79.827 73.1423L79.5847 73.4754L78.8954 74.3978L77.6354 75.847L76.5454 76.8939L75.6139 77.8954L75.0285 78.4739L74.4731 78.9939L74.0716 79.2878L73.2262 79.9154L72.2985 80.587L71.6539 81.097L70.3316 82.0285L69.5701 82.5262L68.9808 82.8501L68.4854 83.1547L68.1824 83.3608L67.9247 83.4747C67.9247 83.4747 67.4462 83.727 67.4339 83.7362C67.4277 83.7424 64.627 85.0785 64.627 85.0785L63.5054 85.5154L63.11 85.6862L62.5193 85.7985L62.3716 85.5939C61.9701 85.0085 63.5647 84.9462 64.0677 84.5154C64.2524 84.3578 64.457 84.2239 64.6608 84.087C65.1354 83.7693 65.5508 83.3824 65.9531 82.9808C66.1231 82.8101 66.3224 82.6608 66.5085 82.5062C66.5801 82.4416 66.6654 82.3878 66.7316 82.317C67.0424 81.9901 67.3485 81.6624 67.6593 81.3354C68.0001 80.9754 68.3577 80.6293 68.677 80.2493C69.1939 79.6508 69.7001 79.0324 70.1877 78.4139C70.4477 78.0939 70.6601 77.7408 70.8924 77.397C70.9647 77.2924 71.0285 77.1885 71.107 77.0831C71.3985 76.6777 71.6662 76.2662 71.8978 75.8208C72.237 75.1924 72.6454 74.6039 73.0347 74.0016C73.2754 73.6262 73.5116 73.2431 73.6885 72.8247C73.8262 72.4939 74.0393 72.1931 74.1885 71.8631C74.4201 71.3554 74.6262 70.8362 74.8454 70.3224C74.8647 70.2731 74.8816 70.2101 74.9177 70.1616C75.3801 69.4224 75.6693 68.5924 75.9654 67.777C76.3239 66.7801 76.7093 65.7854 76.9139 64.7285C77.0077 64.2285 77.1539 63.7447 77.3585 63.2731C77.4777 62.9854 77.5201 62.6716 77.5862 62.3631C77.8185 61.2547 78.0585 60.1462 78.2701 59.0308C78.3824 58.4323 78.4677 57.8347 78.5393 57.2316C78.5954 56.7778 78.617 56.3193 78.657 55.8616C78.6947 55.3539 78.7308 54.8508 78.7785 54.3439C78.817 53.8562 78.8355 53.3193 78.8885 52.8362C78.9085 52.6493 78.9124 52.46 79.0362 52.3747C79.1147 52.3254 79.1954 52.3077 79.2847 52.3077Z" fill="white"/>
<path d="M88.0304 56.5184C87.7734 56.5184 87.525 56.3969 87.3465 56.1838C87.2311 56.0484 87.0858 55.8292 86.9488 55.6138C86.8565 55.47 86.7704 55.3261 86.7004 55.2492C86.5588 55.1253 86.4204 54.9777 86.3104 54.8307C85.9588 54.3684 85.4619 54.0053 84.9365 53.6207L84.0034 52.93L83.5811 52.6923C83.2742 52.523 82.985 52.363 82.695 52.2438C82.055 51.9838 81.3419 51.7484 80.7227 51.5477C80.6311 51.5192 80.5058 51.4915 80.3958 51.4661C80.3065 51.4446 80.225 51.4261 80.1619 51.4084L80.065 51.3915C79.9488 51.3707 79.8334 51.3469 79.7119 51.31C79.5127 51.2492 79.2073 51.1577 78.9988 50.8292C78.8327 50.5738 78.7896 50.2769 78.7834 50.0738C78.7834 50.0738 78.7804 49.6723 78.7758 49.51L78.7265 48.5069C78.7058 48.0915 78.685 47.6761 78.6673 47.2607C78.6127 45.733 78.3627 44.2584 78.0973 42.6961L78.045 42.3877C78.0042 42.1423 77.9619 41.9546 77.9211 41.77C77.8681 41.5307 77.8173 41.2961 77.7688 40.9777L77.7465 40.8477C77.6911 40.5346 77.6142 40.1061 77.8858 39.7177C78.2588 39.2307 78.8304 39.2307 79.1373 39.2307C79.5058 39.2307 79.7573 39.2346 80.075 39.2392L80.3465 39.243C81.065 39.2553 81.6158 39.2815 82.135 39.3276C82.7904 39.3892 83.5481 39.4646 84.2881 39.5915C84.7211 39.6638 85.1273 39.7792 85.5196 39.8907C85.6996 39.9415 85.8796 39.993 86.0627 40.04C86.2334 40.0815 86.4242 40.15 86.6111 40.2192C86.7042 40.2538 86.7965 40.2884 86.885 40.3161C87.0381 40.363 87.1965 40.4353 87.3427 40.5061C87.5827 40.6223 88.2758 40.9607 88.4604 41.8469C88.7019 43.0538 89.0096 45.3053 89.0234 45.4007L89.2934 47.9953L89.3042 48.4077L89.2942 50.6961L89.1296 53.0238C89.1296 53.0238 88.8365 55.6715 88.8227 55.773C88.8027 56.24 88.4073 56.5184 88.0304 56.5184" fill="#CE1141"/>
<path d="M79.0642 38.5886C78.7203 38.5886 77.8042 38.5886 77.2211 39.3517C77.2086 39.3681 77.1966 39.3847 77.1849 39.4017C76.7272 40.0509 76.8495 40.7386 76.9149 41.1079L76.9349 41.2225C76.988 41.5709 77.0457 41.8333 77.0965 42.0648C77.1349 42.2379 77.1749 42.4132 77.2134 42.6425L77.2657 42.9525C77.5265 44.4879 77.7719 45.9394 77.8249 47.4102C77.8434 47.844 77.8642 48.2663 77.8857 48.6894C77.9019 49.0202 77.9188 49.3502 77.9334 49.6817C77.9372 49.814 77.9388 49.9255 77.9396 50.0648L77.9411 50.194C77.9511 50.5286 78.0188 50.974 78.2857 51.3848C78.6388 51.9425 79.1888 52.1055 79.3688 52.1586C79.3749 52.1609 79.4026 52.1694 79.4088 52.1709C79.5896 52.2271 79.7419 52.2548 79.8526 52.2748C79.8765 52.2786 79.8996 52.2825 79.9234 52.2879C79.9865 52.3048 80.0642 52.3225 80.1472 52.3417C80.2365 52.3625 80.3388 52.384 80.418 52.4086C81.0165 52.6025 81.7119 52.8317 82.3311 53.084C82.5811 53.1855 82.8526 53.3363 83.1396 53.4955C83.2534 53.5586 83.368 53.6217 83.4826 53.684L84.0596 54.1109L84.2419 54.2463L84.4096 54.3694C84.8888 54.7194 85.3411 55.0509 85.6296 55.4286C85.7449 55.5832 85.8926 55.7463 86.0626 55.904C86.1134 55.974 86.1688 56.0655 86.228 56.1571C86.3726 56.3825 86.5219 56.6155 86.6934 56.8163C87.0088 57.1932 87.4734 57.4148 87.9572 57.4148C88.6611 57.4148 89.4326 56.9032 89.518 55.9532C89.5319 55.8363 89.548 55.6786 89.548 55.6786L89.818 53.2671C89.8202 53.2463 89.822 53.2256 89.8234 53.2048L89.9857 50.9286C89.9881 50.8946 89.9894 50.8604 89.9896 50.8263L90.0003 48.5563L89.9934 48.1748C89.9925 48.1308 89.9897 48.0869 89.9849 48.0432L89.7172 45.4725C89.7158 45.4563 89.714 45.4401 89.7119 45.424C89.698 45.3279 89.3873 43.0532 89.1426 41.8294C88.9657 40.984 88.4542 40.3548 87.6188 39.9471C87.4665 39.874 87.2672 39.7779 87.0296 39.7055C86.9672 39.6855 86.888 39.6555 86.8065 39.6255C86.6172 39.5555 86.4034 39.4763 86.1665 39.4179C86.0034 39.3763 85.8303 39.3271 85.6572 39.2779C85.2442 39.1609 84.8172 39.0394 84.3365 38.9594C83.578 38.8294 82.8019 38.7517 82.1349 38.6894C81.5919 38.6402 81.0234 38.6132 80.288 38.6017L79.988 38.5971C79.6788 38.5925 79.4272 38.5886 79.0642 38.5886ZM79.0642 40.1271C79.5265 40.1271 79.8026 40.1332 80.2626 40.1394C80.8419 40.1494 81.4157 40.1694 81.9926 40.2217C82.688 40.2863 83.3949 40.3586 84.0842 40.4771C84.6719 40.5748 85.2203 40.764 85.7996 40.9125C86.0503 40.974 86.3311 41.0986 86.5803 41.1771C86.7065 41.2155 86.8296 41.2748 86.9442 41.3302C87.2865 41.4971 87.5465 41.7132 87.6342 42.1317C87.8719 43.3217 88.1865 45.6317 88.1865 45.6317L88.4549 48.2025L88.4619 48.5494L88.4511 50.8194L88.2888 53.0963L88.0172 55.5294C88.0172 55.5294 87.9996 55.7032 87.9872 55.7978C87.9849 55.8432 87.9788 55.8763 87.9572 55.8763C87.938 55.8763 87.9019 55.864 87.8634 55.8179C87.6396 55.5555 87.3357 54.9802 87.1572 54.8194C87.0465 54.7217 86.9396 54.6132 86.8526 54.4963C86.3888 53.8871 85.7634 53.4563 85.1588 53.0117C84.9034 52.8209 84.6442 52.6279 84.3865 52.4386C84.3396 52.4025 84.2911 52.3663 84.2396 52.3432C83.7965 52.1078 83.3696 51.8455 82.9119 51.6594C82.2626 51.3948 81.5534 51.1594 80.8857 50.9432C80.7026 50.8855 80.4342 50.8325 80.2903 50.794C80.1496 50.7609 80.0134 50.7479 79.8665 50.7025C79.7457 50.6625 79.6411 50.6486 79.5749 50.544C79.5134 50.4494 79.4834 50.3094 79.4795 50.1786C79.4772 49.9625 79.4772 49.8248 79.4703 49.6125C79.4365 48.8571 79.3942 48.1079 79.3626 47.3555C79.3026 45.6779 79.0088 44.0348 78.7296 42.3863C78.6365 41.8302 78.5403 41.5494 78.4557 40.9894C78.4126 40.7117 78.3349 40.4409 78.4426 40.2863C78.558 40.1363 78.8196 40.1271 79.0642 40.1271Z" fill="white"/>
<path d="M68.958 29.0323C68.4657 29.0323 68.0219 29.007 67.6404 28.957C66.6611 28.8347 64.8173 28.3631 64.7403 28.3431L62.9349 27.6939C62.7773 27.637 62.6427 27.5293 62.5511 27.3885L62.0319 26.5854L60.5388 26.2477C60.3964 26.2478 60.2569 26.2084 60.1356 26.1338C60.0143 26.0592 59.9161 25.9525 59.8519 25.8254L59.4334 25.3493C59.341 25.3044 59.2584 25.2416 59.1903 25.1647L58.5603 24.4523L58.0034 24.4154C57.7557 24.3985 57.5303 24.2623 57.3996 24.05L57.1434 23.6331L55.2973 23.01L53.9357 23.54C53.8457 23.5754 53.7511 23.5923 53.6565 23.5923C53.5219 23.5923 53.3865 23.557 53.2673 23.4862C53.1519 23.4193 53.0588 23.3239 52.9934 23.2123L50.5765 22.0362C50.4834 22.0216 50.3942 21.9954 50.3242 21.9547L48.7103 21.0216L45.6027 20.84C45.5257 20.8654 45.4457 20.8777 45.3642 20.8777C45.3565 20.8777 44.0719 20.8431 44.0719 20.8431C43.9919 20.8706 43.908 20.8846 43.8234 20.8847C43.6273 20.8847 43.4342 20.81 43.2873 20.667L42.408 19.8147C42.3311 19.7839 42.2596 19.74 42.195 19.6854L41.2757 18.897L38.8419 18.7708C38.7973 18.7793 38.7527 18.7839 38.7088 18.7839C38.6919 18.7839 36.5557 18.6116 36.5557 18.6116C36.5092 18.6077 36.4631 18.5995 36.418 18.587C36.418 18.587 35.485 18.5139 35.4834 18.5139C35.4288 18.5139 33.888 18.4762 33.888 18.4762C33.8443 18.4756 33.8008 18.4707 33.758 18.4616L33.2327 18.6777L32.1257 19.0647C32.0575 19.0884 31.9863 19.1024 31.9142 19.1062L31.8434 19.11L29.8727 19.8654L28.9942 20.1793C28.4903 20.3762 28.3365 20.43 28.2265 20.4447C28.0734 20.4908 27.7588 20.5985 27.7588 20.5985L26.6334 21.04C26.5434 21.0746 26.4488 21.0931 26.3527 21.0931L25.4303 21.4677C25.338 21.5053 25.2393 21.5246 25.1396 21.5247C25.1265 21.5247 25.0903 21.5231 25.085 21.5231C24.8796 21.5954 24.5165 21.7293 24.5165 21.7293L24.0673 21.8662C23.9953 21.8875 23.9207 21.8984 23.8457 21.8985C23.6513 21.8985 23.4641 21.8249 23.3219 21.6923C23.1227 21.507 23.0357 21.2293 23.095 20.9631C23.1511 20.71 23.2557 20.5685 23.9365 19.9854L24.3273 19.657L25.4165 18.7977L26.5911 18.0047L27.6834 17.1423C27.7034 17.1262 27.725 17.1108 27.7465 17.097L27.9103 16.9931L28.9627 16.4331L29.268 16.2562L30.215 15.7623L31.1311 15.16L32.3111 14.5185L32.8757 14.2462L34.538 13.5954L35.7888 13.0754L36.2642 12.8916L36.6219 12.6823C36.6803 12.6485 36.7434 12.6223 36.8088 12.6047L37.558 12.4016L37.8165 12.2431C37.8789 12.2054 37.9462 12.1764 38.0165 12.157L38.595 11.9993L39.5119 11.6647C39.5957 11.6347 39.6842 11.6193 39.7734 11.6193C39.7811 11.6193 39.9503 11.6247 39.9503 11.6247L40.8688 11.4454L41.4757 11.2577C41.5019 11.2493 41.528 11.2431 41.5542 11.2377L42.4073 11.0685L43.3003 10.967L44.3042 10.9393L45.4542 10.807L46.7434 10.7693L47.515 10.7831L47.9942 10.8323L49.135 10.9077C49.1657 10.91 49.1957 10.9139 49.2257 10.9193L50.1427 11.0916L50.6096 11.107C50.6473 11.1077 50.685 11.1123 50.7219 11.1185L51.8173 11.3177L52.3903 11.4647L52.4973 11.4831L53.2657 11.6654C53.2988 11.6731 53.3319 11.6831 53.3642 11.6947L55.2065 12.3885L56.4411 12.837L56.7727 12.9762L58.3619 13.8323L60.5788 15.1793L61.2111 15.5147C61.2496 15.5347 61.2857 15.5585 61.3196 15.5847L63.1727 17.0162L65.4888 19.1547L66.1357 19.7885L68.2211 22.077C68.2388 22.0962 68.2565 22.117 68.2719 22.1385L68.6196 22.61L68.9627 23.0146L70.8127 25.6754L71.2557 26.367C71.5373 26.8624 71.7073 27.1731 71.7773 27.3162C71.9834 27.6747 72.0165 28.01 71.8811 28.3231C71.6496 28.8723 71.1242 28.9216 70.9519 28.9385C70.8296 28.9523 70.6927 28.96 70.5457 28.967L70.3027 28.9808C69.9327 29.007 69.4565 29.0323 68.9588 29.0323H68.958Z" fill="#CE1141"/>
<path d="M46.7647 10H46.7232L45.4993 10.0331C45.4556 10.0345 45.412 10.0378 45.3686 10.0431L44.2186 10.1723L43.3478 10.1938C43.3038 10.1946 43.2599 10.1977 43.2163 10.2031L42.3886 10.2946C42.3447 10.2992 42.3017 10.3054 42.2586 10.3146L41.4055 10.4831C41.3532 10.4938 41.3009 10.5069 41.2501 10.5231L40.6824 10.6985L39.8878 10.8531L39.8224 10.8508C39.8063 10.85 39.7901 10.85 39.7747 10.85C39.5961 10.8501 39.4188 10.8814 39.2509 10.9423L38.3332 11.2738L37.8147 11.4146C37.6747 11.4531 37.5401 11.5108 37.4163 11.5869L37.2509 11.6877L36.6078 11.8623C36.4773 11.8974 36.3521 11.95 36.2355 12.0185L35.9309 12.1954L35.5301 12.3508C35.5178 12.3554 35.5055 12.36 35.494 12.3654L34.2271 12.8915L32.6501 13.5069C32.6139 13.5209 32.5782 13.5363 32.5432 13.5531L32.0117 13.8085C31.9894 13.8192 31.9671 13.83 31.9455 13.8423L30.8201 14.4508C30.7824 14.4708 30.7463 14.4923 30.7109 14.5162L29.7932 15.1146L28.9432 15.5577C28.9232 15.5677 28.904 15.5785 28.884 15.59L28.5786 15.7662L27.6032 16.2831C27.5671 16.3023 27.5317 16.3231 27.4971 16.3454L27.3332 16.4492C27.2903 16.4767 27.2487 16.5062 27.2086 16.5377L26.1147 17.3985L25.2186 18.0023L25.0355 18.1254C25.0032 18.1471 24.9716 18.1699 24.9409 18.1938L23.8701 19.0377L23.8332 19.0685L23.4478 19.3915C22.7855 19.9592 22.4663 20.2515 22.3447 20.7923C22.2861 21.0545 22.2971 21.3275 22.3766 21.5841C22.456 21.8408 22.6013 22.0722 22.7978 22.2554C23.0826 22.5204 23.4572 22.6677 23.8463 22.6677C23.9961 22.6675 24.145 22.6458 24.2886 22.6031L24.6932 22.4815C24.7232 22.4723 24.7524 22.4623 24.7824 22.4515C24.9275 22.3977 25.0729 22.3446 25.2186 22.2923C25.3914 22.2831 25.5614 22.2451 25.7217 22.18L26.5224 21.8531C26.6563 21.8385 26.7886 21.8062 26.914 21.7562L28.0417 21.3146C28.1155 21.2892 28.294 21.2292 28.4124 21.1931C28.6155 21.1531 28.8447 21.0646 29.2755 20.8962L30.1155 20.5962L32.0094 19.8708C32.1355 19.8592 32.2601 19.8331 32.3794 19.7915L33.4478 19.4192C33.474 19.4099 33.4999 19.3999 33.5255 19.3892L33.8755 19.2462C33.9663 19.2477 35.1355 19.2762 35.4617 19.2838L36.3155 19.3508C36.3763 19.3638 36.4371 19.3738 36.494 19.3785L38.5963 19.5485C38.6386 19.5515 38.6793 19.5531 38.7209 19.5531C38.7786 19.5531 38.8347 19.5508 38.8917 19.5439L40.974 19.6515L41.6947 20.2692C41.7772 20.3401 41.8669 20.402 41.9624 20.4538L42.7532 21.22C43.0463 21.5046 43.4324 21.6538 43.824 21.6538C43.9386 21.6538 44.0532 21.6408 44.1663 21.6154L45.3224 21.6469C45.337 21.6469 45.3509 21.6477 45.3647 21.6477C45.4701 21.6477 45.5755 21.6362 45.677 21.6154L48.4832 21.7792L49.9393 22.6208C50.0732 22.6977 50.217 22.7546 50.3647 22.7885L52.4863 23.8215C52.597 23.95 52.7278 24.0615 52.8778 24.15C53.117 24.2908 53.387 24.3615 53.657 24.3615C53.8463 24.3615 54.0355 24.3269 54.2155 24.2569L55.3163 23.8285L56.6347 24.2731L56.7455 24.4539C57.0063 24.8777 57.4563 25.15 57.9532 25.1831L58.1947 25.1992L58.614 25.6738C58.7094 25.7828 58.82 25.8773 58.9424 25.9546L59.2209 26.2715C59.4778 26.6992 59.9347 26.9846 60.4493 27.0146L61.5563 27.2662L61.9055 27.8062C62.0877 28.0883 62.3574 28.3028 62.6732 28.4169L64.4078 29.0454C64.4547 29.0623 64.5017 29.0762 64.5493 29.0885C64.7493 29.14 66.5355 29.5946 67.5501 29.7208C67.9555 29.7738 68.4317 29.8015 68.9578 29.8015C69.3847 29.8015 69.8417 29.7838 70.3563 29.7485C70.4347 29.7431 70.5101 29.7392 70.5824 29.7354C70.7478 29.7277 70.9017 29.7185 71.0393 29.7023C72.0317 29.6092 72.4401 28.9792 72.5947 28.6123C72.7501 28.2538 72.857 27.6608 72.4586 26.9562C72.3978 26.8354 72.267 26.59 71.9493 26.0254C71.9347 26.0008 71.9201 25.9754 71.904 25.9508L71.4763 25.2838C71.466 25.268 71.4555 25.2524 71.4447 25.2369L69.6386 22.6338C69.6116 22.5944 69.5826 22.5564 69.5517 22.52L69.2093 22.1138L68.8924 21.6831C68.8609 21.6392 68.827 21.5985 68.7909 21.5585L68.1947 20.9038L66.7347 19.3015C66.7157 19.2801 66.6957 19.2596 66.6747 19.24L66.0455 18.6215C66.0347 18.6108 66.024 18.6 66.0124 18.59L63.7486 16.4962C63.715 16.4655 63.6801 16.4362 63.644 16.4085L61.7909 14.9762C61.7222 14.923 61.6492 14.8759 61.5724 14.8354L60.9409 14.5L58.7955 13.1946C58.7736 13.1812 58.7513 13.1683 58.7286 13.1562L57.2047 12.3315C57.1617 12.3077 57.1178 12.2869 57.0732 12.2677L56.7794 12.1438C56.7546 12.1329 56.7295 12.1229 56.704 12.1138L55.4609 11.6631L53.6355 10.9754C53.5715 10.9514 53.506 10.9316 53.4394 10.9162L53.2971 10.8831L52.7163 10.7431C52.6909 10.7369 52.6647 10.7315 52.6394 10.7262L52.534 10.7062L52.0671 10.5854C52.0301 10.5761 51.9929 10.5679 51.9555 10.5608L50.8594 10.3623C50.7852 10.3484 50.7101 10.3402 50.6348 10.3377L50.2263 10.3246L49.3686 10.1631C49.3086 10.1522 49.248 10.1447 49.1871 10.1408L48.0471 10.0638L47.6671 10.0231C47.6217 10.0177 47.5763 10.0154 47.5301 10.0138L46.794 10H46.7647ZM46.7647 11.5385L47.5009 11.5523L47.9117 11.5969L49.0847 11.6754L50.0593 11.8585L50.5847 11.8754L51.6801 12.0746L52.1978 12.2092L52.3547 12.2385L52.9509 12.3823L53.0932 12.4154L54.9363 13.1092L56.1793 13.56L56.4732 13.6846L57.9963 14.5092L60.1801 15.8369L60.8501 16.1938L62.7032 17.6254L64.9678 19.7192L65.5978 20.3377L67.057 21.94L67.6532 22.5946L68.0001 23.0662L68.3747 23.5108L70.1817 26.1138L70.6093 26.7815C70.6093 26.7815 71.0478 27.5592 71.0963 27.6738C71.1301 27.7369 71.2347 27.8808 71.1755 28.0177C71.1178 28.1554 70.9963 28.1615 70.8647 28.1738C70.6878 28.1946 70.4793 28.1977 70.2493 28.2138C69.894 28.2385 69.437 28.2631 68.9578 28.2631C68.5517 28.2631 68.1293 28.2454 67.7401 28.1946C66.794 28.0762 64.9317 27.5985 64.9317 27.5985L63.1978 26.9708L62.5078 25.9046L60.6332 25.4792H60.5393L60.5286 25.43L59.8517 24.6585L59.767 24.6554L58.9286 23.7062L58.0555 23.6477L57.654 22.9938L55.2794 22.1923L53.657 22.8231L53.6363 22.67L50.7801 21.2792L50.7101 21.2892L49.0924 20.3538L49.0717 20.2723L45.437 20.06L45.3647 20.1092L43.9193 20.0692L43.824 20.1154L42.7747 19.0985L42.6963 19.1015L41.6663 18.2185L41.6493 18.1462L38.7447 17.9962L38.7209 18.0146L36.6186 17.8446L36.5847 17.8292L35.5463 17.7469C35.5247 17.7469 33.9078 17.7077 33.9078 17.7077L33.7863 17.6192L32.9409 17.9662L31.8732 18.3385L31.6817 18.3492L29.5986 19.1469L28.7363 19.4546C28.7363 19.4546 28.1578 19.6808 28.1209 19.6808C28.1201 19.6808 28.1194 19.6808 28.1194 19.68C28.1194 19.6792 28.1186 19.6792 28.1163 19.6792C28.0747 19.6792 27.5124 19.87 27.5124 19.87L26.3532 20.3238H26.1978L25.1401 20.7554C25.1401 20.7554 25.0124 20.7492 24.9978 20.7431H24.9971C24.9694 20.7431 24.2501 21.0085 24.2501 21.0085L23.8463 21.1292C23.8609 21.0631 24.4378 20.57 24.4378 20.57L24.8232 20.2462L25.8932 19.4023L26.0786 19.2785L27.0209 18.6431L28.1594 17.7469L28.3232 17.6431L29.324 17.1131L29.6532 16.9223L30.5709 16.4446L31.5517 15.8038L32.6778 15.1954L33.2094 14.94L34.8178 14.3123L36.0847 13.7854L36.5993 13.5869L37.0101 13.3469L37.8655 13.1154L38.2186 12.8992L38.7978 12.7415L39.774 12.3885L40.0124 12.3962L41.0578 12.1931L41.704 11.9923L42.5578 11.8238L43.3855 11.7315L44.324 11.7085L45.5409 11.5715L46.7647 11.5385Z" fill="white"/>
<path d="M86.9315 40.6037C86.7961 40.6037 86.643 40.5721 86.5438 40.5429L86.4199 40.5075C86.2061 40.4452 85.9968 40.3821 85.8007 40.2929C85.4376 40.1237 85.0422 39.9937 84.6568 39.9145L84.2561 39.8291C83.8691 39.746 83.4799 39.6629 83.0922 39.5906C82.8822 39.5568 82.4161 39.5083 82.4122 39.5075C81.7976 39.4506 81.0445 39.3883 80.9153 39.3875C80.2253 39.3998 79.5353 39.4198 78.8445 39.4429C78.6491 39.4521 78.4407 39.4598 78.2322 39.4598C77.663 39.4598 77.2345 39.1244 77.1022 38.5844L77.0045 38.2098C76.9615 38.0421 76.9184 37.8768 76.8722 37.7114L76.5976 36.8245L76.3353 35.9975C76.2115 35.6075 76.0876 35.2168 75.9607 34.8283C75.8853 34.5998 75.7861 34.3691 75.6853 34.1421C75.5661 33.866 75.4599 33.596 75.3545 33.3268C75.1615 32.8337 74.9799 32.3683 74.7407 31.9329C74.5507 31.5798 74.3838 31.2183 74.2184 30.8583L74.0015 30.3929C73.9438 30.2768 73.8968 30.1337 73.8668 29.9791C73.8114 29.6691 73.8691 29.4121 74.0361 29.1798C74.2345 28.9375 74.4399 28.8544 74.5499 28.8098C74.6653 28.7621 75.0622 28.5783 75.0622 28.5783L75.593 28.2698C75.5907 28.2698 75.9515 28.0314 76.0391 27.966C76.1499 27.8837 76.6515 27.4698 76.673 27.4529H76.6722C76.6707 27.4529 77.2938 26.8783 77.5922 26.5483C77.7884 26.3306 78.323 25.5052 78.6391 24.9891C78.7341 24.8335 78.8814 24.7167 79.0545 24.6598C79.1376 24.6314 79.2276 24.6152 79.3138 24.6152C79.6253 24.6152 79.8815 24.7575 80.0761 25.0383C80.1868 25.1675 80.4422 25.4737 80.4422 25.4737L83.2268 29.2375L83.6415 29.9091L84.223 31.0721L84.7991 32.0091C84.8153 32.0368 84.8307 32.0652 84.8438 32.0945L85.3499 33.2198L85.7653 34.2183L86.6461 36.1806L86.9538 37.0345L87.2661 37.9652L87.3761 38.3868L87.4638 38.6183C87.5007 38.7191 87.6922 39.2514 87.7492 39.5798C87.8099 39.9391 87.643 40.3998 87.2184 40.5544L87.2176 40.5529C87.1253 40.586 87.023 40.6037 86.9315 40.6037Z" fill="#CE1141"/>
<path d="M79.3147 23.8459C79.1493 23.8459 78.9801 23.8744 78.8201 23.9275C78.477 24.039 78.1778 24.2698 77.9847 24.5867C77.6032 25.2082 77.1516 25.8867 77.0186 26.0382C76.8039 26.2744 76.3386 26.7136 76.1524 26.8867C76.0401 26.9782 75.6878 27.2675 75.587 27.3436C75.5016 27.4067 75.2678 27.5621 75.1716 27.6259L74.6801 27.9082C74.5716 27.9582 74.3539 28.0582 74.2816 28.089C74.1186 28.1552 73.7709 28.2952 73.4809 28.6429C73.4563 28.6729 73.4324 28.7029 73.4093 28.7344C73.1224 29.1359 73.0201 29.5929 73.1062 30.0929C73.1555 30.349 73.2255 30.559 73.3209 30.7498C73.3809 30.8767 73.4524 31.0305 73.5232 31.1852C73.6893 31.5452 73.8601 31.9175 74.0609 32.2913C74.2832 32.6952 74.4563 33.1382 74.6393 33.6067C74.7478 33.8844 74.857 34.1636 74.9762 34.439C75.0686 34.6475 75.1655 34.8729 75.2332 35.0752C75.3547 35.4452 75.4747 35.8252 75.5947 36.2044C75.6861 36.4949 75.7784 36.7852 75.8716 37.0752C75.9062 37.1913 75.9524 37.3382 75.9978 37.4844C76.0455 37.6352 76.0932 37.7859 76.137 37.9375C76.1786 38.0805 76.2186 38.2382 76.2586 38.3967C76.2924 38.5275 76.3262 38.6598 76.3624 38.7921C76.5832 39.6529 77.3278 40.229 78.2232 40.229C78.4547 40.229 78.6755 40.2213 78.8962 40.2105C79.557 40.189 80.2439 40.169 80.937 40.1567C81.0501 40.1605 81.7701 40.2213 82.3524 40.2744C82.3516 40.2744 82.7786 40.319 82.9886 40.3529C83.3286 40.4167 83.7055 40.4975 84.0809 40.5775L84.4963 40.6667C84.8255 40.7344 85.1724 40.849 85.4778 40.9898C85.7462 41.1129 86.0001 41.1859 86.2047 41.2459L86.3224 41.2798C86.4262 41.3105 86.6709 41.3729 86.9332 41.3729C87.1186 41.3729 87.3124 41.3383 87.4916 41.2729L87.4924 41.2736C88.3062 40.9713 88.6239 40.1067 88.5086 39.4467C88.4432 39.0744 88.2616 38.5575 88.1862 38.3513L88.1047 38.1236L88.0262 37.8229C88.017 37.789 88.0078 37.7552 87.9962 37.7221L87.6901 36.8059L87.3947 35.9775C87.3809 35.9398 87.3662 35.9029 87.3493 35.8659L86.4686 33.9036L86.0701 32.9452C86.0647 32.9321 86.0593 32.9175 86.0532 32.9044L85.547 31.779C85.5193 31.7198 85.4901 31.6636 85.4562 31.6082L84.8832 30.6705L84.7716 30.4429L84.3624 29.6229C84.3424 29.5836 84.3208 29.5451 84.2978 29.5075L83.9209 28.8921C83.8977 28.8542 83.873 28.8173 83.847 28.7813L83.687 28.5652L81.0909 25.0521C81.0724 25.0275 81.0539 25.0029 81.0339 24.9798C81.0339 24.9798 80.8255 24.7305 80.6847 24.5667C80.2409 23.9421 79.637 23.8459 79.3147 23.8459ZM79.3147 25.3844C79.3978 25.3844 79.417 25.4429 79.477 25.5213C79.6047 25.6682 79.8532 25.9659 79.8532 25.9659L82.4493 29.4798L82.6093 29.6952L82.9855 30.3105L83.3924 31.1244L83.5347 31.4129L84.1432 32.4098L84.6501 33.5359L85.0562 34.5136L85.9455 36.4959L86.2309 37.2936L86.5378 38.2098L86.6332 38.579L86.7416 38.8798C86.7416 38.8798 86.9447 39.4344 86.9924 39.7113C86.9986 39.7475 86.9739 39.8252 86.957 39.8313C86.9524 39.8336 86.9439 39.8344 86.9332 39.8344C86.8932 39.8344 86.8147 39.8213 86.7632 39.8059C86.5424 39.7398 86.3224 39.6844 86.1224 39.5929C85.7116 39.4036 85.2562 39.2521 84.8132 39.1613C84.2886 39.0505 83.7601 38.9321 83.2347 38.8344C82.9916 38.7952 82.4947 38.7429 82.4947 38.7429C82.4947 38.7429 81.1439 38.6183 80.917 38.6183H80.9086C80.2086 38.6313 79.5155 38.6513 78.8209 38.6736C78.6255 38.6836 78.4301 38.6905 78.2339 38.6905H78.2232C78.0293 38.6905 77.8986 38.6021 77.8509 38.4021C77.7678 38.0982 77.697 37.7967 77.6124 37.4998C77.5232 37.199 77.4255 36.9013 77.3362 36.6029C77.1209 35.9359 76.9124 35.259 76.6932 34.589C76.6078 34.3336 76.5001 34.0782 76.3886 33.829C76.0616 33.0705 75.8162 32.2913 75.417 31.5629C75.1547 31.0759 74.9355 30.5613 74.697 30.0621C74.6609 29.989 74.6378 29.9105 74.6224 29.8329C74.6055 29.7336 74.6186 29.689 74.6609 29.6298C74.7101 29.5713 74.7955 29.5413 74.8678 29.5113C74.9401 29.4829 75.387 29.2767 75.387 29.2767L75.9801 28.9359C75.9801 28.9359 76.4086 28.6521 76.5039 28.5798C76.6024 28.5082 77.1632 28.0459 77.1632 28.0459C77.1632 28.0459 77.8316 27.4313 78.1639 27.0652C78.4978 26.6929 79.2962 25.3906 79.2962 25.3906C79.3016 25.3906 79.3086 25.3844 79.3147 25.3844Z" fill="white"/>
<path d="M73.3785 28.6368C73.0054 28.6368 72.6208 28.4199 72.4 28.0837L72.31 27.9568C72.1661 27.7514 72.0023 27.5183 71.8746 27.2491C71.7215 26.9176 71.5046 26.5922 71.1884 26.2168C70.8223 25.7729 70.5362 25.306 70.2592 24.8545C70.1715 24.7114 70.0838 24.5683 69.9946 24.4268C69.9654 24.3837 69.9361 24.3314 69.9077 24.2783C69.6638 23.9791 69.4531 23.7076 69.2431 23.436C68.9192 23.0183 68.6138 22.6237 68.2646 22.2783C67.8892 21.9022 67.5661 21.4945 67.2992 21.146C67.0369 20.8045 66.7238 20.496 66.3908 20.1699L66.2269 20.0076C65.7108 19.516 65.3177 19.1214 64.9615 18.7376C64.7492 18.5083 64.4877 18.3076 64.2108 18.0945C64.0669 17.9837 63.9223 17.8729 63.7815 17.7568C63.7815 17.7568 63.46 17.4829 63.4115 17.4391C63.37 17.4014 63.3308 17.3591 63.2846 17.3306C62.8446 17.0852 62.5038 16.7899 62.2177 16.5314C61.89 16.2214 61.5338 15.9514 61.1461 15.7168C60.4377 15.2968 59.7261 14.8806 59.0046 14.4668C58.8777 14.3906 58.7423 14.3345 58.5523 14.2776C58.3023 14.2052 58.0715 14.0991 57.8669 14.0052C57.7692 13.9606 57.6715 13.916 57.5715 13.876C57.3423 13.7829 57.1131 13.696 56.8846 13.6091C56.6392 13.516 56.3946 13.4229 56.1523 13.3252C56.0784 13.2991 55.8654 13.1929 55.8654 13.1929C55.7784 13.1506 55.7069 13.0945 55.6423 13.023L55.5831 12.9568C55.3092 12.6537 55.32 12.1883 55.6092 11.8983L55.7431 11.7645C55.8885 11.6191 56.0846 11.5383 56.2877 11.5383C56.3123 11.5383 56.3377 11.5391 56.3631 11.5422L56.6008 11.5653C56.6308 11.5683 56.6592 11.5722 56.6877 11.5791L58.2046 11.9053L59.7961 12.3076C59.86 12.3268 61.8577 13.0206 62.0392 13.0768V13.0791C62.1531 13.113 62.3477 13.1814 62.7408 13.3183L62.7384 13.3252C62.96 13.3991 63.4238 13.5806 64.57 14.0314L68.0123 15.6583L72.38 18.2776C72.42 18.3014 72.4577 18.3291 72.4923 18.3591L73.35 19.1129C73.5438 19.2637 73.6869 19.3745 73.7915 19.4683L73.7961 19.4637C73.8477 19.5068 76.2738 21.4706 76.2738 21.4706L76.4423 21.6152L76.9554 22.1199C76.9892 22.1529 77.02 22.1899 77.0477 22.2291L77.2762 22.5599L77.6246 22.9591C77.6577 22.9976 77.6877 23.0391 77.7131 23.0837L77.8477 23.3199C78.0862 23.6822 78.1215 23.8522 78.1369 23.9245C78.1869 24.1783 78.13 24.4583 77.9677 24.7622L77.3792 25.7491C77.3661 25.7729 77.3508 25.7952 77.3346 25.8168L77 26.2622C76.9192 26.3591 76.4723 26.8776 76.2269 27.1091C76.0577 27.2599 75.8377 27.4268 75.6631 27.5583C75.5823 27.6191 75.5131 27.6699 75.4777 27.7006C75.32 27.8499 74.9946 28.0245 74.8154 28.1137L74.2431 28.3668L73.9185 28.5006C73.8115 28.5468 73.6354 28.6122 73.4746 28.6314C73.4446 28.6352 73.4092 28.6368 73.3785 28.6368" fill="#CE1141"/>
<path d="M56.2878 10.7693C55.88 10.7695 55.4889 10.9313 55.2001 11.2193L55.0663 11.3539C54.4871 11.9323 54.4632 12.8639 55.0109 13.4716L55.0709 13.5377C55.1971 13.6785 55.3494 13.7947 55.5186 13.88C55.6171 13.93 55.7555 13.997 55.8824 14.0454C56.1232 14.1423 56.3663 14.2346 56.6101 14.3277C56.8347 14.4131 57.0594 14.4985 57.2832 14.5885C57.3717 14.6247 57.4578 14.6647 57.5448 14.7047C57.7624 14.8047 58.034 14.9285 58.3471 15.0185C58.4571 15.0523 58.5409 15.0854 58.6025 15.1216C59.3242 15.5367 60.0429 15.957 60.7586 16.3823C61.0886 16.5823 61.4009 16.8185 61.6755 17.0785C62.0124 17.3831 62.3832 17.7039 62.854 17.9716C62.8678 17.9839 62.8801 17.9962 62.894 18.0077C62.9517 18.0608 63.0094 18.1123 63.0686 18.1616L63.1432 18.2247L63.2594 18.3231C63.2701 18.3323 63.2809 18.3416 63.2909 18.35C63.4386 18.4723 63.5901 18.5893 63.7417 18.7054C64.0032 18.9054 64.2286 19.0785 64.3955 19.2593C64.7648 19.6562 65.1686 20.0616 65.7071 20.5754L65.8563 20.7223C66.1671 21.0285 66.4609 21.317 66.6878 21.6139C66.9709 21.9823 67.3132 22.4123 67.7132 22.8154C68.0363 23.1354 68.3271 23.5108 68.6363 23.9093C68.8301 24.16 69.0301 24.4185 69.2486 24.677C69.2871 24.7462 69.3201 24.8024 69.3555 24.857C69.4332 24.9785 69.5186 25.1185 69.6048 25.2585C69.8948 25.7323 70.1955 26.2223 70.5924 26.7023C70.8709 27.0339 71.0524 27.3047 71.1724 27.5639C71.3355 27.9085 71.5278 28.1823 71.6832 28.4023L71.774 28.5323C72.124 29.0623 72.7448 29.4062 73.3786 29.4062C73.3978 29.4062 73.424 29.4062 73.444 29.4047C73.4831 29.4031 73.5221 29.4 73.5609 29.3954C73.7663 29.3723 73.994 29.307 74.2378 29.2008L74.514 29.0877C74.5278 29.0823 74.5409 29.0762 74.5548 29.0708C74.5555 29.0708 74.944 28.8985 75.0832 28.8377C75.109 28.8267 75.1344 28.8149 75.1594 28.8023C75.514 28.6247 75.7894 28.4508 75.9786 28.2854C76.0148 28.2562 76.0671 28.217 76.1278 28.1716C76.3094 28.0347 76.5363 27.8639 76.7217 27.6985C76.7321 27.6895 76.7423 27.6802 76.7524 27.6708C77.0163 27.4231 77.4317 26.9423 77.554 26.8008C77.5748 26.7762 77.5948 26.7508 77.6148 26.7247L77.9486 26.28C77.9817 26.2362 78.0117 26.1908 78.0401 26.1439L78.6109 25.1885C78.6224 25.1677 78.6348 25.1462 78.6455 25.1254C78.8171 24.8047 78.9986 24.31 78.8909 23.7747C78.8532 23.5885 78.7755 23.3393 78.4932 22.9008L78.3832 22.7054C78.3317 22.6154 78.2717 22.5316 78.204 22.4531L77.884 22.0862L77.6801 21.7916C77.6257 21.7133 77.5641 21.6402 77.4963 21.5731L77.024 21.1062C76.9982 21.0803 76.9716 21.0554 76.944 21.0316L76.7963 20.9054C76.784 20.8941 76.7711 20.8833 76.7578 20.8731L75.3786 19.7562C74.8294 19.3116 74.3532 18.9262 74.2878 18.8723L74.2817 18.88C74.1494 18.76 73.9955 18.6393 73.8232 18.5054L72.9994 17.7816C72.93 17.7207 72.8554 17.6661 72.7763 17.6185L68.4755 15.0354C68.4324 15.0093 68.387 14.9847 68.3417 14.9639L64.9471 13.357C64.9157 13.3416 64.8836 13.3277 64.8509 13.3154C63.797 12.9016 63.2824 12.6993 62.9901 12.6008L62.9932 12.5924C62.6324 12.4662 62.4163 12.3901 62.2686 12.3447L62.2694 12.3431C62.1355 12.3001 61.057 11.9285 60.1124 11.6001C60.0707 11.5857 60.0283 11.5732 59.9855 11.5624L58.4209 11.1662C58.4031 11.1617 58.3851 11.1576 58.367 11.1539L56.8494 10.827C56.7923 10.8146 56.7345 10.8056 56.6763 10.8L56.4378 10.7762C56.388 10.7716 56.3379 10.7693 56.2878 10.7693ZM56.2878 12.3077L56.5263 12.3308L58.0432 12.6577L59.6071 13.0539C59.6071 13.0539 61.8025 13.8154 61.8248 13.8154C61.8309 13.8154 62.4871 14.0447 62.4871 14.0447C62.4994 14.0447 64.2886 14.747 64.2886 14.747L67.6832 16.3539L71.984 18.9377L72.8424 19.6908C72.8424 19.6908 73.2986 20.047 73.2986 20.05C73.3032 20.057 74.9586 21.3946 75.7894 22.0677C75.8378 22.11 75.9424 22.1993 75.9424 22.1993L76.4148 22.667L76.6678 23.0331L77.044 23.4647L77.1786 23.7008C77.1786 23.7008 77.3624 23.9816 77.3824 24.08C77.404 24.1854 77.2894 24.4 77.2894 24.4L76.7194 25.3554L76.3848 25.8008C76.3848 25.8008 75.9224 26.3393 75.6994 26.5493C75.4678 26.7562 75.0655 27.0362 74.9671 27.1247C74.874 27.2131 74.6017 27.3608 74.4717 27.4262C74.3294 27.4877 73.9317 27.6639 73.9317 27.6639L73.6271 27.7885C73.6271 27.7885 73.4671 27.8577 73.3848 27.8677H73.3786C73.2901 27.8677 73.1324 27.7993 73.0417 27.6608C72.8778 27.4223 72.6948 27.1847 72.5694 26.92C72.3671 26.4808 72.0863 26.0885 71.7778 25.7216C71.3394 25.1916 71.0094 24.5908 70.6432 24.0147C70.584 23.9239 70.5432 23.8177 70.4709 23.7393C69.9048 23.0785 69.4263 22.3462 68.8048 21.7316C68.4794 21.4039 68.1902 21.0439 67.9086 20.6777C67.5686 20.2331 67.1648 19.8539 66.7678 19.4608C66.3424 19.0554 65.9232 18.6439 65.5255 18.2147C65.1509 17.8093 64.6917 17.5116 64.2724 17.1647C64.1978 17.1 64.1217 17.037 64.0486 16.9754C63.9148 16.8647 63.7909 16.7262 63.6401 16.6493C63.304 16.4616 63.0163 16.217 62.734 15.9616C62.3671 15.6147 61.9701 15.317 61.544 15.0593C60.8263 14.6331 60.1124 14.2154 59.3878 13.7993C59.1948 13.6847 58.9932 13.607 58.7732 13.5408C58.4563 13.4493 58.1648 13.2854 57.8586 13.1623C57.3863 12.9716 56.9094 12.8016 56.4409 12.6123C56.3671 12.5854 56.2132 12.5077 56.2132 12.5077L56.154 12.4416L56.2878 12.3077Z" fill="white"/>
<path d="M11.8532 55.2163C11.7562 55.2163 11.6586 55.1986 11.5647 55.1601C11.5526 55.1555 11.5407 55.1501 11.5293 55.1439C11.2901 55.0424 11.0547 54.8024 11.0024 54.2593L10.9178 52.967L10.8362 52.787C10.7893 52.6816 10.7662 52.567 10.7693 52.4509L10.9032 47.3293C10.904 47.3021 10.9061 47.2749 10.9093 47.2478L11.2209 44.9124L11.2924 43.837C11.2947 43.7984 11.3001 43.7601 11.3086 43.7224L11.517 42.7863L11.8693 40.6624L12.1055 39.5539C12.1162 39.5047 12.1309 39.457 12.1516 39.4109L12.6432 38.2701L12.6962 37.8347C12.7088 37.7297 12.7428 37.6285 12.7963 37.5373C12.8498 37.4461 12.9215 37.3669 13.007 37.3047L14.2855 36.3724L17.1139 34.2701L19.6432 32.4478L21.2409 31.227C21.3178 31.107 21.427 31.0086 21.5586 30.9455L22.3232 30.5786L22.6501 30.2447C22.7993 30.0916 22.9993 30.0132 23.2001 30.0132C23.367 30.0132 23.5347 30.0678 23.6747 30.1778L23.677 30.1793C24.1147 30.2509 25.1693 30.4247 25.5424 30.4824C25.9532 30.3493 26.6255 30.1793 27.7478 29.8955C27.8093 29.8796 27.8727 29.8716 27.9362 29.8716C28.0101 29.8716 28.0839 29.8824 28.1555 29.9039L28.4147 29.9809C28.4393 29.9778 28.4647 29.977 28.4901 29.977C28.6032 29.977 28.7155 30.0016 28.8209 30.0516L29.6816 30.4609L30.3232 29.9539C30.3678 29.8816 30.4216 29.8178 30.4816 29.7716L33.7847 27.2201C33.9224 27.1139 34.0886 27.0593 34.2547 27.0593C34.3886 27.0593 34.5232 27.0947 34.6439 27.1655L34.7478 27.2263L35.4547 27.2493C35.5209 27.2516 35.5862 27.2624 35.6493 27.2809L38.4847 27.2632C38.567 27.234 38.6536 27.2192 38.7409 27.2193C38.7647 27.2193 38.7886 27.2201 38.8124 27.2224L40.2762 27.3601C40.3201 27.3186 40.3686 27.2816 40.4224 27.2509L43.9655 25.2055C44.0847 25.1363 44.2178 25.1032 44.3501 25.1032C44.4362 25.1032 44.5224 25.1178 44.6047 25.1463L46.6439 24.9924C46.7355 24.9439 46.837 24.9147 46.9409 24.9063C46.9409 24.9063 47.9347 24.8286 47.9547 24.8286C48.0401 24.8286 48.1255 24.8432 48.2062 24.8709C48.2062 24.8709 53.0693 24.6155 53.0832 24.6155C53.1824 24.6155 53.2801 24.6347 53.3732 24.6724L54.6616 25.197C54.6616 25.197 56.1293 25.0901 56.1478 25.0901C56.3201 25.0901 56.487 25.1486 56.6232 25.2547L56.9562 25.3693C56.9724 25.3684 56.9885 25.3679 57.0047 25.3678C57.0432 25.3678 57.0809 25.3709 57.1193 25.3763L57.9724 25.5047C58.2509 25.5463 58.4816 25.7363 58.5786 25.9947L58.9862 26.3632C59.0862 26.3886 59.1801 26.4339 59.2632 26.497L60.247 27.2455L62.1386 27.3932C62.2196 27.3648 62.3049 27.3502 62.3909 27.3501C62.4747 27.3501 62.5586 27.3639 62.6386 27.3916L65.1801 28.2624H65.1793C65.1916 28.2624 66.6562 28.6263 67.2747 28.7155L69.0693 28.9493H69.7216C69.7947 28.9493 69.867 28.9593 69.937 28.9801C70.6639 28.9216 71.1547 28.8847 71.3309 28.8847C71.4393 28.8847 71.7947 28.8555 72.2639 28.8016L72.3524 28.7878C72.4562 28.7709 72.5424 28.7609 72.6201 28.7609C72.8016 28.7609 72.9732 28.8063 73.1286 28.8963C73.4162 29.0539 73.5401 29.287 73.6001 29.3993L72.9639 29.8432L73.6393 29.4747C73.6755 29.5409 73.7001 29.5901 73.7247 29.6493L73.9801 30.1324C74.3232 30.787 74.6478 31.4055 74.9132 32.1601C74.9416 32.2455 74.9747 32.3163 75.007 32.3893C75.0455 32.4786 75.0855 32.5686 75.1201 32.6616C75.1709 32.8032 75.2132 32.9362 75.2555 33.0693C75.3178 33.267 75.3778 33.4647 75.4647 33.6501C75.6701 34.0639 75.8139 34.4955 75.9532 34.9116C76.0124 35.0886 76.0716 35.2662 76.1362 35.4424C76.3047 35.907 76.4401 36.3547 76.5778 36.8093C76.6532 37.0609 76.7301 37.3139 76.8132 37.5724C76.9509 38.0024 76.8401 38.307 76.7232 38.487C76.6062 38.6686 76.3693 38.8963 75.9093 38.9486C75.5362 38.9893 75.1647 39.0247 74.7947 39.0601L74.3155 39.1078C73.6778 39.1732 73.0424 39.2378 72.4062 39.2855C71.4709 39.3632 69.7147 39.5763 69.1847 39.6416L69.1524 39.6609C69.0351 39.7289 68.9019 39.7647 68.7662 39.7647C68.6149 39.7647 68.4669 39.72 68.3409 39.6363C68.3409 39.6363 67.8924 39.667 67.8747 39.667C67.7801 39.667 67.687 39.6501 67.5986 39.6155L66.5216 39.2016L65.4247 39.037C65.3122 39.0201 65.2048 38.9786 65.1101 38.9155L65.0939 38.9039L65.0778 38.9078C65.0209 38.9209 64.9632 38.9278 64.9047 38.9278C64.8393 38.9278 64.7739 38.9193 64.7109 38.9024L63.2878 38.5316L63.0047 38.5986C62.9939 38.604 62.5355 38.817 62.5355 38.817C62.4904 38.8375 62.4435 38.854 62.3955 38.8663C62.2493 39.0109 62.0532 39.0878 61.8539 39.0878C61.7262 39.0878 61.5962 39.0563 61.4778 38.9893L60.7762 38.5947L60.7262 38.5932C60.6162 38.5909 60.507 38.5639 60.4078 38.5155L59.757 38.197L59.6501 38.2309C59.6039 38.2624 59.5562 38.2893 59.507 38.3078L57.0324 39.2524C56.9532 39.3378 56.8539 39.4047 56.7424 39.447L55.9447 39.7486C55.8847 39.8032 55.8155 39.8478 55.7416 39.8809L54.8332 40.2863C54.7547 40.3214 54.671 40.3432 54.5855 40.3509L54.1501 40.5463C54.0493 40.6532 53.9201 40.7301 53.7755 40.7663L53.4716 40.8416C53.4101 40.857 53.3478 40.8639 53.2855 40.8639C53.197 40.8639 53.1086 40.8486 53.0239 40.8186L51.4401 40.7424C51.314 40.8317 51.1638 40.8808 51.0093 40.8832L48.8262 40.9209C48.7178 40.9763 48.5978 41.0039 48.4778 41.0039C48.3009 41.0039 48.1239 40.9439 47.9793 40.8209L47.0986 40.0709L46.4186 40.1863C46.327 40.2409 46.2255 40.2763 46.1186 40.2893L45.167 40.4063C45.0432 40.4839 44.9016 40.5232 44.7586 40.5232C44.645 40.5233 44.5329 40.4984 44.4301 40.4501L43.1955 39.8663L41.0247 40.1447L39.5132 41.5839C39.4656 41.6294 39.4123 41.6684 39.3547 41.7001L37.3555 43.7401C37.2476 43.8509 37.1087 43.9263 36.957 43.9563L35.7932 44.1893C35.7432 44.1993 35.6932 44.2039 35.6424 44.2039C35.618 44.204 35.5936 44.203 35.5693 44.2009L34.0778 44.0593C33.9809 44.0493 33.8886 44.0224 33.8047 43.9801L30.5509 43.9347L29.397 44.7255L28.2239 45.4524L27.9701 45.787C27.8209 45.9824 27.5924 46.0901 27.357 46.0901C27.2686 46.0901 27.1778 46.0747 27.0909 46.0424L27.0624 46.0324H26.3816C26.2967 46.0765 26.2044 46.1047 26.1093 46.1155L23.4839 46.4101L22.5009 47.5378C22.4331 47.6158 22.3503 47.6792 22.2573 47.7243C22.1644 47.7694 22.0633 47.7952 21.9601 47.8001L20.3609 47.8824L18.5724 48.6032L12.4062 54.9816C12.2586 55.1347 12.0578 55.2162 11.8532 55.2162" fill="#CE1141"/>
<path d="M53.0836 23.8459C53.0567 23.8459 53.0298 23.8467 53.0029 23.8482L48.289 24.0959C48.1794 24.0714 48.0675 24.059 47.9552 24.059C47.9144 24.059 47.8744 24.0605 47.8336 24.0636L46.8806 24.139C46.7346 24.1504 46.5911 24.1827 46.4544 24.2352L44.679 24.369C44.5709 24.3451 44.4605 24.3329 44.3498 24.3329C44.0859 24.3329 43.8206 24.4013 43.5806 24.539L40.0675 26.5675L38.8844 26.4567C38.8366 26.4521 38.7886 26.4498 38.7406 26.4498C38.6167 26.4498 38.4936 26.4644 38.3736 26.4936L35.7382 26.5105C35.6536 26.4936 35.5675 26.4829 35.4798 26.4805L34.9636 26.4629C34.7406 26.3475 34.4975 26.2898 34.2544 26.2898C33.9141 26.2898 33.5834 26.4029 33.3144 26.6113L30.0113 29.1629C29.9082 29.2429 29.8159 29.3344 29.7367 29.436L29.5798 29.5606L29.1506 29.3567C28.949 29.2613 28.7329 29.2113 28.5159 29.2075L28.3736 29.1659C28.2318 29.1237 28.0846 29.1022 27.9367 29.1021C27.8098 29.1021 27.6829 29.1183 27.559 29.149C27.559 29.149 26.9675 29.299 26.3752 29.4521C26.0282 29.5413 25.7321 29.6175 25.4806 29.6929C25.1406 29.639 24.5544 29.5436 23.9629 29.446C23.7259 29.3106 23.4629 29.2436 23.1998 29.2436C22.7982 29.2436 22.399 29.3998 22.099 29.7067L21.8682 29.9436L21.2252 30.2513C21.0129 30.3536 20.8282 30.5021 20.6852 30.6836L19.1759 31.836L16.6736 33.6383L13.8206 35.759L12.5536 36.6829C12.3829 36.8072 12.2396 36.9653 12.1327 37.1474C12.0258 37.3295 11.9575 37.5317 11.9321 37.7413L11.8929 38.0659L11.4452 39.1052C11.4044 39.1975 11.3744 39.2944 11.3529 39.3929L11.1236 40.466C11.1182 40.489 11.1136 40.5129 11.1106 40.536L10.7575 42.6598L10.5575 43.5536C10.5407 43.6296 10.5296 43.7068 10.5244 43.7844L10.4513 44.859L10.1475 47.146C10.1397 47.1997 10.1353 47.2539 10.1344 47.3083L10.0006 52.4306C9.99439 52.6613 10.0398 52.8906 10.1352 53.1013L10.159 53.1552L10.2329 54.2852C10.2336 54.3006 10.2352 54.316 10.2367 54.3313C10.309 55.089 10.6513 55.4967 10.9836 55.7152C11.0736 55.7775 11.1721 55.8306 11.2759 55.8729C11.4636 55.9483 11.659 55.9852 11.8529 55.9852C12.2621 55.9852 12.6636 55.8221 12.959 55.516L19.0121 49.2552L20.529 48.6429L21.999 48.5683C22.4159 48.5467 22.8059 48.3575 23.0798 48.0429L23.8675 47.1406L26.1952 46.879C26.3116 46.8661 26.4263 46.8398 26.5367 46.8006H26.9375C27.0759 46.8406 27.2175 46.859 27.3575 46.859C27.8282 46.859 28.2852 46.6429 28.5821 46.2521L28.7506 46.0313L29.7713 45.399C29.7919 45.3869 29.8119 45.3738 29.8313 45.3598L30.7844 44.7067L33.6475 44.7467C33.7621 44.7867 33.8813 44.8129 34.0052 44.8244L35.4967 44.966C35.6463 44.9802 35.7971 44.9724 35.9444 44.9429L37.1082 44.7098C37.4106 44.649 37.689 44.499 37.9052 44.2783L39.8382 42.3052C39.9112 42.2562 39.9799 42.2012 40.0436 42.1406L41.3728 40.8752L43.0698 40.6575L44.1013 41.1444C44.3067 41.2417 44.531 41.2921 44.7582 41.2921C44.9801 41.292 45.1994 41.2442 45.4013 41.1521L46.2121 41.0521C46.369 41.0329 46.5221 40.9898 46.6644 40.9244L46.8736 40.889L47.4806 41.406C47.7706 41.6521 48.1244 41.7729 48.4775 41.7729C48.6498 41.7729 48.8221 41.7444 48.9859 41.6867L51.0221 41.6513C51.229 41.6483 51.4321 41.6029 51.619 41.5206L52.8913 41.5813C53.0198 41.6159 53.1529 41.6329 53.2859 41.6329C53.4098 41.6329 53.5344 41.6183 53.6567 41.5875L53.9613 41.5121C54.1906 41.4544 54.4029 41.346 54.5806 41.196L54.8021 41.096C54.9207 41.0738 55.0364 41.0379 55.1467 40.989L56.0552 40.5836C56.1516 40.5399 56.2436 40.4868 56.3298 40.4252L57.0144 40.166C57.1704 40.1071 57.3159 40.0235 57.4452 39.9183L59.7367 39.0429L60.0706 39.206C60.2214 39.2797 60.3833 39.3283 60.5498 39.3498L61.1006 39.6598C61.3305 39.7891 61.5898 39.8569 61.8536 39.8567C62.1844 39.8567 62.5113 39.7506 62.7798 39.5483C62.8067 39.5375 62.8329 39.5267 62.859 39.5144L63.2621 39.3275L63.279 39.3236L64.5159 39.6467C64.6429 39.6798 64.7736 39.696 64.9044 39.696C64.9182 39.696 64.9321 39.696 64.9459 39.6952C65.0621 39.7444 65.1844 39.7783 65.3113 39.7975L66.3244 39.949L67.3229 40.3336C67.4991 40.4013 67.6863 40.436 67.8752 40.436C67.9098 40.436 67.9452 40.4344 67.9806 40.4321C67.9806 40.4321 68.069 40.426 68.1821 40.4183C68.3678 40.4945 68.5667 40.5338 68.7675 40.5337C68.9935 40.5338 69.2168 40.4839 69.4213 40.3875C70.0682 40.3083 71.6213 40.1221 72.4752 40.0506C73.119 40.0029 73.7752 39.936 74.4106 39.8706L74.7252 39.839L74.8936 39.8229C75.2582 39.7883 75.6267 39.7536 75.9936 39.7121C76.7952 39.6213 77.1998 39.1667 77.3698 38.9044C77.539 38.6421 77.7867 38.0898 77.5452 37.3375C77.4644 37.0852 77.3898 36.8383 77.3159 36.5929C77.179 36.1398 77.0382 35.6729 76.8613 35.1844C76.7959 35.0067 76.739 34.836 76.6821 34.6644C76.5413 34.2452 76.3829 33.7698 76.149 33.2967C76.1029 33.1975 76.0475 33.0213 75.9875 32.8352C75.9436 32.6929 75.8975 32.5513 75.8475 32.4113C75.8006 32.2844 75.7552 32.1798 75.709 32.0759C75.6867 32.0252 75.6628 31.9759 75.6444 31.9229C75.3544 31.0967 75.0006 30.4229 74.659 29.7713C74.5744 29.6105 74.4882 29.4467 74.4029 29.279C74.3783 29.2244 74.3506 29.1706 74.3159 29.106L74.2944 29.0667C74.2906 29.0598 74.2798 29.039 74.2759 29.0321C74.1959 28.8829 73.9852 28.4875 73.4836 28.2129C73.2406 28.0721 72.9398 27.9913 72.6198 27.9913C72.4521 27.9913 72.3167 28.0136 72.2275 28.0283L72.1667 28.0383C71.7259 28.089 71.4098 28.1137 71.3282 28.1144C71.1421 28.1144 70.7521 28.1429 69.9906 28.2036C69.9021 28.1882 69.8121 28.1798 69.7221 28.1798H69.1198L67.3629 27.9505C66.9629 27.8929 65.9529 27.6582 65.3675 27.5129L64.2929 27.1421L62.8875 26.6629C62.7277 26.6082 62.5601 26.5804 62.3913 26.5805C62.2819 26.5805 62.1728 26.5921 62.0659 26.6152L60.5329 26.4959L59.729 25.8836C59.6229 25.8036 59.5082 25.7375 59.3859 25.6867L59.209 25.5275C58.9821 25.1121 58.5713 24.8152 58.0859 24.7429L57.2329 24.6152C57.1836 24.6082 57.1352 24.6029 57.0852 24.6006L56.9752 24.5621C56.7278 24.4045 56.4407 24.3207 56.1475 24.3205C56.11 24.3206 56.0725 24.3221 56.0352 24.3252L54.7859 24.4167L53.6636 23.9598C53.4795 23.8846 53.2825 23.8459 53.0836 23.8459ZM53.0829 25.3844L54.539 25.9775L56.1475 25.859L56.2267 25.9313L56.9267 26.1729L57.0052 26.1367L57.8582 26.2644L57.8882 26.4082L58.6544 27.099L58.7975 27.1082L60.0267 28.0444L60.0952 28.0052L62.2844 28.1752L62.3913 28.119L63.7913 28.5967L64.9298 28.9898C64.9298 28.9898 66.4875 29.3783 67.1644 29.4767L69.0198 29.7183H69.7221L69.8567 29.7575C70.4329 29.7113 71.1582 29.6529 71.3313 29.6529C71.5206 29.6529 71.9859 29.6075 72.3529 29.5652C72.4713 29.5506 72.5513 29.5298 72.6198 29.5298C72.6636 29.5298 72.7029 29.5375 72.7444 29.5621C72.8498 29.6198 72.8844 29.6929 72.9267 29.7713C72.9675 29.8498 72.9906 29.8852 73.0098 29.9344C73.4421 30.7821 73.869 31.5106 74.1875 32.4144C74.2467 32.5913 74.3336 32.7536 74.3998 32.9306C74.5252 33.2806 74.6121 33.6444 74.769 33.9775C75.0444 34.5336 75.2021 35.1283 75.4144 35.7075C75.6698 36.4136 75.8506 37.0913 76.0806 37.8075C76.1636 38.066 76.0482 38.1575 75.8236 38.1836C75.4044 38.2306 74.9852 38.269 74.5698 38.3083C73.8275 38.3829 73.089 38.4621 72.3482 38.5175C71.209 38.6121 68.9344 38.8975 68.9344 38.8975L68.7667 38.9952C68.7667 38.9952 68.5575 38.8513 68.5482 38.8513C68.5413 38.8513 67.8752 38.8975 67.8752 38.8975L66.7198 38.4529L65.5382 38.276L65.2452 38.079L64.9044 38.1575L63.2975 37.739L62.6698 37.8867L62.6513 37.9152L62.2121 38.1183L62.1867 38.109L61.9182 38.2367L61.8544 38.3183L60.9859 37.8298L60.7459 37.8236L59.9652 37.4413L59.8306 37.2936L59.7267 37.399L59.2529 37.549L59.2329 37.589L56.5436 38.6152L56.4706 38.7267L55.5029 39.0929L55.4283 39.1783L54.5198 39.5836L54.4282 39.5775L53.6429 39.9306L53.5898 40.019L53.2859 40.0944L53.1767 40.0552L51.2067 39.9606L50.9959 40.1136L48.5467 40.156L48.4782 40.2344L47.2806 39.2144L47.1821 39.276L46.0844 39.4621L46.0244 39.5252L44.8544 39.669L44.7582 39.7536L43.4367 39.129L43.3221 39.0175L43.2244 39.0867L40.6767 39.4136L38.9829 41.026L38.9406 41.0236L36.8059 43.2013L35.6421 43.4344L34.1506 43.2929L34.1252 43.2152L30.3175 43.1621L28.9621 44.0906L27.6982 44.8729L27.3575 45.3206L27.2006 45.2621H26.1429L26.0236 45.3506L23.1975 45.6675L23.0698 45.609L22.9675 45.8313L21.9206 47.0321L20.1929 47.1198L18.1329 47.9506L11.8529 54.4467C11.8529 54.4406 11.8529 54.4467 11.8467 54.4406C11.7913 54.4306 11.7682 54.1852 11.7682 54.1852L11.6759 52.7783L11.5382 52.4706L11.6721 47.349L11.9829 45.0136L12.059 43.8883L12.2675 42.9529L12.6275 40.7875L12.8575 39.7144L13.3936 38.4721L13.4598 37.926L14.7382 36.9936L17.5729 34.8875L20.0929 33.0721L21.8698 31.7144L21.8906 31.6383L22.7782 31.2129L23.1998 30.7821L23.3567 30.906C23.3567 30.906 25.5298 31.2636 25.5782 31.2636H25.579C25.5552 31.2429 27.9367 30.6406 27.9367 30.6406L28.4136 30.7821L28.4898 30.746L29.7836 31.3613L30.9413 30.4452L30.9521 30.3798L34.2544 27.8283L34.5267 27.9883L35.429 28.0175L35.4929 28.0505L38.6429 28.0305L38.7406 27.9883L40.5198 28.1552L40.6044 28.2136L40.7644 28.0667L40.8067 27.9167L44.3498 25.8713L44.4175 25.9313L46.9013 25.7436L47.0013 25.6729L47.9552 25.5975L48.0359 25.6498L53.0829 25.3844" fill="white"/>
<path d="M31.4046 78.9245C31.3411 78.9245 31.2778 78.9168 31.2162 78.9015L28.6454 78.2522L28.5677 78.3015C28.5019 78.3442 28.4297 78.3761 28.3539 78.3961L27.6869 78.763C27.5737 78.8256 27.4464 78.8585 27.3169 78.8584C27.1669 78.8584 27.0169 78.8146 26.8877 78.7276C26.8877 78.7276 26.75 78.6353 26.6293 78.5546C26.4919 78.5423 26.3602 78.4937 26.2477 78.4138C26.2208 78.4069 26.1946 78.3976 26.1685 78.3884L24.4339 77.7161C24.4293 77.7169 24.4254 77.7169 24.4246 77.7169C24.2731 77.7169 24.1262 77.6623 24.0008 77.5746C23.4646 77.4084 23.1616 77.313 22.9769 77.2415L22.9739 77.2499C22.92 77.2307 22.2085 76.9915 22.1308 76.9645C21.9962 76.9507 21.8916 76.9353 21.7746 76.8815H21.7754C21.6454 76.8207 21.46 76.693 21.3577 76.4353L19.9293 74.8853L18.9331 73.6092L17.7862 71.8592L16.3 69.8038C16.16 69.6099 16.1177 69.3615 16.1862 69.133L16.2923 68.7769C16.3347 68.6359 16.4163 68.5099 16.5277 68.4138L17.6362 67.4584C17.7577 67.3538 17.9093 67.2899 18.0685 67.2746L20.8062 67.0253L22.6808 62.4807C22.6616 62.2253 22.7708 61.9746 22.9754 61.8153L26.2846 59.24C26.3807 59.1654 26.493 59.1146 26.6123 59.0915L26.6316 59.0877L28.3739 57.7415C28.4 57.6907 28.4316 57.6438 28.4685 57.5992C28.5407 57.5134 28.6308 57.4445 28.7324 57.3972C28.8341 57.3499 28.9448 57.3253 29.0569 57.3253C29.0846 57.3253 29.1123 57.3269 29.14 57.3299L29.3016 57.3469L29.7216 57.17C29.817 57.1292 29.9185 57.1092 30.0216 57.1092C30.0323 57.1092 30.5385 57.1307 30.5385 57.1307L31.2193 56.9938L32.7523 55.3346C32.8245 55.2567 32.912 55.1946 33.0093 55.1521C33.1066 55.1097 33.2116 55.0877 33.3177 55.0877C33.3331 55.0877 34.9285 55.1838 34.9285 55.1838L35.1508 55.1069C35.2319 55.0784 35.3172 55.0638 35.4031 55.0638C35.4331 55.0638 35.4631 55.0653 35.4931 55.0692L36.97 55.2438C39.2277 53.99 40.09 53.5107 40.4339 53.3223C40.5869 53.1446 40.8116 53.02 41.0362 53.02C41.0469 53.02 41.1623 53.0261 41.1623 53.0261L43.1739 52.6761C43.2971 52.5935 43.4417 52.5484 43.59 52.5461L44.03 52.5392C44.03 52.5392 46.6493 49.553 46.6508 49.5507C46.6823 49.4907 46.7216 49.4346 46.7677 49.3838L48.8262 47.1407C48.859 47.0436 48.9111 46.9542 48.9793 46.8777L49.4262 46.3746C49.4983 46.2934 49.5868 46.2284 49.6858 46.1839C49.7849 46.1393 49.8922 46.1162 50.0008 46.1161C50.0185 46.1161 52.5685 46.29 52.5685 46.29L52.7454 46.1392C52.8616 46.0407 53.0031 45.9784 53.1539 45.9607L53.5277 45.9169L54.7354 45.2069C54.8539 45.1377 54.9885 45.1007 55.1254 45.1007H55.1346L57.4462 43.3177C57.5523 43.2353 57.68 43.1823 57.8146 43.1646L60.2308 42.8453L61.2985 41.853C61.4177 41.743 61.5669 41.673 61.7269 41.653L62.7116 40.9276C62.767 40.8315 62.8423 40.7476 62.9346 40.683C63.0654 40.59 63.2208 40.5423 63.3777 40.5423C63.4577 40.5423 63.5377 40.5546 63.6154 40.5792L64.0146 40.7092L68.3862 40.8269L71.4554 39.7569C71.5085 39.7392 71.5623 39.7261 71.6169 39.72C72.1462 39.6561 72.6616 39.6092 73.1762 39.5623C73.7431 39.5107 74.3093 39.4592 74.8939 39.3838L75.0008 39.3707C75.18 39.3492 75.3985 39.3238 75.56 39.2907C75.62 39.2792 75.6739 39.2715 75.7223 39.2646C75.9116 39.24 76.0385 39.2307 76.1477 39.2307C77.17 39.2307 77.3554 40.1007 77.4254 40.4284C77.5139 40.8346 77.5846 41.22 77.6585 41.6161L77.8177 42.4838C77.89 42.88 77.9623 43.28 78.0223 43.6769C78.1277 44.3738 78.2269 45.0653 78.3008 45.7715C78.3362 46.1515 78.3546 46.5207 78.3731 46.89L78.4031 47.4415L78.4162 47.5877C78.4262 47.6907 78.4362 47.793 78.44 47.8961L78.51 49.2053C78.5123 49.2515 78.5177 49.2892 78.5231 49.3261C78.5369 49.43 78.5493 49.5307 78.5493 49.6577C78.5493 49.8269 78.5439 49.8884 78.5346 50.0023C78.5123 50.1961 78.4731 50.5269 78.1685 50.8092C77.8885 51.0492 77.6077 51.0892 77.4731 51.1092C77.3162 51.133 77.0539 51.1669 77.0539 51.1669L76.5285 51.1992L75.7246 51.333L75.0577 51.4561C74.9785 51.4799 74.5654 51.6015 74.5654 51.6015C74.2246 51.7176 73.8708 51.8384 73.5169 51.9669C73.3908 52.013 73.2646 52.0522 73.1362 52.0922C73.0031 52.1338 72.8662 52.1769 72.7293 52.2284C72.11 52.4669 70.5869 53.1807 70.5716 53.1877C70.4685 53.2353 70.3577 53.2607 70.2446 53.2607C70.2146 53.2607 70.1846 53.2592 70.1546 53.2553L69.7969 53.213L69.2031 53.1292C69.13 53.1184 69.06 53.0984 68.9939 53.0684C68.8539 53.0484 68.6423 53.0199 68.4616 52.9953L68.3646 53.09C68.3189 53.1342 68.2677 53.1724 68.2123 53.2038L67.7508 53.75C67.6393 53.88 67.4893 53.9707 67.3216 54.0054L66.0039 54.283C65.9323 54.3315 65.8516 54.3692 65.7669 54.3915L64.9685 54.6061L64.67 55.1738L64.6739 55.2607C64.6877 55.5753 64.5077 55.8669 64.2193 55.9961L62.0954 56.9469C61.9662 57.0853 61.79 57.173 61.6 57.1892C61.5775 57.1914 61.5549 57.1924 61.5323 57.1922C61.3683 57.1922 61.2085 57.1399 61.0762 57.043L59.9562 56.993L59.0223 57.643C58.92 57.7139 58.802 57.759 58.6785 57.7746L57.5208 57.9184L56.8616 58.2038L56.6062 59.0653C56.5709 59.1842 56.5073 59.2927 56.4208 59.3815C56.3254 59.6669 56.0708 59.8722 55.7669 59.9023L55.6885 59.9099L52.5308 61.3615C52.4539 61.4538 52.3569 61.5276 52.2469 61.5753L51.2062 62.033C51.1547 62.0559 51.1007 62.073 51.0454 62.0838C50.89 62.1715 50.65 62.3153 50.6485 62.3169C50.5631 62.3676 50.47 62.4015 50.3731 62.4161C50.3546 62.4292 50.3354 62.4407 50.3154 62.4522L49.5523 62.8861L49.0739 63.8138C49.0106 63.936 48.9158 64.039 48.7993 64.1122L47.6039 66.0492C47.5793 66.3846 47.3385 66.6676 47.0077 66.743L46.8369 66.7822C46.7916 66.8084 46.7454 66.8292 46.7031 66.8415L46.0569 67.0338L45.6793 68.4122L45.7562 68.6876C45.8139 68.8961 45.7823 69.1192 45.6677 69.3022C45.5746 69.4522 45.4331 69.5638 45.2685 69.6215L44.9039 69.9984C44.3746 70.5638 44.1739 70.7784 44.0085 70.8607L43.5454 71.3422L42.4754 72.3207C42.4693 72.3338 42.4623 72.3461 42.4562 72.3592C42.4185 72.4307 42.3693 72.4953 42.3116 72.5515C42.2993 72.563 41.6223 73.1907 41.6223 73.1907C41.5616 73.2469 41.4931 73.293 41.4193 73.3269C41.25 73.4976 40.9777 73.7746 40.7731 73.9769L38.8908 77.0099C38.8286 77.1102 38.7441 77.1948 38.6439 77.2573C38.5437 77.3197 38.4305 77.3582 38.3131 77.3699L33.7485 77.8199L31.7554 78.8407C31.6454 78.8961 31.5254 78.9246 31.4046 78.9246" fill="#CE1141"/>
<path d="M76.1477 38.4617C76.0061 38.4617 75.8531 38.4724 75.6646 38.4963C75.6577 38.4971 75.6292 38.5009 75.6223 38.5017C75.5569 38.5109 75.4884 38.5217 75.4184 38.5348C75.2661 38.5655 75.0754 38.5871 74.9169 38.6063L74.8015 38.6209C74.2308 38.694 73.6854 38.7432 73.1077 38.7963C72.5854 38.844 72.0623 38.8917 71.5254 38.9563C71.4154 38.9694 71.3069 38.994 71.2023 39.0309L68.2661 40.054L64.1454 39.9432L63.8531 39.8478C63.6994 39.7986 63.539 39.7732 63.3777 39.7724C63.0631 39.7724 62.7531 39.8694 62.49 40.0548C62.3592 40.1469 62.2437 40.259 62.1477 40.3871L61.4023 40.9363C61.168 41.0028 60.9528 41.1241 60.7746 41.2901L59.8869 42.1155L57.7138 42.4024C57.445 42.438 57.1902 42.5439 56.9754 42.7094L54.8369 44.3594C54.6646 44.3917 54.4984 44.4548 54.3461 44.544L53.2777 45.1717L53.0638 45.1971C52.7903 45.2293 52.5304 45.3345 52.3115 45.5017L50.1061 45.3509C50.071 45.3485 50.0359 45.3472 50.0007 45.3471C49.7834 45.347 49.5685 45.3931 49.3703 45.4822C49.1721 45.5713 48.995 45.7014 48.8507 45.864L48.4038 46.3671C48.3098 46.4733 48.2306 46.5918 48.1684 46.7194L46.2008 48.8632C46.1336 48.9373 46.0733 49.0174 46.0208 49.1024L43.6762 51.7755L43.5769 51.7771C43.3442 51.7809 43.1154 51.8374 42.9077 51.9425L41.1161 52.254L41.1092 52.2532C41.0818 52.2517 41.0544 52.2509 41.0269 52.2509C40.5969 52.2509 40.1931 52.4317 39.9061 52.7355C39.4592 52.9809 38.5846 53.4663 36.813 54.4509L35.5831 54.3055C35.5231 54.2986 35.463 54.2948 35.403 54.2948C35.2315 54.2948 35.0608 54.324 34.8985 54.3802L34.8207 54.4071L33.4107 54.3217C33.3792 54.3202 33.3484 54.3186 33.3169 54.3186C32.89 54.3186 32.48 54.4971 32.1877 54.8125L30.8231 56.2894L30.4777 56.3586L30.0892 56.3417C30.0661 56.3409 30.0438 56.3402 30.0215 56.3402C29.8154 56.3402 29.6115 56.3809 29.4223 56.4617L29.1854 56.5617C29.1427 56.558 29.0998 56.5562 29.0569 56.5563C28.6061 56.5563 28.1754 56.7548 27.8808 57.1032C27.8492 57.1402 27.82 57.1794 27.7923 57.2186L26.2869 58.3825C26.1154 58.4371 25.9546 58.5225 25.8115 58.6325L22.5031 61.2079C22.15 61.4825 21.9392 61.8925 21.9123 62.3271L20.2731 66.3017L17.9985 66.5086C17.6793 66.5387 17.3772 66.6669 17.1338 66.8755L16.0254 67.8309C15.8024 68.0229 15.6392 68.275 15.5554 68.5571L15.4492 68.9125C15.3816 69.1385 15.367 69.3771 15.4063 69.6097C15.4457 69.8423 15.538 70.0628 15.6761 70.254L17.1615 72.3109L18.2531 73.9794C18.2758 74.0146 18.3002 74.0487 18.3261 74.0817L19.2792 75.3086C19.3054 75.3425 19.3338 75.3755 19.3631 75.4079L20.7069 76.864C20.8846 77.2117 21.1631 77.4448 21.4485 77.5779C21.6431 77.6686 21.8215 77.7025 21.9615 77.7202C22.0408 77.7471 22.1354 77.7794 22.25 77.8179C22.4461 77.884 22.6523 77.9525 22.7123 77.9748L22.7161 77.9655C22.9261 78.0448 23.2146 78.1363 23.6223 78.2632C23.8277 78.3855 24.0531 78.4563 24.2723 78.4786L25.89 79.1055C25.8992 79.1094 25.9092 79.1132 25.9185 79.1163C26.0487 79.1926 26.1894 79.2494 26.3361 79.2848C26.4054 79.3302 26.4585 79.3663 26.4585 79.3663C26.7169 79.5402 27.0161 79.6279 27.3169 79.6279C27.5756 79.6279 27.8302 79.5625 28.0569 79.4379L28.66 79.1063C28.69 79.0963 28.72 79.0848 28.7492 79.0725L31.0284 79.6479C31.1512 79.6784 31.2773 79.6939 31.4038 79.694C31.6478 79.6941 31.8883 79.6361 32.1054 79.5248L33.9692 78.5717L38.3884 78.1355C38.8646 78.0879 39.2923 77.8217 39.5446 77.4155L41.3792 74.4586C41.5482 74.2902 41.7164 74.1209 41.8838 73.9509C41.9776 73.8951 42.0652 73.8296 42.1454 73.7555C42.1454 73.7555 42.8508 73.1009 42.8638 73.0871C42.95 73.0017 43.0246 72.9063 43.0877 72.8032L44.0285 71.9455C44.053 71.9232 44.0769 71.8994 44.1 71.8755L44.5077 71.4509C44.7623 71.2763 45.0369 70.9825 45.4746 70.5148L45.7169 70.264C45.9643 70.1377 46.1728 69.9465 46.32 69.7109C46.5485 69.344 46.6131 68.8986 46.4969 68.4825L46.4769 68.4109L46.6861 67.6494L46.9223 67.5794C46.9865 67.5601 47.0495 67.5367 47.1108 67.5094L47.1784 67.494C47.7677 67.3594 48.2146 66.8955 48.34 66.3209L49.3761 64.6425C49.5323 64.5117 49.6631 64.3502 49.7577 64.1671L50.1315 63.4417L50.6646 63.1394C50.7964 63.1022 50.9228 63.0482 51.0408 62.9786C51.0431 62.9771 51.2 62.8832 51.3377 62.8032C51.3984 62.7855 51.4577 62.7632 51.5161 62.7379L52.5569 62.2794C52.7146 62.2109 52.8584 62.1155 52.9838 62.0002L55.8946 60.6625C56.4215 60.5925 56.8685 60.2563 57.0869 59.7855C57.2021 59.6353 57.2889 59.4654 57.3431 59.284L57.4961 58.7671L57.7246 58.6686L58.7731 58.5386C59.0209 58.5076 59.2574 58.4168 59.4623 58.274L60.1823 57.7732L60.8515 57.8025C61.0632 57.9072 61.2961 57.9617 61.5323 57.9617C61.5784 57.9617 61.6246 57.9594 61.6707 57.9548C61.9892 57.9263 62.2877 57.7994 62.5285 57.5963L64.5338 56.6986C65.07 56.4586 65.4192 55.9363 65.4423 55.3571L65.4923 55.2617L65.9661 55.1355C66.0772 55.1055 66.1845 55.0632 66.2861 55.0094L67.4792 54.7594C67.8146 54.6886 68.1177 54.5086 68.3384 54.2463L68.7108 53.8063C68.7407 53.8102 68.7707 53.814 68.7984 53.8179C68.8938 53.8517 68.9931 53.8763 69.0938 53.8902L69.6707 53.9725L70.0631 54.0194C70.1233 54.0264 70.1839 54.03 70.2446 54.0302C70.47 54.0302 70.693 53.9802 70.8984 53.884C71.3177 53.6879 72.5131 53.1363 73.0084 52.9455C73.1254 52.9009 73.2469 52.864 73.3661 52.8263C73.5038 52.784 73.64 52.7402 73.773 52.6925C74.1284 52.564 74.4761 52.444 74.8246 52.3271C74.8838 52.3079 74.9661 52.2848 75.0477 52.2609C75.1108 52.2432 75.1746 52.2248 75.2384 52.2055L75.8777 52.0871L76.6123 51.9648L77.0454 51.9402C77.0811 51.938 77.1168 51.9346 77.1523 51.9302C77.1523 51.9302 77.423 51.8948 77.5254 51.8802C77.5446 51.8771 77.5638 51.874 77.5823 51.8702C77.7754 51.8417 78.2277 51.7709 78.6454 51.414C78.661 51.4013 78.6762 51.3879 78.6908 51.374C79.2053 50.8979 79.27 50.3425 79.2907 50.1594C79.293 50.1448 79.2992 50.0948 79.3 50.0794C79.3123 49.9355 79.3184 49.8632 79.3184 49.6579C79.3184 49.4663 79.2984 49.3194 79.2854 49.2217C79.283 49.2032 79.2792 49.1848 79.2777 49.1632L79.2415 48.4909L79.2085 47.8502C79.2038 47.7509 79.1931 47.6356 79.1823 47.5209L79.17 47.3786C79.1592 47.2117 79.15 47.0294 79.1415 46.8471C79.1223 46.4686 79.1031 46.0902 79.0669 45.7086C78.9877 44.9494 78.8838 44.2286 78.7823 43.5594C78.7223 43.1548 78.6461 42.7402 78.5715 42.3317L78.4992 41.9302L78.4138 41.4748C78.34 41.0725 78.2677 40.6802 78.1777 40.264C77.8431 38.6963 76.7623 38.4617 76.1477 38.4617V38.4617ZM76.1477 40.0002C76.4808 40.0002 76.5784 40.1394 76.6738 40.5886C76.793 41.1409 76.88 41.6486 76.9846 42.2009C77.0777 42.724 77.1823 43.2602 77.2607 43.7902C77.3653 44.4779 77.463 45.1579 77.5353 45.8509C77.5861 46.4002 77.6015 46.944 77.6353 47.4894C77.6461 47.6379 77.6654 47.7848 77.6715 47.9317C77.6954 48.3694 77.7184 48.8079 77.7415 49.2471C77.75 49.404 77.78 49.5017 77.78 49.6579C77.78 49.8002 77.7754 49.8486 77.7669 49.9471C77.7546 50.0379 77.7569 50.1425 77.6461 50.2448C77.5354 50.3394 77.3907 50.3394 77.2992 50.3579C77.2054 50.3725 76.9569 50.404 76.9569 50.404L76.4415 50.434L75.5984 50.5748L74.8731 50.7079C74.6923 50.7655 74.52 50.8094 74.333 50.8686C73.973 50.9909 73.613 51.114 73.2538 51.2448C72.9984 51.3363 72.7307 51.4055 72.4554 51.5094C71.8007 51.7625 70.2446 52.4917 70.2446 52.4917L69.8869 52.4494L69.31 52.3679L69.2554 52.3279C69.2554 52.3279 68.2085 52.184 68.1954 52.184C68.1869 52.1909 67.83 52.5371 67.83 52.5371L67.7554 52.554L67.1631 53.2532L65.6223 53.5771L65.5677 53.6494L64.4438 53.9502L63.8923 55.0002L63.9054 55.294L61.6177 56.3179L61.5323 56.4232L61.3731 56.2855L59.73 56.214L58.583 57.0117L57.3177 57.1694L56.2261 57.6394L55.8685 58.8463L55.7338 58.9479L55.6915 59.1371L55.4854 59.1579L52.0254 60.7471L51.9369 60.8717L50.8969 61.3294H50.8307C50.8038 61.3294 50.2546 61.6563 50.2546 61.6563L50.063 61.6271L49.9354 61.784L48.973 62.3309L48.39 63.4617L48.2607 63.5217L46.8431 65.8171L46.8369 65.994L46.5238 66.0648L46.4838 66.1048L45.4277 66.4186L44.8808 68.4148L45.0154 68.8955L44.8769 68.9209L44.3515 69.4632C44.3515 69.4632 43.7169 70.1409 43.7 70.1409C43.6831 70.1448 43.5577 70.2202 43.5577 70.2202L42.9908 70.8086L41.7762 71.9179C41.7762 71.9179 41.7831 71.9863 41.7762 71.9994C41.7638 72.0117 41.0992 72.6271 41.0992 72.6271L41.0254 72.6294C41.0254 72.6294 40.4761 73.1902 40.1677 73.494L38.2377 76.604L33.5284 77.0694L31.4046 78.1555L28.51 77.4255L28.1523 77.6548L28.1146 77.6509L27.3169 78.0894C27.3169 78.0894 26.8777 77.7948 26.8654 77.7886H26.6946L26.5908 77.6648L26.4461 77.6709L24.5392 76.9317C24.5392 76.9317 24.4307 76.9479 24.4246 76.9479C24.4115 76.9479 24.3992 76.8925 24.3992 76.8925C24.3992 76.8925 23.2538 76.5386 23.25 76.5332C23.2431 76.5263 22.3177 76.2186 22.3092 76.2132C22.3031 76.2055 22.1246 76.1955 22.0961 76.1832C22.0623 76.1732 22.0538 76.0555 22.0538 76.0555L20.4938 74.364L19.5408 73.1379L18.43 71.4394L16.9231 69.3532L17.0292 68.9971L18.1385 68.0417L21.5138 67.7332L21.4323 67.5255L23.4754 62.5717L23.4477 62.4225L26.7569 59.8471L26.9569 59.8086L29.0784 58.1694L29.0569 58.0948L29.4169 58.134L30.0215 57.8786L30.5977 57.904L31.6146 57.6986L33.3177 55.8571L35.0346 55.9617L35.403 55.8332L37.1261 56.0371C37.1261 56.0371 40.9531 53.9109 40.97 53.9048C40.9785 53.8971 41.0269 53.7894 41.0269 53.7894L41.2085 53.7994L43.54 53.394L43.6015 53.3155L44.3831 53.3025L47.2238 50.0648L47.3115 50.0448L47.3346 49.904L49.5646 47.474L49.5546 47.3886L50.0008 46.8855L52.58 47.0617L52.7184 47.1725L53.2446 46.7248L53.7785 46.6617L55.1254 45.8702L55.3869 45.8779L57.9154 43.9279L60.6854 43.5617L60.7454 43.4179L61.8223 42.4171L62.0138 42.3979L63.3754 41.3932L63.3777 41.3117L63.8823 41.4748L68.5061 41.5994L71.7085 40.4832C72.8238 40.3494 73.8754 40.2909 74.9923 40.1471C75.2046 40.1209 75.503 40.0879 75.7138 40.0448C75.7623 40.0355 75.8115 40.0294 75.8561 40.0225C75.9707 40.0086 76.0661 40.0002 76.1477 40.0002Z" fill="white"/>
<path d="M49.0059 89.0568L48.5252 89.0376L47.5306 89.0214L46.6298 88.9783L45.3236 88.8714C44.4252 88.7722 43.8459 88.7091 43.8459 87.9906C43.8459 87.8452 43.8867 87.7022 43.9644 87.5791L44.199 87.2091C44.2645 87.1065 44.353 87.0207 44.4575 86.9583L46.4344 85.7883C46.5487 85.7207 46.6785 85.6836 46.8113 85.6806L47.6613 85.1783C47.6729 85.0952 47.6982 84.9052 47.7198 84.7452C47.6467 84.5891 47.6267 84.4129 47.6659 84.2429C47.7129 84.0399 47.8405 83.8629 48.0205 83.7552C48.9505 83.1999 49.4529 82.8983 49.7475 82.7353C50.0359 82.3322 50.9652 81.0199 51.2959 80.5522C51.3129 80.4476 51.3498 80.3468 51.4082 80.2568L51.9152 79.4614C51.9877 79.3475 52.0891 79.2549 52.209 79.1929L53.9436 76.4452C53.9382 76.2922 53.9775 76.1383 54.0621 76.0045L54.2252 74.903C54.2013 74.7791 54.2082 74.6506 54.2467 74.5306L54.7782 72.8283C54.8005 72.7591 54.8321 72.6937 54.8713 72.6322L55.2398 70.9606C55.3175 70.6076 55.6298 70.356 55.9913 70.356H56.1636L57.5544 69.6906C57.5176 69.5583 57.5173 69.4185 57.5536 69.286L59.0067 63.9145C59.0428 63.7791 59.1158 63.6563 59.2175 63.5599L59.4198 63.3668L59.759 62.0129C59.799 61.8553 59.8875 61.713 60.0121 61.6091L60.5775 61.1376C60.6729 61.0583 60.7852 61.003 60.9044 60.9768L64.3075 58.7883L64.4813 58.5029C64.4968 58.3897 64.5374 58.2814 64.6001 58.1859C64.6627 58.0903 64.746 58.0099 64.8436 57.9506L65.4267 56.9276C65.4467 56.7865 65.5053 56.6537 65.5959 56.5437C65.639 56.2614 65.8352 56.0206 66.1159 55.9283L67.7452 55.3891C67.8552 55.3176 67.9798 55.2699 68.1021 55.2622L68.3459 55.2476L69.1459 54.3968C69.2083 54.3308 69.2817 54.2761 69.3629 54.2353C70.0436 53.8968 71.5383 53.1683 71.6959 53.0922C71.9582 52.9683 72.2344 52.8614 72.509 52.7568C72.709 52.6806 72.9082 52.6045 73.0967 52.5206C73.4975 52.3429 73.9059 52.226 74.2998 52.1137L74.4975 52.056C74.7905 51.9745 75.0782 51.9091 75.3667 51.8437L75.7367 51.7591C75.7921 51.7376 75.9105 51.7183 76.0321 51.703L76.689 51.6006C76.7052 51.5983 77.1867 51.5383 77.2882 51.5383C77.629 51.5383 77.9498 51.676 78.1667 51.9176C78.4682 52.2368 78.4498 52.6699 78.4413 52.8552L78.4228 53.4191C78.3967 54.0714 78.3667 54.7191 78.3121 55.3614C78.2821 55.7222 78.2305 56.0806 78.1767 56.4383L78.0744 57.1529C77.9959 57.6976 77.9175 58.2437 77.8305 58.7883C77.7359 59.4206 77.6275 60.0553 77.5182 60.6945L77.4805 60.9099C77.4605 61.0399 77.4344 61.2129 77.3652 61.3929C77.1775 61.8883 77.059 62.4122 76.9344 62.9676C76.8644 63.2791 76.7944 63.5906 76.7121 63.8991C76.349 65.276 76.0021 66.386 75.6198 67.3914C75.2898 68.2483 74.9344 69.0945 74.5775 69.9414L74.3267 70.5368C74.0636 71.1676 73.7275 71.7583 73.4029 72.3283L73.3413 72.4376C73.0321 72.9737 72.7429 73.5137 72.4536 74.053L72.1944 74.5353C71.9198 75.0522 71.5921 75.5314 71.2759 75.9952C71.161 76.1618 71.0474 76.3292 70.9352 76.4976L70.7298 76.8137C70.4852 77.1891 70.2405 77.5652 69.9821 77.9329C69.7821 78.2183 69.5452 78.5006 69.2944 78.7514C69.2144 78.8322 69.1282 78.9122 69.0413 78.9937C68.8675 79.1568 68.7021 79.3106 68.6052 79.4652C68.4775 79.6629 68.3398 79.8076 68.2182 79.9345L68.0536 80.1022C67.9428 80.2106 67.8382 80.3129 67.8075 80.3891C67.7313 80.5814 67.5998 80.7076 67.5298 80.7752L66.5513 81.753C66.2159 82.083 65.8852 82.4052 65.5482 82.726C64.6421 83.5852 63.6513 84.336 62.6928 85.0629L62.3605 85.3152C61.6852 85.8206 60.2967 86.5552 60.2382 86.586L59.6582 86.9191C59.6252 86.9376 59.5913 86.9552 59.5559 86.9683L57.8367 87.6491L56.4213 88.0652L55.1659 88.4083L53.4513 88.7129L50.6459 89.0514C50.6459 89.0514 49.799 89.0768 49.7921 89.0768C49.7859 89.0768 49.0059 89.0568 49.0059 89.0568" fill="#CE1141"/>
<path d="M77.3214 50.9224C77.2522 50.9224 77.136 50.9224 76.636 50.9893L75.956 51.0954C75.8607 51.107 75.7199 51.127 75.5568 51.1716L75.246 51.2431C74.9391 51.3124 74.6345 51.3824 74.333 51.4662L74.1261 51.5254C73.7245 51.6416 73.2699 51.7716 72.8206 51.9693C72.6406 52.0501 72.4553 52.1201 72.2691 52.1908C71.9876 52.2985 71.6984 52.4093 71.403 52.5493C71.2368 52.6293 69.7361 53.3616 69.053 53.7016C68.8905 53.7826 68.7436 53.8917 68.6191 54.0239L68.0268 54.6531C67.8045 54.6754 67.593 54.7462 67.4037 54.8562L65.9076 55.3508C65.416 55.5131 65.0522 55.9047 64.913 56.3793C64.8314 56.5116 64.7707 56.6554 64.7314 56.8054L64.2907 57.58C64.0459 57.7847 63.8707 58.0601 63.7891 58.3685L63.7761 58.3908L60.6183 60.4224C60.4376 60.4824 60.2683 60.5754 60.1191 60.6993L59.553 61.1708C59.3029 61.3799 59.1253 61.6626 59.0453 61.9785L58.7599 63.1177L58.7176 63.1585C58.5161 63.3524 58.3699 63.5977 58.2976 63.867L56.8437 69.2385C56.833 69.2785 56.8245 69.3193 56.8168 69.3608L56.0222 69.7408C55.3007 69.7416 54.6776 70.2431 54.5214 70.9477L54.1784 72.507C54.1372 72.5857 54.1035 72.6681 54.0776 72.7531L53.5453 74.4547C53.4845 74.6485 53.463 74.8508 53.4814 75.0508L53.3537 75.9131C53.2876 76.0539 53.243 76.2024 53.2222 76.3547L51.683 78.7908C51.5309 78.9033 51.4008 79.0428 51.2991 79.2024L50.793 79.997C50.7164 80.1163 50.6569 80.2458 50.616 80.3816C50.2722 80.8677 49.5806 81.8447 49.2522 82.3062C48.9076 82.5024 48.4114 82.7985 47.6583 83.2493C47.2999 83.4647 47.0438 83.8162 46.9499 84.2239C46.8997 84.4405 46.8971 84.6654 46.9422 84.8831L46.5968 85.0877C46.4127 85.1195 46.2359 85.1847 46.0753 85.28L44.0983 86.4508C43.8889 86.5748 43.7117 86.7467 43.5814 86.9524L43.3476 87.3224C43.1922 87.5685 43.1091 87.8539 43.1091 88.1446C43.1091 89.5516 44.4514 89.6993 45.2522 89.787C45.266 89.7885 45.2799 89.7901 45.2945 89.7916L46.573 89.897C46.5904 89.8984 46.6078 89.8994 46.6253 89.9001L47.5014 89.9431C47.5183 89.9439 47.5353 89.9446 47.5522 89.9446L48.546 89.9601L48.9968 89.9777L49.7853 89.9993C49.7983 90 49.8122 90 49.8253 90C49.8391 90 49.853 90 49.8668 89.9993L50.6284 89.9785C50.6762 89.9779 50.724 89.9745 50.7714 89.9685L53.5353 89.6354C53.563 89.6324 53.5899 89.6277 53.6176 89.6239L55.2622 89.3354C55.3091 89.327 55.3553 89.3162 55.4022 89.3039L56.6445 88.9646L58.0168 88.5654C58.063 88.5516 58.1076 88.5354 58.153 88.5185L59.8722 87.837C59.9425 87.8092 60.0106 87.7762 60.076 87.7385L60.1991 87.6677L60.6537 87.4085C60.886 87.2846 62.1699 86.597 62.8499 86.0885L63.193 85.8277C64.1668 85.0893 65.1737 84.3254 66.1099 83.4385C66.4522 83.1131 66.7853 82.7877 67.1199 82.4585L67.5391 82.0393C67.7122 81.8662 67.8845 81.6924 68.0599 81.5201C68.0714 81.5093 68.0822 81.4977 68.093 81.4862C68.1922 81.3908 68.3822 81.2047 68.5191 80.9093C68.5522 80.8747 68.5884 80.8416 68.6237 80.8077L68.7045 80.7277C68.7184 80.7139 68.733 80.6993 68.7468 80.6847L68.8114 80.617C68.9399 80.4808 69.1168 80.2947 69.2768 80.0477C69.3337 79.9577 69.4753 79.8254 69.5999 79.7093C69.6937 79.6224 69.7868 79.5347 69.8753 79.4447C70.1522 79.1685 70.4183 78.8508 70.6445 78.5293C70.9099 78.1508 71.1599 77.7662 71.4107 77.3816L71.6137 77.0701C71.7219 76.9076 71.8314 76.7461 71.9422 76.5854C72.2714 76.1031 72.6114 75.6054 72.9091 75.0462L73.1537 74.5901C73.453 74.0316 73.736 73.5039 74.0383 72.9801L74.1014 72.8677C74.4391 72.2754 74.7876 71.6631 75.0707 70.9847L75.3068 70.4239C75.6637 69.5777 76.0322 68.7031 76.3707 67.8239C76.7622 66.7908 77.1176 65.6554 77.4899 64.2462C77.5737 63.9324 77.646 63.6116 77.7183 63.2908C77.8368 62.7624 77.9483 62.2631 78.1176 61.8177C78.2153 61.5624 78.2514 61.3301 78.2745 61.1762L78.2991 61.0316C78.413 60.3693 78.5253 59.7124 78.6253 59.0493C78.7145 58.4947 78.796 57.9254 78.8768 57.3562L78.923 57.0362L78.9714 56.7077C79.0245 56.347 79.0791 55.9731 79.1122 55.5793C79.1683 54.9108 79.1991 54.237 79.2253 53.6085L79.233 53.4062L79.2422 53.0701C79.2537 52.8139 79.2861 52.1031 78.7484 51.5316C78.4091 51.1539 77.8814 50.9224 77.3214 50.9224ZM77.3214 52.4608C77.4022 52.4608 77.5337 52.4808 77.6276 52.5854C77.7299 52.6939 77.7091 52.8954 77.7045 53.0177C77.6999 53.1385 77.6961 53.3377 77.6961 53.3377C77.6961 53.3377 77.6899 53.4793 77.6876 53.547C77.6614 54.1824 77.6322 54.8193 77.5791 55.4508C77.5407 55.9093 77.4645 56.3631 77.4007 56.8177C77.3045 57.4847 77.2107 58.1531 77.1045 58.8208C76.9984 59.527 76.8768 60.227 76.7561 60.9339C76.7383 61.0439 76.7215 61.1631 76.6791 61.2731C76.3614 62.1101 76.2322 62.9931 76.0022 63.8547C75.6983 65.0085 75.3591 66.1539 74.9337 67.2716C74.5314 68.3185 74.0868 69.3531 73.6514 70.3931C73.3891 71.0201 73.0422 71.6193 72.706 72.2108C72.3037 72.9077 71.9314 73.6177 71.5507 74.3239C71.1968 74.9877 70.7437 75.5962 70.3268 76.227C70.016 76.7024 69.7114 77.1801 69.386 77.6447C69.2099 77.8954 69.0037 78.1424 68.7837 78.3608C68.5114 78.6354 68.1945 78.8785 67.986 79.2108C67.8837 79.3685 67.7476 79.4993 67.6199 79.6362C67.433 79.8224 67.233 79.9962 67.1284 80.2516C67.103 80.3162 67.0307 80.3685 66.9799 80.4254C66.6645 80.7362 66.356 81.0493 66.043 81.36C65.713 81.6839 65.3853 82.0039 65.0514 82.3216C64.0745 83.2477 62.9937 84.0462 61.9276 84.8562C61.2976 85.3285 59.9122 86.0601 59.9122 86.0601L59.4291 86.3354L59.306 86.407L57.5868 87.0877L56.2391 87.48L54.9968 87.8201L53.3514 88.1085L50.5876 88.4408L49.8253 88.4616L49.0591 88.4408L48.5891 88.4224L47.576 88.4062L46.6991 88.3639L45.4207 88.2577C45.4207 88.2577 44.6476 88.1731 44.6476 88.1446L44.8822 87.7739L46.8591 86.6039L47.0014 86.6354L48.3507 85.8377L48.6145 85.7554L48.4507 85.4785C48.4507 85.4785 48.5507 84.7462 48.5507 84.7254L48.4483 84.5693C48.4483 84.5693 50.2907 83.467 50.313 83.467C50.3176 83.467 52.0753 80.9839 52.0753 80.9839L52.0891 80.8239L52.5961 80.0293L52.7499 79.9831L54.8199 76.7054L54.7453 76.5677L54.8268 76.467L55.043 75.0054L55.0137 74.9131L55.5453 73.2124L55.6114 73.1531L56.0237 71.2793H56.3714L58.523 70.2493L58.3291 69.6401L59.7822 64.2693L60.1445 63.9224L60.5383 62.3531L61.1037 61.8816L61.183 61.8877L64.9045 59.4939C65.0922 59.1862 65.2599 58.9124 65.2599 58.9124L65.2768 58.7608L65.3914 58.7547L66.2191 57.3024L66.2214 57.1885L66.4053 57.0085L66.3899 56.8116L68.1514 56.2293L68.1814 56.1839L68.7245 56.1508L68.8399 56.2031L68.8714 56.0008L69.7399 55.0785C70.416 54.7408 71.9037 54.0154 72.0614 53.9401C72.5037 53.7301 72.9999 53.5739 73.4422 53.377C73.8568 53.1939 74.3084 53.0762 74.7461 52.9485C75.1422 52.8377 75.5445 52.7562 75.9468 52.6608C76.0191 52.637 76.0937 52.6285 76.1707 52.6185L76.8407 52.5139C76.8407 52.5139 77.2391 52.4608 77.3214 52.4608Z" fill="white"/>
</svg>
