<svg width="100" height="100" viewBox="0 0 100 100" fill="none" xmlns="http://www.w3.org/2000/svg">
<path d="M67.1675 30.5733C66.0695 30.4601 63.7209 31.0731 60.0846 32.6019C54.6574 34.8829 48.2417 39.6995 44.1586 44.083C39.7815 48.784 31.0872 59.6507 31.2041 64.7038C31.2041 64.881 31.3359 65.542 32.0646 65.8252L32.3846 65.9248C35.0299 66.5355 38.7412 66.1268 46.8237 63.6108C46.8237 63.6108 59.1664 59.8711 74.5113 53.1416L78.9304 50.6834L76.6667 62.1003L76.4021 62.3293C65.0257 72.2102 47.4219 81.4988 32.5176 82.1967C29.0722 82.3568 25.0482 82.1807 21.503 80.764C16.8328 78.9015 13.9524 76.063 12.692 72.5167C12.1873 71.4936 7.90354 61.64 19.8918 46.5928L12.0851 48.523L18.3617 38.8072C31.0688 28.2962 68.4723 6.47999 85.9406 23.0942L87.2997 24.4765V30.0379C87.2997 30.0379 59.4445 46.2864 59.5898 46.0266C59.8409 45.5676 65.6596 34.0878 65.6596 34.0878C66.3798 32.6746 66.8708 31.5138 67.1675 30.5733Z" fill="#FCB61A"/>
<path d="M67.1675 30.5733C66.0695 30.4601 63.7209 31.0731 60.0846 32.6019C54.6574 34.8829 48.2417 39.6995 44.1586 44.083C39.7815 48.784 31.0872 59.6507 31.2041 64.7038C31.2041 64.881 31.3359 65.542 32.0646 65.8252L32.3846 65.9248C35.0299 66.5355 38.7412 66.1268 46.8237 63.6108C46.8237 63.6108 59.1664 59.8711 74.5113 53.1416L78.9304 50.6834L76.6667 62.1003L76.4021 62.3293C65.0257 72.2102 47.4219 81.4988 32.5176 82.1967C29.0722 82.3568 25.0482 82.1807 21.503 80.764C16.8328 78.9015 13.9524 76.063 12.692 72.5167C12.1873 71.4936 7.90354 61.64 19.8918 46.5928L12.0851 48.523L18.3617 38.8072C31.0688 28.2962 68.4723 6.47999 85.9406 23.0942L87.2997 24.4765V30.0379C87.2997 30.0379 59.4445 46.2864 59.5898 46.0266C59.8409 45.5676 65.6596 34.0878 65.6596 34.0878C66.3798 32.6746 66.8708 31.5138 67.1675 30.5733" stroke="white" stroke-width="3.8462" stroke-linecap="round"/>
<path d="M68.1168 28.7006C66.3258 28.1246 63.086 29.1327 59.3008 30.7305C53.5595 33.143 46.9089 38.1421 42.6694 42.6952C38.5482 47.1279 29.022 58.684 29.1697 64.7537C29.1795 65.0099 29.1967 65.2623 29.2337 65.5059C28.3155 64.7453 27.7565 63.6385 27.7123 62.0445C27.5682 55.9759 37.0895 44.4235 41.2071 39.9957C45.4502 35.4414 52.1059 30.4436 57.8421 28.0261C63.7827 25.5211 68.3766 24.4539 68.1168 28.7006ZM85.4366 25.3799L85.4808 28.9656L64.423 41.706C64.647 41.477 67.0228 36.8856 67.1669 36.5582L85.4366 25.3799ZM23.3475 43.659C21.1195 44.1945 18.8656 44.7521 16.8592 45.2469C17.1375 44.874 19.2029 42.0342 19.6756 41.4187C22.1363 40.8426 24.661 40.2751 26.9468 39.7445C25.8389 40.8463 24.608 42.1683 23.3475 43.659ZM75.0734 60.7936C63.8914 70.5045 46.7098 79.4954 32.4236 80.1711C29.0766 80.3237 25.3998 80.1293 22.262 78.8688C17.9747 77.1603 15.599 74.6811 14.5859 71.7748C15.9054 73.5204 17.9205 75.0134 20.7997 76.1706C23.946 77.4175 27.6229 77.6194 30.9698 77.4568C46.3861 76.7417 65.1642 66.3291 76.1443 55.7774L75.0734 60.7936Z" fill="#000840"/>
<path d="M84.5187 24.5567L67.4688 35.0112C74.7892 20.6695 61.6059 24.0349 52.7997 29.2184C47.7909 31.8502 42.0498 37.1778 40.2489 39.0966C25.5982 54.6964 15.3369 75.5451 47.4167 65.5596C47.4167 65.5596 59.8863 61.7843 75.3653 54.9796C31.5474 91.9953 -9.81116 76.5163 30.885 37.6012C27.1812 38.4479 23.4416 39.253 19.7832 40.2759C32.8139 29.4929 68.562 9.37554 84.5187 24.5567Z" fill="#690031"/>
</svg>
