<svg width="100" height="100" viewBox="0 0 100 100" fill="none" xmlns="http://www.w3.org/2000/svg">
<path d="M12.8001 63.4186C12.1536 62.458 10.0002 58.8047 10.0002 52.9163C10.0002 50.7061 10.3058 48.184 11.0998 45.377C11.1081 45.3583 11.1102 45.3438 11.1123 45.323L11.4594 43.9631L11.5446 44.0484L11.7109 43.5494C11.9894 42.7114 12.2804 41.8298 12.349 41.624C12.3948 41.4431 12.6483 40.4347 12.85 39.7319C12.9102 39.5219 12.9622 39.3493 13.0162 39.1996L13.0287 39.0998C13.0932 38.5779 13.1763 38.0747 13.274 37.5882C13.3093 37.3283 13.353 37.0788 13.3883 36.8646L13.4049 36.7711L13.4423 36.6858C13.4652 36.6276 13.486 36.5839 13.5026 36.5465C14.5066 32.4421 16.3877 30.0135 17.4457 28.9094L17.4602 28.897L17.4727 28.8845C17.6785 28.6932 18.2605 28.1484 18.9298 27.7326C19.2374 27.3292 20.2372 26.0339 21.1538 25.0046C21.4656 24.6595 21.7649 24.3455 22.0455 24.0898C22.1973 23.7425 22.561 23.0003 23.2469 22.1436C24.1532 21.0104 25.6352 19.6714 27.8967 18.8418C29.6323 17.6649 31.4718 16.6191 33.382 15.7188C33.7458 15.3424 35.1322 13.9722 37.2835 12.5937C39.7861 10.9947 43.3425 9.375 47.5474 9.37292C47.7075 9.37292 47.8696 9.375 48.0297 9.37916L49.5616 9.42282L47.6659 11.974C48.674 11.8992 49.6946 11.8576 50.7256 11.8576C56.1631 11.8576 61.3533 12.9222 66.0778 14.8413L66.1007 14.8496L66.1215 14.858C66.3065 14.9474 66.6328 15.1116 66.9695 15.3175C67.2564 15.5025 67.5474 15.6876 67.803 15.9703C68.1273 16.0057 68.8195 16.1201 69.5948 16.4673L69.6176 16.4777L69.6384 16.4881C74.7538 19.1703 79.2081 22.9025 82.6856 27.3958L82.7168 27.4332L82.7417 27.4789C82.7957 27.5704 82.9329 27.8469 83.0493 28.4291C83.1075 28.4645 83.1907 28.5185 83.2842 28.5768C83.4713 28.7057 83.6812 28.8471 83.887 29.055L83.9327 29.1028L83.9722 29.1548C88.2499 35.3696 90.7504 42.8528 90.7504 50.9016C90.7504 58.5282 88.5035 65.6538 84.6207 71.6669L84.6062 71.6877L84.5916 71.7064C84.5293 71.7875 84.5022 71.8145 84.444 71.8665C84.3941 71.9185 84.3318 71.9705 84.2507 72.0329C84.1343 72.1223 83.9805 72.2262 83.7851 72.3448C83.7685 72.4196 83.7477 72.5194 83.7186 72.6296C83.6542 72.8729 83.5814 73.1557 83.3881 73.4696L83.3777 73.4863L83.3632 73.5071C76.1111 83.4604 64.1884 89.9434 50.7256 89.9434C33.116 89.9434 18.1545 78.8528 12.8001 63.4186Z" fill="#FEFEFE"/>
<path d="M83.3151 29.6106C83.0844 29.3736 82.5439 29.0534 82.5439 29.0534C82.3444 28.9785 82.3049 28.7976 82.3049 28.7976C82.1968 28.124 82.0555 27.8849 82.0555 27.8849C78.6466 23.4831 74.2817 19.8257 69.2682 17.1934C68.3723 16.7921 67.5658 16.7485 67.5658 16.7485C67.385 16.7526 67.2998 16.6112 67.2998 16.6112C67.0046 16.1933 66.1129 15.74 65.7782 15.582C61.1451 13.7003 56.0589 12.6586 50.7253 12.6586C49.1061 12.6586 47.516 12.7563 45.9508 12.9414L48.0065 10.176C39.7796 9.93063 33.8744 16.3617 33.8744 16.3617L33.8785 16.37C31.906 17.287 30.0165 18.3599 28.2373 19.5783L28.2415 19.5679C23.9534 21.1065 22.7146 24.5664 22.7146 24.5664C21.6275 25.4771 19.4741 28.3361 19.4741 28.3361C18.8567 28.6916 18.2165 29.28 18.0232 29.4651C17.0359 30.4922 15.2255 32.8106 14.261 36.8027C14.2361 36.8672 14.2049 36.9316 14.1758 37.0002C14.1384 37.2206 14.0947 37.4722 14.0615 37.7197C13.968 38.1958 13.8848 38.6865 13.8204 39.198L13.8599 39.1439C13.8453 39.2521 13.8329 39.3165 13.8329 39.3165C13.7331 39.3831 13.1157 41.8449 13.1157 41.8449C13.016 42.1547 11.8956 45.5251 11.8956 45.5251L11.8873 45.5189C11.8852 45.5251 11.8852 45.5334 11.8852 45.5397C8.93573 55.8465 12.8538 62.0967 13.5211 63.0573C18.7299 78.2191 33.4192 89.1455 50.7253 89.1455C63.9304 89.1455 75.6119 82.7851 82.7185 73.0376C82.9202 72.7174 83.022 72.0728 83.022 72.0728C83.0283 71.8587 83.1883 71.763 83.1883 71.763C83.737 71.4678 83.9262 71.264 83.9491 71.2349C87.7549 65.3444 89.9519 58.3748 89.9519 50.9C89.9519 43.0176 87.5055 35.6966 83.3151 29.6106" fill="#051821"/>
<path d="M34.2616 22.2032C34.3635 22.0951 34.457 21.9974 34.5381 21.908C34.6711 21.7728 34.721 21.7375 34.7376 21.7479C34.7471 21.7393 34.7568 21.731 34.7667 21.7229C34.8 19.7601 35.2448 18.1841 35.2448 18.1841C38.8095 13.2022 44.6939 11.8798 44.6939 11.8798C45.4256 11.6719 44.9537 11.9942 44.9537 11.9942C41.2477 16.1464 41.6343 19.5751 41.6343 19.5751L45.1699 32.4809C45.1699 32.4809 42.3036 31.4746 40.0961 26.9377C39.0756 35.9865 47.6039 43.32 47.6039 43.32C47.976 43.6402 47.3919 43.295 47.3919 43.295C45.2551 42.2284 42.7962 39.9786 42.1248 39.3466C42.3036 40.0452 46.4565 60.9228 46.4669 60.981C46.4877 61.0788 46.5438 61.2825 46.5875 61.4135L48.0259 57.8414L49.2148 68.3831C43.8085 73.417 38.0488 71.423 37.6933 71.2899C37.8326 71.5186 37.9407 71.6829 37.9407 71.6829C37.9407 71.6829 42.6195 80.871 61.6675 79.8959C61.6675 79.8959 62.1227 79.8917 62.0541 79.9499C62.0603 79.9666 62.0354 79.9895 61.9502 80.0206C61.5906 80.1496 61.0314 80.241 61.0314 80.241C38.0342 86.3831 26.1178 66.78 25.6023 65.9068C25.4568 65.7072 24.3406 64.1332 23.717 62.5467C23.6983 62.5031 23.6713 62.3471 23.7794 62.4656C23.7794 62.4656 26.2217 65.0127 33.1246 65.6427C33.1766 65.6385 33.2057 65.6302 33.2057 65.6302C27.8659 59.6774 25.5982 55.3629 25.2635 54.7038C25.2635 54.7017 25.2614 54.7017 25.2552 54.7017C25.2552 54.7017 24.615 53.737 23.8542 51.0028C23.8542 51.0028 23.875 50.8635 23.9394 51.0028C24.1993 51.5434 25.966 54.1507 28.1153 54.735H28.1194C26.2965 51.7908 25.1637 47.1292 25.0182 46.4492C27.5042 49.932 31.9066 50.1836 31.9066 50.1836C31.9004 50.169 31.8941 50.1607 31.8837 50.1461C31.8941 50.1628 31.8983 50.1711 31.8983 50.1711C24.6545 42.9457 26.2155 35.0758 29.1546 29.3953C30.886 26.0415 33.0976 23.4487 34.2616 22.2032Z" fill="#FEFEFE"/>
<path d="M55.9345 70.0461L51.1829 75.0488L51.1933 75.0384L57.059 70.5348L54.0222 60.0616L55.3484 47.4656L53.0308 59.4961L55.9345 70.0461ZM56.99 39.225C56.5764 41.377 55.8988 43.581 54.7265 44.5624C54.8117 44.5187 54.9177 44.4647 55.0383 44.3919C55.3916 44.184 55.8593 43.8513 56.3311 43.3626C57.2685 42.3875 58.2122 40.7927 58.2122 38.2852C58.2122 37.1665 58.0231 35.8607 57.5616 34.3491C57.5159 35.2141 57.3746 37.1977 56.99 39.2249V39.225ZM56.9403 23.1535C58.597 20.6501 61.3178 20.4318 62.4714 20.4235C61.4737 20.1303 60.5487 20.0242 59.7215 20.0242C57.9734 20.0242 56.6722 20.5045 56.1359 20.7436C56.0569 20.7769 55.9946 20.8081 55.9489 20.831C56.375 21.4256 56.7948 22.6919 56.9403 23.1535H56.9403ZM56.9133 23.3469L56.9944 23.324L56.9133 23.3469ZM52.7811 29.7669L52.8539 29.7253L52.7811 29.7669L52.7811 29.7669ZM54.8472 28.4092C54.8888 28.4133 54.92 28.4466 54.9221 28.4882C54.9262 28.7211 54.9283 28.9498 54.9283 29.1868C54.9262 34.572 53.4962 40.4729 52.9516 42.5251C55.0156 37.8032 55.5706 33.3952 55.5706 30.0102C55.5706 28.0266 55.3793 26.3965 55.1881 25.2612C55.0883 24.6707 54.9886 24.2174 54.9179 23.9159C54.3941 27.9705 52.8518 29.8085 52.8435 29.8189C52.8269 29.8418 52.7978 29.8522 52.7728 29.8501C52.7437 29.8459 52.7209 29.8293 52.7063 29.8043C50.1705 25.1219 46.429 22.265 44.7184 21.1318C44.4934 20.9812 44.2647 20.8363 44.0325 20.6973C48.8589 31.187 50.2702 39.2815 50.634 41.9471C50.6444 41.6415 50.6506 41.3296 50.6506 41.0135C50.6506 36.2209 49.4263 30.4427 48.8111 27.8561C48.6074 26.9932 48.4723 26.4879 48.4723 26.4879V26.4859C48.464 26.4505 48.4764 26.4152 48.5076 26.3965C48.5346 26.3757 48.5741 26.3777 48.6053 26.4006C50.7732 28.0848 52.2968 32.8733 52.565 33.7611C52.9703 33.26 53.5024 32.0042 53.9327 30.8502C54.4003 29.6047 54.7579 28.4674 54.7579 28.4653C54.7703 28.4279 54.8015 28.4071 54.8368 28.4071C54.841 28.4071 54.8451 28.4092 54.8472 28.4092H54.8472Z" fill="#C4CDD3"/>
<path d="M14.2422 50.1634C14.2443 55.1515 15.1027 60.3724 19.3929 67.0343L19.3991 67.0426C23.4523 75.5862 30.9247 80.1834 34.4084 81.9445C35.5683 82.533 36.2812 82.8053 36.2874 82.8074C41.8227 85.4169 47.0295 86.3775 51.6938 86.3775C61.4651 86.3775 68.871 82.167 71.9598 80.0587C72.9928 79.358 73.5416 78.8922 73.5416 78.8922L73.5956 78.9546L73.5416 78.8901C73.7473 78.7217 73.9012 78.5866 74.0134 78.4868C73.9531 78.52 73.8908 78.5575 73.8305 78.5949C73.6081 78.7259 73.4044 78.8589 73.4044 78.8589C65.8114 83.3168 58.8128 84.6787 53.103 84.6787C44.1548 84.6787 38.3639 81.3416 38.3598 81.3395C19.3887 71.3862 19.1102 54.1368 19.1102 54.1243C19.1102 54.0869 19.1351 54.0536 19.1746 54.0432C19.212 54.0349 19.2495 54.0515 19.2682 54.0869C21.7146 58.8296 24.6828 60.4473 26.0048 60.9609C26.1564 61.0203 26.3103 61.0738 26.4662 61.121C20.9497 54.1659 19.37 48.3149 19.37 43.9007C19.37 38.0581 22.1366 34.75 22.1428 34.7417C22.1657 34.7126 22.2073 34.7022 22.2405 34.7188C22.2779 34.7354 22.2946 34.7749 22.2883 34.8103C21.8934 36.8687 21.7417 38.6881 21.7396 40.2621C21.7417 44.1107 22.6438 46.5081 23.0927 47.4604C23.1052 47.4895 23.1177 47.5165 23.1322 47.5415C22.9702 46.1946 22.889 44.8393 22.889 43.4828C22.889 30.4751 30.5091 22.4596 32.1179 20.9147C30.9123 21.4179 29.4511 22.7112 28.2601 23.9317C26.9402 25.2811 25.9445 26.5349 25.9425 26.537C25.9217 26.564 25.8843 26.5744 25.851 26.564C25.8198 26.5536 25.7949 26.5204 25.7969 26.485C25.8094 25.4516 26.3977 24.1521 26.7177 23.5242C25.7367 24.4162 24.9239 25.8134 24.344 27.0339C23.7018 28.3875 23.3484 29.5186 23.3484 29.5228L23.3318 29.5519C20.3137 32.9681 18.8525 36.6171 18.312 38.2244C18.1312 38.7629 18.0543 39.0665 18.0543 39.0665C17.9857 39.343 17.9462 39.4803 17.9088 39.5489C17.8922 39.5697 17.8922 39.6071 17.8132 39.6175C17.7508 39.6154 17.7342 39.5697 17.7259 39.5551C17.7176 39.5364 17.7155 39.5218 17.7134 39.5052C17.7093 39.4719 17.7072 39.4324 17.7072 39.3888C17.7072 39.2287 17.7259 39.0104 17.7259 39.0104C17.7841 36.5548 18.8047 33.7936 19.2162 32.7726C16.3229 35.8852 15.6141 40.104 15.6141 43.4766C15.6141 45.0713 15.7741 46.4769 15.9321 47.477C16.0901 48.4813 16.2459 49.0822 16.2459 49.0843L16.248 49.1051C16.2563 51.0887 16.6471 53.538 17.0337 55.4925C17.4224 57.447 17.8049 58.8983 17.8049 58.8962C17.9337 59.2746 17.9815 59.4493 17.9857 59.5428C17.9836 59.5616 17.9836 59.5761 17.9753 59.601C17.967 59.6239 17.9275 59.6593 17.888 59.6572C17.8236 59.6489 17.8153 59.6239 17.7945 59.6073C17.7743 59.5847 17.7563 59.5603 17.7404 59.5345C17.703 59.4805 17.6614 59.4098 17.622 59.3391C17.572 59.2498 17.5235 59.1596 17.4765 59.0688C15.4561 55.9728 14.4709 50.8662 14.2464 49.5791C14.2443 49.7746 14.2422 49.9679 14.2422 50.1634" fill="#C4CDD3"/>
<path d="M58.7438 25.7993L58.7022 25.7618L58.723 25.7078C59.6501 23.2293 64.0088 21.0253 64.8548 20.6116C62.8261 19.4721 60.8827 19.1311 59.2676 19.1311C58.0454 19.1311 57.0165 19.3287 56.2932 19.5241C55.5698 19.7216 55.1562 19.9171 55.1562 19.9171L55.098 19.9462L55.0585 19.8942C54.3082 18.9565 53.3312 18.0229 52.5414 17.3264C51.7848 16.6589 51.2049 16.2077 51.155 16.1703C51.0448 16.0996 50.9741 16.0559 50.9658 15.952C50.9658 15.8917 51.0095 15.8501 51.0427 15.8335C51.0781 15.8148 51.1134 15.8044 51.155 15.796C51.236 15.7815 51.3316 15.7773 51.4169 15.7773C51.5208 15.7773 51.6102 15.7856 51.631 15.7877C69.0119 15.7898 78.2511 28.2112 78.2532 28.2153C78.3737 28.3546 78.434 28.4898 78.434 28.6187C78.4195 28.993 77.9955 29.1718 77.6109 29.2924C77.2222 29.4109 76.8356 29.4546 76.8356 29.4546C75.1561 29.6874 73.5993 29.7893 72.1609 29.7893C63.1254 29.7893 58.7542 25.8076 58.7438 25.7993H58.7438ZM52.8197 76.0218C52.7906 76.0114 52.7698 75.9886 52.7636 75.9574C52.7573 75.9283 52.7698 75.8971 52.7927 75.8763L58.623 71.1834L55.6652 60.2238V60.1926L56.4821 52.8446C56.4842 52.8175 56.4967 52.7946 56.5175 52.7822C56.5383 52.7676 56.5632 52.7635 56.5861 52.7718C57.9143 53.1793 58.5357 54.9841 58.8559 56.6683C59.0824 57.8763 59.1469 59.0324 59.1655 59.5979C60.7141 56.2441 61.2192 53.5515 61.2192 51.4639C61.2192 48.5093 60.2069 46.7628 59.706 46.0766C59.5397 45.85 59.4316 45.7419 59.4316 45.7419C59.4004 45.7107 59.4004 45.6587 59.4316 45.6254C59.4628 45.5922 59.5147 45.5922 59.548 45.6234C66.4925 52.2042 67.8872 61.4173 67.8872 67.7672C67.8872 72.0567 67.2512 75.0467 67.2512 75.0487L67.2491 75.0591C67.0204 75.737 66.32 75.9075 66.3075 75.9116C63.4806 76.5375 60.9885 76.7433 58.9411 76.7433C55.0999 76.7433 52.8259 76.0239 52.8197 76.0218" fill="#007DC5"/>
<path d="M69.1487 75.226C69.0406 75.1407 68.972 74.9952 68.9741 74.7914C68.9741 74.6999 68.9865 74.5918 69.0156 74.4691C69.0156 74.4671 69.2422 73.5979 69.4688 72.0988C69.6912 70.5976 69.9177 68.4768 69.9177 65.9817C69.9177 59.3655 68.3318 50.1358 60.9633 42.9583C60.9342 42.9416 60.8303 42.8689 60.7637 42.794C60.7388 42.7649 60.7118 42.7379 60.7076 42.6776C60.7055 42.6381 60.7367 42.5902 60.77 42.5778C60.8032 42.5611 60.8323 42.5591 60.8677 42.5591C60.9404 42.5591 61.0402 42.5757 61.2002 42.6152C61.2065 42.6193 63.1645 43.214 64.5405 44.7589C64.528 44.6632 64.5114 44.5426 64.4927 44.3992C64.4303 44.0041 64.3264 43.4531 64.1414 42.8106C63.7756 41.5236 63.0917 39.8768 61.8446 38.4401C61.8425 38.438 61.67 38.2571 61.5765 38.1324C61.5474 38.0824 61.5203 38.0658 61.512 37.9951C61.512 37.9806 61.5162 37.9494 61.539 37.9265C61.5619 37.9057 61.591 37.9016 61.6056 37.9016C61.6658 37.9057 61.6908 37.9265 61.7511 37.9618C61.8072 37.9972 61.882 38.0492 61.9839 38.124C62.4245 38.3382 80.9341 47.2956 81.5827 65.387C81.5827 65.3912 81.591 65.4931 81.591 65.6552C81.5889 66.096 81.5203 66.9797 80.9362 67.4808C80.7575 67.7054 76.3717 73.1634 69.9177 75.2592C69.9136 75.2592 69.7223 75.3341 69.5083 75.3341C69.3877 75.3341 69.2547 75.3112 69.1487 75.226Z" fill="#007DC5"/>
<path d="M83.0714 62.4906C83.0215 62.3617 82.9945 62.1808 82.9883 61.9376C82.5663 44.5302 63.4893 33.5747 58.719 31.1108C58.0393 30.7594 57.6547 30.5806 57.6547 30.5806L57.3201 30.4267L57.688 30.4225H57.7337C60.2342 30.4246 61.7661 31.9362 62.2213 32.4581V32.456C62.2213 31.9986 62.1299 31.5183 62.0405 31.1523C61.947 30.7843 61.8555 30.5369 61.8555 30.5369L61.7952 30.3664L61.9636 30.4288C63.9611 31.1898 66.5344 31.4414 69.0577 31.4414C71.4959 31.4414 73.8904 31.2064 75.6717 30.9715C77.4551 30.7344 78.6233 30.4995 78.6254 30.4995L78.6295 30.4974H78.6337C78.7272 30.4891 78.8166 30.4849 78.8997 30.4849C79.9141 30.4828 80.2383 31.0567 80.282 31.1544C82.6661 33.8159 85.6197 39.9829 86.1144 47.387C86.1747 48.3185 86.2038 49.2188 86.2038 50.09C86.1976 56.5877 84.6449 61.3242 83.7303 62.447C83.5973 62.6092 83.4767 62.7069 83.3333 62.711C83.2107 62.711 83.1192 62.6175 83.0714 62.4906Z" fill="#007DC5"/>
<path d="M42.4595 13.6997C42.4699 13.6852 42.4865 13.6706 42.4928 13.654L42.4865 13.6561C42.2745 13.7164 38.4749 14.8371 37.3483 20.6361C37.3483 20.6361 37.34 20.7421 37.4024 20.6444C37.7433 20.0809 38.9301 18.2824 40.0234 18.8147C40.0234 18.8147 40.0297 18.7689 40.038 18.6962C40.0983 18.2055 40.4537 16.1907 42.4595 13.6998V13.6997ZM39.5445 66.1069C38.7235 64.456 33.4481 52.9267 33.4481 52.9267C31.806 53.4506 29.769 52.1137 29.769 52.1137V52.1199C32.3672 59.0147 38.4762 65.0445 39.451 66.1402C39.4593 66.1485 39.4614 66.1485 39.4656 66.1548C39.6318 66.3357 39.6318 66.2712 39.6318 66.2712C39.6069 66.2359 39.584 66.1776 39.5445 66.1069ZM34.3147 28.563C29.5506 39.4519 40.2697 43.941 40.4111 43.9972L40.4152 43.9992L39.8478 41.4917L39.5235 40.0549C39.2513 39.9676 39.006 39.8699 38.7607 39.7597C38.6776 39.7243 38.5986 39.6848 38.5175 39.6474C38.4177 39.6017 38.318 39.5517 38.2244 39.5039C33.5414 37.013 33.9946 31.0477 34.2835 29.1119C34.2835 29.0952 34.2835 29.0849 34.2856 29.0703C34.298 29.0142 34.3064 28.9601 34.3147 28.9081C34.3438 28.7272 34.3666 28.6025 34.3812 28.538C34.3874 28.5089 34.3916 28.4881 34.3916 28.4881V28.4819C34.404 28.3384 34.3354 28.5006 34.3147 28.563Z" fill="#051821"/>
<path d="M41.3652 59.2154L40.5941 45.5319L45.1939 60.7894C45.1939 60.7894 43.6849 57.184 41.3652 59.2154ZM41.6433 19.8743L42.6618 28.0561C42.6618 28.0561 43.1607 30.2913 40.0969 26.9396C42.3043 31.4744 45.1707 32.4828 45.1707 32.4828L41.662 19.6768C41.6558 19.6976 41.6309 19.7204 41.6433 19.8743V19.8743ZM36.7554 34.7985C36.4685 34.1248 36.3542 33.5093 36.3542 32.9583C36.3542 30.9706 37.8175 29.8519 37.8238 29.8457L37.8674 29.8124C37.8674 29.8312 37.7926 28.5503 37.9131 26.5002C36.7367 28.2322 34.2445 32.3346 37.2272 35.5428C37.1794 35.4784 37.1378 35.4181 37.0963 35.3599C36.9425 35.1374 36.8365 34.9565 36.7554 34.7985Z" fill="#C4CDD3"/>
<path d="M39.8733 36.4635C39.3661 35.5757 38.0732 32.7417 37.8716 29.8723C37.8695 29.8536 37.8674 29.8308 37.8674 29.8141L37.8238 29.8453C37.8175 29.8516 36.3542 30.9681 36.3542 32.9579C36.3542 33.5089 36.4706 34.1265 36.7554 34.7981C36.8365 34.9561 36.9445 35.137 37.0963 35.3595C37.1379 35.4177 37.1815 35.478 37.2293 35.5466C37.2834 35.6173 37.3478 35.6818 37.4185 35.7566C37.9194 36.3055 38.7675 36.8711 40.1601 36.9314C40.1601 36.9314 40.0458 36.765 39.8733 36.4635Z" fill="#051821"/>
<path d="M44.0342 62.4499C44.5102 62.4561 44.8719 62.8886 45.1691 63.4937C45.4664 64.1008 45.7054 64.9055 45.8904 65.706C46.1211 66.6998 46.2687 67.6979 46.3477 68.305C46.3456 68.5795 46.3435 68.7812 46.3373 68.8997V68.9101C46.4371 68.2489 47.4057 61.8531 44.1569 60.9528C44.1569 60.9528 41.8954 60.3748 42.0409 65.0884C42.0555 64.9782 42.068 64.8847 42.0763 64.7973C42.8183 63.1298 43.4398 62.4623 44.0342 62.4499Z" fill="#C4CDD3"/>
<path d="M46.336 68.9091V68.9112V68.9091ZM46.3483 68.306C46.3358 68.1064 46.1197 66.7008 45.889 65.7048C45.704 64.9043 45.467 64.1017 45.1677 63.4946C44.8725 62.8895 44.5088 62.4571 44.0349 62.4508C43.4383 62.4612 42.8189 63.1307 42.0769 64.7983C42.0311 64.9189 42.0415 64.9355 42.0415 65.0873L43.1598 67.5533C43.1598 67.5533 43.8042 60.9496 46.3317 68.8881C46.3338 68.9048 46.3338 68.9172 46.3358 68.9214V68.9069V68.911V68.8985C46.3442 68.7821 46.3712 68.6365 46.3483 68.3059" fill="#051821"/>
</svg>
