<svg width="100" height="100" viewBox="0 0 100 100" fill="none" xmlns="http://www.w3.org/2000/svg">
<mask id="mask0" mask-type="alpha" maskUnits="userSpaceOnUse" x="3" y="18" width="94" height="63">
<path d="M96.4199 80.19V18.678H3.84668V80.19L96.4199 80.19Z" fill="white"/>
</mask>
<g mask="url(#mask0)">
<path d="M37.3878 52.1867L52.0054 18.677H96.4202L88.3727 37.133H50.8583C49.2296 40.8591 41.1637 59.361 40.2301 61.5066V62.3681C40.2301 70.1327 33.676 80.19 22.0338 80.19C12.0066 80.19 3.84668 72.0141 3.84668 61.9753C3.84668 51.9295 12.0066 43.7628 22.0338 43.7628C28.3653 43.7628 34.2954 47.1811 37.3878 52.1868" fill="#FEFEFE"/>
</g>
<path d="M4.93457 62.7869C5.14563 67.3032 7.10015 71.3486 10.126 74.296C13.3468 71.4474 15.455 67.3629 15.6798 62.7869H4.93457Z" fill="#0B223E"/>
<path d="M17.1893 62.7869C16.9645 67.7489 14.7186 72.1894 11.2615 75.3022C14.0166 77.5443 17.4875 78.9548 21.2887 79.1202V62.7869H17.1893Z" fill="#F9A11A"/>
<path d="M4.92798 61.2859H15.6847C15.492 56.657 13.3815 52.5197 10.1263 49.655C7.0729 52.6276 5.1115 56.7259 4.92798 61.2859Z" fill="#0B223E"/>
<path d="M11.262 48.6491C14.7512 51.7848 16.9994 56.2713 17.1898 61.2862H21.2892V44.8242C17.488 44.9896 14.0217 46.4001 11.262 48.6491" fill="#F9A11A"/>
<path d="M39.1404 62.7869H28.3975C28.6223 67.3629 30.7282 71.4474 33.949 74.296C36.9794 71.3486 38.9294 67.3032 39.1404 62.7869Z" fill="#0B223E"/>
<path d="M26.8918 62.787H22.79V79.1203C26.589 78.9549 30.0575 77.5444 32.8196 75.3023C29.3625 72.1895 27.1143 67.749 26.8918 62.787H26.8918ZM32.8196 48.6491C30.0575 46.4001 26.589 44.9896 22.79 44.8242V61.2862H26.8872C27.0776 56.2713 29.3326 51.7848 32.8196 48.6491" fill="#2B5134"/>
<path d="M52.7133 19.7607L37.5039 54.6442C36.6161 52.7696 35.414 51.0812 33.9504 49.6569C30.6975 52.5215 28.5847 56.6589 28.3943 61.2878H39.1464L50.144 36.0504H82.2743L89.3743 19.7607H52.7133H52.7133Z" fill="#0B223E"/>
<path d="M87.6647 36.0489L94.7671 19.7593H91.7389L84.6389 36.0489H87.6647Z" fill="#2B5134"/>
</svg>
